<?xml version="1.0" encoding="utf-8"?>
<!-- Generator: Adobe Illustrator 25.4.1, SVG Export Plug-In . SVG Version: 6.00 Build 0)  -->
<svg version="1.1" xmlns="http://www.w3.org/2000/svg" xmlns:xlink="http://www.w3.org/1999/xlink" x="0px" y="0px"
	 viewBox="0 0 24 24" style="enable-background:new 0 0 24 24;" xml:space="preserve">
<style type="text/css">
	.st0{fill:#FDF0E9;}
	.st1{opacity:0.1;}
	.st2{fill:#0072C6;}
	.st3{fill:#FFFFFF;}
	.st4{fill:#606060;}
	.st5{fill:#ED702D;}
	.st6{fill:none;stroke:#FFFFFF;stroke-width:1.5;stroke-linecap:round;}
</style>
<g id="BG">
</g>
<g id="Icons">
	<g>
		<circle class="st2" cx="18.8574" cy="7.5012" r="3"/>
	</g>
	<g>
		<path class="st2" d="M16.9521,20.3037H5.7607c-2.0711,0-3.75-1.6789-3.75-3.75V9.8691c0-2.0711,1.6789-3.75,3.75-3.75h1.1035
			c0.0654,0,0.1182-0.0532,0.1182-0.1182c0-1.2407,1.0098-2.25,2.25-2.25h4.248c1.2139,0,1.707,0.9873,2.0664,1.708l0.1016,0.2002
			l-1.3359,0.6836l-0.1074-0.2139c-0.334-0.6694-0.4775-0.8779-0.7246-0.8779h-4.248c-0.4201,0-0.7462,0.345-0.7501,0.7651
			C8.4742,6.9012,7.7518,7.6191,6.8643,7.6191H5.7607c-1.2426,0-2.25,1.0074-2.25,2.25v6.6846c0,1.2426,1.0074,2.25,2.25,2.25
			h11.1914c1.2426,0,2.25-1.0074,2.25-2.25v-4.8652c0-0.1381,0.1119-0.25,0.25-0.25h1c0.1381,0,0.25,0.1119,0.25,0.25v4.8652
			C20.7021,18.6248,19.0232,20.3037,16.9521,20.3037z"/>
	</g>
	<g>
		<path class="st2" d="M11.3564,16.751c-2.2061,0-4-1.7944-4-4s1.7939-4,4-4s4,1.7944,4,4S13.5625,16.751,11.3564,16.751z
			 M11.3564,10.251c-1.3789,0-2.5,1.1216-2.5,2.5s1.1211,2.5,2.5,2.5s2.5-1.1216,2.5-2.5S12.7354,10.251,11.3564,10.251z"/>
	</g>
	<polygon class="st3" points="20.8574,7.001 19.3574,7.001 19.3574,5.501 18.3574,5.501 18.3574,7.001 16.8574,7.001 16.8574,8.001 
		18.3574,8.001 18.3574,9.501 19.3574,9.501 19.3574,8.001 20.8574,8.001 	"/>
</g>
</svg>
