<?xml version="1.0" encoding="utf-8"?>
<!-- Generator: Adobe Illustrator 25.4.0, SVG Export Plug-In . SVG Version: 6.00 Build 0)  -->
<svg version="1.1" xmlns="http://www.w3.org/2000/svg" xmlns:xlink="http://www.w3.org/1999/xlink" x="0px" y="0px"
	 viewBox="0 0 24 24" enable-background="new 0 0 24 24" xml:space="preserve">
<g id="Layer_3">
</g>
<g id="Layer_4" display="none">
</g>
<g id="Layer_1">
	<path d="M20.517,11.183H7.619l5.896-5.896c0.195-0.195,0.195-0.512,0-0.707l-0.353-0.353c-0.195-0.195-0.512-0.195-0.707,0
		l-7.353,7.353c-0.195,0.195-0.195,0.512,0,0.707l7.353,7.353c0.195,0.195,0.512,0.195,0.707,0l0.353-0.353
		c0.195-0.195,0.195-0.512,0-0.707l-5.896-5.896h12.897c0.276,0,0.5-0.224,0.5-0.5v-0.5C21.017,11.407,20.793,11.183,20.517,11.183z
		"/>
</g>
</svg>
