<svg xmlns="http://www.w3.org/2000/svg" width="13.227" height="17.006" viewBox="0 0 13.227 17.006">
  <g id="Icon_feather-bookmark" data-name="Icon feather-bookmark" transform="translate(-7.5 -4.5)" fill="none" stroke-linecap="round" stroke-linejoin="round">
    <path d="M20.727,21.506l-6.613-4.724L7.5,21.506V6.39A1.89,1.89,0,0,1,9.39,4.5h9.448a1.89,1.89,0,0,1,1.89,1.89Z" stroke="none"/>
    <path d="M 19.22677993774414 18.59107208251953 L 19.22677993774414 6.389538764953613 C 19.22677993774414 6.17474889755249 19.05203056335449 5.999998569488525 18.83724021911621 5.999998569488525 L 9.38953971862793 5.999998569488525 C 9.174750328063965 5.999998569488525 9 6.17474889755249 9 6.389538764953613 L 9 18.59107208251953 L 13.241530418396 15.56140899658203 C 13.76307964324951 15.18887901306152 14.46370029449463 15.18887901306152 14.98524951934814 15.56140899658203 L 19.22677993774414 18.59107208251953 M 20.72677993774414 21.505859375 L 14.11338996887207 16.78200912475586 L 7.5 21.505859375 L 7.5 6.389538764953613 C 7.5 5.345978736877441 8.345979690551758 4.499998569488525 9.38953971862793 4.499998569488525 L 18.83724021911621 4.499998569488525 C 19.88080024719238 4.499998569488525 20.72677993774414 5.345978736877441 20.72677993774414 6.389538764953613 L 20.72677993774414 21.505859375 Z" stroke="none" fill="#0072c6"/>
  </g>
</svg>
