<?xml version="1.0" encoding="utf-8"?>
<!-- Generator: Adobe Illustrator 25.4.1, SVG Export Plug-In . SVG Version: 6.00 Build 0)  -->
<svg version="1.1" id="Layer_1" xmlns="http://www.w3.org/2000/svg" xmlns:xlink="http://www.w3.org/1999/xlink" x="0px" y="0px"
	 viewBox="0 0 20 20" style="enable-background:new 0 0 20 20;" xml:space="preserve">
<style type="text/css">
	.st0{fill:#606060;}
</style>
<path class="st0" d="M10,2c-4.4,0-8,3.6-8,8s3.6,8,8,8s8-3.6,8-8S14.4,2,10,2z M3,10c0-0.3,0-0.7,0.1-1c1.2-0.5,2.5-0.8,3.7-1
	c-0.1,0.6-0.1,1.3-0.1,2c0,0.7,0,1.4,0.1,2c-1.3-0.2-2.5-0.6-3.7-1C3,10.6,3,10.3,3,10z M7.7,9.9c0-0.7,0.1-1.4,0.1-2.1
	C8.5,7.7,9.2,7.7,10,7.7c0,0,0.1,0,0.1,0c0.7,0,1.4,0.1,2,0.1c0.1,0.7,0.1,1.4,0.1,2.1c0,0.7,0,1.5-0.1,2.2
	c-0.7,0.1-1.4,0.1-2.1,0.1c-0.8,0-1.5-0.1-2.2-0.1C7.7,11.4,7.7,10.7,7.7,9.9z M13.1,8c1.3,0.2,2.6,0.6,3.8,1.1c0,0.3,0.1,0.6,0.1,1
	c0,0.3,0,0.6-0.1,0.9c-1.2,0.5-2.5,0.8-3.8,1.1c0.1-0.7,0.1-1.3,0.1-2C13.2,9.3,13.2,8.6,13.1,8z M16.7,7.9
	c-1.2-0.4-2.4-0.8-3.7-0.9c-0.2-1.2-0.5-2.5-0.9-3.6C14.2,4,16,5.7,16.7,7.9z M10.9,3.1c0.5,1.2,0.8,2.5,1.1,3.7
	c-0.6-0.1-1.2-0.1-1.9-0.1c0,0-0.1,0-0.1,0c-0.7,0-1.3,0-2,0.1C8.2,5.5,8.6,4.3,9,3.1C9.4,3,9.7,3,10,3C10.3,3,10.6,3,10.9,3.1z
	 M7.9,3.3C7.5,4.5,7.2,5.7,7,6.9C5.7,7.1,4.5,7.4,3.3,7.9C4,5.7,5.7,4,7.9,3.3z M3.3,12.1c1.2,0.4,2.4,0.7,3.6,0.9
	c0.2,1.2,0.5,2.5,0.9,3.7C5.7,16,4,14.2,3.3,12.1z M9,16.9c-0.5-1.2-0.8-2.5-1.1-3.8c0.7,0.1,1.3,0.1,2,0.1c0,0,0.1,0,0.1,0
	c0.6,0,1.3,0,1.9-0.1c-0.2,1.3-0.6,2.6-1.1,3.8C10.6,17,10.3,17,10,17C9.7,17,9.3,17,9,16.9z M12.1,16.7c0.4-1.2,0.8-2.4,0.9-3.7
	c1.3-0.2,2.5-0.5,3.7-1C16,14.3,14.3,16,12.1,16.7z"/>
</svg>
