<?xml version="1.0" encoding="utf-8"?>
<!-- Generator: Adobe Illustrator 25.4.0, SVG Export Plug-In . SVG Version: 6.00 Build 0)  -->
<svg version="1.1" xmlns="http://www.w3.org/2000/svg" xmlns:xlink="http://www.w3.org/1999/xlink" x="0px" y="0px"
	 viewBox="0 0 24 24" enable-background="new 0 0 24 24" xml:space="preserve">
<g id="Layer_3">
</g>
<g id="Layer_4" display="none">
</g>
<g id="Layer_1">
	<path d="M18.5,2.821h-0.381v-0.83c0-0.276-0.224-0.5-0.5-0.5h-0.57c-0.276,0-0.5,0.224-0.5,0.5v0.83H7.274V1.967
		c0-0.276-0.224-0.5-0.5-0.5h-0.57c-0.276,0-0.5,0.224-0.5,0.5v0.854H5.5c-2.087,0-3.785,1.698-3.785,3.785v12
		c0,2.087,1.698,3.785,3.785,3.785h13c2.087,0,3.785-1.698,3.785-3.785v-12C22.285,4.519,20.587,2.821,18.5,2.821z M5.5,4.392h0.203
		v0.62c0,0.276,0.224,0.5,0.5,0.5h0.57c0.276,0,0.5-0.224,0.5-0.5v-0.62h9.275v0.645c0,0.276,0.224,0.5,0.5,0.5h0.57
		c0.276,0,0.5-0.224,0.5-0.5V4.392H18.5c1.221,0,2.215,0.994,2.215,2.215v0.366H3.285V6.606C3.285,5.386,4.279,4.392,5.5,4.392z
		 M18.5,20.821h-13c-1.221,0-2.215-0.994-2.215-2.215V8.473h17.43v10.134C20.715,19.827,19.721,20.821,18.5,20.821z"/>
</g>
</svg>
