<?xml version="1.0" encoding="utf-8"?>
<!-- Generator: Adobe Illustrator 25.4.1, SVG Export Plug-In . SVG Version: 6.00 Build 0)  -->
<svg version="1.1" id="Layer_1" xmlns="http://www.w3.org/2000/svg" xmlns:xlink="http://www.w3.org/1999/xlink" x="0px" y="0px"
	 viewBox="0 0 24 24" style="enable-background:new 0 0 24 24;" xml:space="preserve">
<style type="text/css">
	.st0{fill:#0072C6;}
</style>
<path class="st0" d="M18.4962,2.8168h-0.38v-0.83c0-0.27-0.22-0.5-0.5-0.5h-0.57c-0.27,0-0.5,0.23-0.5,0.5v0.83h-9.27v-0.85
	c0-0.28-0.23-0.5-0.5-0.5h-0.57c-0.28,0-0.5,0.22-0.5,0.5v0.85h-0.21c-2.08,0-3.78,1.7-3.78,3.79v12c0,2.09,1.7,3.78,3.78,3.78h13
	c2.09,0,3.79-1.69,3.79-3.78v-12C22.2862,4.5168,20.5862,2.8168,18.4962,2.8168z M20.7162,18.6068c0,1.22-1,2.21-2.22,2.21h-13
	c-1.22,0-2.21-0.99-2.21-2.21v-10.13h17.43V18.6068z"/>
</svg>
