<?xml version="1.0" encoding="utf-8"?>
<!-- Generator: Adobe Illustrator 25.4.1, SVG Export Plug-In . SVG Version: 6.00 Build 0)  -->
<svg version="1.1" id="Layer_1" xmlns="http://www.w3.org/2000/svg" xmlns:xlink="http://www.w3.org/1999/xlink" x="0px" y="0px"
	 viewBox="0 0 50 50" style="enable-background:new 0 0 50 50;" xml:space="preserve">
<style type="text/css">
	.st0{fill:#D53D3D;}
</style>
<g id="BG">
</g>
<g id="Icons">
	<g>
		<path class="st0" d="M25,30.377c-2.4463,0-4.4365-1.9697-4.4365-4.3916S22.5537,21.5938,25,21.5938s4.4365,1.9697,4.4365,4.3916
			S27.4463,30.377,25,30.377z M25,23.0938c-1.6191,0-2.9365,1.2969-2.9365,2.8916S23.3809,28.877,25,28.877
			s2.9365-1.2969,2.9365-2.8916S26.6191,23.0938,25,23.0938z"/>
	</g>
	<g>
		<path class="st0" d="M31.835,34.8311h-13.67c-2.4346,0-4.415-1.96-4.415-4.3701v-8.0654c0-2.4092,1.9805-4.3691,4.415-4.3691
			h1.3477c0.1709,0,0.3105-0.1338,0.3105-0.2979c0-1.4111,1.1582-2.5596,2.582-2.5596h5.1895c1.4238,0,2.582,1.1484,2.582,2.5596
			c0,0.1641,0.1396,0.2979,0.3105,0.2979h1.3477c2.4346,0,4.415,1.96,4.415,4.3691v8.0654
			C36.25,32.8711,34.2695,34.8311,31.835,34.8311z M18.165,19.5264c-1.6074,0-2.915,1.2871-2.915,2.8691v8.0654
			c0,1.583,1.3076,2.8701,2.915,2.8701h13.67c1.6074,0,2.915-1.2871,2.915-2.8701v-8.0654c0-1.582-1.3076-2.8691-2.915-2.8691
			h-1.3477c-0.998,0-1.8105-0.8066-1.8105-1.7979c0-0.584-0.4854-1.0596-1.082-1.0596h-5.1895c-0.5967,0-1.082,0.4756-1.082,1.0596
			c0,0.9912-0.8125,1.7979-1.8105,1.7979H18.165z"/>
	</g>
</g>
</svg>
