<?xml version="1.0" encoding="utf-8"?>
<!-- Generator: Adobe Illustrator 25.4.1, SVG Export Plug-In . SVG Version: 6.00 Build 0)  -->
<svg version="1.1" id="Layer_1" xmlns="http://www.w3.org/2000/svg" xmlns:xlink="http://www.w3.org/1999/xlink" x="0px" y="0px"
	 viewBox="0 0 20 20" style="enable-background:new 0 0 20 20;" xml:space="preserve">
<style type="text/css">
	.st0{fill:#606160;}
</style>
<g id="Layer_1_00000073714313208136297580000015258177563910442893_">
	<g>
		<path class="st0" d="M17.005,17H2.996C2.447,17,2,16.554,2,16.007v-7.93c0-0.548,0.447-0.994,0.996-0.994h14.009
			C17.554,7.082,18,7.529,18,8.076v7.93C18,16.554,17.554,17,17.005,17z M17.005,16.002v0.499V16.002L17.005,16.002L17.005,16.002z
			 M17,8.076L2.996,8.08L3,16.007l14-0.005V8.076z"/>
	</g>
	<g>
		<path class="st0" d="M15.783,5.995H4.218c-0.138,0-0.25-0.112-0.25-0.25V5.229c0-0.138,0.112-0.25,0.25-0.25h11.564
			c0.138,0,0.25,0.112,0.25,0.25v0.516C16.033,5.883,15.921,5.995,15.783,5.995z"/>
	</g>
	<g>
		<path class="st0" d="M13.742,4.015H6.259c-0.138,0-0.25-0.112-0.25-0.25V3.25C6.009,3.112,6.121,3,6.259,3h7.483
			c0.138,0,0.25,0.112,0.25,0.25v0.516C13.992,3.903,13.88,4.015,13.742,4.015z"/>
	</g>
</g>
</svg>
