<?xml version="1.0" encoding="utf-8"?>
<!-- Generator: Adobe Illustrator 25.4.1, SVG Export Plug-In . SVG Version: 6.00 Build 0)  -->
<svg version="1.1" xmlns="http://www.w3.org/2000/svg" xmlns:xlink="http://www.w3.org/1999/xlink" x="0px" y="0px"
	 viewBox="0 0 46 46" style="enable-background:new 0 0 46 46;" xml:space="preserve">
<style type="text/css">
	.st0{fill:#FDF0E9;}
	.st1{opacity:0.1;}
	.st2{fill:#0072C6;}
	.st3{fill:#FFFFFF;}
	.st4{fill:#606060;}
	.st5{fill:#ED702D;}
	.st6{fill:none;stroke:#FFFFFF;stroke-width:1.5;stroke-linecap:round;}
</style>
<g id="BG">
	<g id="Rectangle_14993_00000158747543334425907620000015068660662932932518_">
		<path class="st0" d="M4,0h38c2.2091,0,4,1.7909,4,4v38c0,2.2091-1.7909,4-4,4H4c-2.2091,0-4-1.7909-4-4V4C0,1.7909,1.7909,0,4,0z"
			/>
	</g>
</g>
<g id="Icons">
	<g>
		<g id="XMLID_00000155864444162026128430000014591466028661639607_">
			<path class="st5" d="M31.6221,33.2471c-0.4556,0-0.896-0.1924-1.2114-0.5508l-3.1626-3.5889H19.918
				c-3.9502,0-7.1636-3.1318-7.1636-6.9805v-2.3916c0-3.8486,3.2134-6.9805,7.1636-6.9805h6.1641
				c3.9502,0,7.1636,3.1318,7.1636,6.9805v11.9111c0,0.668-0.4077,1.2539-1.0386,1.4922
				C32.0151,33.2109,31.8169,33.2471,31.6221,33.2471z M19.918,14.7549c-2.8472,0-5.1636,2.2344-5.1636,4.9805v2.3916
				c0,2.7461,2.3164,4.9805,5.1636,4.9805h7.6396c0.377,0,0.7358,0.1611,0.9844,0.4424l2.7036,3.0693V19.7354
				c0-2.7461-2.3164-4.9805-5.1636-4.9805H19.918z"/>
		</g>
		<g>
			<path class="st5" d="M27.0957,20.0596h-8.2773c-0.2761,0-0.5-0.2239-0.5-0.5v-1c0-0.2761,0.2239-0.5,0.5-0.5h8.2773
				c0.2761,0,0.5,0.2239,0.5,0.5v1C27.5957,19.8357,27.3718,20.0596,27.0957,20.0596z"/>
		</g>
		<g>
			<path class="st5" d="M27.0957,23.707h-8.2773c-0.2761,0-0.5-0.2239-0.5-0.5v-1c0-0.2761,0.2239-0.5,0.5-0.5h8.2773
				c0.2761,0,0.5,0.2239,0.5,0.5v1C27.5957,23.4832,27.3718,23.707,27.0957,23.707z"/>
		</g>
	</g>
</g>
</svg>
