<?xml version="1.0" encoding="utf-8"?>
<!-- Generator: Adobe Illustrator 25.4.1, SVG Export Plug-In . SVG Version: 6.00 Build 0)  -->
<svg version="1.1" xmlns="http://www.w3.org/2000/svg" xmlns:xlink="http://www.w3.org/1999/xlink" x="0px" y="0px"
	 viewBox="0 0 24 24" style="enable-background:new 0 0 24 24;" xml:space="preserve">
<style type="text/css">
	.st0{fill:#FDF0E9;}
	.st1{opacity:0.1;}
	.st2{fill:#0072C6;}
	.st3{fill:#FFFFFF;}
	.st4{fill:#606060;}
	.st5{fill:#ED702D;}
	.st6{fill:none;stroke:#FFFFFF;stroke-width:1.5;stroke-linecap:round;}
</style>
<g id="BG">
</g>
<g id="Icons">
	<g>
		<g id="XMLID_00000096059110032246307670000006119700604419861643_">
			<path class="st4" d="M20.623,21.9961c-0.3857,0-0.7578-0.1621-1.0244-0.4639l-3.2373-3.6748H8.918
				c-3.8115,0-6.9131-3.0195-6.9131-6.7305V8.7354c0-3.7109,3.1016-6.7305,6.9131-6.7305h6.1641
				c3.8115,0,6.9131,3.0195,6.9131,6.7305v11.9111c0,0.5625-0.3438,1.0566-0.876,1.2578
				C20.9561,21.9668,20.7881,21.9961,20.623,21.9961z M8.918,3.5049c-2.9844,0-5.4131,2.3467-5.4131,5.2305v2.3916
				c0,2.8838,2.4287,5.2305,5.4131,5.2305h7.6396c0.3057,0,0.5957,0.1309,0.7969,0.3584l3.1406,3.5654V8.7354
				c0-2.8838-2.4287-5.2305-5.4131-5.2305H8.918z"/>
		</g>
		<g>
			<path class="st4" d="M16.3457,8.8096H7.5684c-0.1381,0-0.25-0.1119-0.25-0.25v-1c0-0.1381,0.1119-0.25,0.25-0.25h8.7773
				c0.1381,0,0.25,0.1119,0.25,0.25v1C16.5957,8.6976,16.4838,8.8096,16.3457,8.8096z"/>
		</g>
		<g>
			<path class="st4" d="M16.3457,12.457H7.5684c-0.1381,0-0.25-0.1119-0.25-0.25v-1c0-0.1381,0.1119-0.25,0.25-0.25h8.7773
				c0.1381,0,0.25,0.1119,0.25,0.25v1C16.5957,12.3451,16.4838,12.457,16.3457,12.457z"/>
		</g>
	</g>
</g>
</svg>
