<?xml version="1.0" encoding="utf-8"?>
<!-- Generator: Adobe Illustrator 26.3.1, SVG Export Plug-In . SVG Version: 6.00 Build 0)  -->
<svg version="1.1" id="Layer_1" xmlns="http://www.w3.org/2000/svg" xmlns:xlink="http://www.w3.org/1999/xlink" x="0px" y="0px"
	 viewBox="0 0 16 16" style="enable-background:new 0 0 16 16;" xml:space="preserve">
<style type="text/css">
	.st0{fill:none;}
	.st1{fill-rule:evenodd;clip-rule:evenodd;fill:#0D6F08;}
</style>
<g id="Outline">
	<rect class="st0" width="16" height="16"/>
</g>
<g id="Icons">
	<g id="Layer_1_00000078041320769887210120000005487242300205737661_">
		<path class="st1" d="M8,0C3.5692,0,0,3.5692,0,8s3.5692,8,8,8s8-3.5692,8-8S12.4308,0,8,0z M13.0462,5.7846L6.4,12.4308
			c-0.1231,0.1231-0.2462,0.1231-0.3692,0L2.5846,9.1077c-0.1231-0.1231-0.1231-0.2462,0-0.3692L3.4461,7.877
			c0.1231-0.1231,0.2462-0.1231,0.3692,0l2.4615,2.4615l5.6615-5.6615c0.1231-0.1231,0.2462-0.1231,0.3692,0l0.8615,0.8615
			C13.1692,5.5385,13.1692,5.6615,13.0462,5.7846z"/>
	</g>
</g>
</svg>
