<?xml version="1.0" encoding="utf-8"?>
<!-- Generator: Adobe Illustrator 25.4.1, SVG Export Plug-In . SVG Version: 6.00 Build 0)  -->
<svg version="1.1" xmlns="http://www.w3.org/2000/svg" xmlns:xlink="http://www.w3.org/1999/xlink" x="0px" y="0px"
	 viewBox="0 0 24 24" style="enable-background:new 0 0 24 24;" xml:space="preserve">
<style type="text/css">
	.st0{fill:#FDF0E9;}
	.st1{opacity:0.1;}
	.st2{fill:#0072C6;}
	.st3{fill:#FFFFFF;}
	.st4{fill:#606060;}
	.st5{fill:#ED702D;}
	.st6{fill:none;stroke:#FFFFFF;stroke-width:1.5;stroke-linecap:round;}
</style>
<g id="BG">
</g>
<g id="Icons">
	<path class="st2" d="M18.75,8c0-0.5027-0.1454-0.968-0.3818-1.3739l3.4783-3.4784c0.1172-0.1172,0.1172-0.3071,0-0.4243
		l-0.6363-0.6363c-0.1172-0.1172-0.3071-0.1172-0.4243,0l-3.4979,3.498C16.902,5.3783,16.4678,5.25,16,5.25H6.75V2.3
		c0-0.1657-0.1343-0.3-0.3-0.3h-0.9c-0.1657,0-0.3,0.1343-0.3,0.3v2.95H2.3C2.1343,5.25,2,5.3843,2,5.55v0.9
		c0,0.1657,0.1343,0.3,0.3,0.3h2.95V16c0,1.5188,1.2312,2.75,2.75,2.75h9.25v2.95c0,0.1657,0.1343,0.3,0.3,0.3h0.9
		c0.1657,0,0.3-0.1343,0.3-0.3v-2.95h2.95c0.1657,0,0.3-0.1343,0.3-0.3v-0.9c0-0.1657-0.1343-0.3-0.3-0.3h-2.95V8z M16.1025,6.7708
		l-9.3317,9.332C6.7678,16.0671,6.75,16.0364,6.75,16V6.75H16C16.0363,6.75,16.067,6.7677,16.1025,6.7708z M7.7876,17.207
		l9.4194-9.4197C17.2198,7.8591,17.25,7.9246,17.25,8v9.25H8C7.9247,17.25,7.8593,17.2198,7.7876,17.207z"/>
</g>
</svg>
