<?xml version="1.0" encoding="utf-8"?>
<!-- Generator: Adobe Illustrator 25.4.1, SVG Export Plug-In . SVG Version: 6.00 Build 0)  -->
<svg version="1.1" id="Layer_1" xmlns="http://www.w3.org/2000/svg" xmlns:xlink="http://www.w3.org/1999/xlink" x="0px" y="0px"
	 viewBox="0 0 24 24" style="enable-background:new 0 0 24 24;" xml:space="preserve">
<style type="text/css">
	.st0{fill:#0072C6;}
</style>
<g>
	<path class="st0" d="M8.8427,2.2768h-5c-0.96,0-1.75,0.79-1.75,1.75v4c0,0.97,0.79,1.75,1.75,1.75h5c0.97,0,1.75-0.78,1.75-1.75v-4
		C10.5927,3.0668,9.8127,2.2768,8.8427,2.2768z M9.0927,8.0268c0,0.14-0.11,0.25-0.25,0.25h-5c-0.14,0-0.25-0.11-0.25-0.25v-4
		c0-0.13,0.11-0.25,0.25-0.25h5c0.14,0,0.25,0.12,0.25,0.25V8.0268z"/>
	<path class="st0" d="M19.6527,2.2768h-5.31c-1.24,0-2.25,1.01-2.25,2.25v14.94c0,1.24,1.01,2.25,2.25,2.25h5.31
		c1.24,0,2.25-1.01,2.25-2.25v-14.94C21.9027,3.2868,20.8927,2.2768,19.6527,2.2768z"/>
	<path class="st0" d="M8.8427,11.2468h-5c-0.96,0-1.75,0.79-1.75,1.75v6.97c0,0.97,0.79,1.75,1.75,1.75h5
		c0.97,0,1.75-0.78,1.75-1.75v-6.97C10.5927,12.0368,9.8127,11.2468,8.8427,11.2468z"/>
</g>
</svg>
