<?xml version="1.0" encoding="utf-8"?>
<!-- Generator: Adobe Illustrator 25.4.0, SVG Export Plug-In . SVG Version: 6.00 Build 0)  -->
<svg version="1.1" xmlns="http://www.w3.org/2000/svg" xmlns:xlink="http://www.w3.org/1999/xlink" x="0px" y="0px"
	 viewBox="0 0 24 24" enable-background="new 0 0 24 24" xml:space="preserve">
<g id="Layer_3">
</g>
<g id="Layer_4" display="none">
</g>
<g id="Layer_1">
	<g>
		<g id="XMLID_652_">
			<path d="M19.657,21.719h-5.312c-1.24,0-2.25-1.01-2.25-2.25V4.531c0-1.24,1.01-2.25,2.25-2.25h5.312c1.24,0,2.25,1.01,2.25,2.25
				v14.938C21.907,20.709,20.897,21.719,19.657,21.719z M14.344,3.781c-0.413,0-0.75,0.337-0.75,0.75v14.938
				c0,0.413,0.337,0.75,0.75,0.75h5.312c0.413,0,0.75-0.337,0.75-0.75V4.531c0-0.413-0.337-0.75-0.75-0.75H14.344z"/>
		</g>
		<g id="XMLID_651_">
			<path d="M8.844,9.781h-5c-0.965,0-1.75-0.785-1.75-1.75v-4c0-0.965,0.785-1.75,1.75-1.75h5c0.965,0,1.75,0.785,1.75,1.75v4
				C10.594,8.996,9.809,9.781,8.844,9.781z M3.844,3.781c-0.138,0-0.25,0.112-0.25,0.25v4c0,0.138,0.112,0.25,0.25,0.25h5
				c0.138,0,0.25-0.112,0.25-0.25v-4c0-0.138-0.112-0.25-0.25-0.25H3.844z"/>
		</g>
		<g id="XMLID_650_">
			<path d="M8.844,21.719h-5c-0.965,0-1.75-0.785-1.75-1.75V13c0-0.965,0.785-1.75,1.75-1.75h5c0.965,0,1.75,0.785,1.75,1.75v6.969
				C10.594,20.934,9.809,21.719,8.844,21.719z M3.844,12.75c-0.138,0-0.25,0.112-0.25,0.25v6.969c0,0.138,0.112,0.25,0.25,0.25h5
				c0.138,0,0.25-0.112,0.25-0.25V13c0-0.138-0.112-0.25-0.25-0.25H3.844z"/>
		</g>
	</g>
</g>
</svg>
