<?xml version="1.0" encoding="utf-8"?>
<!-- Generator: Adobe Illustrator 27.3.1, SVG Export Plug-In . SVG Version: 6.00 Build 0)  -->
<svg version="1.1" id="unknown_file_format" xmlns="http://www.w3.org/2000/svg" xmlns:xlink="http://www.w3.org/1999/xlink"
	 x="0px" y="0px" viewBox="0 0 24 24" style="enable-background:new 0 0 24 24;" xml:space="preserve">
<g>
	<path style="fill:#F0F0F0;" d="M16.05,8.85c-0.6,0-1.2-0.5-1.2-1.2v-5h-9.8c-0.7,0-1.2,0.6-1.2,1.3v16c0,0.7,0.6,1.2,1.2,1.2h13.9
		c0.7,0,1.2-0.6,1.2-1.2V8.85H16.05z"/>
	<g id="Path_54274">
		<path style="fill:#BBBDBF;" d="M15.25,8.55v-5.3l4.5,5.3H15.25z"/>
	</g>
	<g id="Path_54275">
		<path style="fill:#BBBDBF;" d="M15.55,4.15l3.5,4.1h-3.5V4.15 M14.95,2.35v6.5h5.6L14.95,2.35z"/>
	</g>
	<path style="fill:#BBBDBF;" d="M18.95,21.75H5.05c-1,0-1.7-0.8-1.7-1.7V3.95c0-1,0.8-1.7,1.7-1.7h9.9v1h-9.9
		c-0.4-0.1-0.7,0.3-0.7,0.7v16c0,0.4,0.3,0.7,0.7,0.7h13.9c0.4,0,0.7-0.3,0.7-0.7V8.85h1v11.1C20.65,20.95,19.85,21.75,18.95,21.75z
		"/>
</g>
</svg>
