<?xml version="1.0" encoding="utf-8"?>
<!-- Generator: Adobe Illustrator 25.4.1, SVG Export Plug-In . SVG Version: 6.00 Build 0)  -->
<svg version="1.1" xmlns="http://www.w3.org/2000/svg" xmlns:xlink="http://www.w3.org/1999/xlink" x="0px" y="0px"
	 viewBox="0 0 16 16" style="enable-background:new 0 0 16 16;" xml:space="preserve">
<style type="text/css">
	.st0{fill:#FDF0E9;}
	.st1{opacity:0.1;}
	.st2{fill:#0072C6;}
	.st3{fill:#FFFFFF;}
	.st4{fill:#606060;}
	.st5{fill:#ED702D;}
	.st6{fill:none;stroke:#FFFFFF;stroke-width:1.5;stroke-linecap:round;}
</style>
<g id="BG">
</g>
<g id="Icons">
	<g>
		<path class="st4" d="M9.0204,12.3658h0.5c0.1381,0,0.25-0.1124,0.25-0.2511V11.35V6.59V5.8253c0-0.1387-0.1119-0.2511-0.25-0.2511
			h-0.5c-0.1381,0-0.25,0.1124-0.25,0.2511V6.59v4.76v0.7646C8.7704,12.2533,8.8823,12.3658,9.0204,12.3658z"/>
		<path class="st4" d="M6.476,12.3658h0.5c0.1381,0,0.25-0.1124,0.25-0.2511V11.35V6.59V5.8253c0-0.1387-0.1119-0.2511-0.25-0.2511
			h-0.5c-0.1381,0-0.25,0.1124-0.25,0.2511V6.59v4.76v0.7646C6.226,12.2533,6.3379,12.3658,6.476,12.3658z"/>
		<path class="st4" d="M15,3.1746c0-0.1381-0.1119-0.25-0.25-0.25h-1.5391H2.9297H1.25c-0.1381,0-0.25,0.1119-0.25,0.25v0.5045
			c0,0.1381,0.1119,0.25,0.25,0.25h1.6797v10.149C2.9297,14.5852,3.3445,15,3.8516,15h8.4375c0.5091,0,0.9219-0.4127,0.9219-0.9219
			V3.9291H14.75c0.1381,0,0.25-0.1119,0.25-0.25V3.1746z M12.2109,13.9955H3.9297V3.9291h8.2812V13.9955z"/>
		<path class="st4" d="M10.2812,1H5.7188c-0.1381,0-0.25,0.1119-0.25,0.25v0.5045c0,0.1381,0.1119,0.25,0.25,0.25h4.5625
			c0.1381,0,0.25-0.1119,0.25-0.25V1.25C10.5312,1.1119,10.4193,1,10.2812,1z"/>
	</g>
</g>
</svg>
