<?xml version="1.0" encoding="utf-8"?>
<!-- Generator: Adobe Illustrator 25.4.1, SVG Export Plug-In . SVG Version: 6.00 Build 0)  -->
<svg version="1.1" xmlns="http://www.w3.org/2000/svg" xmlns:xlink="http://www.w3.org/1999/xlink" x="0px" y="0px"
	 viewBox="0 0 24 24" style="enable-background:new 0 0 24 24;" xml:space="preserve">
<style type="text/css">
	.st0{fill:#FDF0E9;}
	.st1{opacity:0.1;}
	.st2{fill:#0072C6;}
	.st3{fill:#FFFFFF;}
	.st4{fill:#606060;}
	.st5{fill:#ED702D;}
	.st6{fill:none;stroke:#FFFFFF;stroke-width:1.5;stroke-linecap:round;}
</style>
<g id="BG">
</g>
<g id="Icons">
	<g>
		<g id="XMLID_00000168111708556777201800000008248140930773367193_">
			<path class="st4" d="M16.7295,21.9917H7.4707c-1.5166,0-2.75-1.2339-2.75-2.75V4.7466h14.7588v14.4951
				C19.4795,20.7578,18.2461,21.9917,16.7295,21.9917z M6.2207,6.2466v12.9951c0,0.6895,0.5605,1.25,1.25,1.25h9.2588
				c0.6895,0,1.25-0.5605,1.25-1.25V6.2466H6.2207z"/>
		</g>
		<g id="XMLID_00000018941162306466118780000001178619606091098299_">
			<path class="st4" d="M21.7,6.2466H2.3c-0.1657,0-0.3-0.1343-0.3-0.3v-0.9c0-0.1657,0.1343-0.3,0.3-0.3h19.4
				c0.1657,0,0.3,0.1343,0.3,0.3v0.9C22,6.1123,21.8657,6.2466,21.7,6.2466z"/>
		</g>
		<g id="XMLID_00000169533395798419189030000006962130200286616752_">
			<path class="st4" d="M15.3162,3.5083H8.6838c-0.1657,0-0.3-0.1343-0.3-0.3v-0.9c0-0.1657,0.1343-0.3,0.3-0.3h6.6324
				c0.1657,0,0.3,0.1343,0.3,0.3v0.9C15.6162,3.374,15.4819,3.5083,15.3162,3.5083z"/>
		</g>
		<g>
			<path class="st4" d="M10.6297,18.209h-0.9c-0.1657,0-0.3-0.1343-0.3-0.3V8.8498c0-0.1657,0.1343-0.3,0.3-0.3h0.9
				c0.1657,0,0.3,0.1343,0.3,0.3v9.0592C10.9297,18.0747,10.7954,18.209,10.6297,18.209z"/>
		</g>
		<g>
			<path class="st4" d="M14.2645,18.209h-0.9c-0.1657,0-0.3-0.1343-0.3-0.3V8.8498c0-0.1657,0.1343-0.3,0.3-0.3h0.9
				c0.1657,0,0.3,0.1343,0.3,0.3v9.0592C14.5645,18.0747,14.4301,18.209,14.2645,18.209z"/>
		</g>
	</g>
</g>
</svg>
