<?xml version="1.0" encoding="utf-8"?>
<!-- Generator: Adobe Illustrator 26.0.3, SVG Export Plug-In . SVG Version: 6.00 Build 0)  -->
<svg version="1.1" id="Layer_1" xmlns="http://www.w3.org/2000/svg" xmlns:xlink="http://www.w3.org/1999/xlink" x="0px" y="0px"
	 viewBox="0 0 16 16" style="enable-background:new 0 0 16 16;" xml:space="preserve">
<path style="fill:none;" d="M16,16H0V0h16V16z"/>
<path style="fill:#D53D3D;" d="M9.02,12.346h0.5c0.138,0,0.25-0.112,0.25-0.25v-0.761V6.596V5.835c0-0.138-0.112-0.25-0.25-0.25
	h-0.5c-0.138,0-0.25,0.112-0.25,0.25v0.761v4.739v0.761C8.77,12.234,8.882,12.346,9.02,12.346z M6.476,12.346h0.5
	c0.138,0,0.25-0.112,0.25-0.25v-0.761V6.596V5.835c0-0.138-0.112-0.25-0.25-0.25h-0.5c-0.138,0-0.25,0.112-0.25,0.25v0.761v4.739
	v0.761C6.226,12.234,6.338,12.346,6.476,12.346z M15,3.197c0-0.138-0.112-0.25-0.25-0.25h-1.539H2.93H1.25
	C1.112,2.947,1,3.059,1,3.197v0.5c0,0.138,0.112,0.25,0.25,0.25h1.68v10.1c0,0.509,0.413,0.922,0.922,0.922h8.438
	c0.509,0,0.922-0.413,0.922-0.922v-10.1h1.539c0.138,0,0.25-0.112,0.25-0.25L15,3.197L15,3.197z M12.211,13.969H3.93V3.947h8.281
	C12.211,3.947,12.211,13.969,12.211,13.969z M10.282,1.031H5.719c-0.138,0-0.25,0.112-0.25,0.25v0.5c0,0.138,0.112,0.25,0.25,0.25
	h4.562c0.138,0,0.25-0.112,0.25-0.25v-0.5C10.532,1.143,10.42,1.031,10.282,1.031z"/>
</svg>
