<?xml version="1.0" encoding="utf-8"?>
<!-- Generator: Adobe Illustrator 26.0.2, SVG Export Plug-In . SVG Version: 6.00 Build 0)  -->
<svg version="1.1" id="Layer_1" xmlns="http://www.w3.org/2000/svg" xmlns:xlink="http://www.w3.org/1999/xlink" x="0px" y="0px"
	 viewBox="0 0 24 24" style="enable-background:new 0 0 24 24;" xml:space="preserve">
<path style="fill:#0072C6;" d="M19.297,4.25H4.707c-1.49,0-2.71,1.21-2.71,2.71v10.08c0,1.5,1.22,2.71,2.71,2.71h14.59
	c1.49,0,2.7-1.21,2.7-2.71V6.96C21.997,5.46,20.787,4.25,19.297,4.25z M7.6,7.21c1.24,0,2.25,1,2.25,2.25
	c0,1.24-1.01,2.25-2.25,2.25c-1.24,0-2.25-1.01-2.25-2.25C5.35,8.21,6.36,7.21,7.6,7.21z M10.664,15.896c0,0.166-0.134,0.3-0.3,0.3
	H10.16H9.464H5.741c-0.006,0-0.009,0.006-0.015,0.006h-0.9c-0.166,0-0.3-0.134-0.3-0.3v-1.168c0-1.28,1.038-2.317,2.317-2.317h0.166
	l1.333-0.003c0.002,0,0.003,0,0.005,0c0.618,0,1.199,0.24,1.636,0.677c0.439,0.438,0.681,1.021,0.681,1.641V15.896z M18.972,15.183
	c0,0.138-0.112,0.25-0.25,0.25h-6.653c-0.138,0-0.25-0.112-0.25-0.25v-1c0-0.138,0.112-0.25,0.25-0.25h6.653
	c0.138,0,0.25,0.112,0.25,0.25V15.183z M18.972,12.235c0,0.138-0.112,0.25-0.25,0.25h-6.653c-0.138,0-0.25-0.112-0.25-0.25v-1
	c0-0.138,0.112-0.25,0.25-0.25h6.653c0.138,0,0.25,0.112,0.25,0.25V12.235z"/>
</svg>
