<?xml version="1.0" encoding="utf-8"?>
<!-- Generator: Adobe Illustrator 25.4.1, SVG Export Plug-In . SVG Version: 6.00 Build 0)  -->
<svg version="1.1" xmlns="http://www.w3.org/2000/svg" xmlns:xlink="http://www.w3.org/1999/xlink" x="0px" y="0px"
	 viewBox="0 0 24 24" style="enable-background:new 0 0 24 24;" xml:space="preserve">
<style type="text/css">
	.st0{fill:#FDF0E9;}
	.st1{opacity:0.1;}
	.st2{fill:#0072C6;}
	.st3{fill:#FFFFFF;}
	.st4{fill:#606060;}
	.st5{fill:#ED702D;}
	.st6{fill:none;stroke:#FFFFFF;stroke-width:1.5;stroke-linecap:round;}
</style>
<g id="BG">
</g>
<g id="Icons">
	<g id="Rectangle_15_00000019671802150179371260000014739343210248363650_">
		<path class="st2" d="M12.069,13.9329h6.653c0.1381,0,0.25,0.1119,0.25,0.25v1c0,0.1381-0.1119,0.25-0.25,0.25h-6.653
			c-0.1381,0-0.25-0.1119-0.25-0.25v-1C11.819,14.0449,11.9309,13.9329,12.069,13.9329z"/>
	</g>
	<g id="Rectangle_16_00000054956635802360134000000014109201664841338032_">
		<path class="st2" d="M12.069,10.9852h6.653c0.1381,0,0.25,0.1119,0.25,0.25v1c0,0.1381-0.1119,0.25-0.25,0.25h-6.653
			c-0.1381,0-0.25-0.1119-0.25-0.25v-1C11.819,11.0972,11.9309,10.9852,12.069,10.9852z"/>
	</g>
	<g>
		<path class="st2" d="M7.5952,11.7056c-1.2407,0-2.25-1.0093-2.25-2.25s1.0093-2.25,2.25-2.25s2.25,1.0093,2.25,2.25
			S8.8359,11.7056,7.5952,11.7056z M7.5952,8.7056c-0.4136,0-0.75,0.3364-0.75,0.75s0.3364,0.75,0.75,0.75s0.75-0.3364,0.75-0.75
			S8.0088,8.7056,7.5952,8.7056z"/>
	</g>
	<g>
		<g>
			<path class="st2" d="M10.3641,16.1958h-0.9c-0.1657,0-0.3-0.1343-0.3-0.3V14.731c0-0.2188-0.0854-0.4238-0.2402-0.5786
				c-0.1543-0.1538-0.3594-0.2388-0.5771-0.2388c-0.0005,0-0.001,0-0.002,0l-1.3325,0.0029l-0.0029-1.5l1.3325-0.0029
				c0.0015,0,0.0034,0,0.0054,0c0.6177,0,1.1987,0.2402,1.6362,0.6768c0.439,0.438,0.6807,1.021,0.6807,1.6406v1.1648
				C10.6641,16.0615,10.5297,16.1958,10.3641,16.1958z"/>
		</g>
		<g>
			<path class="st2" d="M5.7259,16.2021h-0.9c-0.1657,0-0.3-0.1343-0.3-0.3v-1.1683c0-1.2799,1.0375-2.3174,2.3174-2.3174h1.3174
				v1.5H6.8433c-0.4514,0-0.8174,0.366-0.8174,0.8174v1.1683C6.0259,16.0678,5.8916,16.2021,5.7259,16.2021z"/>
		</g>
	</g>
	<g>
		<path class="st2" d="M19.2939,19.75H4.7061C3.2139,19.75,2,18.5361,2,17.0439V6.9561C2,5.4639,3.2139,4.25,4.7061,4.25h14.5879
			C20.7861,4.25,22,5.4639,22,6.9561v10.0879C22,18.5361,20.7861,19.75,19.2939,19.75z M4.7061,5.75
			C4.041,5.75,3.5,6.291,3.5,6.9561v10.0879c0,0.665,0.541,1.2061,1.2061,1.2061h14.5879c0.665,0,1.2061-0.541,1.2061-1.2061V6.9561
			c0-0.665-0.541-1.2061-1.2061-1.2061H4.7061z"/>
	</g>
</g>
</svg>
