<?xml version="1.0" encoding="utf-8"?>
<!-- Generator: Adobe Illustrator 25.4.1, SVG Export Plug-In . SVG Version: 6.00 Build 0)  -->
<svg version="1.1" xmlns="http://www.w3.org/2000/svg" xmlns:xlink="http://www.w3.org/1999/xlink" x="0px" y="0px"
	 viewBox="0 0 46 46" style="enable-background:new 0 0 46 46;" xml:space="preserve">
<style type="text/css">
	.st0{fill:#FDF0E9;}
	.st1{opacity:0.1;}
	.st2{fill:#0072C6;}
	.st3{fill:#FFFFFF;}
	.st4{fill:#606060;}
	.st5{fill:#ED702D;}
	.st6{fill:none;stroke:#FFFFFF;stroke-width:1.5;stroke-linecap:round;}
</style>
<g id="BG">
	<g id="Rectangle_14993_00000169553238114228679500000010153319609382979220_">
		<path class="st0" d="M4,0h38c2.2091,0,4,1.7909,4,4v38c0,2.2091-1.7909,4-4,4H4c-2.2091,0-4-1.7909-4-4V4C0,1.7909,1.7909,0,4,0z"
			/>
	</g>
</g>
<g id="Icons">
	<g>
		<path class="st5" d="M23.0689,26.6826h6.6533c0.2754,0,0.5-0.2246,0.5-0.5v-1c0-0.2754-0.2246-0.5-0.5-0.5h-6.6533
			c-0.2754,0-0.5,0.2246-0.5,0.5v1C22.5689,26.458,22.7935,26.6826,23.0689,26.6826z"/>
		<path class="st5" d="M23.0689,23.7354h6.6533c0.2754,0,0.5-0.2246,0.5-0.5v-1c0-0.2754-0.2246-0.5-0.5-0.5h-6.6533
			c-0.2754,0-0.5,0.2246-0.5,0.5v1C22.5689,23.5107,22.7935,23.7354,23.0689,23.7354z"/>
		<path class="st5" d="M18.5953,22.9551c1.3789,0,2.5-1.1211,2.5-2.5s-1.1211-2.5-2.5-2.5s-2.5,1.1211-2.5,2.5
			S17.2164,22.9551,18.5953,22.9551z M18.0953,20.4551c0-0.2754,0.2246-0.5,0.5-0.5s0.5,0.2246,0.5,0.5s-0.2246,0.5-0.5,0.5
			S18.0953,20.7305,18.0953,20.4551z"/>
		<path class="st5" d="M15.8257,27.4521h0.9004c0.3027,0,0.5498-0.2471,0.5498-0.5498v-1.168c0-0.3135,0.2549-0.5684,0.5674-0.5684
			l1.5234-0.002c0.1436,0.0049,0.2783,0.0635,0.3809,0.166c0.1064,0.1064,0.166,0.249,0.166,0.4004v1.165
			c0,0.3027,0.2471,0.5498,0.5508,0.5498h0.8994c0.3027,0,0.5498-0.2471,0.5498-0.5498v-1.165c0-0.6865-0.2676-1.332-0.7539-1.8174
			c-0.4854-0.4834-1.1289-0.749-1.8125-0.749l-1.5039,0.002c-1.416,0-2.5674,1.1523-2.5674,2.5684v1.168
			C15.2759,27.2051,15.523,27.4521,15.8257,27.4521z"/>
		<path class="st5" d="M30.2935,15H15.7056c-1.6299,0-2.9561,1.3262-2.9561,2.9561v10.0879c0,1.6299,1.3262,2.9561,2.9561,2.9561
			h14.5879c1.6299,0,2.9561-1.3262,2.9561-2.9561V17.9561C33.2496,16.3262,31.9234,15,30.2935,15z M14.7496,17.9561
			c0-0.5273,0.4287-0.9561,0.9561-0.9561h14.5879c0.5273,0,0.9561,0.4287,0.9561,0.9561v10.0879
			c0,0.5273-0.4287,0.9561-0.9561,0.9561H15.7056c-0.5273,0-0.9561-0.4287-0.9561-0.9561V17.9561z"/>
	</g>
</g>
</svg>
