<?xml version="1.0" encoding="utf-8"?>
<!-- Generator: Adobe Illustrator 27.3.1, SVG Export Plug-In . SVG Version: 6.00 Build 0)  -->
<svg version="1.1" id="doc" xmlns="http://www.w3.org/2000/svg" xmlns:xlink="http://www.w3.org/1999/xlink" x="0px" y="0px"
	 viewBox="0 0 24 24" style="enable-background:new 0 0 24 24;" xml:space="preserve">
<g id="Path_54273">
	<path style="fill:#F0F0F0;" d="M15,8.5c-0.6,0-1.2-0.5-1.2-1.2v-5H4c-0.7,0-1.2,0.6-1.2,1.2v16.1c0,0.7,0.6,1.2,1.2,1.2h13.9
		c0.7,0,1.2-0.6,1.2-1.2V8.5H15z"/>
</g>
<g id="Path_54274">
	<path style="fill:#BBBDBF;" d="M14.2,8.2V2.9l4.5,5.3C18.7,8.2,14.2,8.2,14.2,8.2z"/>
</g>
<g id="Path_54275">
	<path style="fill:#BBBDBF;" d="M14.5,3.8L18,7.9h-3.5V3.8 M13.8,2v6.5h5.6L13.8,2z"/>
</g>
<g id="Path_54276">
	<path style="fill:#BBBDBF;" d="M17.8,21.4H4c-1,0-1.7-0.8-1.7-1.7V3.6c0-1,0.8-1.7,1.7-1.7h9.9v1H4c-0.4,0-0.7,0.3-0.7,0.7v16.1
		c0,0.4,0.3,0.7,0.7,0.7h13.9c0.4,0,0.7-0.3,0.7-0.7V8.5h1v11.1C19.6,20.6,18.8,21.4,17.8,21.4z"/>
</g>
<g id="Path_54277">
	<path style="fill:#005CFF;" d="M19.7,21.6H3.4C2.6,21.6,2,21,2,20.2v-8.3c0-0.8,0.6-1.4,1.4-1.4l0,0h16.3c0.8,0,1.4,0.6,1.4,1.4
		v8.3C21.1,21,20.5,21.6,19.7,21.6z"/>
</g>
<g style="enable-background:new    ;">
	<path style="fill:#FFFFFF;" d="M8,16c0,0.9-0.3,1.6-0.8,2C6.7,18.5,6,18.8,5,18.8H3.5v-5.4h1.7c0.9,0,1.6,0.2,2,0.7
		C7.7,14.6,8,15.2,8,16z M6.8,16.1c0-1.1-0.5-1.7-1.5-1.7H4.7v3.5h0.5C6.2,17.8,6.8,17.2,6.8,16.1z"/>
	<path style="fill:#FFFFFF;" d="M13.9,16.1c0,0.9-0.2,1.6-0.7,2c-0.4,0.5-1.1,0.7-1.9,0.7c-0.8,0-1.5-0.2-1.9-0.7S8.7,16.9,8.7,16
		s0.2-1.6,0.7-2c0.4-0.5,1.1-0.7,1.9-0.7c0.8,0,1.5,0.2,1.9,0.7S13.9,15.2,13.9,16.1z M10,16.1c0,0.6,0.1,1,0.3,1.4
		c0.2,0.3,0.6,0.5,1,0.5c0.9,0,1.4-0.6,1.4-1.8s-0.5-1.8-1.4-1.8c-0.5,0-0.8,0.2-1,0.5C10.1,15,10,15.5,10,16.1z"/>
	<path style="fill:#FFFFFF;" d="M17.3,14.3c-0.4,0-0.8,0.2-1,0.5s-0.4,0.8-0.4,1.3c0,1.2,0.4,1.8,1.3,1.8c0.4,0,0.8-0.1,1.4-0.3v1
		c-0.4,0.2-0.9,0.3-1.5,0.3c-0.8,0-1.4-0.2-1.8-0.7c-0.4-0.5-0.6-1.2-0.6-2c0-0.6,0.1-1,0.3-1.5c0.2-0.4,0.5-0.7,0.9-1
		s0.8-0.3,1.3-0.3s1,0.1,1.6,0.4l-0.4,0.9c-0.2-0.1-0.4-0.2-0.6-0.2C17.7,14.3,17.5,14.3,17.3,14.3z"/>
</g>
</svg>
