<?xml version="1.0" encoding="utf-8"?>
<!-- Generator: Adobe Illustrator 26.0.3, SVG Export Plug-In . SVG Version: 6.00 Build 0)  -->
<svg version="1.1" id="Layer_1" xmlns="http://www.w3.org/2000/svg" xmlns:xlink="http://www.w3.org/1999/xlink" x="0px" y="0px"
	 viewBox="0 0 16 16" style="enable-background:new 0 0 16 16;" xml:space="preserve">
<path style="fill:#6DAD15;" d="M8,15c-3.859,0-7-3.141-7-7S4.14,1,8,1s7,3.141,7,7S11.859,15,8,15z M8,2C4.691,2,2,4.691,2,8
	s2.691,6,6,6s6-2.691,6-6S11.308,2,8,2z M6.518,10.956L4.277,8.715c-0.098-0.098-0.098-0.256,0-0.354l0.353-0.354
	c0.098-0.098,0.256-0.098,0.354,0l1.711,1.711l4.321-4.321c0.098-0.098,0.256-0.098,0.354,0l0.354,0.353
	c0.098,0.098,0.098,0.256,0,0.354l-4.852,4.852C6.774,11.054,6.616,11.054,6.518,10.956z"/>
<path style="fill:none;" d="M16,16H0V0h16V16z"/>
</svg>
