<svg id="Layer_1" data-name="Layer 1" xmlns="http://www.w3.org/2000/svg" viewBox="0 0 16 16"><g id="Export"><g id="Group_59981" data-name="Group 59981"><path id="Path_53842" data-name="Path 53842" d="M7.82,12.82a.25.25,0,0,0,.36,0h0l3.54-3.53a.27.27,0,0,0,0-.36l-.36-.35a.24.24,0,0,0-.35,0h0L8.5,11.08V.25A.25.25,0,0,0,8.25,0h-.5A.25.25,0,0,0,7.5.25V11.08L5,8.57a.26.26,0,0,0-.35,0h0l-.36.36a.26.26,0,0,0,0,.35Z" fill="#606060"/><path id="Path_53843" data-name="Path 53843" d="M15.75,9.75h-.5A.25.25,0,0,0,15,10h0v5H1V10a.25.25,0,0,0-.25-.25H.25A.25.25,0,0,0,0,10v5a1,1,0,0,0,1,1H15a1,1,0,0,0,1-1V10a.25.25,0,0,0-.25-.25Z" fill="#606060"/></g></g></svg>