<?xml version="1.0" encoding="utf-8"?>
<!-- Generator: Adobe Illustrator 25.4.1, SVG Export Plug-In . SVG Version: 6.00 Build 0)  -->
<svg version="1.1" xmlns="http://www.w3.org/2000/svg" xmlns:xlink="http://www.w3.org/1999/xlink" x="0px" y="0px"
	 viewBox="0 0 24 24" style="enable-background:new 0 0 24 24;" xml:space="preserve">
<style type="text/css">
	.st0{fill:#FDF0E9;}
	.st1{opacity:0.1;}
	.st2{fill:#0072C6;}
	.st3{fill:#FFFFFF;}
	.st4{fill:#606060;}
	.st5{fill:#ED702D;}
	.st6{fill:none;stroke:#FFFFFF;stroke-width:1.5;stroke-linecap:round;}
</style>
<g id="BG">
</g>
<g id="Icons">
	<path class="st4" d="M20.5,7.25c0.9648,0,1.75-0.7852,1.75-1.75v-2c0-0.9648-0.7852-1.75-1.75-1.75h-2
		c-0.9648,0-1.75,0.7852-1.75,1.75v0.25h-9.5V3.5c0-0.9648-0.7852-1.75-1.75-1.75h-2c-0.9648,0-1.75,0.7852-1.75,1.75v2
		c0,0.9648,0.7852,1.75,1.75,1.75h0.25v9.5H3.5c-0.9648,0-1.75,0.7852-1.75,1.75v2c0,0.9648,0.7852,1.75,1.75,1.75h2
		c0.9648,0,1.75-0.7852,1.75-1.75v-0.25h9.5v0.25c0,0.9648,0.7852,1.75,1.75,1.75h2c0.9648,0,1.75-0.7852,1.75-1.75v-2
		c0-0.9648-0.7852-1.75-1.75-1.75h-0.25v-9.5H20.5z M18.25,3.5c0-0.1377,0.1123-0.25,0.25-0.25h2c0.1377,0,0.25,0.1123,0.25,0.25v2
		c0,0.1377-0.1123,0.25-0.25,0.25h-2c-0.1377,0-0.25-0.1123-0.25-0.25V3.5z M3.25,5.5v-2c0-0.1377,0.1123-0.25,0.25-0.25h2
		c0.1377,0,0.25,0.1123,0.25,0.25v2c0,0.1377-0.1123,0.25-0.25,0.25h-2C3.3623,5.75,3.25,5.6377,3.25,5.5z M5.75,20.5
		c0,0.1377-0.1123,0.25-0.25,0.25h-2c-0.1377,0-0.25-0.1123-0.25-0.25v-2c0-0.1377,0.1123-0.25,0.25-0.25h2
		c0.1377,0,0.25,0.1123,0.25,0.25V20.5z M20.75,18.5v2c0,0.1377-0.1123,0.25-0.25,0.25h-2c-0.1377,0-0.25-0.1123-0.25-0.25v-2
		c0-0.1377,0.1123-0.25,0.25-0.25h2C20.6377,18.25,20.75,18.3623,20.75,18.5z M18.75,16.75H18.5c-0.9648,0-1.75,0.7852-1.75,1.75
		v0.25h-9.5V18.5c0-0.9648-0.7852-1.75-1.75-1.75H5.25v-9.5H5.5c0.9648,0,1.75-0.7852,1.75-1.75V5.25h9.5V5.5
		c0,0.9648,0.7852,1.75,1.75,1.75h0.25V16.75z"/>
</g>
</svg>
