<?xml version="1.0" encoding="utf-8"?>
<!-- Generator: Adobe Illustrator 25.4.1, SVG Export Plug-In . SVG Version: 6.00 Build 0)  -->
<svg version="1.1" id="Layer_1" xmlns="http://www.w3.org/2000/svg" xmlns:xlink="http://www.w3.org/1999/xlink" x="0px" y="0px"
	 viewBox="0 0 20 20" style="enable-background:new 0 0 20 20;" xml:space="preserve">
<style type="text/css">
	.st0{fill:#606060;}
</style>
<g id="Edit_x2F_Pen_00000054968685683215280910000003252014841611938208_">
	<g>
		<g>
			<path class="st0" d="M17.652,6.053l-3.711-3.707C13.716,2.123,13.418,2,13.101,2h-0.004c-0.318,0.001-0.615,0.125-0.839,0.35
				l-9.867,9.907c-0.219,0.22-0.342,0.513-0.346,0.824L2,16.797c-0.003,0.326,0.122,0.631,0.353,0.86
				C2.577,17.879,2.873,18,3.188,18h0.028l3.774-0.084c0.307-0.007,0.596-0.13,0.814-0.348l9.848-9.835
				C17.877,7.509,18,7.211,18,6.893C18,6.576,17.877,6.277,17.652,6.053 M7.097,16.86c-0.034,0.035-0.081,0.055-0.129,0.056
				L3.193,17c-0.059-0.009-0.116-0.035-0.137-0.055C3.035,16.924,2.999,16.879,3,16.809l0.045-3.717
				c0.001-0.048,0.02-0.094,0.055-0.129l7.693-7.725l3.971,3.966L7.097,16.86z M16.945,7.026l-1.473,1.471L11.499,4.53l1.468-1.475
				C13.015,3.007,13.071,3,13.1,3h0.001c0.029,0,0.085,0.006,0.133,0.054l3.711,3.706C16.993,6.808,17,6.864,17,6.893
				S16.993,6.978,16.945,7.026"/>
		</g>
	</g>
</g>
</svg>
