<svg xmlns="http://www.w3.org/2000/svg" width="101" height="104.017"><defs><style>.a{fill:#f4985b}.c{fill:#263238}</style></defs><path class="a" d="m.606 38.622 97.538-.908 2.854 66.3-101-.722z"/><path class="a" d="M.607 38.635 46.683 1.189a5.309 5.309 0 0 1 6.7 0L98.139 37.72"/><path d="m305.31 246.455 46.076-37.446a5.309 5.309 0 0 1 6.7 0l44.756 36.531" transform="translate(-304.704 -207.82)" style="opacity:.3"/><path class="c" d="M.001 103.28c-.117-.117 7.668-8.658 17.4-19.077s17.722-18.747 17.846-18.651-7.668 8.651-17.406 19.077S.125 103.404.001 103.28zM100.998 104.016c-.124.117-7.744-8.253-17.021-18.616s-16.7-18.912-16.574-19.022 7.744 8.253 17.028 18.623 16.691 18.905 16.567 19.015z"/><path d="m402.848 262.66-48.9 39.227-48.638-38.319" transform="translate(-304.704 -224.946)" style="opacity:.5"/><path d="m312.37 254.868-.22-30.465 85.407-1.183 1.025 32.047-42.5 33.787z" transform="translate(-306.84 -212.629)" style="fill:#fafafa"/><path class="c" d="M5.531 42.239s.282.2.811.605l2.324 1.795 8.844 6.877c7.62 5.949 18.568 14.442 31.82 24.813h-.179l42.48-33.815-.062.144c-.2-6.114-.406-12.53-.612-19.056-.144-4.394-.282-8.741-.419-13l.179.172-85.4 1.128.11-.117c.041 9.58.083 17.193.1 22.406v6.011c0-1.375-.041-3.37-.069-5.969C5.41 29 5.334 21.387 5.245 11.786v-.11h.11l85.355-1.237h.179v.179c.138 4.257.275 8.6.419 12.991.206 6.526.413 12.943.605 19.056v.089l-.069.055-42.528 33.767-.089.076-.089-.076-31.786-24.943-8.775-6.918-2.29-1.816z"/><path class="c" d="M77.251 25.954c0 .1-13.066.282-29.173.413s-29.173.158-29.173.062 13.066-.282 29.173-.419 29.173-.159 29.173-.056zM77.265 34.557c0 .1-13.066.289-29.166.419s-29.173.158-29.173.055 13.066-.282 29.173-.413 29.166-.157 29.166-.061zM77.286 44.474c0 .1-13.066.289-29.166.419s-29.173.158-29.173.055 13.066-.282 29.173-.413 29.166-.157 29.166-.061zM77.306 54.391c0 .1-12.454.282-27.825.406s-27.832.151-27.832.048 12.454-.282 27.832-.406 27.825-.145 27.825-.048zM66.413 63.117a1.136 1.136 0 0 1-.344.041l-.983.041-3.6.089-11.9.22c-4.649.083-8.865.11-11.911.11h-4.587a1.374 1.374 0 0 1-.344-.034 1.136 1.136 0 0 1 .344-.041l.977-.041 3.611-.089 11.9-.213a638.34 638.34 0 0 1 11.9-.117h4.594a1.751 1.751 0 0 1 .343.034zM55.41 71.508a107.233 107.233 0 0 1-12.379.028 107.215 107.215 0 0 1 12.379-.028z"/></svg>