<?xml version="1.0" encoding="utf-8"?>
<!-- Generator: Adobe Illustrator 27.3.1, SVG Export Plug-In . SVG Version: 6.00 Build 0)  -->
<svg version="1.1" id="Layer_1" xmlns="http://www.w3.org/2000/svg" xmlns:xlink="http://www.w3.org/1999/xlink" x="0px" y="0px"
	 viewBox="0 0 24 24" style="enable-background:new 0 0 24 24;" xml:space="preserve">
<style type="text/css">
	.st0{fill:#0072C6;}
</style>
<g id="XMLID_00000101786815029273223390000008491338909747619510_">
	<g>
		<g>
			<path class="st0" d="M21.6,16.9L14.4,4.4C13.9,3.5,13,3,12,3s-1.9,0.5-2.4,1.4L2.4,16.9C2.1,17.3,2,17.8,2,18.3
				c0,0.7,0.3,1.4,0.8,1.9c0.3,0.4,0.8,0.6,1.2,0.7C4.3,21,4.5,21,4.8,21h14.4c1,0,1.9-0.5,2.4-1.4C22.1,18.8,22.1,17.7,21.6,16.9z
				 M13.2,17.3c0,0.2-0.1,0.5-0.3,0.6c-0.2,0.2-0.4,0.3-0.6,0.3h-0.6c-0.2,0-0.5-0.1-0.6-0.3c-0.2-0.2-0.3-0.4-0.3-0.6v-0.5
				c0-0.2,0.1-0.5,0.3-0.6c0.2-0.2,0.4-0.3,0.6-0.3h0.6c0.2,0,0.5,0.1,0.6,0.3c0.2,0.2,0.3,0.4,0.3,0.6V17.3z M12.9,13.5
				c0,0.2-0.1,0.4-0.3,0.6c-0.2,0.2-0.4,0.3-0.6,0.3c-0.3,0-0.5-0.1-0.7-0.3c-0.2-0.2-0.2-0.4-0.3-0.6l-0.3-4.9
				c0-0.2,0.1-0.5,0.2-0.6c0.2-0.2,0.4-0.3,0.6-0.3h0.6c0.2,0,0.5,0.1,0.6,0.3c0.2,0.2,0.3,0.4,0.2,0.6L12.9,13.5z"/>
		</g>
	</g>
</g>
</svg>
