<?xml version="1.0" encoding="utf-8"?>
<!-- Generator: Adobe Illustrator 25.4.0, SVG Export Plug-In . SVG Version: 6.00 Build 0)  -->
<svg version="1.1" xmlns="http://www.w3.org/2000/svg" xmlns:xlink="http://www.w3.org/1999/xlink" x="0px" y="0px"
	 viewBox="0 0 20 20" enable-background="new 0 0 20 20" xml:space="preserve">
<g id="Layer_3">
</g>
<g id="Layer_4" display="none">
</g>
<g id="Layer_1">
	<g>
		<path d="M13.019,10.627c0.101-0.306,0.159-0.631,0.159-0.972c0-1.753-1.426-3.179-3.179-3.179c-0.34,0-0.666,0.058-0.972,0.159
			l0.858,0.858C9.925,7.492,9.96,7.477,10,7.477c1.201,0,2.179,0.978,2.179,2.179c0,0.04-0.015,0.075-0.017,0.114L13.019,10.627z"/>
		<path d="M7.535,5.143c0.735-0.296,1.554-0.487,2.474-0.487c4.379,0,6.733,4.415,6.979,5.161c-0.139,0.398-0.813,1.64-2.012,2.766
			l0.708,0.708C17.225,11.831,18,10.173,18,9.824c0-0.687-2.667-6.168-7.992-6.168c-1.221,0-2.3,0.281-3.241,0.72L7.535,5.143z"/>
		<path d="M4.6,3.586L4.6,3.586L3.892,4.292l1.155,1.155C3.019,7.063,2,9.244,2,9.656c0,0.668,2.673,6,8.008,6
			c1.608,0,2.969-0.477,4.092-1.154l1.913,1.913l0.689-0.689L4.582,3.604L4.6,3.586z M8.139,8.54l2.977,2.977
			c-0.328,0.197-0.707,0.318-1.116,0.318c-1.201,0-2.179-0.978-2.179-2.179C7.821,9.246,7.942,8.867,8.139,8.54z M5.756,6.156
			l1.66,1.661c-0.371,0.52-0.595,1.152-0.595,1.839c0,1.753,1.426,3.179,3.179,3.179c0.686,0,1.318-0.224,1.839-0.595l1.532,1.533
			c-0.938,0.523-2.056,0.884-3.363,0.884c-4.431,0-6.774-4.31-6.999-5.003C3.142,9.232,4.053,7.47,5.756,6.156z"/>
	</g>
</g>
</svg>
