<svg xmlns="http://www.w3.org/2000/svg" width="17.667" height="17.667" viewBox="0 0 17.667 17.667"><path d="M9.788,12.257H9.052a.552.552,0,1,1,0-1.1h.736a.921.921,0,0,0,.92-.92V6.552a.552.552,0,0,1,1.1,0v3.681A2.026,2.026,0,0,1,9.788,12.257Z" transform="translate(-2.243 -1.583)"/><path d="M10.379,18.826a3.557,3.557,0,0,1-3.052-1.744.552.552,0,0,1,.952-.561,2.438,2.438,0,0,0,4.2,0,.552.552,0,0,1,.952.561A3.561,3.561,0,0,1,10.379,18.826Z" transform="translate(-1.913 -4.288)"/><path d="M21.245,6.145a.552.552,0,0,1-.552-.552V2.024a.921.921,0,0,0-.92-.92H16.2a.552.552,0,0,1,0-1.1h3.569A2.026,2.026,0,0,1,21.8,2.024V5.593A.552.552,0,0,1,21.245,6.145Z" transform="translate(-4.13)"/><path d="M.552,6.145A.552.552,0,0,1,0,5.593V2.024A2.026,2.026,0,0,1,2.024,0H5.593a.552.552,0,1,1,0,1.1H2.024a.921.921,0,0,0-.92.92V5.593a.552.552,0,0,1-.552.552Z"/><path d="M19.773,21.8H16.2a.552.552,0,0,1,0-1.1h3.569a.921.921,0,0,0,.92-.92V16.2a.552.552,0,0,1,1.1,0v3.569A2.026,2.026,0,0,1,19.773,21.8Z" transform="translate(-4.13 -4.13)"/><path d="M5.593,21.8H2.024A2.026,2.026,0,0,1,0,19.773V16.2a.552.552,0,0,1,1.1,0v3.569a.921.921,0,0,0,.92.92H5.593a.552.552,0,1,1,0,1.1Z" transform="translate(0 -4.13)"/><path d="M5.552,6A.552.552,0,0,0,5,6.552v1.1a.552.552,0,0,0,1.1,0v-1.1A.552.552,0,0,0,5.552,6Z" transform="translate(-1.319 -1.583)"/><path d="M17.052,6a.552.552,0,0,0-.552.552v1.1a.552.552,0,0,0,1.1,0v-1.1A.552.552,0,0,0,17.052,6Z" transform="translate(-4.354 -1.583)"/></svg>