<svg xmlns="http://www.w3.org/2000/svg" width="101" height="101" viewBox="0 0 101 101"><defs><style>.a,.b{fill:#0072c6;}.a{opacity:0.2;}</style></defs><g transform="translate(-130 -208)"><circle class="a" cx="50.5" cy="50.5" r="50.5" transform="translate(130 208)"/><g transform="translate(158 236)"><path class="b" d="M11.854,22.292H9.938a1.438,1.438,0,0,1,0-2.875h1.917a2.4,2.4,0,0,0,2.4-2.4V7.438a1.437,1.437,0,1,1,2.875,0v9.583A5.275,5.275,0,0,1,11.854,22.292Z" transform="translate(7.792 5.5)"/><path class="b" d="M15.4,22.96a9.262,9.262,0,0,1-7.947-4.541,1.438,1.438,0,0,1,2.478-1.461,6.349,6.349,0,0,0,10.94,0,1.438,1.438,0,0,1,2.478,1.461A9.273,9.273,0,0,1,15.4,22.96Z" transform="translate(6.646 14.895)"/><path class="b" d="M30.215,16a1.438,1.438,0,0,1-1.438-1.437V5.271a2.4,2.4,0,0,0-2.4-2.4H17.09A1.438,1.438,0,0,1,17.09,0h9.292a5.276,5.276,0,0,1,5.271,5.271v9.292A1.438,1.438,0,0,1,30.215,16Z" transform="translate(14.348)"/><path class="b" d="M1.438,16A1.438,1.438,0,0,1,0,14.563V5.271A5.276,5.276,0,0,1,5.271,0h9.292a1.438,1.438,0,0,1,0,2.875H5.271a2.4,2.4,0,0,0-2.4,2.4v9.292A1.438,1.438,0,0,1,1.437,16Z"/><path class="b" d="M26.382,31.652H17.09a1.438,1.438,0,0,1,0-2.875h9.292a2.4,2.4,0,0,0,2.4-2.4V17.09a1.438,1.438,0,0,1,2.875,0v9.292A5.276,5.276,0,0,1,26.382,31.652Z" transform="translate(14.348 14.348)"/><path class="b" d="M14.563,31.652H5.271A5.276,5.276,0,0,1,0,26.382V17.09a1.438,1.438,0,0,1,2.875,0v9.292a2.4,2.4,0,0,0,2.4,2.4h9.292a1.438,1.438,0,0,1,0,2.875Z" transform="translate(0 14.348)"/><path class="b" d="M6.438,6A1.438,1.438,0,0,0,5,7.438v2.875a1.438,1.438,0,0,0,2.875,0V7.438A1.438,1.438,0,0,0,6.438,6Z" transform="translate(4.583 5.5)"/><path class="b" d="M17.938,6A1.438,1.438,0,0,0,16.5,7.438v2.875a1.438,1.438,0,0,0,2.875,0V7.438A1.438,1.438,0,0,0,17.938,6Z" transform="translate(15.125 5.5)"/></g></g></svg>