<?xml version="1.0" encoding="utf-8"?>
<!-- Generator: Adobe Illustrator 25.4.1, SVG Export Plug-In . SVG Version: 6.00 Build 0)  -->
<svg version="1.1" id="Layer_1" xmlns="http://www.w3.org/2000/svg" xmlns:xlink="http://www.w3.org/1999/xlink" x="0px" y="0px"
	 viewBox="0 0 20 20" style="enable-background:new 0 0 20 20;" xml:space="preserve">
<style type="text/css">
	.st0{fill:#606060;}
</style>
<g id="Layer_1_00000091707058365518214970000000231465754316031643_">
	<g id="XMLID_00000000932960316215754730000001326736470683848353_">
		<path class="st0" d="M12.826,18c-0.021,0-0.042-0.001-0.064-0.002l-8.769,0.001V9.354L4.92,8.735
			C8.709,6.644,8.226,3.444,8.203,3.31L8.181,3.17l0.053-0.133c0.241-0.594,0.643-0.843,0.938-0.946
			c0.801-0.281,1.65,0.174,1.746,0.227l0.12,0.094c1.439,1.532,0.69,4.156,0.189,5.444c1.169-0.036,2.965-0.07,3.412,0.042
			c1.689,0.423,1.395,2.928,1.255,4.132l-0.028,0.249C15.62,14.675,14.518,18,12.826,18z M4.994,16.999h7.793
			c0.005,0,0.01,0,0.015,0c0.64,0,1.784-2.048,2.069-4.823l0.029-0.263c0.091-0.775,0.332-2.836-0.504-3.045
			c-0.304-0.077-2.233-0.054-3.924,0.015L9.627,8.916l0.38-0.758c0.481-0.961,1.466-3.7,0.356-5C10.178,3.073,9.783,2.937,9.5,3.035
			c-0.079,0.028-0.19,0.088-0.289,0.27c0.081,0.786,0.168,4.113-3.772,6.284l-0.445,0.3V16.999z"/>
	</g>
</g>
</svg>
