<?xml version="1.0" encoding="utf-8"?>
<!-- Generator: Adobe Illustrator 25.4.1, SVG Export Plug-In . SVG Version: 6.00 Build 0)  -->
<svg version="1.1" id="Layer_1" xmlns="http://www.w3.org/2000/svg" xmlns:xlink="http://www.w3.org/1999/xlink" x="0px" y="0px"
	 viewBox="0 0 50 50" style="enable-background:new 0 0 50 50;" xml:space="preserve">
<style type="text/css">
	.st0{fill:#F0A229;}
</style>
<g id="BG">
</g>
<g id="Icons">
	<g id="XMLID_00000043455766145217426930000011857864260411803027_">
		<path class="st0" d="M31.811,36.25H18.189c-1.665,0-3.02-1.3555-3.02-3.0205v-16.459c0-1.665,1.355-3.0205,3.02-3.0205h9.8906
			c0.9258,0,1.8179,0.4365,2.3857,1.168l3.7314,4.8076c0.4092,0.5283,0.6343,1.1855,0.6343,1.8525v11.6514
			C34.8311,34.8945,33.4761,36.25,31.811,36.25z M18.189,15.25c-0.8384,0-1.52,0.6816-1.52,1.5205v16.459
			c0,0.8389,0.6816,1.5205,1.52,1.5205h13.622c0.8384,0,1.52-0.6816,1.52-1.5205V21.5781c0-0.3359-0.1133-0.667-0.3193-0.9336
			l-3.731-4.8066c-0.2861-0.3682-0.7349-0.5879-1.2012-0.5879H18.189z"/>
	</g>
	<g id="XMLID_00000130619163914133803240000001385707520686528701_">
		<path class="st0" d="M34.0811,22.25h-4.79c-0.8535,0-1.5483-0.6855-1.5483-1.5273V14.5h1.5v6.2227l4.8384,0.0273L34.0811,22.25
			L34.0811,22.25z"/>
	</g>
	<g>
		<rect x="20.2002" y="24.25" class="st0" width="8.3945" height="1.5"/>
	</g>
	<g>
		<rect x="20.2002" y="28.4854" class="st0" width="8.3945" height="1.5"/>
	</g>
</g>
</svg>
