<?xml version="1.0" encoding="utf-8"?>
<!-- Generator: Adobe Illustrator 25.4.1, SVG Export Plug-In . SVG Version: 6.00 Build 0)  -->
<svg version="1.1" xmlns="http://www.w3.org/2000/svg" xmlns:xlink="http://www.w3.org/1999/xlink" x="0px" y="0px"
	 viewBox="0 0 24 24" style="enable-background:new 0 0 24 24;" xml:space="preserve">
<style type="text/css">
	.st0{fill:#FDF0E9;}
	.st1{opacity:0.1;}
	.st2{fill:#0072C6;}
	.st3{fill:#FFFFFF;}
	.st4{fill:#606060;}
	.st5{fill:#ED702D;}
	.st6{fill:none;stroke:#FFFFFF;stroke-width:1.5;stroke-linecap:round;}
</style>
<g id="BG">
</g>
<g id="Icons">
	<g>
		<g>
			<path class="st2" d="M18.2412,20.6875h-12.5c-2.0674,0-3.75-1.6821-3.75-3.75v-10c0-2.0679,1.6826-3.75,3.75-3.75h12.5
				c2.0674,0,3.75,1.6821,3.75,3.75v10C21.9912,19.0054,20.3086,20.6875,18.2412,20.6875z M5.7412,4.6875
				c-1.2402,0-2.25,1.0093-2.25,2.25v10c0,1.2407,1.0098,2.25,2.25,2.25h12.5c1.2402,0,2.25-1.0093,2.25-2.25v-10
				c0-1.2407-1.0098-2.25-2.25-2.25H5.7412z"/>
		</g>
		<g>
			<path class="st2" d="M17.5498,20.5688c-1.9941-2.1807-4.8545-5.229-7.1572-7.3677c-0.5068-0.4707-1.4648-1.3525-2.54-1.2754
				c-0.6387,0.042-1.1514,0.3984-2.0762,1.0771c-0.9121,0.6704-1.7324,1.4839-2.4365,2.418l-1.1973-0.9033
				c0.792-1.0503,1.7158-1.9663,2.7461-2.7236c0.9443-0.6934,1.7607-1.292,2.8643-1.3652c1.7275-0.1167,3.0342,1.0928,3.6602,1.6733
				c2.3398,2.1733,5.2305,5.2529,7.2441,7.4541L17.5498,20.5688z"/>
		</g>
		<g>
			<path class="st2" d="M20.71,17.4014c-1.0205-1.0952-2.0977-2.0879-3.1992-2.9512c-0.5293-0.4136-1.0449-0.7754-1.4834-0.6973
				c-0.0459,0.0088-0.1836,0.0342-0.708,0.4429c-0.6035,0.4712-1.168,1.022-1.6748,1.6357l-1.1562-0.9561
				c0.5762-0.6973,1.2188-1.3237,1.9082-1.8628c0.6787-0.5283,1.0225-0.6724,1.3574-0.7344
				c1.1465-0.2129,2.1064,0.5405,2.6816,0.9907c1.1631,0.9116,2.2979,1.9575,3.3721,3.1089L20.71,17.4014z"/>
		</g>
		<g>
			<path class="st2" d="M14.2031,10.5796c-1.1816,0-2.1426-0.9609-2.1426-2.1421s0.9609-2.1421,2.1426-2.1421
				c1.1807,0,2.1416,0.9609,2.1416,2.1421S15.3838,10.5796,14.2031,10.5796z M14.2031,7.7954c-0.3545,0-0.6426,0.2881-0.6426,0.6421
				s0.2881,0.6421,0.6426,0.6421c0.3535,0,0.6416-0.2881,0.6416-0.6421S14.5566,7.7954,14.2031,7.7954z"/>
		</g>
	</g>
</g>
</svg>
