<?xml version="1.0" encoding="utf-8"?>
<!-- Generator: Adobe Illustrator 25.4.0, SVG Export Plug-In . SVG Version: 6.00 Build 0)  -->
<svg version="1.1" xmlns="http://www.w3.org/2000/svg" xmlns:xlink="http://www.w3.org/1999/xlink" x="0px" y="0px"
	 viewBox="0 0 24 24" enable-background="new 0 0 24 24" xml:space="preserve">
<g id="Layer_3">
</g>
<g id="Layer_4" display="none">
</g>
<g id="Layer_1">
	<path d="M21.108,1.778H2.893c-0.614,0-1.114,0.492-1.114,1.097v3.684c0,0.282,0.108,0.55,0.306,0.754l6.98,7.256v6.554
		c0,0.438,0.264,0.833,0.673,1.007c0.143,0.061,0.294,0.091,0.442,0.091c0.286,0,0.565-0.109,0.778-0.314l3.647-3.521
		c0.21-0.205,0.33-0.489,0.33-0.78v-3.017l6.981-7.277c0.196-0.205,0.305-0.473,0.305-0.754V2.875
		C22.222,2.27,21.722,1.778,21.108,1.778z M20.722,3.278v1.914H3.278V3.278H20.722z M13.74,13.669
		c-0.196,0.205-0.305,0.473-0.305,0.754v3.008l-2.871,2.771v-5.801c0-0.283-0.109-0.552-0.307-0.755L3.567,6.692h16.867
		L13.74,13.669z"/>
</g>
</svg>
