<?xml version="1.0" encoding="utf-8"?>
<!-- Generator: Adobe Illustrator 25.4.0, SVG Export Plug-In . SVG Version: 6.00 Build 0)  -->
<svg version="1.1" xmlns="http://www.w3.org/2000/svg" xmlns:xlink="http://www.w3.org/1999/xlink" x="0px" y="0px"
	 viewBox="0 0 100 100" enable-background="new 0 0 100 100" xml:space="preserve">
<g id="Layer_3">
</g>
<g id="Layer_4" display="none">
</g>
<g id="Layer_1">
	<g>
		<path fill="#0072C6" d="M32.789,44.524l-1.99-0.189c-0.28-0.027-0.49-0.28-0.456-0.559c0.124-1.015,0.33-2.023,0.616-3.008
			c0.078-0.27,0.371-0.421,0.639-0.335l1.905,0.608c0.258,0.082,0.397,0.353,0.323,0.614c-0.228,0.797-0.395,1.612-0.498,2.431
			C33.293,44.356,33.059,44.55,32.789,44.524z"/>
	</g>
	<g>
		<path fill="#0072C6" d="M53.971,73.716c-1.492,0-3.07-0.185-4.697-0.638c-5.843-1.628-9.188-5.866-11.402-8.67
			c-1.268-1.606-3.906-6.263-5.178-8.948c-0.071-0.15-0.156-0.319-0.251-0.507c-0.517-1.029-1.297-2.585-1.776-4.704
			c-0.106-0.468-0.195-0.944-0.265-1.419c-0.041-0.279,0.163-0.535,0.443-0.568l1.986-0.233c0.269-0.032,0.507,0.157,0.548,0.425
			c0.057,0.378,0.128,0.757,0.213,1.132c0.398,1.764,1.054,3.068,1.532,4.021c0.105,0.21,0.2,0.399,0.28,0.569
			c1.17,2.47,3.718,6.974,4.822,8.372c2.09,2.648,4.952,6.274,9.852,7.639c5.139,1.431,9.783-0.376,12.127-1.603
			c2.233-1.414,6.121-4.532,7.45-9.701c1.224-4.752-0.225-8.854-1.679-12.326c-0.811-1.934-2.945-5.755-4.831-8.359
			c-2.179-3.007-5.048-6.26-9.813-7.588c-5.182-1.445-9.853,0.401-12.177,1.629c-2.315,1.337-4.281,3.272-5.671,5.592
			c-0.139,0.232-0.431,0.316-0.667,0.184l-1.747-0.976c-0.246-0.137-0.336-0.454-0.192-0.696c1.654-2.781,4.005-5.101,6.826-6.729
			c2.769-1.464,8.254-3.613,14.432-1.895c5.688,1.586,9.102,5.492,11.438,8.719c2.073,2.863,4.297,6.881,5.169,8.96
			c1.763,4.211,3.203,8.85,1.817,14.233c-1.6,6.215-6.205,9.887-8.809,11.522l-0.097,0.056
			C61.653,72.269,58.149,73.716,53.971,73.716z"/>
	</g>
	<g>
		<path fill="#0072C6" d="M54.29,66.347c-1.342,0-2.697-0.236-4.01-0.718c-2.615-0.96-4.745-2.916-6.137-5.328
			c-1.362-2.36-3.645-6.315-4.964-8.599c-0.962-1.667-1.549-3.543-1.56-5.469c-0.025-4.383,2.186-8.167,5.771-10.237
			c5.488-3.171,12.537-1.282,15.709,4.209l4.881,8.454c0.138,0.239,0.056,0.545-0.183,0.683l-1.732,1
			c-0.239,0.138-0.545,0.056-0.683-0.183l-4.881-8.454c-2.345-4.059-7.554-5.453-11.611-3.111c-2.123,1.226-3.592,3.264-4.085,5.69
			c-0.429,2.112,0.044,4.31,1.121,6.176l4.838,8.381c1.075,1.863,2.739,3.368,4.779,4.052c2.349,0.788,4.854,0.537,6.977-0.691
			c1.919-1.108,3.331-2.933,3.932-5.055c0.073-0.258,0.324-0.419,0.585-0.361l1.954,0.434c0.276,0.061,0.455,0.343,0.382,0.616
			c-0.791,2.925-2.719,5.444-5.353,6.964C58.249,65.824,56.282,66.347,54.29,66.347z"/>
	</g>
	<g>
		<path fill="#0072C6" d="M41.467,77.386c-0.137,0.245-0.452,0.334-0.695,0.192c-1.638-0.959-3.166-2.092-4.548-3.373
			c-1.301-1.207-2.577-2.655-4.916-6.141c-1.158-1.725-4.252-7.039-5.11-8.854c-3.327-7.04-4.2-13.765-2.594-19.987
			c2.347-9.096,9.392-14.275,12.312-16.081c2.364-1.365,4.86-2.344,7.46-2.931c1.407-0.318,2.852-0.521,4.303-0.604
			c0.28-0.016,0.52,0.207,0.53,0.487l0.076,1.998c0.01,0.271-0.198,0.496-0.47,0.512c-1.275,0.075-2.544,0.253-3.78,0.532
			c-2.304,0.521-4.518,1.389-6.581,2.58c-2.573,1.592-8.871,6.214-10.946,14.256c-2.148,8.327,1.275,15.573,2.401,17.955
			c0.799,1.688,3.805,6.849,4.889,8.465c2.178,3.244,3.324,4.553,4.467,5.613c1.212,1.125,2.553,2.121,3.992,2.965
			c0.234,0.137,0.318,0.432,0.186,0.669L41.467,77.386z"/>
	</g>
	<g>
		<path fill="#0072C6" d="M50.077,80.906c-1.628-0.257-3.233-0.667-4.785-1.219c-0.264-0.094-0.398-0.392-0.299-0.655l0.709-1.873
			c0.096-0.253,0.374-0.378,0.629-0.287c1.356,0.482,2.759,0.84,4.183,1.067c0.267,0.043,0.451,0.285,0.414,0.553l-0.275,1.983
			C50.614,80.752,50.354,80.949,50.077,80.906z"/>
	</g>
	<g>
		<path fill="#0072C6" d="M54.752,80.715l-0.04-2c-0.005-0.271,0.206-0.491,0.477-0.502c1.41-0.058,2.816-0.243,4.187-0.553
			c2.144-0.485,4.212-1.271,6.154-2.339c0.238-0.131,0.534-0.052,0.669,0.183l1,1.731c0.141,0.243,0.055,0.561-0.191,0.696
			c-2.198,1.213-4.541,2.105-6.971,2.655c-1.56,0.352-3.16,0.562-4.763,0.626C54.994,81.223,54.758,80.996,54.752,80.715z"/>
	</g>
	<g>
		<path fill="#0072C6" d="M77.524,50.051c-0.266,0.056-0.523-0.11-0.583-0.375c-0.511-2.232-1.31-4.46-2.436-6.796
			c-0.69-1.433-3.536-6.351-4.622-8.061c-0.144-0.227-0.082-0.523,0.14-0.676l1.648-1.136c0.233-0.16,0.549-0.102,0.701,0.136
			c1.162,1.823,4.074,6.853,4.836,8.434c1.229,2.551,2.103,4.996,2.664,7.458c0.062,0.273-0.116,0.545-0.391,0.603L77.524,50.051z"
			/>
	</g>
	<g>
		<path fill="#0072C6" d="M64.777,28.452c-2.52-2.28-5.63-3.964-9.258-5.013c-0.261-0.075-0.417-0.341-0.346-0.603l0.522-1.932
			c0.073-0.271,0.359-0.433,0.629-0.355c4.097,1.181,7.623,3.098,10.497,5.706c0.208,0.189,0.217,0.518,0.023,0.722l-1.377,1.453
			C65.281,28.625,64.978,28.633,64.777,28.452z"/>
	</g>
	<g>
		<path fill="#0072C6" d="M54.14,57.615l-7.338-12.708c-0.138-0.239-0.056-0.545,0.183-0.683l1.732-1
			c0.239-0.138,0.545-0.056,0.683,0.183l7.338,12.708c0.138,0.239,0.056,0.545-0.183,0.683l-1.732,1
			C54.584,57.936,54.278,57.854,54.14,57.615z"/>
	</g>
</g>
</svg>
