<?xml version="1.0" encoding="utf-8"?>
<!-- Generator: Adobe Illustrator 25.4.0, SVG Export Plug-In . SVG Version: 6.00 Build 0)  -->
<svg version="1.1" xmlns="http://www.w3.org/2000/svg" xmlns:xlink="http://www.w3.org/1999/xlink" x="0px" y="0px"
	 viewBox="0 0 24 24" enable-background="new 0 0 24 24" xml:space="preserve">
<g id="Layer_3">
</g>
<g id="Layer_4" display="none">
</g>
<g id="Layer_1">
	<g>
		<g>
			<path d="M5.584,9.982L5.086,9.935C4.944,9.921,4.838,9.793,4.857,9.652c0.039-0.289,0.099-0.576,0.176-0.859
				c0.038-0.137,0.186-0.213,0.321-0.17l0.477,0.151C5.959,8.815,6.028,8.949,5.993,9.08c-0.061,0.226-0.108,0.455-0.14,0.686
				C5.834,9.899,5.718,9.995,5.584,9.982z"/>
		</g>
		<g>
			<path d="M12.897,19.944c-0.507,0-1.044-0.063-1.596-0.217c-1.991-0.555-3.132-2-3.887-2.955
				c-0.432-0.548-1.332-2.137-1.766-3.053l-0.085-0.174c-0.177-0.35-0.443-0.881-0.605-1.604c-0.062-0.268-0.095-0.497-0.113-0.654
				l0.993-0.121c0.017,0.132,0.044,0.326,0.096,0.553c0.137,0.605,0.361,1.05,0.524,1.376l0.096,0.194
				c0.4,0.844,1.271,2.383,1.647,2.861c0.715,0.905,1.693,2.144,3.37,2.612c1.771,0.492,3.369-0.138,4.165-0.558
				c0.728-0.46,2.073-1.529,2.532-3.31c0.418-1.628-0.077-3.029-0.574-4.215c-0.277-0.661-1.006-1.966-1.65-2.856
				c-0.745-1.028-1.725-2.141-3.356-2.595c-1.772-0.492-3.37,0.137-4.166,0.557C7.75,6.232,7.092,6.871,6.619,7.635
				C6.549,7.75,6.404,7.791,6.287,7.726L5.849,7.482C5.726,7.413,5.68,7.252,5.754,7.132c0.56-0.915,1.345-1.68,2.283-2.222
				c0.943-0.499,2.813-1.233,4.918-0.645c1.94,0.54,3.102,1.872,3.899,2.972c0.708,0.976,1.466,2.347,1.763,3.056
				c0.601,1.434,1.093,3.015,0.621,4.851c-0.545,2.116-2.115,3.368-3.001,3.926C15.528,19.446,14.325,19.944,12.897,19.944z"/>
		</g>
		<g>
			<path d="M13.011,17.426c-1.354,0-2.673-0.702-3.397-1.956L7.93,12.552c-0.496-0.859-0.713-1.87-0.516-2.842
				C7.64,8.592,8.318,7.653,9.295,7.088c0.906-0.523,1.962-0.661,2.97-0.391c1.01,0.27,1.854,0.918,2.377,1.824l1.627,2.817
				c0.069,0.12,0.028,0.273-0.091,0.342l-0.433,0.25c-0.12,0.069-0.273,0.028-0.342-0.092l-1.571-2.72
				c-0.358-0.62-0.903-1.131-1.576-1.376c-0.827-0.301-1.711-0.221-2.46,0.212C9.046,8.388,8.534,9.118,8.38,9.983
				c-0.125,0.701,0.043,1.423,0.399,2.039l1.701,2.948c0.805,1.392,2.591,1.871,3.981,1.066c0.636-0.367,1.109-0.964,1.326-1.661
				c0.04-0.128,0.164-0.208,0.294-0.179l0.49,0.109c0.139,0.031,0.23,0.173,0.19,0.31c-0.282,0.961-0.927,1.785-1.799,2.289
				C14.346,17.257,13.675,17.426,13.011,17.426z"/>
		</g>
		<g>
			<path d="M8.679,21.126c-0.069,0.123-0.228,0.168-0.349,0.096c-0.532-0.318-1.028-0.69-1.479-1.107
				c-0.444-0.412-0.879-0.906-1.677-2.094c-0.362-0.54-1.432-2.363-1.744-3.022C2.295,12.6,1.998,10.307,2.546,8.183
				C3.346,5.08,5.748,3.315,6.744,2.701c0.806-0.466,1.657-0.8,2.543-1c0.455-0.102,0.919-0.17,1.384-0.2
				c0.141-0.009,0.262,0.104,0.267,0.245l0.019,0.5c0.005,0.135-0.098,0.246-0.233,0.255c-0.409,0.028-0.816,0.087-1.215,0.177
				C8.72,2.855,7.964,3.152,7.258,3.56c-0.88,0.544-3.032,2.122-3.742,4.874c-0.495,1.917-0.227,3.925,0.82,6.137
				c0.272,0.575,1.298,2.338,1.67,2.892c0.744,1.108,1.136,1.555,1.526,1.918c0.396,0.367,0.832,0.694,1.3,0.974
				c0.116,0.07,0.158,0.216,0.092,0.334L8.679,21.126z"/>
		</g>
		<g>
			<path d="M11.492,22.385c-0.499-0.084-0.992-0.209-1.471-0.375c-0.133-0.046-0.201-0.196-0.151-0.328l0.177-0.468
				c0.048-0.127,0.187-0.189,0.315-0.145c0.418,0.144,0.847,0.253,1.282,0.327c0.134,0.023,0.226,0.144,0.207,0.278l-0.068,0.495
				C11.763,22.309,11.631,22.409,11.492,22.385z"/>
		</g>
		<g>
			<path d="M13.167,22.252l-0.011-0.502c-0.003-0.135,0.102-0.244,0.237-0.251c0.458-0.023,0.913-0.086,1.356-0.186
				c0.708-0.16,1.392-0.416,2.037-0.763c0.119-0.064,0.266-0.025,0.334,0.092l0.25,0.433c0.071,0.122,0.028,0.282-0.097,0.349
				c-0.729,0.394-1.503,0.685-2.304,0.865c-0.505,0.114-1.021,0.184-1.541,0.21C13.288,22.507,13.17,22.393,13.167,22.252z"/>
		</g>
		<g>
			<path d="M21.029,11.859c-0.133,0.028-0.26-0.055-0.292-0.187c-0.175-0.735-0.442-1.474-0.815-2.249
				c-0.228-0.473-1.143-2.057-1.54-2.69c-0.071-0.113-0.039-0.261,0.071-0.337l0.413-0.284c0.118-0.081,0.278-0.049,0.354,0.072
				c0.422,0.674,1.353,2.285,1.603,2.804c0.407,0.846,0.699,1.654,0.89,2.464c0.032,0.137-0.058,0.274-0.196,0.303L21.029,11.859z"
				/>
		</g>
		<g>
			<path d="M16.542,4.444c-0.834-0.738-1.853-1.289-3.035-1.642C13.378,2.764,13.3,2.631,13.336,2.5l0.131-0.483
				c0.037-0.136,0.181-0.218,0.316-0.178c1.333,0.396,2.487,1.022,3.436,1.866c0.106,0.094,0.11,0.26,0.012,0.363l-0.344,0.363
				C16.794,4.53,16.643,4.533,16.542,4.444z"/>
		</g>
		<g>
			<path d="M12.93,14.384l-2.425-4.201c-0.069-0.12-0.028-0.273,0.092-0.342l0.433-0.25c0.12-0.069,0.273-0.028,0.342,0.092
				l2.425,4.201c0.069,0.12,0.028,0.273-0.092,0.342l-0.433,0.25C13.152,14.545,12.999,14.504,12.93,14.384z"/>
		</g>
	</g>
</g>
</svg>
