<?xml version="1.0" encoding="utf-8"?>
<!-- Generator: Adobe Illustrator 25.4.1, SVG Export Plug-In . SVG Version: 6.00 Build 0)  -->
<svg version="1.1" id="Layer_1" xmlns="http://www.w3.org/2000/svg" xmlns:xlink="http://www.w3.org/1999/xlink" x="0px" y="0px"
	 viewBox="0 0 24 24" style="enable-background:new 0 0 24 24;" xml:space="preserve">
<style type="text/css">
	.st0{fill:#0072C6;}
</style>
<g id="Icons">
	<path class="st0" d="M20.1767,7.3l-3.29-4.24c-0.52-0.66-1.33-1.06-2.17-1.06h-8.72c-1.51,0-2.75,1.23-2.75,2.75v14.5
		c0,1.52,1.24,2.75,2.75,2.75h12c1.52,0,2.75-1.23,2.75-2.75V8.98C20.7467,8.38,20.5467,7.78,20.1767,7.3z M6.6467,7.92
		c0-0.69,0.56-1.25,1.25-1.25h2c0.6899,0,1.25,0.56,1.25,1.25v2c0,0.69-0.5601,1.25-1.25,1.25h-2c-0.69,0-1.25-0.56-1.25-1.25V7.92z
		 M17.2967,17.64c0,0.14-0.11,0.25-0.25,0.25h-10.09c-0.14,0-0.25-0.11-0.25-0.25v-1c0-0.14,0.11-0.25,0.25-0.25h10.09
		c0.14,0,0.25,0.11,0.25,0.25V17.64z M17.2967,14.43c0,0.14-0.11,0.25-0.25,0.25h-10.09c-0.14,0-0.25-0.11-0.25-0.25v-1
		c0-0.13,0.11-0.25,0.25-0.25h10.09c0.14,0,0.25,0.12,0.25,0.25V14.43z"/>
</g>
</svg>
