<?xml version="1.0" encoding="utf-8"?>
<!-- Generator: Adobe Illustrator 25.4.1, SVG Export Plug-In . SVG Version: 6.00 Build 0)  -->
<svg version="1.1" xmlns="http://www.w3.org/2000/svg" xmlns:xlink="http://www.w3.org/1999/xlink" x="0px" y="0px"
	 viewBox="0 0 24 24" style="enable-background:new 0 0 24 24;" xml:space="preserve">
<style type="text/css">
	.st0{fill:#FDF0E9;}
	.st1{opacity:0.1;}
	.st2{fill:#0072C6;}
	.st3{fill:#FFFFFF;}
	.st4{fill:#606060;}
	.st5{fill:#ED702D;}
	.st6{fill:none;stroke:#FFFFFF;stroke-width:1.5;stroke-linecap:round;}
</style>
<g id="BG">
</g>
<g id="Icons">
	<path class="st2" d="M20.1724,7.2988L16.8853,3.064C16.3687,2.3979,15.5562,2,14.7129,2H6C4.4834,2,3.25,3.2334,3.25,4.75v14.5
		C3.25,20.7666,4.4834,22,6,22h12c1.5166,0,2.75-1.2334,2.75-2.75V8.9849C20.75,8.3774,20.5449,7.7788,20.1724,7.2988z
		 M18.9597,8.1827l-3.1326,0.0488V4.1468L18.9597,8.1827z M18,20.5H6c-0.6895,0-1.25-0.5605-1.25-1.25V4.75
		C4.75,4.0605,5.3105,3.5,6,3.5h8.3271v4.7314c0,0.7915,0.6519,1.4351,1.4531,1.4351H19.25V19.25
		C19.25,19.9395,18.6895,20.5,18,20.5z"/>
	<g>
		<path class="st2" d="M17.0474,14.6846H6.9526c-0.1381,0-0.25-0.1119-0.25-0.25v-1c0-0.1381,0.1119-0.25,0.25-0.25h10.0947
			c0.1381,0,0.25,0.1119,0.25,0.25v1C17.2974,14.5726,17.1854,14.6846,17.0474,14.6846z"/>
	</g>
	<g>
		<path class="st2" d="M17.0474,17.8921H6.9526c-0.1381,0-0.25-0.1119-0.25-0.25v-1c0-0.1381,0.1119-0.25,0.25-0.25h10.0947
			c0.1381,0,0.25,0.1119,0.25,0.25v1C17.2974,17.7802,17.1854,17.8921,17.0474,17.8921z"/>
	</g>
	<g>
		<path class="st2" d="M9.9004,11.1665h-2c-0.6895,0-1.25-0.5605-1.25-1.25v-2c0-0.6895,0.5605-1.25,1.25-1.25h2
			c0.6895,0,1.25,0.5605,1.25,1.25v2C11.1504,10.606,10.5898,11.1665,9.9004,11.1665z M8.1504,9.6665h1.5v-1.5h-1.5V9.6665z"/>
	</g>
</g>
</svg>
