<?xml version="1.0" encoding="utf-8"?>
<!-- Generator: Adobe Illustrator 25.4.1, SVG Export Plug-In . SVG Version: 6.00 Build 0)  -->
<svg version="1.1" id="Layer_1" xmlns="http://www.w3.org/2000/svg" xmlns:xlink="http://www.w3.org/1999/xlink" x="0px" y="0px"
	 viewBox="0 0 50 50" style="enable-background:new 0 0 50 50;" xml:space="preserve">
<style type="text/css">
	.st0{fill:#6DAD15;}
</style>
<g id="BG">
</g>
<g id="Icons">
	<g>
		<path class="st0" d="M31.8735,36.2793H18.8481c-2.3364,0-4.2373-1.9004-4.2373-4.2373V19.0176
			c0-2.3369,1.9009-4.2383,4.2373-4.2383h13.0254c2.3364,0,4.2373,1.9014,4.2373,4.2383V32.042
			C36.1108,34.3789,34.21,36.2793,31.8735,36.2793z M18.8481,16.2793c-1.5093,0-2.7373,1.2285-2.7373,2.7383V32.042
			c0,1.5098,1.228,2.7373,2.7373,2.7373h13.0254c1.5093,0,2.7373-1.2275,2.7373-2.7373V19.0176c0-1.5098-1.228-2.7383-2.7373-2.7383
			C31.8735,16.2793,18.8481,16.2793,18.8481,16.2793z"/>
	</g>
	<g>
		<path class="st0" d="M34.8569,34.1299c-2.5991-2.3584-6.3267-5.6543-9.3242-7.9658c-0.6909-0.5312-1.9751-1.5361-3.5352-1.4375
			c-0.9229,0.0508-1.6167,0.4502-2.8638,1.2109c-1.2026,0.7334-2.2822,1.6211-3.208,2.6406l-1.1104-1.0098
			c1.0225-1.124,2.2124-2.1035,3.5371-2.9121c1.2407-0.7559,2.2202-1.3535,3.5625-1.4277c2.1182-0.1094,3.7476,1.1426,4.5332,1.748
			c3.0371,2.3408,6.7974,5.666,9.4165,8.042L34.8569,34.1299z"/>
	</g>
	<g>
		<path class="st0" d="M29.9224,23.2207c-1.2427,0-2.2534-1.0107-2.2534-2.2539c0-1.2422,1.0107-2.2529,2.2534-2.2529
			s2.2534,1.0107,2.2534,2.2529C32.1758,22.21,31.165,23.2207,29.9224,23.2207z M29.9224,20.2139
			c-0.4155,0-0.7534,0.3379-0.7534,0.7529c0,0.416,0.3379,0.7539,0.7534,0.7539s0.7534-0.3379,0.7534-0.7539
			C30.6758,20.5518,30.3379,20.2139,29.9224,20.2139z"/>
	</g>
</g>
</svg>
