<?xml version="1.0" encoding="utf-8"?>
<!-- Generator: Adobe Illustrator 27.3.1, SVG Export Plug-In . SVG Version: 6.00 Build 0)  -->
<svg version="1.1" id="gif" xmlns="http://www.w3.org/2000/svg" xmlns:xlink="http://www.w3.org/1999/xlink" x="0px" y="0px"
	 viewBox="0 0 24 24" style="enable-background:new 0 0 24 24;" xml:space="preserve">
<rect style="fill:none;" width="24" height="24"/>
<path style="fill:#F0F0F0;" d="M15,8.5c-0.6,0-1.2-0.5-1.2-1.2v-5H4c-0.7,0-1.2,0.6-1.2,1.2v16.1c0,0.7,0.6,1.2,1.2,1.2h13.9
	c0.7,0,1.2-0.6,1.2-1.2V8.5H15z"/>
<path style="fill:#BBBDBF;" d="M14.2,8.2V2.9l4.5,5.3C18.7,8.2,14.2,8.2,14.2,8.2z"/>
<path style="fill:#BBBDBF;" d="M14.5,3.8L18,7.9h-3.5V3.8 M13.8,2v6.5h5.6L13.8,2z"/>
<path style="fill:#BBBDBF;" d="M17.8,21.4H4c-1,0-1.7-0.8-1.7-1.7V3.6c0-1,0.8-1.7,1.7-1.7h9.9v1H4c-0.4,0-0.7,0.3-0.7,0.7v16.1
	c0,0.4,0.3,0.7,0.7,0.7h13.9c0.4,0,0.7-0.3,0.7-0.7V8.5h1v11.1C19.6,20.6,18.8,21.4,17.8,21.4z"/>
<path style="fill:#545454;" d="M19.7,21.6H3.4C2.6,21.6,2,21,2,20.2v-8.3c0-0.8,0.6-1.4,1.4-1.4l0,0h16.3c0.8,0,1.4,0.6,1.4,1.4v8.3
	C21.1,21,20.5,21.6,19.7,21.6z"/>
<path style="fill:#FFFFFF;" d="M8.4,16h2v2.6c-0.3,0.1-0.6,0.2-0.9,0.2c-0.3,0-0.6,0.1-0.9,0.1c-0.8,0-1.3-0.2-1.7-0.7
	c-0.4-0.4-0.6-1.1-0.6-1.9c0-0.8,0.2-1.4,0.7-1.9s1.1-0.7,1.9-0.7c0.5,0,1,0.1,1.5,0.3L10,14.9c-0.4-0.2-0.7-0.3-1.1-0.3
	c-0.5,0-0.8,0.2-1.1,0.5s-0.4,0.7-0.4,1.2s0.1,1,0.3,1.2c0.2,0.3,0.5,0.4,1,0.4c0.2,0,0.4,0,0.7-0.1v-1h-1V16z"/>
<path style="fill:#FFFFFF;" d="M11.6,18.8v-5h1.1v5H11.6z"/>
<path style="fill:#FFFFFF;" d="M14.9,18.8h-1v-5h2.9v0.9H15V16h1.7v0.9H15v1.9H14.9z"/>
</svg>
