<?xml version="1.0" encoding="utf-8"?>
<!-- Generator: Adobe Illustrator 25.4.1, SVG Export Plug-In . SVG Version: 6.00 Build 0)  -->
<svg version="1.1" id="Layer_1" xmlns="http://www.w3.org/2000/svg" xmlns:xlink="http://www.w3.org/1999/xlink" x="0px" y="0px"
	 viewBox="0 0 20 20" style="enable-background:new 0 0 20 20;" xml:space="preserve">
<style type="text/css">
	.st0{clip-path:url(#SVGID_00000062898475285495591620000007075950361024553612_);fill:#606060;}
	.st1{clip-path:url(#SVGID_00000100340700308645074300000014481707243647690664_);fill:#606060;}
	.st2{clip-path:url(#SVGID_00000072983884233970281430000005753040533349982904_);fill:#606060;}
</style>
<g>
	<g>
		<defs>
			<rect id="SVGID_1_" x="2" y="2" width="16" height="16"/>
		</defs>
		<clipPath id="SVGID_00000057125453675180735460000014124611319571546544_">
			<use xlink:href="#SVGID_1_"  style="overflow:visible;"/>
		</clipPath>
		<path style="clip-path:url(#SVGID_00000057125453675180735460000014124611319571546544_);fill:#606060;" d="M10,3
			c3.86,0,7,3.14,7,7s-3.14,7-7,7s-7-3.14-7-7S6.14,3,10,3 M10,2c-4.418,0-8,3.582-8,8s3.582,8,8,8s8-3.582,8-8S14.418,2,10,2"/>
	</g>
	<g>
		<defs>
			<rect id="SVGID_00000036955996745422158530000002384826308042138768_" x="2" y="2" width="16" height="16"/>
		</defs>
		<clipPath id="SVGID_00000043424285063496282900000007139135775008597695_">
			<use xlink:href="#SVGID_00000036955996745422158530000002384826308042138768_"  style="overflow:visible;"/>
		</clipPath>
		<path style="clip-path:url(#SVGID_00000043424285063496282900000007139135775008597695_);fill:#606060;" d="M10.152,12.356h-0.5
			c-0.138,0-0.25-0.112-0.25-0.25V9.97L9.736,9.9c0.851-0.181,1.506-1.145,1.112-1.988c-0.263-0.565-0.943-0.986-1.57-0.829
			C8.69,7.231,8.372,7.554,8.199,8.137C8.163,8.258,8.078,8.358,7.951,8.358h-0.49c-0.157,0-0.272-0.142-0.248-0.297
			C7.35,7.169,8.085,6.344,9.029,6.112c1.215-0.293,2.508,0.504,2.837,1.71c0.281,1.032-0.103,2.092-0.984,2.702
			c-0.149,0.104-0.31,0.19-0.48,0.254v1.328C10.402,12.244,10.29,12.356,10.152,12.356"/>
	</g>
	<g>
		<defs>
			<rect id="SVGID_00000138575035048743396460000009736192702194525352_" x="2" y="2" width="16" height="16"/>
		</defs>
		<clipPath id="SVGID_00000151530924778592998550000009722697991408808633_">
			<use xlink:href="#SVGID_00000138575035048743396460000009736192702194525352_"  style="overflow:visible;"/>
		</clipPath>
		<path style="clip-path:url(#SVGID_00000151530924778592998550000009722697991408808633_);fill:#606060;" d="M10.162,13.949h-0.5
			c-0.138,0-0.25-0.112-0.25-0.25v-0.5c0-0.138,0.112-0.25,0.25-0.25h0.5c0.138,0,0.25,0.112,0.25,0.25v0.5
			C10.412,13.837,10.3,13.949,10.162,13.949"/>
	</g>
</g>
</svg>
