<?xml version="1.0" encoding="utf-8"?>
<!-- Generator: Adobe Illustrator 25.4.0, SVG Export Plug-In . SVG Version: 6.00 Build 0)  -->
<svg version="1.1" xmlns="http://www.w3.org/2000/svg" xmlns:xlink="http://www.w3.org/1999/xlink" x="0px" y="0px"
	 viewBox="0 0 24 24" enable-background="new 0 0 24 24" xml:space="preserve">
<g id="Layer_3">
</g>
<g id="Layer_4" display="none">
</g>
<g id="Layer_1">
	<g>
		<path fill="#EF4848" d="M17.116,12.446L12,7.33l-5.116,5.116c-0.195,0.195-0.512,0.195-0.707,0l-0.353-0.353
			c-0.195-0.195-0.195-0.512,0-0.707l5.823-5.823c0.195-0.195,0.512-0.195,0.707,0l5.823,5.823c0.195,0.195,0.195,0.512,0,0.707
			l-0.353,0.353C17.628,12.642,17.311,12.642,17.116,12.446z"/>
	</g>
	<g>
		<path fill="#EF4848" d="M17.116,17.907L12,12.791l-5.116,5.116c-0.195,0.195-0.512,0.195-0.707,0l-0.353-0.353
			c-0.195-0.195-0.195-0.512,0-0.707l5.823-5.823c0.195-0.195,0.512-0.195,0.707,0l5.823,5.823c0.195,0.195,0.195,0.512,0,0.707
			l-0.353,0.353C17.628,18.103,17.311,18.103,17.116,17.907z"/>
	</g>
</g>
</svg>
