<?xml version="1.0" encoding="utf-8"?>
<!-- Generator: Adobe Illustrator 25.4.1, SVG Export Plug-In . SVG Version: 6.00 Build 0)  -->
<svg version="1.1" xmlns="http://www.w3.org/2000/svg" xmlns:xlink="http://www.w3.org/1999/xlink" x="0px" y="0px"
	 viewBox="0 0 46 46" style="enable-background:new 0 0 46 46;" xml:space="preserve">
<style type="text/css">
	.st0{fill:#FDF0E9;}
	.st1{opacity:0.1;}
	.st2{fill:#0072C6;}
	.st3{fill:#FFFFFF;}
	.st4{fill:#606060;}
	.st5{fill:#ED702D;}
	.st6{fill:none;stroke:#FFFFFF;stroke-width:1.5;stroke-linecap:round;}
</style>
<g id="BG">
	<g id="Rectangle_14993_00000182503426410289653170000011234090142577057684_">
		<path class="st0" d="M4,0h38c2.2091,0,4,1.7909,4,4v38c0,2.2091-1.7909,4-4,4H4c-2.2091,0-4-1.7909-4-4V4C0,1.7909,1.7909,0,4,0z"
			/>
	</g>
</g>
<g id="Icons">
	<g>
		<path class="st5" d="M32.9395,20.5713c-0.6489-2.6201-2.2793-4.8311-4.5903-6.2246c-4.3461-2.6194-9.8898-1.5651-13.0201,2.2495
			l-0.4749-1.9185c-0.0664-0.268-0.3375-0.4315-0.6055-0.3652l-0.9707,0.2402c-0.2681,0.0663-0.4316,0.3374-0.3652,0.6055
			l1.2695,5.1269l5.1245-1.2641c0.2681-0.0661,0.4318-0.337,0.3657-0.6051l-0.2392-0.9705
			c-0.0661-0.2681-0.337-0.4319-0.6052-0.3658l-1.5994,0.3945c2.5032-2.6131,6.6655-3.3809,9.9312-1.5065
			c1.9367,1.1116,3.3033,2.924,3.8383,5.084c0.6766,2.7343-0.0842,5.5991-2.15,7.7084c-1.4276,1.4576-3.4105,2.3153-5.4503,2.3533
			c-3.634,0.0677-6.6018-2.103-7.7996-5.1202c-0.0988-0.2487-0.3638-0.3843-0.618-0.3004l-0.9509,0.3138
			c-0.2697,0.089-0.4209,0.3886-0.3181,0.6533c0.8065,2.0772,2.2828,3.837,4.2006,4.9932c1.6289,0.9824,3.4258,1.4492,5.2021,1.4492
			c3.4272,0,6.7744-1.7412,8.6699-4.8838C33.1777,25.9072,33.5879,23.1914,32.9395,20.5713z"/>
		<path class="st5" d="M23.396,18.2383h-1c-0.2761,0-0.5,0.2238-0.5,0.5v6.293h6.2935c0.2762,0,0.5-0.2239,0.5-0.5v-1
			c0-0.2762-0.2238-0.5-0.5-0.5H23.896v-4.293C23.896,18.4621,23.6722,18.2383,23.396,18.2383z"/>
	</g>
</g>
</svg>
