<?xml version="1.0" encoding="utf-8"?>
<!-- Generator: Adobe Illustrator 25.4.1, SVG Export Plug-In . SVG Version: 6.00 Build 0)  -->
<svg version="1.1" xmlns="http://www.w3.org/2000/svg" xmlns:xlink="http://www.w3.org/1999/xlink" x="0px" y="0px"
	 viewBox="0 0 24 24" style="enable-background:new 0 0 24 24;" xml:space="preserve">
<style type="text/css">
	.st0{fill:#FDF0E9;}
	.st1{opacity:0.1;}
	.st2{fill:#0072C6;}
	.st3{fill:#FFFFFF;}
	.st4{fill:#606060;}
	.st5{fill:#ED702D;}
	.st6{fill:none;stroke:#FFFFFF;stroke-width:1.5;stroke-linecap:round;}
</style>
<g id="BG">
</g>
<g id="Icons">
	<g>
		<g id="XMLID_00000034808754837071000620000002153471994733171887_">
			<path class="st4" d="M3.3647,8.9829L2.1073,3.9035C2.0674,3.7427,2.1656,3.58,2.3264,3.5402L3.2,3.324
				c0.1608-0.0398,0.3235,0.0583,0.3633,0.2191l0.8972,3.6243L8.0818,6.274c0.1609-0.0397,0.3234,0.0585,0.3631,0.2194
				l0.2156,0.8736C8.7002,7.5278,8.602,7.6904,8.4412,7.7301L3.3647,8.9829z"/>
		</g>
		<g id="XMLID_00000168830259990159154860000013595097879309177528_">
			<path class="st4" d="M12.1133,21.8525c-1.7314,0-3.4844-0.4556-5.0723-1.4136c-1.9266-1.1618-3.3961-2.9474-4.1658-5.0521
				c-0.0585-0.16,0.032-0.34,0.1938-0.3933l0.8544-0.2817c0.153-0.0504,0.3134,0.0314,0.3691,0.1825
				c1.1099,3.0104,3.9134,5.2464,7.4116,5.4605c2.5374,0.1553,5.0515-0.9223,6.7135-2.8459
				c3.4838-4.0322,2.3857-10.0357-1.9725-12.6639C12.5136,2.4742,7.2226,3.8254,4.912,7.7925
				C4.7979,7.9884,4.6923,8.1873,4.5957,8.3887L3.2432,7.7393l0.0171-0.0351c2.048-4.2087,6.7926-6.5061,11.3075-5.2722
				c6.6664,1.8219,9.2873,9.2101,6.0026,14.6574C18.7207,20.1543,15.4561,21.8525,12.1133,21.8525z"/>
		</g>
		<g>
			<path class="st4" d="M17.3895,13.7817h-6.2439V7.5378c0-0.1657,0.1343-0.3,0.3-0.3h0.9c0.1657,0,0.3,0.1343,0.3,0.3v4.7439
				h4.7439c0.1657,0,0.3,0.1343,0.3,0.3v0.9C17.6895,13.6474,17.5551,13.7817,17.3895,13.7817z"/>
		</g>
	</g>
</g>
</svg>
