<?xml version="1.0" encoding="utf-8"?>
<!-- Generator: Adobe Illustrator 26.0.3, SVG Export Plug-In . SVG Version: 6.00 Build 0)  -->
<svg version="1.1" id="Layer_1" xmlns="http://www.w3.org/2000/svg" xmlns:xlink="http://www.w3.org/1999/xlink" x="0px" y="0px"
	 viewBox="0 0 24 24" style="enable-background:new 0 0 24 24;" xml:space="preserve">
<path style="fill:#0072C6;" d="M12,21.75c-5.443,0-9.871-4.374-9.871-9.75S6.557,2.25,12,2.25c5.442,0,9.87,4.374,9.87,9.75
	S17.442,21.75,12,21.75z M12,3.75c-4.616,0-8.371,3.701-8.371,8.25S7.384,20.25,12,20.25c4.615,0,8.37-3.701,8.37-8.25
	S16.615,3.75,12,3.75z M10.214,15.416h-0.9c-0.166,0-0.3-0.134-0.3-0.3V8.884c0-0.166,0.134-0.3,0.3-0.3h0.9
	c0.166,0,0.3,0.134,0.3,0.3v6.232C10.514,15.282,10.38,15.416,10.214,15.416z M14.686,15.416h-0.9c-0.166,0-0.3-0.134-0.3-0.3V8.884
	c0-0.166,0.134-0.3,0.3-0.3h0.9c0.166,0,0.3,0.134,0.3,0.3v6.232C14.986,15.282,14.852,15.416,14.686,15.416z"/>
<path style="fill:none;" d="M24,24H0V0h24V24z"/>
</svg>
