<?xml version="1.0" encoding="utf-8"?>
<!-- Generator: Adobe Illustrator 25.4.1, SVG Export Plug-In . SVG Version: 6.00 Build 0)  -->
<svg version="1.1" xmlns="http://www.w3.org/2000/svg" xmlns:xlink="http://www.w3.org/1999/xlink" x="0px" y="0px"
	 viewBox="0 0 24 24" style="enable-background:new 0 0 24 24;" xml:space="preserve">
<style type="text/css">
	.st0{fill:#FDF0E9;}
	.st1{opacity:0.1;}
	.st2{fill:#0072C6;}
	.st3{fill:#FFFFFF;}
	.st4{fill:#606060;}
	.st5{fill:#ED702D;}
	.st6{fill:none;stroke:#FFFFFF;stroke-width:1.5;stroke-linecap:round;}
</style>
<g id="BG">
</g>
<g id="Icons">
	<path class="st4" d="M12,21.75c-5.4429,0-9.8706-4.374-9.8706-9.75S6.5571,2.25,12,2.25c5.4424,0,9.8701,4.374,9.8701,9.75
		S17.4424,21.75,12,21.75z M12,3.75c-4.6157,0-8.3706,3.7012-8.3706,8.25S7.3843,20.25,12,20.25c4.6152,0,8.3701-3.7012,8.3701-8.25
		S16.6152,3.75,12,3.75z"/>
	<path class="st4" d="M10.2142,15.416h-0.9c-0.1657,0-0.3-0.1343-0.3-0.3V8.884c0-0.1657,0.1343-0.3,0.3-0.3h0.9
		c0.1657,0,0.3,0.1343,0.3,0.3v6.232C10.5142,15.2817,10.3798,15.416,10.2142,15.416z"/>
	<path class="st4" d="M14.6863,15.416h-0.9c-0.1657,0-0.3-0.1343-0.3-0.3V8.884c0-0.1657,0.1343-0.3,0.3-0.3h0.9
		c0.1657,0,0.3,0.1343,0.3,0.3v6.232C14.9863,15.2817,14.852,15.416,14.6863,15.416z"/>
</g>
</svg>
