<?xml version="1.0" encoding="utf-8"?>
<!-- Generator: Adobe Illustrator 25.4.1, SVG Export Plug-In . SVG Version: 6.00 Build 0)  -->
<svg version="1.1" xmlns="http://www.w3.org/2000/svg" xmlns:xlink="http://www.w3.org/1999/xlink" x="0px" y="0px"
	 viewBox="0 0 46 46" style="enable-background:new 0 0 46 46;" xml:space="preserve">
<style type="text/css">
	.st0{fill:#FDF0E9;}
	.st1{opacity:0.1;}
	.st2{fill:#0072C6;}
	.st3{fill:#FFFFFF;}
	.st4{fill:#606060;}
	.st5{fill:#ED702D;}
	.st6{fill:none;stroke:#FFFFFF;stroke-width:1.5;stroke-linecap:round;}
</style>
<g id="BG">
	<g id="Rectangle_9968_00000173127876721869662920000007483155341231376006_" class="st1">
		<path class="st2" d="M4,0h38c2.2091,0,4,1.7909,4,4v38c0,2.2091-1.7909,4-4,4H4c-2.2091,0-4-1.7909-4-4V4C0,1.7909,1.7909,0,4,0z"
			/>
	</g>
</g>
<g id="Icons">
	<path class="st2" d="M23,33c-5.5806,0-10.1206-4.4863-10.1206-10S17.4194,13,23,13s10.1206,4.4863,10.1206,10S28.5806,33,23,33z
		 M23,15c-4.4775,0-8.1206,3.5889-8.1206,8S18.5225,31,23,31s8.1206-3.5889,8.1206-8S27.4775,15,23,15z"/>
	<g>
		<g>
			<path class="st2" d="M21.2642,26.416h-1c-0.2761,0-0.5-0.2239-0.5-0.5v-5.832c0-0.2761,0.2239-0.5,0.5-0.5h1
				c0.2761,0,0.5,0.2239,0.5,0.5v5.832C21.7642,26.1922,21.5403,26.416,21.2642,26.416z"/>
		</g>
		<g>
			<path class="st2" d="M25.7358,26.416h-1c-0.2761,0-0.5-0.2239-0.5-0.5v-5.832c0-0.2761,0.2239-0.5,0.5-0.5h1
				c0.2761,0,0.5,0.2239,0.5,0.5v5.832C26.2358,26.1922,26.012,26.416,25.7358,26.416z"/>
		</g>
	</g>
</g>
</svg>
