<?xml version="1.0" encoding="utf-8"?>
<!-- Generator: Adobe Illustrator 25.4.0, SVG Export Plug-In . SVG Version: 6.00 Build 0)  -->
<svg version="1.1" xmlns="http://www.w3.org/2000/svg" xmlns:xlink="http://www.w3.org/1999/xlink" x="0px" y="0px"
	 viewBox="0 0 24 24" enable-background="new 0 0 24 24" xml:space="preserve">
<g id="Layer_3">
</g>
<g id="Layer_4" display="none">
</g>
<g id="Layer_1">
	<g>
		<g id="XMLID_130_">
			<path d="M19.5,22.636h-15c-1.517,0-2.75-1.233-2.75-2.75v-8.179c0-0.729,0.282-1.415,0.794-1.933l7.494-7.593
				c0.521-0.527,1.216-0.818,1.957-0.818h0.001c0.741,0,1.436,0.29,1.956,0.817l7.504,7.594c0.512,0.518,0.794,1.204,0.794,1.933
				v8.179C22.25,21.403,21.016,22.636,19.5,22.636z M11.996,2.864L11.996,2.864c-0.337,0-0.653,0.133-0.89,0.372l-7.495,7.594
				c-0.233,0.235-0.361,0.547-0.361,0.878v8.179c0,0.689,0.561,1.25,1.25,1.25h15c0.689,0,1.25-0.561,1.25-1.25v-8.179
				c0-0.331-0.128-0.643-0.36-0.878l-7.504-7.594C12.648,2.995,12.333,2.864,11.996,2.864z"/>
		</g>
		<g id="XMLID_129_">
			<path d="M12,16.205c-1.884,0-3.416-1.533-3.416-3.417S10.116,9.371,12,9.371s3.417,1.533,3.417,3.417S13.883,16.205,12,16.205z
				 M12,10.871c-1.057,0-1.916,0.86-1.916,1.917s0.859,1.917,1.916,1.917s1.917-0.86,1.917-1.917S13.056,10.871,12,10.871z"/>
		</g>
	</g>
</g>
</svg>
