<?xml version="1.0" encoding="utf-8"?>
<!-- Generator: Adobe Illustrator 25.4.1, SVG Export Plug-In . SVG Version: 6.00 Build 0)  -->
<svg version="1.1" id="Layer_1" xmlns="http://www.w3.org/2000/svg" xmlns:xlink="http://www.w3.org/1999/xlink" x="0px" y="0px"
	 viewBox="0 0 24 24" style="enable-background:new 0 0 24 24;" xml:space="preserve">
<style type="text/css">
	.st0{fill:#0072C6;}
</style>
<path class="st0" d="M21.4572,9.7783l-7.51-7.6c-0.52-0.52-1.21-0.81-1.95-0.81s-1.44,0.29-1.96,0.81l-7.49,7.6
	c-0.52,0.51-0.8,1.2-0.8,1.93v8.18c0,1.51,1.24,2.75,2.75,2.75h15c1.52,0,2.75-1.24,2.75-2.75v-8.18
	C22.2472,10.9783,21.9672,10.2883,21.4572,9.7783z M11.9972,16.2083c-1.88,0-3.41-1.54-3.41-3.42c0-1.88,1.53-3.42,3.41-3.42
	c1.89,0,3.42,1.54,3.42,3.42C15.4172,14.6683,13.8872,16.2083,11.9972,16.2083z"/>
</svg>
