<?xml version="1.0" encoding="utf-8"?>
<!-- Generator: Adobe Illustrator 27.1.0, SVG Export Plug-In . SVG Version: 6.00 Build 0)  -->
<svg version="1.1" xmlns="http://www.w3.org/2000/svg" xmlns:xlink="http://www.w3.org/1999/xlink" x="0px" y="0px"
	 viewBox="0 0 160 160" enable-background="new 0 0 160 160" xml:space="preserve">
<g id="Layer_1">
</g>
<g id="Layer_2">
	<g>
		<path id="Path_55482_00000181769036230308631610000011647365057697615499_" fill="#F2F1EF" d="M157.02023,70.97105
			c1.64041,33.43746-32.94905,51.50404-63.12175,61.59557c-29.16902,9.75591-64.19264,13.22182-82.09322-13.027
			c-17.78493-26.07819-5.34326-61.65136,14.6434-85.87978C41.62492,15.263,66.40904,19.97175,88.69041,26.3385
			C117.25895,34.50254,155.48682,39.70078,157.02023,70.97105"/>
		<ellipse fill="#D3D3D3" cx="149.01726" cy="2.58903" rx="2.61892" ry="2.58903"/>
		<ellipse fill="#D3D3D3" cx="150.98813" cy="17.81857" rx="1.30942" ry="1.29452"/>
		
			<line fill="none" stroke="#C2C1C0" stroke-width="1.6352" stroke-miterlimit="10" x1="3.33664" y1="7.66733" x2="0.24483" y2="7.66733"/>
		
			<line fill="none" stroke="#C2C1C0" stroke-width="1.6352" stroke-miterlimit="10" x1="1.79073" y1="6.13909" x2="1.79073" y2="9.19566"/>
		<ellipse fill="#D3D3D3" cx="18.90466" cy="13.28473" rx="1.30942" ry="1.29452"/>
		<ellipse fill="#D3D3D3" cx="2.91569" cy="27.0053" rx="1.30942" ry="1.29452"/>
		<ellipse fill="#D3D3D3" cx="77.27742" cy="157.41096" rx="2.61893" ry="2.58903"/>
		<ellipse fill="#D3D3D3" cx="51.00834" cy="152.92834" rx="1.30942" ry="1.29452"/>
		<ellipse fill="#D3D3D3" cx="2.91569" cy="129.47115" rx="1.30942" ry="1.29452"/>
		
			<line id="Line_3298_00000058562770339417338530000013739056131110800553_" fill="none" stroke="#B5B4B3" stroke-width="1.6352" stroke-miterlimit="10" x1="159.75517" y1="125.74921" x2="155.26158" y2="125.74921"/>
		
			<line id="Line_3299_00000101799217127523918000000004944547723802834585_" fill="none" stroke="#B5B4B3" stroke-width="1.6352" stroke-miterlimit="10" x1="157.5088" y1="123.52757" x2="157.5088" y2="127.96995"/>
		<g>
			
				<path id="Rectangle_15051_00000117668523639072470640000014611167646627882899_" fill="#FFFFFF" stroke="#D3D3D3" stroke-width="4.8" stroke-miterlimit="10" d="
				M54.8038,12.68769h50.3924c8.36544,0,15.14696,6.78152,15.14696,15.14695v104.33071
				c0,8.36542-6.78152,15.14694-15.14696,15.14694H54.8038c-8.36543,0-15.14695-6.78152-15.14695-15.14694V27.83465
				C39.65685,19.46921,46.43837,12.68769,54.8038,12.68769z"/>
			<path id="Rectangle_15055_00000103240006686032137420000004320846097629988753_" fill="#D3D3D3" d="M67.3061,12.68767h25.3863
				v1.17692c0.00418,2.67694-2.1625,4.85042-4.83944,4.8546c-0.00505,0.00001-0.01011,0.00001-0.01516,0H72.1607
				c-2.67693,0.00418-4.85042-2.1625-4.8546-4.83944c-0.00001-0.00505-0.00001-0.01011,0-0.01516V12.68767z"/>
		</g>
		<g>
			
				<path fill="none" stroke="#B4B4B2" stroke-width="4.8" stroke-linecap="round" stroke-linejoin="round" stroke-miterlimit="10" d="
				M55.61255,75.24586C61.84449,68.99035,70.46806,65.12714,80,65.12714c9.5202,0,18.14378,3.86321,24.38745,10.10689"/>
			
				<path fill="none" stroke="#B4B4B2" stroke-width="4.8" stroke-linecap="round" stroke-linejoin="round" stroke-miterlimit="10" d="
				M63.74156,83.37478C67.89275,79.20112,73.6418,76.62522,80,76.62522c6.34698,0,12.09602,2.57581,16.25845,6.73773"/>
			
				<path fill="#B4B4B2" stroke="#B4B4B2" stroke-width="4.8" stroke-linecap="round" stroke-linejoin="round" stroke-miterlimit="10" d="
				M85.36951,90.17036L80,95.53988l-5.36951-5.36952C75.9987,88.7904,77.90759,87.93979,80,87.93979
				C82.09241,87.93979,84.0013,88.79032,85.36951,90.17036z"/>
			<g>
				
					<line fill="none" stroke="#FFFFFF" stroke-width="11.2" stroke-linecap="round" stroke-linejoin="round" stroke-miterlimit="10" x1="64.24416" y1="61.22282" x2="95.75584" y2="98.77718"/>
				
					<line fill="none" stroke="#B4B4B2" stroke-width="4.8" stroke-linecap="round" stroke-linejoin="round" stroke-miterlimit="10" x1="64.24416" y1="61.22282" x2="95.75584" y2="98.77718"/>
			</g>
		</g>
	</g>
</g>
<g id="Layer_3">
</g>
</svg>
