<?xml version="1.0" encoding="utf-8"?>
<!-- Generator: Adobe Illustrator 27.1.1, SVG Export Plug-In . SVG Version: 6.00 Build 0)  -->
<svg version="1.1" id="Layer_1" xmlns="http://www.w3.org/2000/svg" xmlns:xlink="http://www.w3.org/1999/xlink" x="0px" y="0px"
	 viewBox="0 0 160 160" enable-background="new 0 0 160 160" xml:space="preserve">
<g id="BG">
	<g id="Path_54264_00000026152026345148634840000006901150481925930927_">
		<path fill="#F2F1EF" d="M159.9416,66.2556c1.7062,34.4344-34.2722,53.0385-65.6567,63.4319
			c-30.3368,10.0481-66.7718,13.615-85.3914-13.4156C-9.6053,89.4164,3.3356,52.783,24.1249,27.8331
			c15.7863-18.9458,41.5656-14.0983,64.7419-7.5393c29.7163,8.4075,69.479,13.7608,71.0748,45.9626"/>
	</g>
	<g id="Rectangle_15038_00000110447038810326047990000006312843203335505084_">
		<rect x="150.9066" y="132.7123" fill="#B4B4B2" width="4.0389" height="0.8156"/>
	</g>
	<g id="Rectangle_15039_00000147198643673807489370000009803706236650795701_">
		<rect x="152.5187" y="131.1425" fill="#B4B4B2" width="0.8156" height="3.9526"/>
	</g>
	<g id="Ellipse_3326_00000089575750831674430410000011750836221072334996_">
		<ellipse fill="#C8C8C8" cx="143.6728" cy="11.119" rx="2.3535" ry="2.3034"/>
	</g>
	<g id="Ellipse_3327_00000035497581733284801180000004877952208033559964_">
		<ellipse fill="#C8C8C8" cx="145.4446" cy="24.671" rx="1.1772" ry="1.1521"/>
	</g>
	<g id="Rectangle_15040_00000145050456427140285340000013184998616389365120_">
		<rect x="9.9601" y="15.2305" fill="#B4B4B2" width="2.7789" height="0.8156"/>
	</g>
	<g id="Rectangle_15041_00000013897048857002320250000001000638387341846919_">
		<rect x="10.9431" y="14.2777" fill="#B4B4B2" width="0.8156" height="2.7202"/>
	</g>
	<g id="Ellipse_3328_00000029019927067364225610000011039109106038631831_">
		<ellipse fill="#C8C8C8" cx="19.1591" cy="21.7885" rx="1.1772" ry="1.1521"/>
	</g>
	<g id="Ellipse_3329_00000006701443637117005850000005183184398550031039_">
		<ellipse fill="#C8C8C8" cx="12.3611" cy="32.8455" rx="1.1772" ry="1.1521"/>
	</g>
	<g id="Ellipse_3330_00000100373000506068898270000009680558411582758538_">
		<ellipse fill="#C8C8C8" cx="79.1958" cy="148.881" rx="2.3535" ry="2.3034"/>
	</g>
	<g id="Ellipse_3331_00000148640542717612869350000009896551227287186571_">
		<ellipse fill="#C8C8C8" cx="55.5862" cy="144.893" rx="1.1772" ry="1.1521"/>
	</g>
	<g id="Ellipse_3332_00000084494760388263083950000004992108558350316220_">
		<ellipse fill="#C8C8C8" cx="12.3611" cy="124.02" rx="1.1772" ry="1.1521"/>
	</g>
</g>
<g id="Outline">
	<g>
		<rect fill="none" width="160" height="160"/>
	</g>
</g>
<g id="Phone">
</g>
<g id="Not_Final" display="none">
</g>
<g id="Rectangle_15051_00000010306744027246922970000014625416826240443008_">
	<path fill="#FFFFFF" d="M38.0468,18.2208H79.547c6.8893,0,12.4742,5.5849,12.4742,12.4741v85.9207
		c0,6.8893-5.5849,12.4741-12.4742,12.4741H38.0468c-6.8893,0-12.4741-5.5849-12.4741-12.4741V30.6949
		C25.5726,23.8057,31.1575,18.2208,38.0468,18.2208z"/>
	<path fill="#D3D3D3" d="M79.5469,131.4902h-41.5c-8.2017,0-14.874-6.6729-14.874-14.875V30.6948
		c0-8.2017,6.6724-14.874,14.874-14.874h41.5c8.2021,0,14.875,6.6724,14.875,14.874v85.9204
		C94.4219,124.8174,87.749,131.4902,79.5469,131.4902z M38.0469,20.6206c-5.5547,0-10.0742,4.5195-10.0742,10.0742v85.9204
		c0,5.5547,4.5195,10.0742,10.0742,10.0742h41.5c5.5547,0,10.0742-4.5195,10.0742-10.0742V30.6948
		c0-5.5547-4.5195-10.0742-10.0742-10.0742H38.0469z"/>
</g>
<g id="Rectangle_15055_00000121272407547337463300000007690099690508848027_">
	<path fill="#D3D3D3" d="M48.3429,18.2208h20.9067V19.19c0.0034,2.2046-1.7809,3.9945-3.9855,3.998c-0.0042,0-0.0083,0-0.0125,0
		H52.3409c-2.2046,0.0034-3.9945-1.7809-3.998-3.9855c0-0.0042,0-0.0083,0-0.0125V18.2208z"/>
</g>
<path fill="#D3D3D3" d="M78.1886,55.6059H62.256c-0.9507,0-1.7213-0.7706-1.7213-1.7213v-4.2105
	c0-0.9507,0.7706-1.7213,1.7213-1.7213h15.9326c0.9507,0,1.7213,0.7706,1.7213,1.7213l0,0v4.2105
	C79.9099,54.8353,79.1393,55.6059,78.1886,55.6059z"/>
<path fill="#D3D3D3" d="M74.0787,45.3979H62.256c-0.9506,0-1.7213-0.7706-1.7213-1.7213c0-0.0014,0-0.0028,0-0.0042V41.696
	c0-0.9507,0.7706-1.7213,1.7213-1.7213h11.8227c0.9507,0,1.7213,0.7706,1.7213,1.7213v1.9764
	c0.0024,0.9506-0.7664,1.7231-1.717,1.7255C74.0815,45.3979,74.0802,45.3979,74.0787,45.3979z"/>
<ellipse fill="#D3D3D3" cx="44.6227" cy="47.7112" rx="7.4215" ry="7.3373"/>
<path fill="#F2F1EF" d="M78.1886,79.9323H62.256c-0.9507,0-1.7213-0.7706-1.7213-1.7213v-4.2105
	c0-0.9507,0.7706-1.7213,1.7213-1.7213h15.9326c0.9507,0,1.7213,0.7706,1.7213,1.7213l0,0v4.2105
	C79.9099,79.1617,79.1393,79.9323,78.1886,79.9323z"/>
<path fill="#F2F1EF" d="M74.0787,69.7243H62.256c-0.9506,0-1.7213-0.7706-1.7213-1.7213c0-0.0014,0-0.0028,0-0.0042v-1.9764
	c0-0.9507,0.7706-1.7213,1.7213-1.7213h11.8227c0.9507,0,1.7213,0.7706,1.7213,1.7213v1.9764
	c0.0024,0.9506-0.7664,1.7231-1.717,1.7255C74.0815,69.7243,74.0802,69.7243,74.0787,69.7243z"/>
<ellipse fill="#F2F1EF" cx="44.6227" cy="72.0376" rx="7.4215" ry="7.3373"/>
<path fill="#F2F1EF" d="M78.1886,108.0025H62.256c-0.9507,0-1.7213-0.7706-1.7213-1.7213v-4.2105
	c0-0.9506,0.7706-1.7213,1.7213-1.7213h15.9326c0.9507,0,1.7213,0.7706,1.7213,1.7213l0,0v4.2105
	C79.9099,107.2319,79.1393,108.0025,78.1886,108.0025z"/>
<path fill="#F2F1EF" d="M74.0787,97.7945H62.256c-0.9506,0-1.7213-0.7706-1.7213-1.7213c0-0.0014,0-0.0028,0-0.0042v-1.9764
	c0-0.9507,0.7706-1.7213,1.7213-1.7213h11.8227c0.9507,0,1.7213,0.7706,1.7213,1.7213v1.9764
	c0.0024,0.9507-0.7664,1.7231-1.717,1.7255C74.0815,97.7945,74.0802,97.7945,74.0787,97.7945z"/>
<ellipse fill="#F2F1EF" cx="44.6227" cy="100.1078" rx="7.4215" ry="7.3373"/>
<g id="Ellipse_3308_00000104687913044839907970000001169255700724979598_">
	<ellipse fill="#FFFFFF" cx="112.425" cy="112.9856" rx="24.2602" ry="23.9832"/>
</g>
<g id="Path_54250_00000164504066135948443880000001307287901460572560_">
	<path fill="#818386" d="M129.1812,130.3397l1.1141-1.1015l5.8493,5.7827l-1.1141,1.1015L129.1812,130.3397z"/>
</g>
<g id="Path_54251_00000121982166097382420560000005631791683545721772_">
	<path fill="#B5B4B3" d="M158.6801,152.2547l-21.0442-20.8084l-1.6337,1.6168l-3.0316-2.9979
		c4.0653-4.7615,6.2987-10.817,6.299-17.0779c0.1004-14.7735-11.7945-26.8311-26.5679-26.9315s-26.8311,11.7944-26.9315,26.5679
		s11.7944,26.8311,26.5679,26.9315c6.5025,0.0442,12.7984-2.2817,17.7105-6.5426l2.9979,2.9642l-1.9284,1.9116l21.0442,20.8084
		c1.8255,1.7603,4.7245,1.7341,6.5179-0.059C160.44,156.874,160.44,154.0186,158.6801,152.2547z M90.7475,112.9873
		c-0.1567-11.9735,9.4226-21.8069,21.396-21.9636s21.8069,9.4226,21.9636,21.396c0.1567,11.9735-9.4226,21.8069-21.3961,21.9636
		c-0.0959,0.0013-0.1918,0.0018-0.2878,0.0018C100.5366,134.4426,90.8434,124.8737,90.7475,112.9873z"/>
</g>
<g id="Path_54252_00000070117123550970525030000007470044279912958615_">
	<path fill="#B5B4B3" d="M115.2696,113.1473l9.12,9.019l-2.4253,2.4421l-9.1453-9.0442l-9.1453,9.0442l-2.4253-2.4421l9.12-9.019
		l-9.12-9.0189l2.4253-2.4421l9.1453,9.0442l9.1453-9.0442l2.4253,2.4421L115.2696,113.1473z"/>
</g>
<g id="Rough" display="none">
	<g id="Layer_1_00000064318827573833217400000007209715656124962209_" display="inline">
		<g id="Layer_1_00000096036754682141363310000001437593471607475864_">
			<g>
				<path fill-rule="evenodd" clip-rule="evenodd" fill="#619548" d="M54.7187-0.1369c-22.5818,0-40.888,18.3061-40.888,40.888
					s18.3061,40.888,40.888,40.888s40.888-18.3061,40.888-40.888S77.3006-0.1369,54.7187-0.1369z M82.4731,30.2905l-34.855,34.8556
					c-0.781,0.781-2.0472,0.7811-2.8283,0.0002L26.9651,47.3258c-0.7812-0.781-0.7813-2.0475-0.0002-2.8286l4.3988-4.3988
					c0.781-0.781,2.0471-0.7811,2.8282-0.0002l12.0117,12.0074L75.246,23.0632c0.781-0.781,2.0474-0.781,2.8284,0l4.3988,4.3988
					C83.2542,28.2431,83.2542,29.5095,82.4731,30.2905z"/>
			</g>
		</g>
	</g>
</g>
</svg>
