<?xml version="1.0" encoding="utf-8"?>
<!-- Generator: Adobe Illustrator 27.1.1, SVG Export Plug-In . SVG Version: 6.00 Build 0)  -->
<svg version="1.1" id="Layer_1" xmlns="http://www.w3.org/2000/svg" xmlns:xlink="http://www.w3.org/1999/xlink" x="0px" y="0px"
	 viewBox="0 0 160 160" enable-background="new 0 0 160 160" xml:space="preserve">
<g id="BG">
	<g>
		<rect x="64.3716" y="88.001" fill="#C2C1C0" width="1.9326" height="1.0215"/>
	</g>
	<g>
		<rect x="64.8267" y="87.5566" fill="#C2C1C0" width="1.0225" height="1.9102"/>
	</g>
	<g id="Path_55482_00000045580647425541705120000013264524079068197004_">
		<path fill="#F2F1EF" d="M147.941,71.1832c1.5478,31.5528-31.0922,48.6013-59.5638,58.1238
			c-27.5251,9.2059-60.5752,12.4766-77.4661-12.2947C-5.872,92.4059,5.8686,58.8379,24.7284,35.9747
			c14.3208-17.3625,37.7086-12.9162,58.7343-6.9086c26.9583,7.7036,63.0316,12.6088,64.4792,42.1171"/>
	</g>
	<g>
		<rect y="4.2105" fill="none" width="160" height="151.5789"/>
	</g>
	<g id="Ellipse_3301_00000054256879507667750080000001435175953703110546_">
		<ellipse fill="#D3D3D3" cx="140.3891" cy="6.6552" rx="2.4716" ry="2.4429"/>
	</g>
	<g id="Ellipse_3302_00000011032830916871898720000016344411201671984562_">
		<ellipse fill="#D3D3D3" cx="142.2484" cy="21.0274" rx="1.2354" ry="1.2219"/>
	</g>
	<g id="Rectangle_15029_00000168817566963638121240000001249526168731813783_">
		<rect x="0.0017" y="11.0173" fill="#C2C1C0" width="2.9179" height="0.8615"/>
	</g>
	<g id="Rectangle_15030_00000067204665566239636440000010808249064653282446_">
		<rect x="1.0299" y="10.0051" fill="#C2C1C0" width="0.8615" height="2.8842"/>
	</g>
	<g id="Ellipse_3303_00000121965752417931140300000009288209183942520206_">
		<ellipse fill="#D3D3D3" cx="17.6101" cy="16.7486" rx="1.2354" ry="1.2219"/>
	</g>
	<g id="Ellipse_3304_00000124161522699278764670000009204325169468521132_">
		<ellipse fill="#D3D3D3" cx="2.5213" cy="29.696" rx="1.2354" ry="1.2219"/>
	</g>
	<g id="Ellipse_3305_00000079464599819372360900000005400709210972461743_">
		<ellipse fill="#D3D3D3" cx="72.6939" cy="152.7512" rx="2.4716" ry="2.4429"/>
	</g>
	<g id="Ellipse_3306_00000094580709459823851550000011330808333491809164_">
		<ellipse fill="#D3D3D3" cx="47.9032" cy="148.5221" rx="1.2354" ry="1.2219"/>
	</g>
	<g id="Ellipse_3307_00000083807066615640154420000013530591426224407723_">
		<ellipse fill="#D3D3D3" cx="2.5213" cy="126.3865" rx="1.2354" ry="1.2219"/>
	</g>
	<g id="Rectangle_15031_00000181802018923724538640000014217780625862816399_">
		<rect x="146.2813" y="87.9169" fill="#B5B4B3" width="4.2408" height="0.8598"/>
	</g>
	<g id="Rectangle_15032_00000176747784435830686730000014323208153452978099_">
		<rect x="147.9722" y="86.2504" fill="#B5B4B3" width="0.8598" height="4.1912"/>
	</g>
</g>
<g id="Outline">
	<g>
		<rect fill="none" width="160" height="160"/>
	</g>
</g>
<g id="Phone">
</g>
<g id="Not_Final" display="none">
</g>
<g id="Action">
	<g>
		<g id="Rectangle_15051_00000036224054728723008870000004724721001849802651_">
			<path fill="#FFFFFF" d="M55.9217,15.6742h48.1566c7.9943,0,14.4749,6.4806,14.4749,14.4749v99.7018
				c0,7.9943-6.4806,14.4749-14.4749,14.4749H55.9217c-7.9943,0-14.4749-6.4806-14.4749-14.4749V30.1491
				C41.4468,22.1548,47.9274,15.6742,55.9217,15.6742z"/>
			<path fill="#D3D3D3" d="M104.0781,147.1113H55.9219c-9.5171,0-17.2603-7.7432-17.2603-17.2607V30.1489
				c0-9.5171,7.7432-17.2598,17.2603-17.2598h48.1562c9.5166,0,17.2598,7.7427,17.2598,17.2598v99.7017
				C121.3379,139.3682,113.5947,147.1113,104.0781,147.1113z M55.9219,18.4595c-6.4458,0-11.6899,5.2437-11.6899,11.6895v99.7017
				c0,6.4463,5.2441,11.6904,11.6899,11.6904h48.1562c6.4453,0,11.6895-5.2441,11.6895-11.6904V30.1489
				c0-6.4458-5.2441-11.6895-11.6895-11.6895H55.9219z"/>
		</g>
		<g id="Rectangle_15055_00000020367458797752910610000009221174391859113865_">
			<path fill="#D3D3D3" d="M67.8693,15.6742h24.26v1.1247c0.004,2.5582-2.0666,4.6352-4.6247,4.6392c-0.0048,0-0.0097,0-0.0145,0
				H72.5085c-2.5582,0.004-4.6352-2.0666-4.6392-4.6247c0-0.0048,0-0.0097,0-0.0145V15.6742z"/>
		</g>
	</g>
	<g>
		<g>
			<path fill="#D3D3D3" d="M84.4776,93.2965c-0.7183,0-1.4392-0.0505-2.1627-0.1556c-3.4812-0.5024-6.6067-2.1742-8.9344-4.7547
				c-0.5082-0.5632-0.3768-1.4577,0.2305-1.9124l2.1402-1.6012c0.5605-0.4193,1.3165-0.3006,1.8038,0.2021
				c1.471,1.5183,3.3911,2.5027,5.5199,2.8099c2.5361,0.363,5.0723-0.2788,7.1284-1.8165c0.3656-0.2748,0.7156-0.577,1.0425-0.9022
				l7.0403-7.0417c3.4204-3.4177,4.0972-8.6104,1.6102-12.3484c-1.8768-2.821-4.8412-4.4198-8.2347-4.3898
				c-2.5812,0.0229-5.0234,1.205-6.8531,3.026l-3.0794,3.0643c-0.52,0.5173-1.3606,0.5151-1.8778-0.0047l-1.8717-1.8824
				c-0.517-0.52-0.5149-1.3604,0.005-1.8776l2.9737-2.958c2.1851-2.1737,4.9105-3.8133,7.937-4.3959
				c6.1487-1.1837,12.0842,1.4562,15.4251,6.4776c3.8818,5.8359,2.9225,13.8446-2.2793,19.0451l-7.0403,7.0403
				c-0.5032,0.5043-1.0452,0.9724-1.6155,1.3991C90.7762,92.2711,87.6749,93.2965,84.4776,93.2965z"/>
		</g>
		<g>
			<path fill="#D3D3D3" d="M72.5008,110.3996c-1.6703,0.4878-3.4242,0.6608-5.1926,0.4791
				c-5.5746-0.5731-10.1563-3.7105-12.465-8.5702c-2.1346-4.493-1.6662-9.801,0.7243-14.1631l4.6832-8.545
				c0.3417-0.6251,0.7281-1.2256,1.1559-1.7951c4.6627-6.2018,13.2621-7.7381,19.7412-3.7534
				c0.6471,0.398,0.7728,1.2963,0.3163,1.9035l-1.6056,2.1375c-0.4197,0.5586-1.1766,0.656-1.7844,0.3112
				c-4.1368-2.346-9.4878-1.3074-12.4214,2.5903c-0.2739,0.3663-0.5228,0.7539-0.7452,1.1576l-4.8503,8.85
				c-1.2418,2.2658-1.7072,4.9431-1.0104,7.4312c1.1334,4.0485,4.51,6.7202,8.8038,7.1626
				c3.4722,0.3541,7.0393-1.6669,8.8922-5.0348l2.2251-4.0637c0.3521-0.6434,1.1593-0.8791,1.8025-0.5266l2.3283,1.2758
				c0.6429,0.3522,0.8786,1.1589,0.5266,1.802l-2.2114,4.0386C79.4031,106.7468,76.1623,109.3303,72.5008,110.3996z"/>
		</g>
		<g>
			<path fill="#D3D3D3" d="M70.4521,62.2222c-1.0908,0-2.104-0.6982-2.4536-1.793l-2.561-8.0186
				c-0.4326-1.355,0.3149-2.8047,1.6704-3.2378c1.3569-0.4302,2.8052,0.3159,3.2378,1.6704l2.561,8.0186
				c0.4326,1.355-0.3149,2.8047-1.6704,3.2378C70.9756,62.1826,70.7114,62.2222,70.4521,62.2222z"/>
		</g>
		<g>
			<path fill="#D3D3D3" d="M63.3604,67.6113c-0.3979,0-0.8013-0.0923-1.1792-0.2871l-7.481-3.8594
				c-1.2642-0.6523-1.7603-2.2061-1.1084-3.4707c0.6523-1.2646,2.2061-1.7598,3.4707-1.1084l7.481,3.8594
				c1.2642,0.6523,1.7603,2.2061,1.1084,3.4707C65.1943,67.1025,64.2935,67.6113,63.3604,67.6113z"/>
		</g>
	</g>
</g>
<g id="Rough" display="none">
</g>
</svg>
