<?xml version="1.0" encoding="utf-8"?>
<!-- Generator: Adobe Illustrator 25.4.1, SVG Export Plug-In . SVG Version: 6.00 Build 0)  -->
<svg version="1.1" xmlns="http://www.w3.org/2000/svg" xmlns:xlink="http://www.w3.org/1999/xlink" x="0px" y="0px"
	 viewBox="0 0 24 24" style="enable-background:new 0 0 24 24;" xml:space="preserve">
<style type="text/css">
	.st0{fill:#FDF0E9;}
	.st1{opacity:0.1;}
	.st2{fill:#0072C6;}
	.st3{fill:#FFFFFF;}
	.st4{fill:#606060;}
	.st5{fill:#ED702D;}
	.st6{fill:none;stroke:#FFFFFF;stroke-width:1.5;stroke-linecap:round;}
</style>
<g id="BG">
</g>
<g id="Icons">
	<g>
		<g>
			<path class="st4" d="M12.76,17.7904c0.1231-0.1231,0.1853-0.2734,0.1853-0.4496v-0.5598c0-0.1711-0.0648-0.32-0.1931-0.4457
				s-0.2812-0.1892-0.4574-0.1892h-0.6051c-0.1762,0-0.3278,0.0648-0.4535,0.1931c-0.1257,0.1283-0.1918,0.2812-0.197,0.4574v0.5442
				c0,0.1762,0.0622,0.3265,0.1853,0.4496c0.1231,0.1244,0.2734,0.1853,0.4496,0.1853h0.6362
				C12.4866,17.9757,12.6356,17.9148,12.76,17.7904z"/>
		</g>
		<g>
			<path class="st4" d="M11.2323,8.1294c-0.1283,0.127-0.1878,0.2747-0.1775,0.447l0.3097,4.938
				c0.0103,0.1711,0.0738,0.32,0.1931,0.4457c0.1179,0.127,0.2708,0.1892,0.4574,0.1892c0.1659,0,0.3097-0.0596,0.4315-0.1814
				c0.1205-0.1205,0.1892-0.2721,0.2034-0.4535l0.3097-4.9238c0.0103-0.1658-0.0479-0.3162-0.1776-0.4496
				c-0.1283-0.1334-0.2811-0.2009-0.4574-0.2009h-0.6349C11.5135,7.9402,11.3606,8.0037,11.2323,8.1294z"/>
		</g>
	</g>
	<g>
		<path class="st4" d="M19.2065,21.0117H4.7935c-0.2568,0-0.5107-0.0342-0.7549-0.1021c-0.4648-0.1309-0.8877-0.3823-1.2246-0.728
			c-0.5-0.5127-0.7817-1.1865-0.7939-1.8965c-0.0088-0.4961,0.1201-0.9907,0.374-1.4297L9.6001,4.3735
			C10.1011,3.5059,10.9985,2.9883,12,2.9883s1.8989,0.5176,2.3999,1.3853l7.2061,12.4819c0.501,0.8677,0.501,1.9033,0,2.771
			C21.1055,20.4937,20.208,21.0117,19.2065,21.0117z M12,4.4883c-0.4595,0-0.8711,0.2373-1.1011,0.6353L3.6929,17.6055
			c-0.1191,0.2061-0.1772,0.4258-0.1729,0.6533c0.0054,0.3223,0.1396,0.6416,0.3682,0.876
			c0.1533,0.1572,0.3447,0.2715,0.5542,0.3301c0.1113,0.0308,0.23,0.0469,0.3511,0.0469h14.4131
			c0.4595,0,0.8706-0.2373,1.1006-0.6353c0.2295-0.3979,0.2295-0.873,0-1.271L13.1011,5.1235
			C12.8711,4.7256,12.4595,4.4883,12,4.4883z"/>
	</g>
</g>
</svg>
