<?xml version="1.0" encoding="utf-8"?>
<!-- Generator: Adobe Illustrator 27.1.0, SVG Export Plug-In . SVG Version: 6.00 Build 0)  -->
<svg version="1.1" xmlns="http://www.w3.org/2000/svg" xmlns:xlink="http://www.w3.org/1999/xlink" x="0px" y="0px"
	 viewBox="0 0 200 160" enable-background="new 0 0 200 160" xml:space="preserve">
<g id="Layer_1">
	<ellipse fill="#FFFFFF" cx="150.92226" cy="25.97958" rx="2.46396" ry="2.4284"/>
	<ellipse fill="#FFFFFF" cx="143.53699" cy="25.97958" rx="2.46396" ry="2.4284"/>
	<ellipse fill="#D3D3D3" cx="169.22913" cy="2.58903" rx="2.62696" ry="2.58903"/>
	<ellipse fill="#D3D3D3" cx="171.20604" cy="17.81857" rx="1.31344" ry="1.29452"/>
	<line fill="none" stroke="#C2C1C0" stroke-width="1.022" stroke-miterlimit="10" x1="23.1013" y1="7.66733" x2="20" y2="7.66733"/>
	
		<line fill="none" stroke="#C2C1C0" stroke-width="1.022" stroke-miterlimit="10" x1="21.55065" y1="6.13909" x2="21.55065" y2="9.19566"/>
	<ellipse fill="#D3D3D3" cx="38.71712" cy="13.28473" rx="1.31344" ry="1.29452"/>
	<ellipse fill="#D3D3D3" cx="22.67907" cy="27.0053" rx="1.31344" ry="1.29452"/>
	<ellipse fill="#D3D3D3" cx="97.26906" cy="157.41096" rx="2.62697" ry="2.58903"/>
	<ellipse fill="#D3D3D3" cx="70.91935" cy="152.92834" rx="1.31344" ry="1.29452"/>
	<ellipse fill="#D3D3D3" cx="22.67907" cy="129.47115" rx="1.31344" ry="1.29452"/>
	
		<line id="Line_3298_00000180339415358244747200000017417882671604245132_" fill="none" stroke="#B5B4B3" stroke-width="1.022" stroke-miterlimit="10" x1="180" y1="125.74921" x2="175.49261" y2="125.74921"/>
	
		<line id="Line_3299_00000130623220082675471290000003173273054643761306_" fill="none" stroke="#B5B4B3" stroke-width="1.022" stroke-miterlimit="10" x1="177.74673" y1="123.52757" x2="177.74673" y2="127.96995"/>
</g>
<g id="Layer_2">
	<g>
		<path fill="#D3D3D3" d="M170.73064,51.61493l-19.05116,59.30651c-0.57932,1.81436-2.26245,3.03852-4.16441,3.03852H58.70833
			c-2.97294,0-5.07143-2.88548-4.16428-5.70546L73.5952,48.93705c0.29514-0.91809,0.8854-1.69415,1.63951-2.21877
			c0.72128-0.51375,1.59574-0.80882,2.5249-0.80882h88.80673c1.33344,0,2.5029,0.5902,3.27902,1.49741
			C170.81802,48.49989,171.23337,50.06287,170.73064,51.61493z"/>
		<path fill="#BCBCBC" d="M169.84537,47.40688L104.9863,83.02791L75.23471,46.71828c0.72128-0.51375,1.59574-0.80882,2.5249-0.80882
			h88.80673C167.89978,45.90947,169.06924,46.49966,169.84537,47.40688z"/>
	</g>
	<g>
		<circle fill-rule="evenodd" clip-rule="evenodd" fill="#FFFFFF" cx="157.95631" cy="117.95631" r="32.04368"/>
		<circle fill-rule="evenodd" clip-rule="evenodd" fill="#FFFFFF" cx="155.45631" cy="122.95631" r="20.0873"/>
		<g id="Layer_1_00000023272000898107471660000006212432888385650097_">
			<g>
				<path fill-rule="evenodd" clip-rule="evenodd" fill="#D3D3D3" d="M157.95631,92.68845
					c-13.95508,0-25.26787,11.31278-25.26787,25.26787s11.31279,25.26787,25.26787,25.26787
					c13.95509,0,25.26787-11.31277,25.26787-25.26787S171.91141,92.68845,157.95631,92.68845z M174.86522,111.73464
					l-21.05428,21.05463c-0.6169,0.6169-1.61642,0.6169-2.23296,0.00037l-10.53021-10.52768
					c-0.6169-0.6169-0.6169-1.61642,0-2.23332l2.23296-2.23296c0.61655-0.61654,1.61642-0.6169,2.23296-0.00036l7.18042,7.17788
					l17.70483-17.70483c0.6169-0.6169,1.61642-0.6169,2.23332,0l2.23296,2.23296
					C175.48212,110.11823,175.48212,111.11774,174.86522,111.73464z"/>
			</g>
		</g>
	</g>
	
		<line fill="none" stroke="#BCBCBC" stroke-width="4" stroke-linecap="round" stroke-miterlimit="10" x1="14.46273" y1="80" x2="53.50656" y2="80"/>
	
		<line fill="none" stroke="#BCBCBC" stroke-width="4" stroke-linecap="round" stroke-miterlimit="10" x1="22.67907" y1="93.51756" x2="47.30321" y2="93.51756"/>
	
		<line fill="none" stroke="#BCBCBC" stroke-width="4" stroke-linecap="round" stroke-miterlimit="10" x1="28.10921" y1="66.48244" x2="60.31498" y2="66.48244"/>
</g>
<g id="Layer_3">
</g>
</svg>
