<?xml version="1.0" encoding="utf-8"?>
<!-- Generator: Adobe Illustrator 27.1.1, SVG Export Plug-In . SVG Version: 6.00 Build 0)  -->
<svg version="1.1" id="Layer_1" xmlns="http://www.w3.org/2000/svg" xmlns:xlink="http://www.w3.org/1999/xlink" x="0px" y="0px"
	 viewBox="0 0 160 160" enable-background="new 0 0 160 160" xml:space="preserve">
<g id="Phone">
</g>
<g id="Not_Final" display="none">
</g>
<g id="Rough" display="none">
	<g display="inline">
		<g>
			<g id="XMLID_00000147213954471820217500000017606954361205665205_">
				<circle fill="#D53D3D" cx="99.2186" cy="-9.9863" r="40.89"/>
			</g>
		</g>
		<g>
			
				<line id="Line_3152_00000147179366347368022600000002612620022075745428_" fill="none" stroke="#FFFFFF" stroke-width="10" x1="77.7366" y1="-31.2399" x2="120.7006" y2="11.2661"/>
			
				<line id="Line_3153_00000090267198505678938240000006484485959201261452_" fill="none" stroke="#FFFFFF" stroke-width="10" x1="120.7006" y1="-31.2399" x2="77.7366" y2="11.2661"/>
		</g>
	</g>
</g>
<g>
	<rect y="4.2105" fill="none" width="160" height="151.5789"/>
</g>
<g id="Path_55482_00000093141624483255510830000008914867574670699956_">
	<path fill="#F2F1EF" d="M147.941,71.1832c1.5478,31.5528-31.0922,48.6013-59.5638,58.1238
		c-27.5251,9.2059-60.5752,12.4766-77.4661-12.2947C-5.872,92.4059,5.8686,58.8379,24.7284,35.9747
		c14.3208-17.3625,37.7086-12.9162,58.7343-6.9086c26.9583,7.7036,63.0316,12.6088,64.4792,42.1171"/>
</g>
<g id="Ellipse_3301_00000060023588945799042760000017890124049449742739_">
	<ellipse fill="#D3D3D3" cx="140.3891" cy="6.6552" rx="2.4716" ry="2.4429"/>
</g>
<g id="Ellipse_3302_00000174596538233385629410000002294341335565536919_">
	<ellipse fill="#D3D3D3" cx="142.2484" cy="21.0274" rx="1.2354" ry="1.2219"/>
</g>
<g id="Rectangle_15029_00000170249540518341182850000015338662191403701639_">
	<rect x="0.0017" y="11.0173" fill="#C2C1C0" width="2.9179" height="0.8615"/>
</g>
<g id="Rectangle_15030_00000049934779053445735710000016888532293737917062_">
	<rect x="1.0299" y="10.0051" fill="#C2C1C0" width="0.8615" height="2.8842"/>
</g>
<g id="Ellipse_3303_00000030452520143939944200000002756319999379829381_">
	<ellipse fill="#D3D3D3" cx="17.6101" cy="16.7486" rx="1.2354" ry="1.2219"/>
</g>
<g id="Ellipse_3304_00000152256950439657848090000008757953714441740206_">
	<ellipse fill="#D3D3D3" cx="2.5213" cy="29.696" rx="1.2354" ry="1.2219"/>
</g>
<g id="Ellipse_3305_00000088115089708290448040000005060349969751078325_">
	<ellipse fill="#D3D3D3" cx="72.6939" cy="152.7512" rx="2.4716" ry="2.4429"/>
</g>
<g id="Ellipse_3306_00000004537184207284002840000002169152125021167283_">
	<ellipse fill="#D3D3D3" cx="47.9032" cy="148.5221" rx="1.2354" ry="1.2219"/>
</g>
<g id="Ellipse_3307_00000075135759376288302710000011190291468654099889_">
	<ellipse fill="#D3D3D3" cx="2.5213" cy="126.3865" rx="1.2354" ry="1.2219"/>
</g>
<g id="Rectangle_15031_00000121993842742718430590000018169928152239443124_">
	<rect x="146.2813" y="122.4446" fill="#B5B4B3" width="4.2408" height="0.8598"/>
</g>
<g id="Rectangle_15032_00000181064157654586486340000008810825879763181206_">
	<rect x="147.9722" y="120.7781" fill="#B5B4B3" width="0.8598" height="4.1912"/>
</g>
<g>
	<rect fill="none" width="160" height="160"/>
</g>
<g>
	<g id="Rectangle_15051_00000134224143424285871740000006508569446710930096_">
		<path fill="#FFFFFF" d="M59.2499,24.5655h41.5002c6.8893,0,12.4742,5.5849,12.4742,12.4741v85.9207
			c0,6.8893-5.5849,12.4741-12.4742,12.4741H59.2499c-6.8893,0-12.4741-5.5849-12.4741-12.4741V37.0396
			C46.7757,30.1504,52.3606,24.5655,59.2499,24.5655z"/>
		<path fill="#D3D3D3" d="M100.75,137.835h-41.5c-8.2017,0-14.874-6.6729-14.874-14.875V37.0396
			c0-8.2017,6.6724-14.874,14.874-14.874h41.5c8.2021,0,14.875,6.6724,14.875,14.874V122.96
			C115.625,131.1621,108.9521,137.835,100.75,137.835z M59.25,26.9653c-5.5547,0-10.0742,4.5195-10.0742,10.0742V122.96
			c0,5.5547,4.5195,10.0742,10.0742,10.0742h41.5c5.5547,0,10.0742-4.5195,10.0742-10.0742V37.0396
			c0-5.5547-4.5195-10.0742-10.0742-10.0742H59.25z"/>
	</g>
	<g id="Rectangle_15055_00000171715377785400631430000008197879301237241242_">
		<path fill="#D3D3D3" d="M69.546,24.5655h20.9067v0.9692c0.0034,2.2046-1.7809,3.9945-3.9855,3.998c-0.0042,0-0.0083,0-0.0125,0
			H73.544c-2.2046,0.0034-3.9945-1.7809-3.998-3.9855c0-0.0042,0-0.0083,0-0.0125V24.5655z"/>
	</g>
	<g id="Path_54244_00000025433031614372585140000009735333974047779207_">
		<path fill="#D3D3D3" d="M99.3917,61.9506H83.4591c-0.9507,0-1.7213-0.7706-1.7213-1.7213v-4.2105
			c0-0.9507,0.7706-1.7213,1.7213-1.7213h15.9326c0.9507,0,1.7213,0.7706,1.7213,1.7213l0,0v4.2105
			C101.113,61.18,100.3424,61.9506,99.3917,61.9506z"/>
	</g>
	<g id="Path_54245_00000172402783870293004740000004069101009082371224_">
		<path fill="#D3D3D3" d="M95.2818,51.7426H83.4591c-0.9506,0-1.7213-0.7706-1.7213-1.7213c0-0.0014,0-0.0028,0-0.0042v-1.9764
			c0-0.9507,0.7706-1.7213,1.7213-1.7213h11.8227c0.9507,0,1.7213,0.7706,1.7213,1.7213v1.9764
			c0.0024,0.9506-0.7664,1.7231-1.717,1.7255C95.2846,51.7426,95.2833,51.7426,95.2818,51.7426z"/>
	</g>
	<g id="Ellipse_3298_00000143587320790260253670000005816011370503912325_">
		<ellipse fill="#D3D3D3" cx="65.8258" cy="54.0559" rx="7.4215" ry="7.3373"/>
	</g>
	<g id="Path_54244_00000060741241543477653660000004465770014417939389_">
		<path fill="#F2F1EF" d="M99.3917,86.277H83.4591c-0.9507,0-1.7213-0.7706-1.7213-1.7213v-4.2105
			c0-0.9507,0.7706-1.7213,1.7213-1.7213h15.9326c0.9507,0,1.7213,0.7706,1.7213,1.7213l0,0v4.2105
			C101.113,85.5064,100.3424,86.277,99.3917,86.277z"/>
	</g>
	<g id="Path_54245_00000045585377486765096610000014414816241025927328_">
		<path fill="#F2F1EF" d="M95.2818,76.069H83.4591c-0.9506,0-1.7213-0.7706-1.7213-1.7213c0-0.0014,0-0.0028,0-0.0042v-1.9764
			c0-0.9507,0.7706-1.7213,1.7213-1.7213h11.8227c0.9507,0,1.7213,0.7706,1.7213,1.7213v1.9764
			c0.0024,0.9506-0.7664,1.7231-1.717,1.7255C95.2846,76.069,95.2833,76.069,95.2818,76.069z"/>
	</g>
	<g id="Ellipse_3298_00000169547918243710295380000003695662660419238052_">
		<ellipse fill="#F2F1EF" cx="65.8258" cy="78.3823" rx="7.4215" ry="7.3373"/>
	</g>
	<g id="Path_54244_00000160181892818514331690000008020211668063590590_">
		<path fill="#F2F1EF" d="M99.3917,114.3473H83.4591c-0.9507,0-1.7213-0.7706-1.7213-1.7213v-4.2105
			c0-0.9506,0.7706-1.7213,1.7213-1.7213h15.9326c0.9507,0,1.7213,0.7706,1.7213,1.7213l0,0v4.2105
			C101.113,113.5767,100.3424,114.3473,99.3917,114.3473z"/>
	</g>
	<g id="Path_54245_00000129168587721342976030000018051210822871490432_">
		<path fill="#F2F1EF" d="M95.2818,104.1393H83.4591c-0.9506,0-1.7213-0.7706-1.7213-1.7213c0-0.0014,0-0.0028,0-0.0042v-1.9764
			c0-0.9507,0.7706-1.7213,1.7213-1.7213h11.8227c0.9507,0,1.7213,0.7706,1.7213,1.7213v1.9764
			c0.0024,0.9507-0.7664,1.7231-1.717,1.7255C95.2846,104.1393,95.2833,104.1393,95.2818,104.1393z"/>
	</g>
	<g id="Ellipse_3298_00000059278756975459998510000008714865124935315085_">
		<ellipse fill="#F2F1EF" cx="65.8258" cy="106.4526" rx="7.4215" ry="7.3373"/>
	</g>
</g>
<g>
	<circle fill="#FFFFFF" cx="131.7606" cy="131.7606" r="25.7394"/>
	<path fill="#D3D3D3" d="M131.7607,160c-15.5713,0-28.2393-12.668-28.2393-28.2393s12.668-28.2393,28.2393-28.2393
		S160,116.1895,160,131.7607S147.332,160,131.7607,160z M131.7607,108.5215c-12.8145,0-23.2393,10.4248-23.2393,23.2393
		S118.9463,155,131.7607,155S155,144.5752,155,131.7607S144.5752,108.5215,131.7607,108.5215z"/>
</g>
<g>
	<g>
		
			<rect x="116.0842" y="129.261" transform="matrix(0.7071 -0.7071 0.7071 0.7071 -54.5771 131.7607)" fill="#D3D3D3" width="31.353" height="4.9995"/>
	</g>
	<g>
		
			<rect x="129.261" y="116.0842" transform="matrix(0.7071 -0.7071 0.7071 0.7071 -54.5771 131.7607)" fill="#D3D3D3" width="4.9995" height="31.353"/>
	</g>
</g>
</svg>
