<?xml version="1.0" encoding="utf-8"?>
<!-- Generator: Adobe Illustrator 27.1.1, SVG Export Plug-In . SVG Version: 6.00 Build 0)  -->
<svg version="1.1" id="Layer_1" xmlns="http://www.w3.org/2000/svg" xmlns:xlink="http://www.w3.org/1999/xlink" x="0px" y="0px"
	 viewBox="0 0 160 160" enable-background="new 0 0 160 160" xml:space="preserve">
<g id="BG">
	<g>
		<rect x="64.3716" y="61.6016" fill="#C2C1C0" width="1.9326" height="1.0225"/>
	</g>
	<g>
		<rect x="64.8267" y="61.1577" fill="#C2C1C0" width="1.0225" height="1.9102"/>
	</g>
	<g>
		<rect y="4.2105" fill="none" width="160" height="151.5789"/>
	</g>
	<g id="Ellipse_3301_00000098918213896019540110000008534858368837614269_">
		<ellipse fill="#D3D3D3" cx="140.3891" cy="6.6552" rx="2.4716" ry="2.4429"/>
	</g>
	<g id="Ellipse_3302_00000010305666664939645990000008854429172756456870_">
		<ellipse fill="#D3D3D3" cx="142.2484" cy="21.0274" rx="1.2354" ry="1.2219"/>
	</g>
	<g id="Rectangle_15029_00000157303575301054047930000004985685640889020320_">
		<rect x="0.0017" y="11.0173" fill="#C2C1C0" width="2.9179" height="0.8615"/>
	</g>
	<g id="Rectangle_15030_00000084506280702738762840000005707636670029223590_">
		<rect x="1.0299" y="10.0051" fill="#C2C1C0" width="0.8615" height="2.8842"/>
	</g>
	<g id="Ellipse_3303_00000183229997044987278670000000058156652271092373_">
		<ellipse fill="#D3D3D3" cx="17.6101" cy="16.7486" rx="1.2354" ry="1.2219"/>
	</g>
	<g id="Ellipse_3304_00000154426449773915006370000015485889611490179775_">
		<ellipse fill="#D3D3D3" cx="2.5213" cy="29.696" rx="1.2354" ry="1.2219"/>
	</g>
	<g id="Ellipse_3305_00000099635273957569201100000016718683730847563648_">
		<ellipse fill="#D3D3D3" cx="72.6939" cy="152.7512" rx="2.4716" ry="2.4429"/>
	</g>
	<g id="Ellipse_3306_00000117634244473151105820000001503561725106725769_">
		<ellipse fill="#D3D3D3" cx="47.9032" cy="148.5221" rx="1.2354" ry="1.2219"/>
	</g>
	<g id="Ellipse_3307_00000082329921728352984960000010450968534342926751_">
		<ellipse fill="#D3D3D3" cx="2.5213" cy="126.3865" rx="1.2354" ry="1.2219"/>
	</g>
	<g id="Rectangle_15031_00000088107364721670284720000002091502464905383071_">
		<rect x="146.2813" y="87.9169" fill="#B5B4B3" width="4.2408" height="0.8598"/>
	</g>
	<g id="Rectangle_15032_00000179603568885464667980000003587412391771487885_">
		<rect x="147.9722" y="86.2504" fill="#B5B4B3" width="0.8598" height="4.1912"/>
	</g>
</g>
<g id="Outline">
	<g>
		<rect fill="none" width="160" height="160"/>
	</g>
</g>
<g id="Phone">
</g>
<g id="Not_Final" display="none">
</g>
<g id="Action">
	<g id="Path_53536_00000104671467263639664590000002448498844741302458_">
		<path fill="#D3D3D3" d="M121.3048,51.0547c-0.0764-0.7089-0.303-2.8184-1.7874-4.2968c-1.1042-1.0997-2.6296-1.7798-4.3145-1.7798
			H31.6862c-3.3699-0.0004-6.1023,2.7197-6.1028,6.0756c0,0.0003,0,0.0005,0,0.0009V99.101c0,3.3559,2.7319,6.0765,6.1018,6.0765
			c0.0005,0,0.0007,0,0.001,0c21.658,0,43.3162,0,64.9741,0c6.531,0,11.1028,1.2057,15.5598,4.4791
			c6.0288,4.4277,8.3745,11.1118,9.363,15.0836C121.7956,84.141,121.6652,54.3941,121.3048,51.0547z"/>
	</g>
	<g id="Ellipse_2298_00000145018477759398110490000016940707047037721490_">
		<ellipse fill="#FFFFFF" cx="100.9928" cy="76.4051" rx="7.671" ry="7.6391"/>
	</g>
	<g id="Ellipse_2299_00000021812083353237508830000000777523863336321693_">
		<ellipse fill="#FFFFFF" cx="73.4459" cy="76.4051" rx="7.671" ry="7.6391"/>
	</g>
	<g id="Ellipse_2300_00000127733261768643940120000000832864625294943117_">
		<ellipse fill="#FFFFFF" cx="44.3466" cy="76.4051" rx="7.671" ry="7.6391"/>
	</g>
	<g opacity="0.2">
		<g>
			<defs>
				<path id="SVGID_1_" d="M122.9529,104.4076c-0.3058-0.7583-0.6507-1.9855-0.6729-2.064
					c-0.5662-2.0252-0.8933-4.1092-0.9753-6.2099v-2.283l0,0V51.0546c0-3.3559-2.732-6.0765-6.102-6.0765H31.6862
					c-3.37-0.0004-6.1024,2.7197-6.1028,6.0756c0,0.0003,0,0.0006,0,0.0009V99.101c0,3.3559,2.732,6.0765,6.1019,6.0765
					c0.0003,0,0.0005,0,0.001,0H107.14c0.0417,0.0945,0.0843,0.188,0.1216,0.271c7.5505,16.4922,27.1551,6.6715,27.1551,6.6715
					C131.5069,111.3202,124.8491,109.1087,122.9529,104.4076z"/>
			</defs>
			<clipPath id="SVGID_00000057125614076110427120000004279408076019126959_">
				<use xlink:href="#SVGID_1_"  overflow="visible"/>
			</clipPath>
			
				<g id="Rectangle_13897_00000114038249548386183860000005609184416980737698_" clip-path="url(#SVGID_00000057125614076110427120000004279408076019126959_)">
				<polygon fill="#FFFFFF" points="97.0734,20.6755 105.5079,29.0749 24.9268,109.3205 16.4923,100.9211 				"/>
			</g>
		</g>
		<g>
			<defs>
				<path id="SVGID_00000116225080117847864540000002844945825051526016_" d="M122.9529,104.4076
					c-0.3058-0.7583-0.6507-1.9855-0.6729-2.064c-0.5662-2.0252-0.8933-4.1092-0.9753-6.2099v-2.283l0,0V51.0546
					c0-3.3559-2.732-6.0765-6.102-6.0765H31.6862c-3.37-0.0004-6.1024,2.7197-6.1028,6.0756c0,0.0003,0,0.0006,0,0.0009V99.101
					c0,3.3559,2.732,6.0765,6.1019,6.0765c0.0003,0,0.0005,0,0.001,0H107.14c0.0417,0.0945,0.0843,0.188,0.1216,0.271
					c7.5505,16.4922,27.1551,6.6715,27.1551,6.6715C131.5069,111.3202,124.8491,109.1087,122.9529,104.4076z"/>
			</defs>
			<clipPath id="SVGID_00000155106356185608266970000017808296223823138946_">
				<use xlink:href="#SVGID_00000116225080117847864540000002844945825051526016_"  overflow="visible"/>
			</clipPath>
			
				<g id="Rectangle_13898_00000062188721886657116320000000885906540323038604_" clip-path="url(#SVGID_00000155106356185608266970000017808296223823138946_)">
				<polygon fill="#FFFFFF" points="111.6249,35.1654 115.8424,39.3654 35.2613,119.611 31.0438,115.411 				"/>
			</g>
		</g>
		<g>
			<defs>
				<path id="SVGID_00000072240366017469350100000000774021606979628431_" d="M122.9529,104.4076
					c-0.3058-0.7583-0.6507-1.9855-0.6729-2.064c-0.5662-2.0252-0.8933-4.1092-0.9753-6.2099v-2.283l0,0V51.0546
					c0-3.3559-2.732-6.0765-6.102-6.0765H31.6862c-3.37-0.0004-6.1024,2.7197-6.1028,6.0756c0,0.0003,0,0.0006,0,0.0009V99.101
					c0,3.3559,2.732,6.0765,6.1019,6.0765c0.0003,0,0.0005,0,0.001,0H107.14c0.0417,0.0945,0.0843,0.188,0.1216,0.271
					c7.5505,16.4922,27.1551,6.6715,27.1551,6.6715C131.5069,111.3202,124.8491,109.1087,122.9529,104.4076z"/>
			</defs>
			<clipPath id="SVGID_00000022526942802684042950000014681530363595067793_">
				<use xlink:href="#SVGID_00000072240366017469350100000000774021606979628431_"  overflow="visible"/>
			</clipPath>
			
				<g id="Rectangle_13899_00000077289894024214135370000005399150347931612305_" clip-path="url(#SVGID_00000022526942802684042950000014681530363595067793_)">
				<polygon fill="#FFFFFF" points="121.9581,45.4565 126.1757,49.6566 45.5946,129.9022 41.377,125.7022 				"/>
			</g>
		</g>
	</g>
</g>
<g id="Rough" display="none">
	<g display="inline">
		<g>
			<g id="XMLID_00000147213954471820217500000017606954361205665205_">
				<circle fill="#D53D3D" cx="99.2186" cy="200.0137" r="40.89"/>
			</g>
		</g>
	</g>
</g>
</svg>
