<?xml version="1.0" encoding="utf-8"?>
<!-- Generator: Adobe Illustrator 27.1.1, SVG Export Plug-In . SVG Version: 6.00 Build 0)  -->
<svg version="1.1" id="Layer_1" xmlns="http://www.w3.org/2000/svg" xmlns:xlink="http://www.w3.org/1999/xlink" x="0px" y="0px"
	 viewBox="0 0 151 30" enable-background="new 0 0 151 30" xml:space="preserve">
<path id="Path_66754" fill="#000101" d="M115.1740112,15.0894966c0-3.1779995,2.6380005-5.5459995,6.2219849-5.5459995
	c3.5510101,0,6.2050171,2.3529987,6.2050171,5.5459995s-2.654007,5.5459995-6.2050171,5.5459995
	C117.8120117,20.6354961,115.1740112,18.2684956,115.1740112,15.0894966 M126.3500061,15.0894966
	c0-2.6000004-2.1130066-4.5179996-4.95401-4.5179996c-2.8580017,0-4.9869995,1.9160004-4.9869995,4.5179996
	s2.1289978,4.5189991,4.9869995,4.5189991c2.8410034,0,4.95401-1.9160004,4.95401-4.519001"/>
<path id="Path_66755" fill="#000101" d="M139.4490051,9.6374969v10.8999996h-1.0310059l-7.6080017-8.8479996v8.8479996h-1.2510071
	V9.6374969h1.0319824l7.625,8.8479996V9.6374969H139.4490051z"/>
<path id="Path_66756" fill="#000101" d="M150.8259888,19.5454979v1h-8.367981V9.6364956h8.1159973v1h-6.8640137v3.8789997h6.1199951
	v0.9820004h-6.1199951v4.0510006L150.8259888,19.5454979z"/>
<path id="Path_66773" fill-rule="evenodd" clip-rule="evenodd" fill="#000101" d="M46.7580032,10.7924957
	c0.8734741,0.9476299,1.3154945,2.2146873,1.2210007,3.5v5.9890003c0,0.0773201-0.0626793,0.1399994-0.1399994,0.1399994h-2.2220001
	c-0.0773201,0-0.1399994-0.0626793-0.1399994-0.1399994v-5.6599998c0.0568695-0.7625122-0.1795692-1.5179615-0.6609993-2.1119995
	c-0.4960327-0.4964085-1.1816483-0.7554264-1.882-0.7110004c-0.8118782-0.0424709-1.6040535,0.2592239-2.1819992,0.8309994
	c-0.571907,0.6605034-0.8594742,1.5203323-0.7999992,2.3920002v5.2600002c0,0.0773201-0.0626793,0.1399994-0.1399994,0.1399994
	h-2.2230034c-0.0773201,0-0.1399994-0.0626793-0.1399994-0.1399994V9.8714962c0-0.0773201,0.0626793-0.1399994,0.1399994-0.1399994
	h2.0999985c0.0773201,0,0.1399994,0.0626793,0.1399994,0.1399994v0.8830013
	c-0.0019341,0.0767422,0.058712,0.140522,0.1354561,0.1424541c0.0389366,0.0009804,0.0764999-0.0144215,0.1035423-0.0424538
	c0.3787689-0.3721275,0.8282928-0.6645546,1.3219986-0.8600006c0.6762314-0.2622414,1.3967896-0.3912754,2.1220016-0.3799992
	c1.195549-0.056591,2.3638191,0.3688564,3.243,1.1809998"/>
<path id="Path_66774" fill-rule="evenodd" clip-rule="evenodd" fill="#000101" d="M52.8740082,12.321497
	c-0.51651,0.4449348-0.8634186,1.0546703-0.9820023,1.7259998c-0.0138092,0.0760765,0.0366669,0.1489429,0.1127396,0.1627541
	c0.008667,0.0015717,0.0174561,0.0023251,0.0262604,0.0022449h5.7330017
	c0.0773163,0.0004997,0.1403961-0.0617752,0.1408997-0.1390934c0.0000534-0.008009-0.0005798-0.0160065-0.0018997-0.0239067
	c-0.1098404-0.6659603-0.4473648-1.2731667-0.9550018-1.7180004c-0.5662155-0.487812-1.2950211-0.7451401-2.0419998-0.7209988
	C54.1643143,11.5897408,53.4409485,11.8428459,52.8740082,12.321497 M60.1420059,15.8744965h-8.0860062
	c-0.0778656,0.0003223-0.1407318,0.0637112-0.1404114,0.1415844c0.0000458,0.0116081,0.0015335,0.0231686,0.0044098,0.0344143
	c0.1523132,0.6832561,0.5483398,1.2876129,1.1139984,1.7000008c0.674408,0.4767895,1.4866028,0.7191811,2.3120041,0.6900005
	c1.0366287,0.0332832,2.0439606-0.346983,2.7999954-1.0569992c0.0562363-0.0530682,0.1448441-0.0505028,0.1979065,0.0057316
	c0.0007095,0.0007477,0.0014038,0.0015049,0.0020981,0.0022678l1.1640015,1.3379993
	c0.0455322,0.0528831,0.0455322,0.1311169,0,0.184c-0.4766159,0.5351505-1.0737228,0.9492188-1.7419968,1.2080002
	c-1.821106,0.6664715-3.8336945,0.5727787-5.5849991-0.2600002c-0.8636551-0.4383736-1.5829391-1.1159992-2.0719986-1.9519997
	c-0.4949799-0.8610134-0.7475815-1.8399887-0.730999-2.8330002c-0.0145912-0.9835701,0.2306709-1.9535694,0.7109947-2.8120003
	c0.4615326-0.8225231,1.1448212-1.4988747,1.9720001-1.9519997c0.871109-0.4745331,1.8501587-0.7156754,2.8420029-0.7000008
	c0.9752655-0.0166149,1.9379807,0.2215652,2.7929993,0.691c0.8121109,0.4516506,1.4787827,1.1252613,1.9220047,1.9420013
	c0.473526,0.8891335,0.7110901,1.8848553,0.6899948,2.8920002c0,0.1499996-0.0096664,0.3540001-0.0289993,0.6119995
	c-0.0057526,0.0729942-0.0667801,0.1292248-0.1399994,0.1289997"/>
<path id="Path_66775" fill-rule="evenodd" clip-rule="evenodd" fill="#000101" d="M78.1170044,9.9214973l-3.8430023,10.4090004
	c-0.0199356,0.0550518-0.0724487,0.0915279-0.1309967,0.0909996h-2.2050018
	c-0.0583954,0.000227-0.1108856-0.0355606-0.1320038-0.0900002l-2.5999985-6.9290009
	c-0.0272751-0.0723495-0.1080322-0.1088905-0.1803818-0.0816154c-0.0376816,0.014204-0.0674133,0.0439396-0.0816193,0.0816154
	l-2.6360016,6.9300003c-0.0212173,0.0551224-0.0749588,0.0908165-0.1339951,0.0890007H63.973999
	c-0.0586395,0.0000687-0.1112061-0.0361691-0.1319962-0.0909996L60.0180054,9.9214973
	c-0.0265045-0.0726337,0.0108795-0.1530056,0.0835114-0.1795158c0.0155334-0.0056686,0.0319519-0.0085411,0.0484924-0.0084839
	h2.0629959c0.0588913,0.0000877,0.1115341,0.0367737,0.1319962,0.0919991l2.6600037,7.434
	c0.0265274,0.0726261,0.1069107,0.109993,0.1795349,0.0834618c0.038765-0.0141602,0.0693054-0.0447006,0.0834656-0.0834618
	l2.7750015-7.4379997c0.0208435-0.0540733,0.0730515-0.0895424,0.1309967-0.0890007h1.9069977
	c0.0588074-0.0003777,0.1113968,0.0365543,0.1309967,0.092001l2.7190018,7.4740009
	c0.0265274,0.0726261,0.1069107,0.109993,0.1795349,0.0834618c0.038765-0.0141602,0.0693054-0.0447006,0.0834656-0.0834618
	l2.7370071-7.4770012c0.0199356-0.0550518,0.0724487-0.0915279,0.1309967-0.0909996h1.9240036
	c0.0773163,0.0002861,0.1397705,0.0631962,0.1394806,0.1405163c-0.000061,0.0161991-0.0029297,0.0322647-0.0084839,0.0474834"/>
<path id="Path_66776" fill-rule="evenodd" clip-rule="evenodd" fill="#000101" d="M85.8440018,16.9694977
	c0.6089096-0.5711403,0.9410858-1.3776951,0.9110031-2.2119999c0.0288849-0.8253517-0.3038101-1.6222191-0.9110031-2.1820011
	c-1.3603973-1.1212807-3.3246002-1.1212807-4.6849976,0c-0.6068268,0.5599632-0.9391479,1.3568077-0.9100037,2.1820011
	c-0.0304718,0.8341732,0.3013535,1.6407566,0.9100037,2.2119999C82.5144882,18.1043797,84.4885178,18.1043797,85.8440018,16.9694977
	 M89.0740051,9.7324963c0.0773163,0,0.1399994,0.0626812,0.1399994,0.1400013v8.9279995
	c0,3.7640018-1.9216614,5.645998-5.7649994,5.645998c-0.9877319,0.0055771-1.9714584-0.1260109-2.9229965-0.3909988
	c-0.7901764-0.2061043-1.5326614-0.5640984-2.185997-1.0540009c-0.0556259-0.0434818-0.0698166-0.1217575-0.0329971-0.1819992
	l0.9759979-1.6389999c0.0391388-0.0660419,0.1244049-0.0878506,0.1904449-0.0487118
	c0.0054245,0.0032139,0.0106201,0.0067921,0.0155563,0.0107117c0.4987411,0.3678627,1.0558624,0.649128,1.6480026,0.8320007
	c0.7008362,0.2312107,1.4340134,0.3493576,2.1719971,0.3500004c0.932106,0.0806656,1.8587875-0.2064552,2.5820007-0.7999992
	c0.5958939-0.6675949,0.8925629-1.5500069,0.8209991-2.4419994V18.859499
	c-0.0002899-0.076767-0.0627518-0.1387653-0.1395187-0.1384773c-0.0355835,0.0001335-0.0697556,0.0139046-0.0954819,0.0384769
	c-0.3861618,0.3562241-0.8364792,0.635849-1.3270035,0.8239994c-0.645401,0.2460499-1.3313293,0.3685131-2.0220032,0.3610001
	c-0.9570236,0.0136757-1.9025345-0.2099895-2.7519989-0.651001c-0.8048248-0.4185848-1.4772491-1.0529251-1.9420013-1.8320007
	c-0.4818268-0.8170567-0.7279205-1.751606-0.7109985-2.7000008c-0.0180969-0.9463253,0.2281265-1.8789387,0.7109985-2.6929989
	c0.4656754-0.7730446,1.1383667-1.400362,1.9420013-1.8110008c0.8514557-0.4345627,1.7961578-0.654604,2.7519989-0.6409988
	c0.7218094-0.009367,1.4387283,0.1196232,2.1119995,0.3799992c0.5077057,0.2001495,0.9679031,0.5043354,1.3509979,0.8929996
	c0.0535278,0.0557976,0.1421509,0.057642,0.1979446,0.0041161c0.0282974-0.0271454,0.0439148-0.0649128,0.0430527-0.1041164
	V9.8724957c0-0.0773201,0.0626831-0.1399994,0.1399994-0.1399994h2.0999985"/>
<path id="Path_66777" fill-rule="evenodd" clip-rule="evenodd" fill="#000101" d="M94.1110001,12.321497
	c-0.5168991,0.4446144-0.863884,1.0544987-0.9820023,1.7259998c-0.0138092,0.0760765,0.0366669,0.1489429,0.1127396,0.1627541
	c0.008667,0.0015717,0.0174561,0.0023251,0.0262604,0.0022449h5.7330017
	c0.0773163,0.0004997,0.1404037-0.0617752,0.1408997-0.1390934c0.0000534-0.008009-0.0005875-0.0160065-0.0018997-0.0239067
	c-0.1098328-0.6659603-0.4473724-1.2731667-0.9550018-1.7180004c-0.5662155-0.487812-1.2950211-0.7451401-2.0419998-0.7209988
	C95.4012909,11.5896473,94.6779022,11.8427639,94.1110001,12.321497 M101.3789978,15.8744965h-8.0859909
	c-0.0778656,0.0008736-0.1402817,0.0647068-0.1394119,0.1425724c0.0001297,0.0112782,0.0016098,0.022501,0.0044098,0.0334263
	c0.1523056,0.6832561,0.5483398,1.2876129,1.1139984,1.7000008c0.6744003,0.4767876,1.4865875,0.7191811,2.3119965,0.6900005
	c1.0366364,0.0332832,2.0439606-0.346983,2.8000031-1.0569992c0.0562363-0.0530663,0.1448364-0.050499,0.1979065,0.0057354
	c0.0007019,0.0007477,0.0014038,0.0015011,0.0020905,0.002264l1.1640015,1.3379993c0.0459671,0.052721,0.0459671,0.131279,0,0.184
	c-0.4766159,0.5351505-1.0737305,0.9492188-1.7419968,1.2080002c-1.821106,0.6664715-3.8336945,0.5727787-5.5849991-0.2600002
	c-0.8636551-0.4383736-1.5829391-1.1159992-2.0719986-1.9519997c-0.4949799-0.8610134-0.7475891-1.8399887-0.7310028-2.8330002
	c-0.0145874-0.9835701,0.2306671-1.9535694,0.7109985-2.8120003c0.4615784-0.8224907,1.1448441-1.4988308,1.9720001-1.9519997
	c0.871109-0.4745331,1.8501511-0.7156773,2.8420029-0.7000008c0.9752655-0.0166149,1.9379883,0.2215652,2.7929993,0.691
	c0.8120117,0.4514465,1.4784088,1.1251316,1.9209976,1.9420013c0.4742966,0.8888798,0.7122345,1.8847198,0.6910019,2.8920002
	c0,0.1499996-0.0099945,0.3540001-0.0299988,0.6119995c-0.0052567,0.0728359-0.0659714,0.1291885-0.1389999,0.1289997"/>
<path id="Path_66778" fill-rule="evenodd" clip-rule="evenodd" fill="#000101" d="M112.2580032,10.7924957
	c0.8734741,0.9476299,1.3154984,2.2146873,1.2210007,3.5v5.9890003c0,0.0773201-0.0626831,0.1399994-0.1399994,0.1399994h-2.2220001
	c-0.0773163,0-0.1399994-0.0626793-0.1399994-0.1399994v-5.6599998c0.0568695-0.7625122-0.1795731-1.5179615-0.6610031-2.1119995
	c-0.4957199-0.4962482-1.1809692-0.7552643-1.8809967-0.7110004c-0.8118973-0.0425949-1.6041183,0.2591171-2.1819992,0.8309994
	c-0.571907,0.6605034-0.8594742,1.5203323-0.8000031,2.3920002v5.2600002c0,0.0773201-0.0626831,0.1399994-0.1399994,0.1399994
	h-2.2229996c-0.0773163,0-0.1399994-0.0626793-0.1399994-0.1399994V9.8714962c0-0.0773201,0.0626831-0.1399994,0.1399994-0.1399994
	h2.0999985c0.0773163,0,0.1399994,0.0626793,0.1399994,0.1399994v0.8830013
	c-0.0011215,0.0773106,0.0606384,0.1408958,0.1379547,0.1420193c0.0383301,0.0005569,0.0752182-0.0146313,0.1020432-0.0420189
	c0.3782349-0.3723145,0.8274689-0.6647758,1.3209991-0.8600006c0.6762619-0.2621441,1.3967972-0.3911762,2.1220016-0.3799992
	c1.195549-0.0565929,2.3638229,0.3688545,3.2430038,1.1809998"/>
<path id="Path_66779" fill-rule="evenodd" clip-rule="evenodd" fill="#F68B28" d="M16.8340034,21.0864964
	c-0.0688305,0.3888378-0.439846,0.6482563-0.8286839,0.5794239c-0.3888378-0.0688305-0.6482563-0.439846-0.5794239-0.8286839
	c0.0688305-0.3888378,0.439846-0.6482563,0.8286839-0.5794239c0.2127495,0.0376606,0.3970623,0.1695042,0.5014248,0.3586845
	C16.8342075,20.759903,16.8616924,20.9255161,16.8340034,21.0864964 M32.2820053,8.9684963
	c-0.3079987-0.8139992-1.8260002-0.9179993-4.1049995-0.4399986c0.7400017-0.1070004,1.9220009,0.2889996,2.1110001,0.7859993
	c0.6420021,1.7000008-4.7940025,6.1710014-12.1359978,9.9870014c-0.3120022,0.1630001-0.6250019,0.3199997-0.9380016,0.4769993
	c-0.6600208-0.6089363-1.688715-0.567522-2.2976513,0.0925007c-0.6089344,0.6600208-0.5675201,1.6887131,0.0925007,2.2976494
	c0.6600208,0.6089344,1.688715,0.567522,2.2976513-0.0925007c0.3515549-0.3810482,0.5003223-0.9069023,0.4004993-1.4156494
	c0.2759991-0.1369991,0.5499973-0.2740002,0.8279972-0.4179993c2.6138687-1.3470707,5.1405106-2.8570461,7.5650024-4.5210018
	c0.0169983,0.2649994,0.0259972,0.5340004,0.0259972,0.7999992c0,7.2288551-5.8601456,13.0889969-13.0890007,13.0889969
	c-0.0003319,0-0.0006676,0-0.0009995,0H12.880003c0.4489994,0.0429993,0.8999996,0.0680008,1.3669987,0.0680008
	c7.8043327,0.0085945,14.1379623-6.3110962,14.146553-14.115427c0.0005493-0.4958572-0.0250053-0.9913998-0.0765533-1.4845715
	c2.7890015-2.2000008,4.3470001-4.1000004,3.9650002-5.1160011"/>
<path id="Path_66780" fill-rule="evenodd" clip-rule="evenodd" fill="#F68B28" d="M5.5200043,20.9114971
	c-0.085186,0.3872814-0.4681988,0.6321793-0.8554802,0.5469933c-0.3872833-0.085186-0.6321793-0.4681988-0.5469933-0.8554802
	c0.085186-0.3872833,0.4681969-0.6321793,0.8554802-0.5469933c0.1986732,0.0436993,0.3694839,0.1696224,0.4699936,0.3464794
	C5.5309772,20.5567188,5.5584259,20.7381554,5.5200043,20.9114971 M32.4090042,2.5764961
	c-0.3860016-0.9879999-2.5510025-0.9109993-5.7000008,0.0090008c2.0559998-0.4580002,3.4279976-0.3760004,3.7120018,0.3559999
	c0.3699989,0.9469995-2.2680016,3.3599997-5.9309998,6.0050001c-0.1240005,0.0889988-0.2460022,0.1749992-0.3730011,0.2630005l0,0
	c-2.9572334,2.0955162-6.0242653,4.0316086-9.1879997,5.7999992c-2.8199997,1.5680008-5.9200001,3.2190018-8.9360008,4.6389999
	c-0.6150455-0.6558456-1.6453075-0.688921-2.3011532-0.0738735c-0.6558456,0.6150455-0.688921,1.6453075-0.0738735,2.3011532
	c0.6150475,0.6558475,1.6453075,0.688921,2.3011551,0.0738754c0.3909683-0.3666496,0.576416-0.9022484,0.4958725-1.4321556
	c2.7579994-1.2439995,5.7460003-2.8099995,8.9069996-4.5710011c3.066-1.7089996,6.3340015-3.7479992,9.1879978-5.7290001
	c0.5462494,0.9894409,0.960762,2.0460663,1.2330017,3.1429996v0.0060005
	c0.738945-0.5422535,1.4380684-1.1367779,2.0919991-1.7790012c-0.2905312-1.0061817-0.6930504-1.9765854-1.2000008-2.8929996
	c3.6580009-2.7150002,6.1650009-5.1169996,5.7750015-6.1189995"/>
<path id="Path_66781" fill-rule="evenodd" clip-rule="evenodd" fill="#000101" d="M8.590004,13.5564957
	c-0.0743637,0.3889427-0.4499474,0.643961-0.8388901,0.5695972c-0.3889446-0.0743637-0.643961-0.4499493-0.5695972-0.838892
	s0.4499493-0.643959,0.838892-0.5695953c0.2090263,0.0399647,0.3894978,0.1707172,0.4925957,0.3568897
	C8.593689,13.2214069,8.620903,13.3917599,8.590004,13.5564957 M25.439003,6.8564959
	c-0.7162094-0.9272652-1.544136-1.7625809-2.4650002-2.4869995c1.4510002-1.4190006,2.1720009-2.6000004,1.8999977-3.3199997
	c-0.192997-0.4940004-0.8249969-0.7280006-1.7999954-0.7280006c-0.8291855,0.0206156-1.6539688,0.1275263-2.4610023,0.3190002
	c1.25,0.0190001,2.0590019,0.2160006,2.2630005,0.7550001c0.6420021,1.6999998-4.7940025,6.1700001-12.1359997,9.9870014
	c-0.578001,0.2999992-1.1599998,0.5909996-1.7409992,0.8769989c-0.6475029-0.6190395-1.6742363-0.5959682-2.2932758,0.0515327
	c-0.6190414,0.647501-0.5959682,1.6742363,0.0515308,2.2932758c0.6475029,0.6190395,1.6742363,0.5959682,2.2932777-0.0515327
	c0.3574944-0.3739319,0.5151749-0.8959637,0.4244652-1.4052753c0.5440025-0.262001,1.0936661-0.5366669,1.6490021-0.8240013
	c3.4719734-1.7661762,6.7733364-3.8493652,9.8619995-6.2229996c0.8762703,0.6694851,1.6647987,1.4465923,2.3470001,2.3129997
	l0.0089989,0.0100002c0.9070015-0.6329994,1.3530045-0.9699993,2.1000023-1.5620003l-0.0050011-0.007"/>
<path id="Path_66782" fill-rule="evenodd" clip-rule="evenodd" fill="#000101" d="M21.003006,3.1014967
	C14.1364517-0.6285677,5.546196,1.9140596,1.8161316,8.7806129c-0.8930502,1.6439857-1.4511929,3.4487629-1.6421289,5.3098831
	C1.5205517,6.9853516,8.3720055,2.3170872,15.47715,3.6636362c1.2346458,0.2339869,2.4291801,0.6444836,3.5468521,1.2188597
	C19.738678,4.3529558,20.401329,3.7566004,21.003006,3.1014967"/>
</svg>
