<?xml version="1.0" encoding="utf-8"?>
<!-- Generator: Adobe Illustrator 27.1.0, SVG Export Plug-In . SVG Version: 6.00 Build 0)  -->
<svg version="1.1" xmlns="http://www.w3.org/2000/svg" xmlns:xlink="http://www.w3.org/1999/xlink" x="0px" y="0px"
	 viewBox="0 0 160 160" enable-background="new 0 0 160 160" xml:space="preserve">
<g id="Layer_1">
	<ellipse fill="#FFFFFF" cx="130.92226" cy="25.97958" rx="2.46396" ry="2.4284"/>
	<ellipse fill="#FFFFFF" cx="123.53699" cy="25.97958" rx="2.46396" ry="2.4284"/>
	<ellipse fill="#D3D3D3" cx="149.22913" cy="2.58903" rx="2.62696" ry="2.58903"/>
	<ellipse fill="#D3D3D3" cx="151.20604" cy="17.81857" rx="1.31344" ry="1.29452"/>
	<line fill="none" stroke="#C2C1C0" stroke-width="1.022" stroke-miterlimit="10" x1="3.1013" y1="7.66733" x2="0" y2="7.66733"/>
	
		<line fill="none" stroke="#C2C1C0" stroke-width="1.022" stroke-miterlimit="10" x1="1.55065" y1="6.13909" x2="1.55065" y2="9.19566"/>
	<ellipse fill="#D3D3D3" cx="18.71712" cy="13.28473" rx="1.31344" ry="1.29452"/>
	<ellipse fill="#D3D3D3" cx="2.67907" cy="27.0053" rx="1.31344" ry="1.29452"/>
	<ellipse fill="#D3D3D3" cx="77.26906" cy="157.41096" rx="2.62697" ry="2.58903"/>
	<ellipse fill="#D3D3D3" cx="50.91935" cy="152.92834" rx="1.31344" ry="1.29452"/>
	<ellipse fill="#D3D3D3" cx="2.67907" cy="129.47115" rx="1.31344" ry="1.29452"/>
	
		<line id="Line_3298_00000099663601189067424140000009693879716205136263_" fill="none" stroke="#B5B4B3" stroke-width="1.022" stroke-miterlimit="10" x1="160" y1="125.74921" x2="155.49261" y2="125.74921"/>
	
		<line id="Line_3299_00000051357864279478884320000012824599956131256504_" fill="none" stroke="#B5B4B3" stroke-width="1.022" stroke-miterlimit="10" x1="157.74673" y1="123.52757" x2="157.74673" y2="127.96995"/>
</g>
<g id="Layer_2">
	<g>
		<path id="XMLID_00000152970502845452943430000011758678411694302906_" fill="#D3D3D3" d="M98.09856,108.3529l-0.9165-1.63786
			c-0.11487-0.20524-0.3765-0.2796-0.58445-0.16634l-3.39404,1.85049v-3.82545c0-0.2343-0.19256-0.42427-0.43006-0.42427h-1.89592
			c-0.2375,0-0.43006,0.18997-0.43006,0.42427v3.77694l-3.31474-1.88731c-0.20573-0.11708-0.4686-0.04752-0.58741,0.15538
			l-0.94802,1.62051c-0.11869,0.20303-0.04826,0.46255,0.15747,0.57964l3.82643,2.1786l-3.12379,3.08181
			c-0.16793,0.16572-0.16793,0.43436,0,0.60008l1.34041,1.32256c0.16793,0.16572,0.44015,0.16572,0.60809,0l3.41965-3.37373
			l3.41916,3.37373c0.16793,0.16572,0.44028,0.16572,0.60821,0l1.34041-1.32256c0.16793-0.16572,0.16793-0.43436,0-0.60008
			l-3.09966-3.05842l3.83616-2.09143C98.13783,108.81607,98.2133,108.55801,98.09856,108.3529z"/>
		<path id="XMLID_00000036943737160920796710000006008501660765560220_" fill="#D3D3D3" d="M80.5432,108.3529l-0.9165-1.63786
			c-0.11488-0.20524-0.3765-0.2796-0.58446-0.16634l-3.39404,1.85049v-3.82545c0-0.2343-0.19256-0.42427-0.43005-0.42427h-1.89593
			c-0.2375,0-0.43005,0.18997-0.43005,0.42427v3.77694l-3.31475-1.88731c-0.20573-0.11708-0.4686-0.04752-0.5874,0.15538
			l-0.94803,1.62051c-0.11868,0.20303-0.04826,0.46255,0.15747,0.57964l3.82644,2.1786l-3.12379,3.08181
			c-0.16794,0.16572-0.16794,0.43436,0,0.60008l1.3404,1.32256c0.16793,0.16572,0.44016,0.16572,0.60809,0l3.41965-3.37373
			l3.41915,3.37373c0.16794,0.16572,0.44028,0.16572,0.60822,0l1.3404-1.32256c0.16793-0.16572,0.16793-0.43436,0-0.60008
			l-3.09966-3.05842l3.83617-2.09143C80.58248,108.81607,80.65795,108.55801,80.5432,108.3529z"/>
		<path id="XMLID_00000154408125713899216640000004488730681455380927_" fill="#D3D3D3" d="M62.98784,108.3529l-0.9165-1.63786
			c-0.11487-0.20524-0.3765-0.2796-0.58445-0.16634l-3.39404,1.85049v-3.82545c0-0.2343-0.19256-0.42427-0.43006-0.42427h-1.89592
			c-0.2375,0-0.43006,0.18997-0.43006,0.42427v3.77694l-3.31475-1.88731c-0.20573-0.11708-0.46859-0.04752-0.5874,0.15538
			l-0.94802,1.62051c-0.11869,0.20303-0.04826,0.46255,0.15747,0.57964l3.82644,2.1786l-3.12379,3.08181
			c-0.16793,0.16572-0.16793,0.43436,0,0.60008l1.3404,1.32256c0.16793,0.16572,0.44015,0.16572,0.60809,0l3.41965-3.37373
			l3.41916,3.37373c0.16793,0.16572,0.44028,0.16572,0.60821,0l1.3404-1.32256c0.16793-0.16572,0.16793-0.43436,0-0.60008
			L58.983,111.0209l3.83616-2.09143C63.02712,108.81607,63.10259,108.55801,62.98784,108.3529z"/>
	</g>
	<g>
		<path id="XMLID_00000053508899903522097860000003940655506250170498_" fill="#D3D3D3" d="M80.5432,108.3529l-0.9165-1.63786
			c-0.11488-0.20524-0.3765-0.2796-0.58446-0.16634l-3.39404,1.85049v-3.82545c0-0.2343-0.19256-0.42427-0.43005-0.42427h-1.89593
			c-0.2375,0-0.43005,0.18997-0.43005,0.42427v3.77694l-3.31475-1.88731c-0.20573-0.11708-0.4686-0.04752-0.5874,0.15538
			l-0.94803,1.62051c-0.11868,0.20303-0.04826,0.46255,0.15747,0.57964l3.82644,2.1786l-3.12379,3.08181
			c-0.16794,0.16572-0.16794,0.43436,0,0.60008l1.3404,1.32256c0.16793,0.16572,0.44016,0.16572,0.60809,0l3.41965-3.37373
			l3.41915,3.37373c0.16794,0.16572,0.44028,0.16572,0.60822,0l1.3404-1.32256c0.16793-0.16572,0.16793-0.43436,0-0.60008
			l-3.09966-3.05842l3.83617-2.09143C80.58248,108.81607,80.65795,108.55801,80.5432,108.3529z"/>
		<path id="XMLID_00000171715385963549322670000001062943468207271356_" fill="#D3D3D3" d="M62.98784,108.3529l-0.9165-1.63786
			c-0.11487-0.20524-0.3765-0.2796-0.58445-0.16634l-3.39404,1.85049v-3.82545c0-0.2343-0.19256-0.42427-0.43006-0.42427h-1.89592
			c-0.2375,0-0.43006,0.18997-0.43006,0.42427v3.77694l-3.31475-1.88731c-0.20573-0.11708-0.46859-0.04752-0.5874,0.15538
			l-0.94802,1.62051c-0.11869,0.20303-0.04826,0.46255,0.15747,0.57964l3.82644,2.1786l-3.12379,3.08181
			c-0.16793,0.16572-0.16793,0.43436,0,0.60008l1.3404,1.32256c0.16793,0.16572,0.44015,0.16572,0.60809,0l3.41965-3.37373
			l3.41916,3.37373c0.16793,0.16572,0.44028,0.16572,0.60821,0l1.3404-1.32256c0.16793-0.16572,0.16793-0.43436,0-0.60008
			L58.983,111.0209l3.83616-2.09143C63.02712,108.81607,63.10259,108.55801,62.98784,108.3529z"/>
		<path id="XMLID_00000110443240962863953850000002318715276443886250_" fill="#D3D3D3" d="M45.43249,108.3529l-0.9165-1.63786
			c-0.11487-0.20524-0.3765-0.2796-0.58445-0.16634l-3.39404,1.85049v-3.82545c0-0.2343-0.19255-0.42427-0.43006-0.42427h-1.89592
			c-0.2375,0-0.43006,0.18997-0.43006,0.42427v3.77694l-3.31475-1.88731c-0.20573-0.11708-0.46859-0.04752-0.5874,0.15538
			l-0.94802,1.62051c-0.11869,0.20303-0.04826,0.46255,0.15747,0.57964l3.82644,2.1786l-3.12379,3.08181
			c-0.16793,0.16572-0.16793,0.43436,0,0.60008l1.3404,1.32256c0.16793,0.16572,0.44015,0.16572,0.60809,0l3.41965-3.37373
			l3.41916,3.37373c0.16793,0.16572,0.44028,0.16572,0.60821,0l1.3404-1.32256c0.16793-0.16572,0.16793-0.43436,0-0.60008
			l-3.09966-3.05842l3.83616-2.09143C45.47177,108.81607,45.54724,108.55801,45.43249,108.3529z"/>
	</g>
	<path id="Path_62116_00000056424223320842764400000011034425728813205390_" fill="#D3D3D3" d="M51.21318,48.47206h2.80368v-7.81295
		c-0.1735-10.9102,8.52273-19.89924,19.43274-20.08691c10.60778-0.12464,19.30811,8.37366,19.43274,18.98145
		c0,0.00095,0,0.0018,0,0.00266c0,0.13709,0,0.2679,0,0.40499v8.51075h4.46719c3.5723,0.0309,6.44709,2.94466,6.42979,6.51707
		v37.20814c0.00742,3.52744-2.81575,6.40878-6.34261,6.47343H51.21936c-3.55263-0.02053-6.42086-2.90825-6.41734-6.46097V54.97667
		c-0.03109-3.57507,2.8418-6.49843,6.41686-6.52952c0.0001,0,0.00029,0,0.00048,0L51.21318,48.47206z M66.25964,75.01366
		c0.00009,4.44923,3.60691,8.05595,8.05604,8.05585c4.44922-0.0001,8.05594-3.60691,8.05585-8.05604
		c-0.0001-4.43211-3.58029-8.03171-8.01231-8.05576c-4.44913-0.02415-8.07534,3.56309-8.09949,8.01221
		c0,0.00837-0.00009,0.01674-0.00009,0.0251V75.01366z M62.28461,40.65911v7.81295h22.32359v-8.50457
		c0.05181-6.08345-4.83777-11.05698-10.92113-11.1088c-0.00237-0.00009-0.00465-0.00009-0.00703-0.00009h-0.23672
		c-6.33253,0.1697-11.3285,5.44089-11.1588,11.77342c0.0001,0.00076,0.0001,0.00143,0.0001,0.00209V40.65911z"/>
	<g>
		<circle fill-rule="evenodd" clip-rule="evenodd" fill="#FFFFFF" cx="115.66359" cy="116.12624" r="32.04368"/>
		<circle fill-rule="evenodd" clip-rule="evenodd" fill="#FFFFFF" cx="113.16359" cy="121.12624" r="20.0873"/>
		<g id="Layer_1_00000060746594782569161930000010984979718775958402_">
			<g>
				<path fill-rule="evenodd" clip-rule="evenodd" fill="#D3D3D3" d="M115.66359,90.85837
					c-13.95509,0-25.26788,11.31279-25.26788,25.26788s11.31279,25.26788,25.26788,25.26788s25.26787-11.31279,25.26787-25.26788
					S129.61867,90.85837,115.66359,90.85837z M132.57249,109.90457l-21.05428,21.05463
					c-0.6169,0.6169-1.61642,0.6169-2.23296,0.00037l-10.5302-10.52768c-0.6169-0.6169-0.6169-1.61642,0-2.23331l2.23296-2.23296
					c0.61654-0.61653,1.61642-0.61689,2.23296-0.00036l7.1804,7.17789l17.70484-17.70484c0.6169-0.6169,1.61642-0.6169,2.23332,0
					l2.23296,2.23296C133.18938,108.28815,133.18938,109.28767,132.57249,109.90457z"/>
			</g>
		</g>
	</g>
</g>
<g id="Layer_3">
</g>
</svg>
