<?xml version="1.0" encoding="utf-8"?>
<!-- Generator: Adobe Illustrator 27.1.1, SVG Export Plug-In . SVG Version: 6.00 Build 0)  -->
<svg version="1.1" id="Layer_1" xmlns="http://www.w3.org/2000/svg" xmlns:xlink="http://www.w3.org/1999/xlink" x="0px" y="0px"
	 viewBox="0 0 160 160" enable-background="new 0 0 160 160" xml:space="preserve">
<g id="BG">
</g>
<g id="Outline">
</g>
<g id="Phone">
</g>
<g id="Not_Final" display="none">
	<rect y="4.2105" display="inline" fill="none" width="160" height="151.5789"/>
	<path id="Path_55482_00000177484060954081290650000004533422353548267410_" display="inline" fill="#F2F1EF" d="M147.941,71.1832
		c1.5478,31.5528-31.0922,48.6013-59.5638,58.1238c-27.5251,9.2059-60.5752,12.4766-77.4661-12.2947
		C-5.872,92.4059,5.8686,58.8379,24.7284,35.9747c14.3208-17.3625,37.7086-12.9162,58.7343-6.9086
		c26.9583,7.7036,63.0316,12.6088,64.4792,42.1171"/>
	
		<ellipse id="Ellipse_3301_00000155120444513882974760000014337053702182073521_" display="inline" fill="#D3D3D3" cx="140.3891" cy="6.6552" rx="2.4716" ry="2.4429"/>
	
		<ellipse id="Ellipse_3302_00000049219397202276091340000008219543034384781979_" display="inline" fill="#D3D3D3" cx="142.2484" cy="21.0274" rx="1.2354" ry="1.2219"/>
	
		<rect id="Rectangle_15029_00000034787857010858869920000016978609745427399066_" x="0.0017" y="11.0173" display="inline" fill="#C2C1C0" width="2.9179" height="0.8615"/>
	
		<rect id="Rectangle_15030_00000090989935573266129280000012567725179944236161_" x="1.0299" y="10.0051" display="inline" fill="#C2C1C0" width="0.8615" height="2.8842"/>
	
		<ellipse id="Ellipse_3303_00000047746026833678040300000001093621874296222632_" display="inline" fill="#D3D3D3" cx="17.6101" cy="16.7486" rx="1.2354" ry="1.2219"/>
	
		<ellipse id="Ellipse_3304_00000160883916206831345160000017595699564293849257_" display="inline" fill="#D3D3D3" cx="2.5213" cy="29.696" rx="1.2354" ry="1.2219"/>
	
		<ellipse id="Ellipse_3305_00000039102255607708750820000017963688838964697771_" display="inline" fill="#D3D3D3" cx="72.6939" cy="152.7512" rx="2.4716" ry="2.4429"/>
	
		<ellipse id="Ellipse_3306_00000048463462844517737810000001246013592727646387_" display="inline" fill="#D3D3D3" cx="47.9032" cy="148.5221" rx="1.2354" ry="1.2219"/>
	
		<ellipse id="Ellipse_3307_00000174578291618239970120000010654752723151079309_" display="inline" fill="#D3D3D3" cx="2.5213" cy="126.3865" rx="1.2354" ry="1.2219"/>
	
		<rect id="Rectangle_15031_00000031206563660695603330000008769020853803546522_" x="146.2813" y="122.4446" display="inline" fill="#B5B4B3" width="4.2408" height="0.8598"/>
	
		<rect id="Rectangle_15032_00000002366176890726273100000017933427746363310783_" x="147.9722" y="120.7781" display="inline" fill="#B5B4B3" width="0.8598" height="4.1912"/>
	<rect display="inline" fill="none" width="160" height="160"/>
	<g display="inline">
		
			<path id="Rectangle_15051_00000135684639028209299390000015899612212794552758_" fill="#FFFFFF" stroke="#D3D3D3" stroke-width="4.8" stroke-miterlimit="10" d="
			M59.2499,24.5655h41.5002c6.8893,0,12.4742,5.5849,12.4742,12.4741v85.9207c0,6.8893-5.5849,12.4741-12.4742,12.4741H59.2499
			c-6.8893,0-12.4742-5.5849-12.4742-12.4741V37.0397C46.7757,30.1504,52.3606,24.5655,59.2499,24.5655z"/>
		<path id="Rectangle_15055_00000134958703030229677120000003073903750765872789_" fill="#D3D3D3" d="M69.546,24.5655h20.9067
			v0.9692c0.0034,2.2046-1.7809,3.9945-3.9855,3.998c-0.0042,0-0.0083,0-0.0125,0H73.544c-2.2046,0.0034-3.9945-1.7809-3.998-3.9855
			c0-0.0042,0-0.0083,0-0.0125V24.5655z"/>
	</g>
	
		<circle display="inline" fill="#FFFFFF" stroke="#D3D3D3" stroke-width="5" stroke-miterlimit="10" cx="131.7606" cy="131.7606" r="25.7394"/>
	<g display="inline">
		
			<line fill="none" stroke="#D3D3D3" stroke-width="5" stroke-miterlimit="10" x1="142.8453" y1="120.676" x2="120.676" y2="142.8453"/>
		
			<line fill="none" stroke="#D3D3D3" stroke-width="5" stroke-miterlimit="10" x1="142.8453" y1="142.8453" x2="120.676" y2="120.676"/>
	</g>
</g>
<g>
	<rect y="4.2105" fill="none" width="160" height="151.5789"/>
</g>
<g id="Path_55482_00000093141624483255510830000008914867574670699956_">
	<path fill="#F2F1EF" d="M147.941,71.1832c1.5478,31.5528-31.0922,48.6013-59.5638,58.1238
		c-27.5251,9.2059-60.5752,12.4766-77.4661-12.2947C-5.872,92.4059,5.8686,58.8379,24.7284,35.9747
		c14.3208-17.3625,37.7086-12.9162,58.7343-6.9086c26.9583,7.7036,63.0316,12.6088,64.4792,42.1171"/>
</g>
<g id="Ellipse_3301_00000060023588945799042760000017890124049449742739_">
	<ellipse fill="#D3D3D3" cx="140.3891" cy="6.6552" rx="2.4716" ry="2.4429"/>
</g>
<g id="Ellipse_3302_00000174596538233385629410000002294341335565536919_">
	<ellipse fill="#D3D3D3" cx="142.2484" cy="21.0274" rx="1.2354" ry="1.2219"/>
</g>
<g id="Rectangle_15029_00000170249540518341182850000015338662191403701639_">
	<rect x="0.0017" y="11.0173" fill="#C2C1C0" width="2.9179" height="0.8615"/>
</g>
<g id="Rectangle_15030_00000049934779053445735710000016888532293737917062_">
	<rect x="1.0299" y="10.0051" fill="#C2C1C0" width="0.8615" height="2.8842"/>
</g>
<g id="Ellipse_3303_00000030452520143939944200000002756319999379829381_">
	<ellipse fill="#D3D3D3" cx="17.6101" cy="16.7486" rx="1.2354" ry="1.2219"/>
</g>
<g id="Ellipse_3304_00000152256950439657848090000008757953714441740206_">
	<ellipse fill="#D3D3D3" cx="2.5213" cy="29.696" rx="1.2354" ry="1.2219"/>
</g>
<g id="Ellipse_3305_00000088115089708290448040000005060349969751078325_">
	<ellipse fill="#D3D3D3" cx="72.6939" cy="152.7512" rx="2.4716" ry="2.4429"/>
</g>
<g id="Ellipse_3306_00000004537184207284002840000002169152125021167283_">
	<ellipse fill="#D3D3D3" cx="47.9032" cy="148.5221" rx="1.2354" ry="1.2219"/>
</g>
<g id="Ellipse_3307_00000075135759376288302710000011190291468654099889_">
	<ellipse fill="#D3D3D3" cx="2.5213" cy="126.3865" rx="1.2354" ry="1.2219"/>
</g>
<g id="Rectangle_15031_00000121993842742718430590000018169928152239443124_">
	<rect x="146.2813" y="122.4446" fill="#B5B4B3" width="4.2408" height="0.8598"/>
</g>
<g id="Rectangle_15032_00000181064157654586486340000008810825879763181206_">
	<rect x="147.9722" y="120.7781" fill="#B5B4B3" width="0.8598" height="4.1912"/>
</g>
<g>
	<rect fill="none" width="160" height="160"/>
</g>
<g>
	<g id="Rectangle_15051_00000134224143424285871740000006508569446710930096_">
		<path fill="#FFFFFF" d="M59.2499,24.5655h41.5002c6.8893,0,12.4742,5.5849,12.4742,12.4741v85.9207
			c0,6.8893-5.5849,12.4741-12.4742,12.4741H59.2499c-6.8893,0-12.4741-5.5849-12.4741-12.4741V37.0396
			C46.7757,30.1504,52.3606,24.5655,59.2499,24.5655z"/>
		<path fill="#D3D3D3" d="M100.75,137.835h-41.5c-8.2017,0-14.874-6.6729-14.874-14.875V37.0396
			c0-8.2017,6.6724-14.874,14.874-14.874h41.5c8.2021,0,14.875,6.6724,14.875,14.874V122.96
			C115.625,131.1621,108.9521,137.835,100.75,137.835z M59.25,26.9653c-5.5547,0-10.0742,4.5195-10.0742,10.0742V122.96
			c0,5.5547,4.5195,10.0742,10.0742,10.0742h41.5c5.5547,0,10.0742-4.5195,10.0742-10.0742V37.0396
			c0-5.5547-4.5195-10.0742-10.0742-10.0742H59.25z"/>
	</g>
	<g id="Rectangle_15055_00000171715377785400631430000008197879301237241242_">
		<path fill="#D3D3D3" d="M69.546,24.5655h20.9067v0.9692c0.0034,2.2046-1.7809,3.9945-3.9855,3.998c-0.0042,0-0.0083,0-0.0125,0
			H73.544c-2.2046,0.0034-3.9945-1.7809-3.998-3.9855c0-0.0042,0-0.0083,0-0.0125V24.5655z"/>
	</g>
	<g id="Path_54244_00000025433031614372585140000009735333974047779207_">
		<path fill="#D3D3D3" d="M99.3917,61.9506H83.4591c-0.9507,0-1.7213-0.7706-1.7213-1.7213v-4.2105
			c0-0.9507,0.7706-1.7213,1.7213-1.7213h15.9326c0.9507,0,1.7213,0.7706,1.7213,1.7213l0,0v4.2105
			C101.113,61.18,100.3424,61.9506,99.3917,61.9506z"/>
	</g>
	<g id="Path_54245_00000172402783870293004740000004069101009082371224_">
		<path fill="#D3D3D3" d="M95.2818,51.7426H83.4591c-0.9506,0-1.7213-0.7706-1.7213-1.7213c0-0.0014,0-0.0028,0-0.0042v-1.9764
			c0-0.9507,0.7706-1.7213,1.7213-1.7213h11.8227c0.9507,0,1.7213,0.7706,1.7213,1.7213v1.9764
			c0.0024,0.9506-0.7664,1.7231-1.717,1.7255C95.2846,51.7426,95.2833,51.7426,95.2818,51.7426z"/>
	</g>
	<g id="Ellipse_3298_00000143587320790260253670000005816011370503912325_">
		<ellipse fill="#D3D3D3" cx="65.8258" cy="54.0559" rx="7.4215" ry="7.3373"/>
	</g>
	<g id="Path_54244_00000060741241543477653660000004465770014417939389_">
		<path fill="#F2F1EF" d="M99.3917,86.277H83.4591c-0.9507,0-1.7213-0.7706-1.7213-1.7213v-4.2105
			c0-0.9507,0.7706-1.7213,1.7213-1.7213h15.9326c0.9507,0,1.7213,0.7706,1.7213,1.7213l0,0v4.2105
			C101.113,85.5064,100.3424,86.277,99.3917,86.277z"/>
	</g>
	<g id="Path_54245_00000045585377486765096610000014414816241025927328_">
		<path fill="#F2F1EF" d="M95.2818,76.069H83.4591c-0.9506,0-1.7213-0.7706-1.7213-1.7213c0-0.0014,0-0.0028,0-0.0042v-1.9764
			c0-0.9507,0.7706-1.7213,1.7213-1.7213h11.8227c0.9507,0,1.7213,0.7706,1.7213,1.7213v1.9764
			c0.0024,0.9506-0.7664,1.7231-1.717,1.7255C95.2846,76.069,95.2833,76.069,95.2818,76.069z"/>
	</g>
	<g id="Ellipse_3298_00000169547918243710295380000003695662660419238052_">
		<ellipse fill="#F2F1EF" cx="65.8258" cy="78.3823" rx="7.4215" ry="7.3373"/>
	</g>
	<g id="Path_54244_00000160181892818514331690000008020211668063590590_">
		<path fill="#F2F1EF" d="M99.3917,114.3473H83.4591c-0.9507,0-1.7213-0.7706-1.7213-1.7213v-4.2105
			c0-0.9506,0.7706-1.7213,1.7213-1.7213h15.9326c0.9507,0,1.7213,0.7706,1.7213,1.7213l0,0v4.2105
			C101.113,113.5767,100.3424,114.3473,99.3917,114.3473z"/>
	</g>
	<g id="Path_54245_00000129168587721342976030000018051210822871490432_">
		<path fill="#F2F1EF" d="M95.2818,104.1393H83.4591c-0.9506,0-1.7213-0.7706-1.7213-1.7213c0-0.0014,0-0.0028,0-0.0042v-1.9764
			c0-0.9507,0.7706-1.7213,1.7213-1.7213h11.8227c0.9507,0,1.7213,0.7706,1.7213,1.7213v1.9764
			c0.0024,0.9507-0.7664,1.7231-1.717,1.7255C95.2846,104.1393,95.2833,104.1393,95.2818,104.1393z"/>
	</g>
	<g id="Ellipse_3298_00000059278756975459998510000008714865124935315085_">
		<ellipse fill="#F2F1EF" cx="65.8258" cy="106.4526" rx="7.4215" ry="7.3373"/>
	</g>
</g>
<g id="Rough" display="none">
	<path id="Path_64754_00000181045155738745315960000010305664229829604490_" display="inline" fill="#D3D3D3" d="M57.3464,15.0565
		v3.7565c-0.0496,0.9163-0.8234,1.6243-1.7405,1.5923H41.8793v1.1368c0.1071,3.5569-2.3835,6.6655-5.8782,7.3364
		c-3.749,0.5596-7.2418-2.0258-7.8015-5.7748c-0.0493-0.33-0.0743-0.6631-0.0752-0.9968v-1.7017H14.394
		c-0.9171,0.0321-1.6909-0.676-1.7405-1.5923v-3.7565c0.044-0.9189,0.8212-1.6302,1.7405-1.5923h3.2235
		c0.919,0.0298,1.6901-0.6875,1.7265-1.6064V-5.2935c0-8.9111,10.2386-15.8238,20.0676-13.0347
		c6.5004,1.8185,11.0083,7.7253,11.0471,14.4751v15.7002c0.0364,0.9189,0.8074,1.6362,1.7265,1.6064h3.4282
		C56.533,13.4219,57.3064,14.1372,57.3464,15.0565z"/>
</g>
<g>
	<circle fill="#FFFFFF" cx="131.7606" cy="131.7606" r="25.7394"/>
	<path fill="#D3D3D3" d="M131.7607,160c-15.5713,0-28.2393-12.668-28.2393-28.2393s12.668-28.2393,28.2393-28.2393
		S160,116.1895,160,131.7607S147.332,160,131.7607,160z M131.7607,108.5215c-12.8145,0-23.2393,10.4248-23.2393,23.2393
		S118.9463,155,131.7607,155S155,144.5752,155,131.7607S144.5752,108.5215,131.7607,108.5215z"/>
</g>
<g>
	<g>
		
			<rect x="116.0842" y="129.261" transform="matrix(0.7071 -0.7071 0.7071 0.7071 -54.5771 131.7607)" fill="#D3D3D3" width="31.353" height="4.9995"/>
	</g>
	<g>
		
			<rect x="129.261" y="116.0842" transform="matrix(0.7071 -0.7071 0.7071 0.7071 -54.5771 131.7607)" fill="#D3D3D3" width="4.9995" height="31.353"/>
	</g>
</g>
</svg>
