<?xml version="1.0" encoding="utf-8"?>
<!-- Generator: Adobe Illustrator 27.1.0, SVG Export Plug-In . SVG Version: 6.00 Build 0)  -->
<svg version="1.1" xmlns="http://www.w3.org/2000/svg" xmlns:xlink="http://www.w3.org/1999/xlink" x="0px" y="0px"
	 viewBox="0 0 100 100" enable-background="new 0 0 100 100" xml:space="preserve">
<g id="Layer_1">
	<path id="Path_55482_00000005258061859307978330000015287393828292642182_" fill="#F2F1EF" d="M98.13765,44.3569
		c1.02525,20.89841-20.59316,32.19003-39.4511,38.49724c-18.23064,6.09744-40.1204,8.26363-51.30826-8.14188
		c-11.11558-16.29887-3.33954-38.53209,9.15212-53.67485c9.48516-11.49803,24.97524-8.55506,38.9011-4.57584
		C73.28684,21.56409,97.17926,24.81299,98.13765,44.3569"/>
	<ellipse fill="#D3D3D3" cx="93.13579" cy="1.61815" rx="1.63683" ry="1.61815"/>
	<ellipse fill="#D3D3D3" cx="94.36758" cy="11.13661" rx="0.81839" ry="0.80907"/>
	
		<line fill="none" stroke="#C2C1C0" stroke-width="1.022" stroke-miterlimit="10" x1="2.0854" y1="4.79208" x2="0.15302" y2="4.79208"/>
	
		<line fill="none" stroke="#C2C1C0" stroke-width="1.022" stroke-miterlimit="10" x1="1.11921" y1="3.83693" x2="1.11921" y2="5.74729"/>
	<ellipse fill="#D3D3D3" cx="11.81541" cy="8.30295" rx="0.81839" ry="0.80907"/>
	<ellipse fill="#D3D3D3" cx="1.82231" cy="16.87831" rx="0.81839" ry="0.80907"/>
	<ellipse fill="#D3D3D3" cx="48.29839" cy="98.38185" rx="1.63683" ry="1.61815"/>
	<ellipse fill="#D3D3D3" cx="31.88021" cy="95.58022" rx="0.81839" ry="0.80908"/>
	<ellipse fill="#D3D3D3" cx="1.82231" cy="80.91946" rx="0.81839" ry="0.80908"/>
	
		<line id="Line_3298_00000047024857412021435440000012463759613752445104_" fill="none" stroke="#B5B4B3" stroke-width="1.022" stroke-miterlimit="10" x1="99.84698" y1="78.59325" x2="97.03848" y2="78.59325"/>
	
		<line id="Line_3299_00000038373698719836014200000002593028054781797800_" fill="none" stroke="#B5B4B3" stroke-width="1.022" stroke-miterlimit="10" x1="98.44301" y1="77.20473" x2="98.44301" y2="79.98122"/>
</g>
<g id="Layer_2">
	<g id="XMLID_00000101079425109238674920000013236545213536070571_">
		
			<ellipse transform="matrix(0.70711 -0.70711 0.70711 0.70711 -20.71069 49.99999)" fill="#D53D3D" cx="49.99998" cy="50.00002" rx="40.88996" ry="40.88998"/>
	</g>
	<g id="Line_3152_00000078023906410942833710000015386648133286180284_">
		<path fill="#FFFFFF" d="M57.1114,49.99942l15.75651,15.58917c1.17813,1.16562,1.18791,3.06572,0.02184,4.24341l-2.81835,2.8464
			c-1.16546,1.17706-3.06433,1.18681-4.24181,0.02178L50.00135,57.03939L34.16467,72.69986
			c-1.17816,1.16505-3.07773,1.15437-4.24271-0.02387l-2.812-2.84401c-1.16466-1.17792-1.15422-3.07687,0.02333-4.24191
			l15.75808-15.59066L27.1333,34.4087c-1.17755-1.16504-1.18799-3.06399-0.02332-4.24191l2.81199-2.84397
			c1.16498-1.17823,3.06454-1.18891,4.2427-0.02387l15.83669,15.66042l15.82824-15.66074
			c1.17748-1.16502,3.07635-1.15527,4.2418,0.02177l2.81834,2.84637c1.16608,1.17768,1.15631,3.07779-0.02182,4.24341
			L57.1114,49.99942z"/>
	</g>
</g>
<g id="Layer_3">
</g>
</svg>
