<?xml version="1.0" encoding="utf-8"?>
<!-- Generator: Adobe Illustrator 27.1.1, SVG Export Plug-In . SVG Version: 6.00 Build 0)  -->
<svg version="1.1" id="Layer_1" xmlns="http://www.w3.org/2000/svg" xmlns:xlink="http://www.w3.org/1999/xlink" x="0px" y="0px"
	 viewBox="0 0 160 160" enable-background="new 0 0 160 160" xml:space="preserve">
<g id="BG">
	<rect y="4.2105" fill="none" width="160" height="151.5789"/>
	<path id="Path_55482_00000078028075558628689150000001487389366438609070_" fill="#F2F1EF" d="M147.941,71.1832
		c1.5478,31.5528-31.0922,48.6013-59.5638,58.1238c-27.5251,9.2059-60.5752,12.4766-77.4661-12.2947
		C-5.872,92.4059,5.8686,58.8379,24.7284,35.9747c14.3208-17.3625,37.7086-12.9162,58.7343-6.9086
		c26.9583,7.7036,63.0316,12.6088,64.4792,42.1171"/>
	
		<ellipse id="Ellipse_3301_00000025441899739938995440000004512216889761832379_" fill="#D3D3D3" cx="140.3891" cy="6.6552" rx="2.4716" ry="2.4429"/>
	
		<ellipse id="Ellipse_3302_00000103250361127475664120000016201554973404988051_" fill="#D3D3D3" cx="142.2484" cy="21.0274" rx="1.2354" ry="1.2219"/>
	
		<rect id="Rectangle_15029_00000168105275994274651400000015274682744994480572_" x="0.0017" y="11.0173" fill="#C2C1C0" width="2.9179" height="0.8615"/>
	
		<rect id="Rectangle_15030_00000167379964838250677420000008813350763672372108_" x="1.0299" y="10.0051" fill="#C2C1C0" width="0.8615" height="2.8842"/>
	
		<ellipse id="Ellipse_3303_00000016058900616653794290000012851589818969740732_" fill="#D3D3D3" cx="17.6101" cy="16.7486" rx="1.2354" ry="1.2219"/>
	
		<ellipse id="Ellipse_3304_00000005983668553582688050000012708210625703121303_" fill="#D3D3D3" cx="2.5213" cy="29.696" rx="1.2354" ry="1.2219"/>
	
		<ellipse id="Ellipse_3305_00000050641699164945262350000009486374295583813041_" fill="#D3D3D3" cx="72.6939" cy="152.7512" rx="2.4716" ry="2.4429"/>
	
		<ellipse id="Ellipse_3306_00000042736901061213502440000000079008391741904791_" fill="#D3D3D3" cx="47.9032" cy="148.5221" rx="1.2354" ry="1.2219"/>
	
		<ellipse id="Ellipse_3307_00000081620533920189170200000001552779269991109809_" fill="#D3D3D3" cx="2.5213" cy="126.3865" rx="1.2354" ry="1.2219"/>
	
		<rect id="Rectangle_15031_00000113325495453170474680000005929164277033629057_" x="146.2813" y="87.9169" fill="#B5B4B3" width="4.2408" height="0.8598"/>
	
		<rect id="Rectangle_15032_00000087390880079510893580000013489590240115918976_" x="147.9722" y="86.2504" fill="#B5B4B3" width="0.8598" height="4.1912"/>
</g>
<g id="Outline">
	<rect fill="none" width="160" height="160"/>
</g>
<g id="Phone">
</g>
<g id="Not_Final" display="none">
</g>
<g id="Action">
	<g>
		<g id="Rectangle_15051_00000165936447423774210140000009311560316250128545_">
			<path fill="#FFFFFF" d="M59.2499,24.5655h41.5002c6.8893,0,12.4742,5.5849,12.4742,12.4741v85.9207
				c0,6.8893-5.5849,12.4741-12.4742,12.4741H59.2499c-6.8893,0-12.4742-5.5849-12.4742-12.4741V37.0397
				C46.7757,30.1504,52.3606,24.5655,59.2499,24.5655z"/>
			<path fill="#D3D3D3" d="M100.75,137.835h-41.5c-8.2017,0-14.874-6.6729-14.874-14.875V37.0396
				c0-8.2017,6.6724-14.874,14.874-14.874h41.5c8.2021,0,14.875,6.6724,14.875,14.874V122.96
				C115.625,131.1621,108.9521,137.835,100.75,137.835z M59.25,26.9653c-5.5547,0-10.0742,4.5195-10.0742,10.0742V122.96
				c0,5.5547,4.5195,10.0742,10.0742,10.0742h41.5c5.5547,0,10.0742-4.5195,10.0742-10.0742V37.0396
				c0-5.5547-4.5195-10.0742-10.0742-10.0742H59.25z"/>
		</g>
		<g id="Rectangle_15055_00000098188237837244379500000000304904792387179933_">
			<path fill="#D3D3D3" d="M69.546,24.5655h20.9067v0.9692c0.0034,2.2046-1.7809,3.9945-3.9855,3.998c-0.0042,0-0.0083,0-0.0125,0
				H73.544c-2.2046,0.0034-3.9945-1.7809-3.998-3.9855c0-0.0042,0-0.0083,0-0.0125V24.5655z"/>
		</g>
	</g>
	<g>
		<g id="Path_151">
			<path fill="#D3D3D3" d="M115.4907,93.5431h-14.4832C99.64,85.9073,93.0051,80.344,85.2481,80.3285
				c-7.757,0.0155-14.3918,5.5788-15.7594,13.2146H44.5093v5.6634H69.451c1.3687,7.635,8.0028,13.1976,15.7594,13.2146
				c7.7566-0.017,14.3907-5.5796,15.7594-13.2146h14.521L115.4907,93.5431L115.4907,93.5431z M85.2481,106.7577
				c-5.7317-0.0064-10.3765-4.6512-10.3829-10.3829c0.0042-5.7325,4.6504-10.3788,10.3829-10.3829
				c5.7317,0.0064,10.3765,4.6512,10.3829,10.3829c-0.0083,5.7382-4.6636,10.3852-10.4018,10.3829
				C85.2292,106.7577,85.2481,106.7577,85.2481,106.7577z"/>
		</g>
		<g id="Path_152">
			<path fill="#D3D3D3" d="M77.2816,79.6715c8.8587-0.0083,16.038-7.1876,16.0463-16.0463
				c-0.0106-8.8579-7.1884-16.0357-16.0463-16.0463c-7.7566,0.017-14.3907,5.5796-15.7594,13.2146H44.532v5.6634h16.9902
				C62.8897,74.0927,69.5246,79.656,77.2816,79.6715z M77.2816,53.2423c5.7317,0.0064,10.3765,4.6512,10.3829,10.3829
				c-0.0042,5.7325-4.6504,10.3788-10.3829,10.3829c-5.7317-0.0064-10.3765-4.6512-10.3829-10.3829
				C66.907,57.8942,71.5506,53.2506,77.2816,53.2423z"/>
		</g>
		<g id="Path_153">
			<path fill="#D3D3D3" d="M74.1667,69.4094l3.1149-3.1149l3.1149,3.1149l2.6693-2.6694l-3.1149-3.1149l3.1149-3.1149
				l-2.6693-2.6694l-3.1149,3.1149l-3.1149-3.1149l-2.6693,2.6694l3.1149,3.1149L71.4974,66.74L74.1667,69.4094z"/>
		</g>
		<g id="Path_154">
			<path fill="#D3D3D3" d="M83.1224,97.7718l-2.9374-2.9412l-2.6693,2.6693l5.6068,5.6105l8.7518-8.7481L89.205,91.693
				L83.1224,97.7718z"/>
		</g>
	</g>
	<g>
		<circle fill="#FFFFFF" cx="131.7606" cy="131.7606" r="25.7394"/>
		<path fill="#D3D3D3" d="M131.7607,160c-15.5713,0-28.2393-12.668-28.2393-28.2393s12.668-28.2393,28.2393-28.2393
			S160,116.1895,160,131.7607S147.332,160,131.7607,160z M131.7607,108.5215c-12.8145,0-23.2393,10.4248-23.2393,23.2393
			S118.9463,155,131.7607,155S155,144.5752,155,131.7607S144.5752,108.5215,131.7607,108.5215z"/>
	</g>
	<g>
		<g>
			
				<rect x="116.0842" y="129.261" transform="matrix(0.7071 -0.7071 0.7071 0.7071 -54.5771 131.7607)" fill="#D3D3D3" width="31.353" height="4.9995"/>
		</g>
		<g>
			
				<rect x="129.261" y="116.0842" transform="matrix(0.7071 -0.7071 0.7071 0.7071 -54.5771 131.7607)" fill="#D3D3D3" width="4.9995" height="31.353"/>
		</g>
	</g>
</g>
<g id="Rough" display="none">
</g>
</svg>
