<?xml version="1.0" encoding="utf-8"?>
<!-- Generator: Adobe Illustrator 27.1.1, SVG Export Plug-In . SVG Version: 6.00 Build 0)  -->
<svg version="1.1" xmlns="http://www.w3.org/2000/svg" xmlns:xlink="http://www.w3.org/1999/xlink" x="0px" y="0px"
	 viewBox="0 0 160 160" enable-background="new 0 0 160 160" xml:space="preserve">
<g id="BG">
	<rect x="0" y="4.2105" fill="none" width="160" height="151.5789"/>
	<path id="Path_55482_00000096037613696520185280000016864715070277018037_" fill="#F2F1EF" d="M147.941,71.1832
		c1.5478,31.5528-31.0922,48.6013-59.5638,58.1238c-27.5251,9.2059-60.5752,12.4766-77.4661-12.2947
		C-5.872,92.4059,5.8686,58.8379,24.7284,35.9747c14.3208-17.3625,37.7086-12.9162,58.7343-6.9086
		c26.9583,7.7036,63.0316,12.6088,64.4792,42.1171"/>
	
		<ellipse id="Ellipse_3301_00000137815744026998622880000010146551373320687013_" fill="#D3D3D3" cx="140.3891" cy="6.6552" rx="2.4716" ry="2.4429"/>
	
		<ellipse id="Ellipse_3302_00000041253058923604516830000012756473245742568337_" fill="#D3D3D3" cx="142.2484" cy="21.0274" rx="1.2354" ry="1.2219"/>
	
		<rect id="Rectangle_15029_00000034088559101373871030000015398104781519887545_" x="0.0017" y="11.0173" fill="#C2C1C0" width="2.9179" height="0.8615"/>
	
		<rect id="Rectangle_15030_00000046335571272030579780000002400616737495252357_" x="1.0299" y="10.0051" fill="#C2C1C0" width="0.8615" height="2.8842"/>
	
		<ellipse id="Ellipse_3303_00000020376405969208300410000011297221949431751103_" fill="#D3D3D3" cx="17.6101" cy="16.7486" rx="1.2354" ry="1.2219"/>
	
		<ellipse id="Ellipse_3304_00000044159729657629841920000010073045256209887117_" fill="#D3D3D3" cx="2.5213" cy="29.696" rx="1.2354" ry="1.2219"/>
	
		<ellipse id="Ellipse_3305_00000089553106618751752030000004841457977012362890_" fill="#D3D3D3" cx="72.6939" cy="152.7512" rx="2.4716" ry="2.4429"/>
	
		<ellipse id="Ellipse_3306_00000098221585823088202420000009044725340413858994_" fill="#D3D3D3" cx="47.9032" cy="148.5221" rx="1.2354" ry="1.2219"/>
	
		<ellipse id="Ellipse_3307_00000028286739895897963130000006206767202467346056_" fill="#D3D3D3" cx="2.5213" cy="126.3865" rx="1.2354" ry="1.2219"/>
	
		<rect id="Rectangle_15031_00000049194474283346855100000008504989603199098783_" x="146.2813" y="87.9169" fill="#B5B4B3" width="4.2408" height="0.8598"/>
	
		<rect id="Rectangle_15032_00000044872668687555991500000010739293103172751246_" x="147.9722" y="86.2504" fill="#B5B4B3" width="0.8598" height="4.1912"/>
</g>
<g id="Outline">
	<rect fill="none" width="160" height="160"/>
</g>
<g id="Phone">
</g>
<g id="Not_Final" display="none">
</g>
<g id="Action">
	<g>
		<g>
			
				<path id="Rectangle_15051_00000107585569331619835100000010137202526179011477_" fill="#FFFFFF" stroke="#D3D3D3" stroke-width="4.8" stroke-miterlimit="10" d="
				M59.2499,24.5655h41.5002c6.8893,0,12.4742,5.5849,12.4742,12.4741v85.9207c0,6.8893-5.5849,12.4741-12.4742,12.4741H59.2499
				c-6.8893,0-12.4742-5.5849-12.4742-12.4741V37.0397C46.7757,30.1504,52.3606,24.5655,59.2499,24.5655z"/>
			<path id="Rectangle_15055_00000159459083270082328300000017452882208532960937_" fill="#D3D3D3" d="M69.546,24.5655h20.9067
				v0.9692c0.0034,2.2046-1.7809,3.9945-3.9855,3.998c-0.0042,0-0.0083,0-0.0125,0H73.544
				c-2.2046,0.0034-3.9945-1.7809-3.998-3.9855c0-0.0042,0-0.0083,0-0.0125V24.5655z"/>
		</g>
		<path fill="#B4B4B2" d="M89.2857,75.7235c0.939,0.0397,1.8677,0.2122,2.7583,0.5119c0.3183,0.1425,0.6621,0.2171,1.0108,0.2182
			c0.7736,0,1.5102-0.6055,2.2093-1.816c0.6626-1.0685,1.0271-2.2947,1.0549-3.5509c0.0321-0.8487-0.284-1.6729-0.8737-2.2839
			c-0.729-0.6626-1.7012-0.9929-2.6837-0.9113c-2.3671,0.1186-4.6162,1.0707-6.3473,2.6897
			c-2.2044,1.8606-4.0367,4.1222-5.3985,6.665c-0.9776-2.5134-2.4313-4.8147-4.281-6.7771
			c-1.3802-1.5739-3.3496-2.5064-5.4415-2.5776c-1.3851-0.0375-2.736,0.4254-3.8072,1.3041
			c-1.062,0.9276-1.6376,2.2931-1.5603,3.7011c-0.0484,0.7774,0.1431,1.5505,0.5495,2.2153
			c0.2285,0.4211,0.6474,0.7051,1.1234,0.7611l1.248-0.0751c1.8905-0.0152,3.7005,0.7606,4.9926,2.1408
			c1.5162,1.6142,2.6799,3.527,3.4138,5.6166c-0.6616,1.8024-1.6055,3.4878-2.7963,4.9926
			c-0.7551,1.0407-1.9417,1.6816-3.2261,1.742c-1.0021,0.0664-1.9466-0.4749-2.3965-1.3731
			c-0.1496-0.5163-0.6229-0.8721-1.161-0.8737c-0.6431,0.0457-1.254,0.2998-1.7415,0.7241
			c-0.6621,0.5217-1.205,1.1795-1.5908,1.9286c-0.4412,0.8084-0.6664,1.7181-0.6556,2.6397
			c-0.0756,1.3367,0.4896,2.6299,1.5228,3.4824c1.1398,0.8607,2.5417,1.2975,3.9693,1.2355
			c2.1495,0.0511,4.2141-0.8373,5.6542-2.434c1.8546-2.1751,3.3692-4.6172,4.4932-7.2455c0.7056,2.5755,1.9009,4.9904,3.5199,7.1144
			c1.4281,1.7377,3.5885,2.7033,5.8353,2.6087c1.7703,0.1637,3.5118-0.5332,4.6803-1.872c0.9488-1.2371,1.4482-2.7604,1.4167-4.3186
			c0.037-0.4706-0.0386-0.9428-0.2182-1.3791c-0.1561-0.2448-0.4341-0.3846-0.7241-0.3618l-1.4542,0.0751
			c-2.1381,0.0152-4.1907-0.8356-5.6917-2.3595c-1.6566-1.6376-2.9481-3.607-3.7881-5.7793
			c0.8868-1.7948,1.9939-3.4715,3.2952-4.9926C86.986,76.2333,88.1073,75.7306,89.2857,75.7235z"/>
	</g>
	<circle fill="#FFFFFF" stroke="#D3D3D3" stroke-width="5" stroke-miterlimit="10" cx="131.7606" cy="131.7606" r="25.7394"/>
	<g>
		
			<line fill="none" stroke="#D3D3D3" stroke-width="5" stroke-miterlimit="10" x1="142.8453" y1="120.676" x2="120.676" y2="142.8453"/>
		
			<line fill="none" stroke="#D3D3D3" stroke-width="5" stroke-miterlimit="10" x1="142.8453" y1="142.8453" x2="120.676" y2="120.676"/>
	</g>
</g>
<g id="Rough" display="none">
</g>
</svg>
