<?xml version="1.0" encoding="UTF-8"?><svg id="Layer_1" xmlns="http://www.w3.org/2000/svg" xmlns:xlink="http://www.w3.org/1999/xlink" viewBox="0 0 179.07 34"><defs><clipPath id="clippath"><rect width="179.07" height="34" fill="none"/></clipPath></defs><g id="Layer_1-2"><g clip-path="url(#clippath)"><g id="Group_67251"><path id="Path_56361" d="M54.2,11.55c1.01,1.1,1.52,2.57,1.41,4.06v6.93c0,.09-.07,.16-.16,.16h-2.57c-.09,0-.16-.07-.16-.16v-6.56c.07-.88-.21-1.76-.77-2.45-.57-.57-1.37-.87-2.18-.82-.94-.05-1.86,.3-2.53,.96-.66,.77-1,1.76-.93,2.77v6.1c0,.09-.07,.16-.16,.16h-2.57c-.09,0-.16-.07-.16-.16V10.48c0-.09,.07-.16,.16-.16h2.44c.09,0,.16,.07,.16,.16v1.02c0,.09,.07,.16,.16,.16,.04,0,.09-.02,.12-.05,.44-.43,.96-.77,1.53-1,.78-.3,1.62-.45,2.46-.44,1.38-.07,2.74,.43,3.76,1.37" fill="#040505" fill-rule="evenodd"/><path id="Path_56362" d="M61.28,13.33c-.6,.51-1,1.22-1.14,2-.02,.09,.04,.17,.13,.19,0,0,.02,0,.03,0h6.64c.09,0,.16-.07,.16-.16,0,0,0-.02,0-.03-.13-.77-.52-1.47-1.11-1.99-.66-.56-1.5-.86-2.37-.83-.86-.02-1.7,.27-2.35,.82m8.42,4.11h-9.36c-.09,0-.16,.07-.16,.16,0,.01,0,.02,0,.04,.18,.79,.64,1.49,1.29,1.96,.78,.55,1.72,.83,2.68,.8,1.2,.04,2.36-.4,3.24-1.22,.06-.06,.17-.06,.23,0,0,0,0,0,0,0l1.35,1.55c.05,.06,.05,.15,0,.21-.55,.62-1.24,1.1-2.02,1.4-2.11,.77-4.44,.66-6.47-.3-1-.51-1.83-1.29-2.4-2.26-.57-1-.86-2.13-.85-3.28-.02-1.14,.27-2.26,.82-3.26,.54-.95,1.33-1.74,2.28-2.26,1.01-.55,2.14-.83,3.29-.81,1.13-.02,2.24,.26,3.23,.8,.94,.52,1.71,1.3,2.23,2.24,.55,1.03,.82,2.18,.8,3.35,0,.17-.01,.41-.03,.71,0,.08-.08,.15-.16,.15" fill="#040505" fill-rule="evenodd"/><path id="Path_56363" d="M90.52,10.54l-4.45,12.06c-.02,.06-.08,.11-.15,.11h-2.56c-.07,0-.13-.04-.15-.11l-3.01-8.03c-.03-.08-.13-.12-.21-.09-.04,.02-.07,.05-.09,.09l-3.06,8.03c-.03,.06-.09,.1-.15,.1h-2.56c-.07,0-.13-.04-.15-.11l-4.43-12.06c-.03-.08,.01-.18,.1-.21,.02,0,.04,0,.06,0h2.39c.07,0,.13,.04,.15,.11l3.08,8.61c.03,.08,.13,.12,.21,.09,.04-.02,.07-.05,.09-.09l3.21-8.61c.02-.06,.08-.11,.15-.11h2.21c.07,0,.13,.04,.15,.11l3.15,8.66c.03,.08,.13,.12,.21,.09,.04-.02,.07-.05,.09-.09l3.17-8.66c.02-.06,.08-.11,.15-.11h2.23c.09,0,.16,.07,.16,.16,0,.02,0,.04,0,.06" fill="#040505" fill-rule="evenodd"/><path id="Path_56364" d="M99.47,18.7c.71-.66,1.09-1.6,1.06-2.56,.03-.96-.35-1.88-1.06-2.53-1.58-1.3-3.85-1.3-5.43,0-.7,.65-1.09,1.57-1.06,2.53-.04,.97,.35,1.9,1.06,2.56,1.57,1.31,3.86,1.31,5.43,0m3.74-8.38c.09,0,.16,.07,.16,.16v10.34c0,4.36-2.23,6.54-6.68,6.54-1.14,0-2.28-.15-3.39-.45-.92-.24-1.78-.65-2.53-1.22-.06-.05-.08-.14-.04-.21l1.13-1.9c.05-.08,.15-.1,.22-.06,0,0,.01,0,.02,.01,.58,.43,1.22,.75,1.91,.96,.81,.27,1.66,.41,2.52,.41,1.08,.09,2.15-.24,2.99-.93,.69-.77,1.03-1.8,.95-2.83v-.26c0-.09-.07-.16-.16-.16-.04,0-.08,.02-.11,.04-.45,.41-.97,.74-1.54,.96-.75,.28-1.54,.43-2.34,.42-1.11,.02-2.2-.24-3.19-.75-.93-.48-1.71-1.22-2.25-2.12-.56-.95-.84-2.03-.82-3.13-.02-1.1,.26-2.18,.82-3.12,.54-.9,1.32-1.62,2.25-2.1,.99-.5,2.08-.76,3.19-.74,.84-.01,1.67,.14,2.45,.44,.59,.23,1.12,.58,1.56,1.03,.06,.06,.16,.07,.23,0,.03-.03,.05-.07,.05-.12v-1.06c0-.09,.07-.16,.16-.16h2.43Z" fill="#040505" fill-rule="evenodd"/><path id="Path_56365" d="M109.04,13.33c-.6,.51-1,1.22-1.14,2-.02,.09,.04,.17,.13,.19,0,0,.02,0,.03,0h6.64c.09,0,.16-.07,.16-.16,0,0,0-.02,0-.03-.13-.77-.52-1.47-1.11-1.99-.66-.56-1.5-.86-2.37-.83-.86-.02-1.7,.27-2.35,.82m8.42,4.11h-9.36c-.09,0-.16,.07-.16,.16,0,.01,0,.02,0,.04,.18,.79,.64,1.49,1.29,1.96,.78,.55,1.72,.83,2.68,.8,1.2,.04,2.37-.4,3.24-1.22,.06-.06,.17-.06,.23,0,0,0,0,0,0,0l1.35,1.55c.05,.06,.05,.15,0,.21-.55,.62-1.24,1.1-2.02,1.4-2.11,.77-4.44,.66-6.47-.3-1-.51-1.83-1.29-2.4-2.26-.57-1-.86-2.13-.85-3.28-.02-1.14,.27-2.26,.82-3.26,.53-.95,1.33-1.73,2.28-2.26,1.01-.55,2.14-.83,3.29-.81,1.13-.02,2.24,.26,3.23,.8,.94,.52,1.71,1.3,2.23,2.24,.55,1.03,.82,2.18,.8,3.35,0,.17-.01,.41-.03,.71,0,.08-.08,.15-.16,.15" fill="#040505" fill-rule="evenodd"/><path id="Path_56366" d="M130.06,11.55c1.01,1.1,1.52,2.57,1.41,4.06v6.93c0,.09-.07,.16-.16,.16h-2.57c-.09,0-.16-.07-.16-.16v-6.56c.07-.88-.21-1.76-.77-2.45-.57-.57-1.37-.87-2.18-.82-.94-.05-1.86,.3-2.53,.96-.66,.77-1,1.76-.93,2.77v6.1c0,.09-.07,.16-.16,.16h-2.57c-.09,0-.16-.07-.16-.16V10.48c0-.09,.07-.16,.16-.16h2.44c.09,0,.16,.07,.16,.16v1.02c0,.09,.07,.16,.16,.16,.04,0,.09-.02,.12-.05,.44-.43,.96-.77,1.53-1,.78-.3,1.62-.45,2.46-.44,1.38-.07,2.74,.43,3.76,1.37" fill="#040505" fill-rule="evenodd"/><path id="Path_56367" d="M19.3,24.05c-.08,.45-.51,.75-.96,.67-.45-.08-.75-.51-.67-.96,.08-.45,.51-.75,.96-.67,.25,.04,.46,.2,.58,.42,.09,.17,.12,.36,.09,.54m17.89-14.04c-.36-.94-2.12-1.06-4.75-.51,.86-.12,2.23,.33,2.45,.91,.74,1.97-5.55,7.15-14.06,11.57-.36,.19-.72,.37-1.09,.55-.77-.7-1.96-.65-2.66,.11-.7,.77-.65,1.96,.11,2.66,.77,.7,1.96,.65,2.66-.11,.41-.44,.58-1.05,.46-1.64,.32-.16,.64-.32,.96-.49,3.03-1.56,5.95-3.31,8.76-5.24,.02,.31,.03,.62,.03,.93,0,8.37-6.79,15.16-15.16,15.16h-.18c.52,.05,1.05,.08,1.58,.08,9.05,0,16.38-7.33,16.39-16.38h0c0-.56-.03-1.12-.09-1.68,3.23-2.55,5.04-4.75,4.59-5.92" fill="#f57417" fill-rule="evenodd"/><path id="Path_56368" d="M6.19,23.85c-.1,.45-.54,.73-.99,.63-.45-.1-.73-.54-.63-.99,.1-.45,.54-.73,.99-.63,.23,.05,.43,.2,.54,.4,.1,.18,.13,.39,.09,.59M37.34,2.61c-.45-1.15-2.96-1.06-6.61,.01,2.38-.53,3.97-.44,4.3,.41,.43,1.1-2.63,3.89-6.87,6.95-.14,.1-.29,.2-.43,.3h0c-3.42,2.43-6.98,4.67-10.64,6.71-3.27,1.82-6.86,3.73-10.35,5.37-.71-.76-1.9-.79-2.66-.08-.76,.71-.79,1.9-.08,2.66,.71,.76,1.9,.79,2.66,.08,.45-.42,.66-1.04,.57-1.65,3.19-1.44,6.65-3.25,10.32-5.29,3.55-1.97,7.34-4.33,10.64-6.63,.63,1.15,1.11,2.37,1.43,3.64h0c.86-.62,1.67-1.31,2.42-2.05-.34-1.17-.8-2.29-1.39-3.35,4.24-3.14,7.14-5.92,6.69-7.09" fill="#f57417" fill-rule="evenodd"/><path id="Path_56369" d="M9.75,15.33c-.09,.45-.52,.75-.97,.66s-.75-.52-.66-.97,.52-.75,.97-.66c.24,.05,.45,.2,.57,.41,.09,.17,.12,.37,.09,.56M29.26,7.57c-.83-1.07-1.79-2.04-2.86-2.88,1.68-1.64,2.52-3.01,2.2-3.85C28.38,.27,27.65,0,26.52,0c-.96,.02-1.92,.15-2.85,.37,1.45,.02,2.38,.25,2.62,.87,.74,1.97-5.56,7.15-14.06,11.57-.67,.35-1.34,.69-2.02,1.02-.75-.72-1.94-.69-2.66,.06-.72,.75-.69,1.94,.06,2.66,.75,.72,1.94,.69,2.66-.06,.41-.43,.6-1.04,.49-1.63,.63-.3,1.27-.62,1.91-.95,4.02-2.04,7.85-4.46,11.42-7.21,1.02,.78,1.93,1.68,2.72,2.68h.01c1.05-.72,1.57-1.11,2.44-1.8h0" fill="#040505" fill-rule="evenodd"/><path id="Path_56370" d="M24.12,3.22C16.17-1.1,6.22,1.85,1.9,9.8c-1.03,1.9-1.68,3.99-1.9,6.15C1.56,7.72,9.5,2.31,17.73,3.87c1.43,.27,2.81,.75,4.11,1.41,.83-.61,1.59-1.3,2.29-2.06" fill="#040505" fill-rule="evenodd"/><path id="Path_56371" d="M136.77,10.14c.03-.51,.47-.9,.99-.88,.49-.05,.93,.3,.98,.79,.05,.49-.3,.93-.79,.98-.07,0-.13,0-.2,0-.52,.03-.96-.37-.99-.89m.3,2.91h1.35v9.21h-1.35V13.05Z" fill="#040505"/><path id="Path_56372" d="M153.58,18.99c0,2.08-1.67,3.28-5,3.28h-6.12V10h5.74c2.96,0,4.67,1.16,4.67,3.15,.02,1.28-.81,2.41-2.03,2.78,1.57,.14,2.77,1.47,2.74,3.05m-9.71-7.92v4.45h4.24c2.13,0,3.36-.75,3.36-2.22s-1.24-2.22-3.36-2.22h-4.24Zm8.3,7.81c0-1.59-1.27-2.29-3.61-2.29h-4.69v4.61h4.69c2.34,0,3.61-.7,3.61-2.31" fill="#040505"/><path id="Path_56373" d="M167.21,14.21c0,2.61-2.05,4.18-5.43,4.18h-3.57v3.87h-1.41V10h4.98c3.38,0,5.43,1.58,5.43,4.2m-1.41,0c0-1.96-1.41-3.08-4.07-3.08h-3.53v6.13h3.53c2.66,0,4.07-1.12,4.07-3.05" fill="#040505"/><path id="Path_56374" d="M169.17,20.77l.55-1c1.25,.99,2.8,1.52,4.39,1.49,2.49,0,3.57-.96,3.57-2.17,0-3.36-8.19-1.3-8.19-5.83,0-1.8,1.52-3.36,4.9-3.36,1.45-.02,2.87,.36,4.12,1.09l-.48,1.03c-1.11-.65-2.36-1.01-3.65-1.02-2.43,0-3.52,1-3.52,2.22,0,3.36,8.19,1.33,8.19,5.8,0,1.8-1.56,3.35-4.96,3.35-1.78,.07-3.53-.5-4.94-1.59" fill="#040505"/></g></g></g></svg>