<?xml version="1.0" encoding="utf-8"?>
<!-- Generator: Adobe Illustrator 27.1.0, SVG Export Plug-In . SVG Version: 6.00 Build 0)  -->
<svg version="1.1" xmlns="http://www.w3.org/2000/svg" xmlns:xlink="http://www.w3.org/1999/xlink" x="0px" y="0px"
	 viewBox="0 0 100 100" enable-background="new 0 0 100 100" xml:space="preserve">
<g id="Layer_1">
	<path id="Path_55482_00000008853620535664738390000015653643479321693585_" fill="#F2F1EF" d="M98.13765,44.3569
		c1.02525,20.89841-20.59316,32.19003-39.4511,38.49724c-18.23064,6.09744-40.1204,8.26363-51.30826-8.14188
		c-11.11558-16.29887-3.33954-38.53209,9.15212-53.67485c9.48516-11.49803,24.97524-8.55506,38.9011-4.57584
		C73.28684,21.56409,97.17926,24.81299,98.13765,44.3569"/>
	<ellipse fill="#D3D3D3" cx="93.13579" cy="1.61815" rx="1.63683" ry="1.61815"/>
	<ellipse fill="#D3D3D3" cx="94.36758" cy="11.13661" rx="0.81839" ry="0.80907"/>
	
		<line fill="none" stroke="#C2C1C0" stroke-width="1.022" stroke-miterlimit="10" x1="2.0854" y1="4.79208" x2="0.15302" y2="4.79208"/>
	
		<line fill="none" stroke="#C2C1C0" stroke-width="1.022" stroke-miterlimit="10" x1="1.11921" y1="3.83693" x2="1.11921" y2="5.74729"/>
	<ellipse fill="#D3D3D3" cx="11.81541" cy="8.30295" rx="0.81839" ry="0.80907"/>
	<ellipse fill="#D3D3D3" cx="1.82231" cy="16.87831" rx="0.81839" ry="0.80907"/>
	<ellipse fill="#D3D3D3" cx="48.29839" cy="98.38185" rx="1.63683" ry="1.61815"/>
	<ellipse fill="#D3D3D3" cx="31.88021" cy="95.58022" rx="0.81839" ry="0.80908"/>
	<ellipse fill="#D3D3D3" cx="1.82231" cy="80.91946" rx="0.81839" ry="0.80908"/>
	
		<line id="Line_3298_00000168100526573985590510000008580724765119939721_" fill="none" stroke="#B5B4B3" stroke-width="1.022" stroke-miterlimit="10" x1="99.84698" y1="78.59325" x2="97.03848" y2="78.59325"/>
	
		<line id="Line_3299_00000033367075678143220660000017060664881783838143_" fill="none" stroke="#B5B4B3" stroke-width="1.022" stroke-miterlimit="10" x1="98.44301" y1="77.20473" x2="98.44301" y2="79.98122"/>
</g>
<g id="Layer_2">
	<g id="Layer_1_00000060750938765602748150000018104589405647830928_">
		<g id="Layer_1_00000011737358092517558020000004110778763135819184_">
			<g>
				<path fill-rule="evenodd" clip-rule="evenodd" fill="#619548" d="M50,9.11203C27.41816,9.11203,9.11203,27.41816,9.11203,50
					S27.41816,90.88797,50,90.88797S90.88797,72.58184,90.88797,50S72.58184,9.11203,50,9.11203z M77.36165,39.93221
					L43.29204,74.0024c-0.99825,0.99825-2.61567,0.99825-3.61333,0.00059L22.63894,56.96731
					c-0.99825-0.99825-0.99825-2.61566,0-3.61391l3.61333-3.61333c0.99767-0.99767,2.61566-0.99825,3.61333-0.00058
					l11.61919,11.6151l28.64962-28.64962c0.99825-0.99825,2.61566-0.99825,3.61391,0l3.61333,3.61333
					C78.35989,37.31655,78.35989,38.93396,77.36165,39.93221z"/>
			</g>
		</g>
	</g>
</g>
<g id="Layer_3">
</g>
</svg>
