<?xml version="1.0" encoding="utf-8"?>
<!-- Generator: Adobe Illustrator 25.4.1, SVG Export Plug-In . SVG Version: 6.00 Build 0)  -->
<svg version="1.1" id="Layer_1" xmlns="http://www.w3.org/2000/svg" xmlns:xlink="http://www.w3.org/1999/xlink" x="0px" y="0px"
	 viewBox="0 0 16 16" style="enable-background:new 0 0 16 16;" xml:space="preserve">
<style type="text/css">
	.st0{fill:#606060;}
</style>
<g id="Icons">
	<g>
		<g>
			<path class="st0" d="M11.1493,9.9805l-0.7109-0.7021l1.8721-1.896c0.9951-1.0083,0.9951-2.6479,0-3.6563
				c-0.9561-0.9658-2.6348-0.9678-3.5928,0l-1.873,1.8965l-0.711-0.7031l1.873-1.896c1.335-1.3511,3.6807-1.3506,5.0146,0.0005
				c1.3779,1.395,1.3779,3.6655,0,5.0605L11.1493,9.9805z"/>
		</g>
		<g>
			<path class="st0" d="M5.5565,14.1529c-0.9502,0-1.8408-0.3721-2.5078-1.0479c-1.3779-1.395-1.3779-3.665,0-5.0605l1.8789-1.9033
				l0.7109,0.7021L3.7596,8.7466c-0.9951,1.0083-0.9951,2.6484,0,3.6558c0.9561,0.9683,2.6348,0.9688,3.5928,0.0005l1.8828-1.9072
				l0.7109,0.7021L8.0634,13.105C7.3964,13.7808,6.5057,14.1529,5.5565,14.1529z"/>
		</g>
		<g>
			<rect x="1.3827" y="4.6827" class="st0" width="2.4307" height="1"/>
		</g>
		<g>
			<rect x="4.7557" y="1.3829" class="st0" width="1" height="2.4609"/>
		</g>
		<g>
			<rect x="12.1874" y="10.3174" class="st0" width="2.4297" height="1"/>
		</g>
		<g>
			<rect x="10.244" y="12.1563" class="st0" width="1" height="2.4604"/>
		</g>
	</g>
</g>
</svg>
