<?xml version="1.0" encoding="utf-8"?>
<!-- Generator: Adobe Illustrator 27.1.0, SVG Export Plug-In . SVG Version: 6.00 Build 0)  -->
<svg version="1.1" xmlns="http://www.w3.org/2000/svg" xmlns:xlink="http://www.w3.org/1999/xlink" x="0px" y="0px"
	 viewBox="0 0 160 160" enable-background="new 0 0 160 160" xml:space="preserve">
<g id="Layer_1">
	<rect y="4.21053" fill="none" width="160" height="151.57895"/>
	<path id="Path_55482_00000078764869581082632090000000664800702203855498_" fill="#F2F1EF" d="M147.94104,71.18316
		c1.54779,31.55284-31.0922,48.60126-59.56378,58.12379c-27.52505,9.2059-60.57516,12.47662-77.46611-12.29474
		C-5.87201,92.40589,5.86863,58.83789,24.72842,35.97473c14.32084-17.36253,37.70863-12.91621,58.73432-6.90863
		c26.95831,7.70358,63.03159,12.60884,64.47916,42.11705"/>
	<ellipse id="Ellipse_3301" fill="#D3D3D3" cx="140.38905" cy="6.65516" rx="2.47158" ry="2.44295"/>
	<ellipse id="Ellipse_3302" fill="#D3D3D3" cx="142.24841" cy="21.02737" rx="1.23536" ry="1.22189"/>
	<rect id="Rectangle_15029" x="0.00168" y="11.01726" fill="#C2C1C0" width="2.91789" height="0.86147"/>
	<rect id="Rectangle_15030" x="1.02989" y="10.00505" fill="#C2C1C0" width="0.86147" height="2.88421"/>
	<ellipse id="Ellipse_3303" fill="#D3D3D3" cx="17.61011" cy="16.74863" rx="1.23537" ry="1.22189"/>
	<ellipse id="Ellipse_3304" fill="#D3D3D3" cx="2.52126" cy="29.696" rx="1.23537" ry="1.22189"/>
	<ellipse id="Ellipse_3305" fill="#D3D3D3" cx="72.69389" cy="152.75116" rx="2.47158" ry="2.44295"/>
	<ellipse id="Ellipse_3306" fill="#D3D3D3" cx="47.90316" cy="148.52209" rx="1.23537" ry="1.2219"/>
	<ellipse id="Ellipse_3307" fill="#D3D3D3" cx="2.52126" cy="126.38653" rx="1.23537" ry="1.2219"/>
	<rect id="Rectangle_15031" x="146.28127" y="122.44463" fill="#B5B4B3" width="4.24084" height="0.85979"/>
	<rect id="Rectangle_15032" x="147.97221" y="120.7781" fill="#B5B4B3" width="0.85979" height="4.19116"/>
</g>
<g id="Layer_2">
	<g>
		
			<path id="Rectangle_15051_00000134232544860474529970000012567260832503243662_" fill="#FFFFFF" stroke="#D3D3D3" stroke-width="4.8" stroke-miterlimit="10" d="
			M38.04676,18.22079h41.50025c6.88928,0,12.47415,5.58486,12.47415,12.47415v85.9207c0,6.88927-5.58487,12.47414-12.47415,12.47414
			H38.04676c-6.88928,0-12.47415-5.58487-12.47415-12.47414v-85.9207C25.57262,23.80566,31.15748,18.22079,38.04676,18.22079z"/>
		<path id="Rectangle_15055_00000017480761120508096540000013543627428023038854_" fill="#D3D3D3" d="M48.34293,18.22077h20.90668
			v0.96924c0.00344,2.20457-1.78091,3.99452-3.98548,3.99797c-0.00416,0.00001-0.00833,0.00001-0.01249,0H52.3409
			c-2.20457,0.00345-3.99452-1.78091-3.99797-3.98548c-0.00001-0.00416-0.00001-0.00833,0-0.01249V18.22077z"/>
	</g>
	<path id="Path_54244_00000145041399165028708240000002909151526641541262_" fill="#D3D3D3" d="M78.18863,55.6059H62.256
		c-0.95065,0-1.72126-0.77061-1.72126-1.72126v-4.21053c0-0.95065,0.77061-1.72126,1.72126-1.72126h15.93263
		c0.95066,0,1.72127,0.77061,1.72127,1.72126l0,0v4.21053C79.90989,54.83529,79.13927,55.6059,78.18863,55.6059z"/>
	<path id="Path_54245_00000065056937880509828110000010774507567502206607_" fill="#D3D3D3" d="M74.07874,45.39789H62.25599
		c-0.95065,0-1.72126-0.77061-1.72126-1.72126c0-0.00143,0-0.00278,0-0.00421V41.696c0-0.95065,0.77061-1.72126,1.72126-1.72126
		h11.82273c0.95065,0,1.72126,0.77061,1.72126,1.72126v1.97642c0.00236,0.95065-0.7664,1.72311-1.71705,1.72547
		C74.08151,45.39789,74.08016,45.39789,74.07874,45.39789z"/>
	
		<ellipse id="Ellipse_3298_00000075866741538609396940000003136472489295982773_" fill="#D3D3D3" cx="44.62273" cy="47.71116" rx="7.42147" ry="7.33726"/>
	<path id="Path_54244_00000049194475894841363750000002531688626761100180_" fill="#F2F1EF" d="M78.18863,79.9323H62.256
		c-0.95065,0-1.72126-0.77061-1.72126-1.72126v-4.21053c0-0.95065,0.77061-1.72127,1.72126-1.72127h15.93263
		c0.95066,0,1.72127,0.77061,1.72127,1.72127l0,0v4.21053C79.90989,79.16169,79.13927,79.9323,78.18863,79.9323z"/>
	<path id="Path_54245_00000134946336121194491760000002781452936344430473_" fill="#F2F1EF" d="M74.07874,69.7243H62.25599
		c-0.95065,0-1.72126-0.77061-1.72126-1.72126c0-0.00143,0-0.00278,0-0.00421V66.0224c0-0.95065,0.77061-1.72126,1.72126-1.72126
		h11.82273c0.95065,0,1.72126,0.77061,1.72126,1.72126v1.97643c0.00236,0.95065-0.7664,1.72311-1.71705,1.72547
		C74.08151,69.7243,74.08016,69.7243,74.07874,69.7243z"/>
	
		<ellipse id="Ellipse_3298_00000056388913429789804130000003418895440786983083_" fill="#F2F1EF" cx="44.62273" cy="72.03756" rx="7.42147" ry="7.33726"/>
	<path id="Path_54244_00000029762719991845092500000013568906388026680480_" fill="#F2F1EF" d="M78.18863,108.00253H62.256
		c-0.95065,0-1.72126-0.77061-1.72126-1.72126v-4.21053c0-0.95065,0.77061-1.72126,1.72126-1.72126h15.93263
		c0.95066,0,1.72127,0.77061,1.72127,1.72126l0,0v4.21053C79.90989,107.23192,79.13927,108.00253,78.18863,108.00253z"/>
	<path id="Path_54245_00000051370617299049044650000009454799055196578723_" fill="#F2F1EF" d="M74.07874,97.79453H62.25599
		c-0.95065,0-1.72126-0.77061-1.72126-1.72127c0-0.00143,0-0.00278,0-0.00421v-1.97642c0-0.95065,0.77061-1.72126,1.72126-1.72126
		h11.82273c0.95065,0,1.72126,0.77061,1.72126,1.72126v1.97642c0.00236,0.95065-0.7664,1.72312-1.71705,1.72548
		C74.08151,97.79453,74.08016,97.79453,74.07874,97.79453z"/>
	
		<ellipse id="Ellipse_3298_00000002359833248308738410000014639150638454336900_" fill="#F2F1EF" cx="44.62273" cy="100.1078" rx="7.42147" ry="7.33726"/>
</g>
<g id="Layer_3">
	<g>
		<ellipse id="Ellipse_3308" fill="#FFFFFF" cx="112.42496" cy="112.98563" rx="24.26021" ry="23.98315"/>
		<path id="Path_54250" fill="#818386" d="M129.18117,130.33974l1.11411-1.10147l5.84926,5.78273l-1.11411,1.10147
			L129.18117,130.33974z"/>
		<path id="Path_54251" fill="#B5B4B3" d="M158.68013,152.25468l-21.04422-20.80841l-1.63368,1.61684l-3.03159-2.99789
			c4.06526-4.76151,6.29871-10.81701,6.29895-17.0779c0.10037-14.77348-11.79446-26.83107-26.56793-26.93153
			S85.87059,97.85023,85.77013,112.6237s11.79444,26.83107,26.56792,26.93153c6.50248,0.0442,12.7984-2.28169,17.71049-6.54265
			l2.99789,2.9642l-1.92842,1.91159l21.04422,20.80843c1.82552,1.76025,4.72455,1.73407,6.5179-0.05896
			C160.43996,156.87396,160.43996,154.01855,158.68013,152.25468z M90.74749,112.98731
			c-0.15672-11.97347,9.42257-21.80691,21.39604-21.96362s21.80691,9.42257,21.96363,21.39604
			c0.15671,11.97346-9.42258,21.80691-21.39606,21.96362c-0.09592,0.00125-0.19183,0.00185-0.28783,0.00185
			C100.53662,134.44264,90.84341,124.87371,90.74749,112.98731z"/>
		<g>
			<defs>
				
					<ellipse id="SVGID_00000090265961105474982370000013676505295164038839_" cx="111.38007" cy="111.19363" rx="26.90526" ry="26.73515"/>
			</defs>
			<clipPath id="SVGID_00000020395094725606412290000016466971580519176069_">
				<use xlink:href="#SVGID_00000090265961105474982370000013676505295164038839_"  overflow="visible"/>
			</clipPath>
			
				<g id="Group_63404_00000101086351742982903720000007275614250984449673_" transform="translate(123.572 109.056)" opacity="0.2" clip-path="url(#SVGID_00000020395094725606412290000016466971580519176069_)">
				<path id="Path_55445_00000054254363985154049330000001134772200410506925_" fill="#FFFFFF" d="M-5.91487-28.62364
					l6.37979,2.4699l-25.91326,66.10526l-6.37979-2.46989L-5.91487-28.62364z"/>
				<path id="Path_55446_00000067947898132088791060000009168024737448918922_" fill="#FFFFFF" d="M3.20766-25.09353
					l4.28632,1.65895l-25.91326,66.1019l-4.28632-1.65895L3.20766-25.09353z"/>
				<path id="Path_55447_00000176006755292556391190000013694865899351888797_" fill="#FFFFFF" d="M9.82155-22.53353
					l4.28632,1.65895l-25.91326,66.1019l-4.28632-1.65895L9.82155-22.53353z"/>
			</g>
		</g>
		<path id="Path_54252" fill="#B5B4B3" d="M115.2696,113.14731l9.12,9.01896l-2.42527,2.4421l-9.14526-9.04421l-9.14526,9.04421
			l-2.42526-2.4421l9.12-9.01895l-9.12-9.01894l2.42526-2.44211l9.14526,9.04421l9.14526-9.04421l2.42527,2.44211
			L115.2696,113.14731z"/>
	</g>
</g>
</svg>
