<?xml version="1.0" encoding="utf-8"?>
<!-- Generator: Adobe Illustrator 25.4.1, SVG Export Plug-In . SVG Version: 6.00 Build 0)  -->
<svg version="1.1" xmlns="http://www.w3.org/2000/svg" xmlns:xlink="http://www.w3.org/1999/xlink" x="0px" y="0px"
	 viewBox="0 0 24 24" style="enable-background:new 0 0 24 24;" xml:space="preserve">
<style type="text/css">
	.st0{fill:#FDF0E9;}
	.st1{opacity:0.1;}
	.st2{fill:#0072C6;}
	.st3{fill:#FFFFFF;}
	.st4{fill:#606060;}
	.st5{fill:#ED702D;}
	.st6{fill:none;stroke:#FFFFFF;stroke-width:1.5;stroke-linecap:round;}
</style>
<g id="BG">
</g>
<g id="Icons">
	<g>
		<circle class="st4" cx="12" cy="7.3438" r="1.25"/>
	</g>
	<g>
		<path class="st4" d="M12.4505,17.748h-0.9c-0.1657,0-0.3-0.1343-0.3-0.3v-6.4054c0-0.1657,0.1343-0.3,0.3-0.3h0.9
			c0.1657,0,0.3,0.1343,0.3,0.3v6.4054C12.7505,17.6137,12.6162,17.748,12.4505,17.748z"/>
	</g>
	<g>
		<path class="st4" d="M12,22.0312c-5.5312,0-10.0312-4.5-10.0312-10.0312S6.4688,1.9688,12,1.9688S22.0312,6.4688,22.0312,12
			S17.5312,22.0312,12,22.0312z M12,3.4688c-4.7041,0-8.5312,3.8271-8.5312,8.5312S7.2959,20.5312,12,20.5312
			S20.5312,16.7041,20.5312,12S16.7041,3.4688,12,3.4688z"/>
	</g>
</g>
</svg>
