<?xml version="1.0" encoding="utf-8"?>
<!-- Generator: Adobe Illustrator 25.4.1, SVG Export Plug-In . SVG Version: 6.00 Build 0)  -->
<svg version="1.1" id="Layer_1" xmlns="http://www.w3.org/2000/svg" xmlns:xlink="http://www.w3.org/1999/xlink" x="0px" y="0px"
	 viewBox="0 0 24 24" style="enable-background:new 0 0 24 24;" xml:space="preserve">
<style type="text/css">
	.st0{fill:#0072C6;}
</style>
<g id="Icons">
	<path class="st0" d="M11.9967,1.97c-5.53,0-10.03,4.5-10.03,10.03s4.5,10.03,10.03,10.03s10.03-4.5,10.03-10.03
		C22.0266,6.47,17.5266,1.97,11.9967,1.97z M13.0006,17.4482c0,0.3032-0.2471,0.5498-0.5503,0.5498h-0.8999
		c-0.3032,0-0.5498-0.2466-0.5498-0.5498v-6.4053c0-0.3032,0.2466-0.5503,0.5498-0.5503h0.8999
		c0.3032,0,0.5503,0.2471,0.5503,0.5503V17.4482z M12.0001,8.8437c-0.8271,0-1.5-0.6729-1.5-1.5s0.6729-1.5,1.5-1.5
		s1.5,0.6729,1.5,1.5S12.8272,8.8437,12.0001,8.8437z"/>
</g>
</svg>
