<?xml version="1.0" encoding="utf-8"?>
<!-- Generator: Adobe Illustrator 25.4.1, SVG Export Plug-In . SVG Version: 6.00 Build 0)  -->
<svg version="1.1" xmlns="http://www.w3.org/2000/svg" xmlns:xlink="http://www.w3.org/1999/xlink" x="0px" y="0px"
	 viewBox="0 0 16 16" style="enable-background:new 0 0 16 16;" xml:space="preserve">
<style type="text/css">
	.st0{fill:#FDF0E9;}
	.st1{opacity:0.1;}
	.st2{fill:#0072C6;}
	.st3{fill:#FFFFFF;}
	.st4{fill:#606060;}
	.st5{fill:#ED702D;}
	.st6{fill:none;stroke:#FFFFFF;stroke-width:1.5;stroke-linecap:round;}
</style>
<g id="BG">
</g>
<g id="Icons">
	<g>
		<circle class="st4" cx="8" cy="4.8569" r="1"/>
	</g>
	<g>
		<path class="st4" d="M8.5,12.1436h-1c-0.1381,0-0.25-0.1119-0.25-0.25V7.4873c0-0.1381,0.1119-0.25,0.25-0.25h1
			c0.1381,0,0.25,0.1119,0.25,0.25v4.4062C8.75,12.0316,8.6381,12.1436,8.5,12.1436z"/>
	</g>
	<g>
		<path class="st4" d="M8,15.25c-3.998,0-7.25-3.252-7.25-7.25S4.002,0.75,8,0.75S15.25,4.002,15.25,8S11.998,15.25,8,15.25z
			 M8,2.25C4.8291,2.25,2.25,4.8291,2.25,8S4.8291,13.75,8,13.75s5.75-2.5791,5.75-5.75S11.1709,2.25,8,2.25z"/>
	</g>
</g>
</svg>
