<?xml version="1.0" encoding="utf-8"?>
<!-- Generator: Adobe Illustrator 25.4.1, SVG Export Plug-In . SVG Version: 6.00 Build 0)  -->
<svg version="1.1" xmlns="http://www.w3.org/2000/svg" xmlns:xlink="http://www.w3.org/1999/xlink" x="0px" y="0px"
	 viewBox="0 0 46 46" style="enable-background:new 0 0 46 46;" xml:space="preserve">
<style type="text/css">
	.st0{fill:#FDF0E9;}
	.st1{opacity:0.1;}
	.st2{fill:#0072C6;}
	.st3{fill:#FFFFFF;}
	.st4{fill:#606060;}
	.st5{fill:#ED702D;}
	.st6{fill:none;stroke:#FFFFFF;stroke-width:1.5;stroke-linecap:round;}
</style>
<g id="BG">
	<g id="Rectangle_14993_00000071531110026915193490000000512090617778912703_">
		<path class="st0" d="M4,0h38c2.2091,0,4,1.7909,4,4v38c0,2.2091-1.7909,4-4,4H4c-2.2091,0-4-1.7909-4-4V4C0,1.7909,1.7909,0,4,0z"
			/>
	</g>
</g>
<g id="Icons">
	<g>
		<circle class="st5" cx="23" cy="19.191" r="1.25"/>
	</g>
	<g>
		<path class="st5" d="M23.5063,28.0586h-1.0117c-0.2761,0-0.5-0.2239-0.5-0.5v-4.5c0-0.2761,0.2239-0.5,0.5-0.5h1.0117
			c0.2761,0,0.5,0.2239,0.5,0.5v4.5C24.0063,27.8347,23.7825,28.0586,23.5063,28.0586z"/>
	</g>
	<g>
		<path class="st5" d="M23,33.2812c-5.6689,0-10.2812-4.6123-10.2812-10.2812S17.3311,12.7188,23,12.7188
			S33.2812,17.3311,33.2812,23S28.6689,33.2812,23,33.2812z M23,14.7188c-4.5664,0-8.2812,3.7148-8.2812,8.2812
			S18.4336,31.2812,23,31.2812S31.2812,27.5664,31.2812,23S27.5664,14.7188,23,14.7188z"/>
	</g>
</g>
</svg>
