<?xml version="1.0" encoding="utf-8"?>
<!-- Generator: Adobe Illustrator 25.4.1, SVG Export Plug-In . SVG Version: 6.00 Build 0)  -->
<svg version="1.1" xmlns="http://www.w3.org/2000/svg" xmlns:xlink="http://www.w3.org/1999/xlink" x="0px" y="0px"
	 viewBox="0 0 24 24" style="enable-background:new 0 0 24 24;" xml:space="preserve">
<style type="text/css">
	.st0{fill:#FDF0E9;}
	.st1{opacity:0.1;}
	.st2{fill:#0072C6;}
	.st3{fill:#FFFFFF;}
	.st4{fill:#606060;}
	.st5{fill:#ED702D;}
	.st6{fill:none;stroke:#FFFFFF;stroke-width:1.5;stroke-linecap:round;}
</style>
<g id="BG">
</g>
<g id="Icons">
	<g>
		<g>
			<path class="st2" d="M3.4648,21.999c-0.2539,0-0.5068-0.0684-0.7285-0.2031c-0.3818-0.2344-0.6104-0.6328-0.6104-1.0674
				l0.0371-0.2344l2.7842-8.4775L2.126,3.2715c0-0.4346,0.2285-0.833,0.6104-1.0674c0.4111-0.252,0.9316-0.2725,1.3633-0.0518
				l17.0723,8.7285c0.4336,0.2227,0.7031,0.6514,0.7021,1.1201c0,0.4678-0.2695,0.8965-0.7031,1.1172L4.1006,21.8477
				C3.9014,21.9492,3.6826,21.999,3.4648,21.999z M3.7998,3.6836l2.7256,8.333l-2.7246,8.2988L20.0645,12L3.7998,3.6836z"/>
		</g>
		<g>
			<rect x="5.7363" y="11.25" class="st2" width="15.3877" height="1.5"/>
		</g>
	</g>
</g>
</svg>
