<?xml version="1.0" encoding="utf-8"?>
<!-- Generator: Adobe Illustrator 26.0.3, SVG Export Plug-In . SVG Version: 6.00 Build 0)  -->
<svg version="1.1" id="Layer_1" xmlns="http://www.w3.org/2000/svg" xmlns:xlink="http://www.w3.org/1999/xlink" x="0px" y="0px"
	 viewBox="0 0 16 16" style="enable-background:new 0 0 16 16;" xml:space="preserve">
<path style="fill:#0072C6;" d="M14.591,1.411c-0.222-0.223-0.553-0.298-0.862-0.197L1.477,5.174C1.17,5.275,0.933,5.532,0.857,5.844
	C0.788,6.136,0.868,6.432,1.073,6.637l5.492,2.814l2.704,5.349l0.094,0.129c0.156,0.155,0.365,0.239,0.585,0.239
	c0.069,0,0.14-0.009,0.21-0.025c0.312-0.076,0.568-0.314,0.667-0.62l3.961-12.251C14.887,1.962,14.811,1.632,14.591,1.411z
	 M2.051,6.04l10.643-3.441L6.829,8.463L2.051,6.04z M9.98,13.989L7.541,9.165l5.864-5.864L9.98,13.989z"/>
<path style="fill:none;" d="M16,16H0V0h16V16z"/>
</svg>
