<?xml version="1.0" encoding="utf-8"?>
<!-- Generator: Adobe Illustrator 26.0.3, SVG Export Plug-In . SVG Version: 6.00 Build 0)  -->
<svg version="1.1" id="Layer_1" xmlns="http://www.w3.org/2000/svg" xmlns:xlink="http://www.w3.org/1999/xlink" x="0px" y="0px"
	 viewBox="0 0 16 16" style="enable-background:new 0 0 16 16;" xml:space="preserve">
<path style="fill:#626161;" d="M14.774,1.249c-0.222-0.223-0.553-0.298-0.862-0.197L1.66,5.013C1.353,5.113,1.116,5.37,1.041,5.683
	C0.971,5.975,1.051,6.271,1.257,6.476l5.492,2.814l2.704,5.349l0.094,0.129c0.156,0.155,0.365,0.239,0.585,0.239
	c0.069,0,0.14-0.009,0.21-0.025c0.312-0.076,0.568-0.314,0.667-0.62L14.97,2.109C15.07,1.8,14.995,1.471,14.774,1.249z M2.234,5.878
	l10.644-3.441L7.013,8.302L2.234,5.878z M10.164,13.827L7.725,9.003l5.864-5.864L10.164,13.827z"/>
<path style="fill:none;" d="M16,16H0V0h16V16z"/>
</svg>
