<?xml version="1.0" encoding="utf-8"?>
<!-- Generator: Adobe Illustrator 27.3.1, SVG Export Plug-In . SVG Version: 6.00 Build 0)  -->
<svg version="1.1" id="jpeg" xmlns="http://www.w3.org/2000/svg" xmlns:xlink="http://www.w3.org/1999/xlink" x="0px" y="0px"
	 viewBox="0 0 24 24" style="enable-background:new 0 0 24 24;" xml:space="preserve">
<path style="fill:#F0F0F0;" d="M15.4,8.5c-0.6,0-1.2-0.5-1.2-1.2v-5H4.4c-0.7,0-1.2,0.6-1.2,1.2v16.1c0,0.7,0.6,1.2,1.2,1.2h13.9
	c0.7,0,1.2-0.6,1.2-1.2V8.5H15.4z"/>
<g id="Path_54274">
	<path style="fill:#BBBDBF;" d="M14.2,8.2V2.9l4.5,5.3C18.7,8.2,14.2,8.2,14.2,8.2z"/>
</g>
<path style="fill:#BBBDBF;" d="M19.4,8.5L13.9,2V1.9H4c-0.9,0-1.7,0.7-1.7,1.7v16.1c0,0.9,0.7,1.7,1.7,1.7h13.9
	c0.9,0,1.7-0.8,1.7-1.8V8.5H19.4z M18.6,19.5c0,0.5-0.3,0.8-0.7,0.8H4c-0.4,0-0.7-0.3-0.7-0.7V3.5c0-0.4,0.3-0.7,0.7-0.7h9.9v5.7
	h4.7V19.5z"/>
<g id="Path_54276">
	<polygon style="fill:#BBBDBF;" points="19.4,8.5 18.6,8.5 18.6,8.5 	"/>
</g>
<path id="Path_54277" style="fill:#7D6599;" d="M19.7,21.6H3.4C2.6,21.6,2,21,2,20.2v-8.3c0-0.8,0.6-1.4,1.4-1.4l0,0h16.3
	c0.8,0,1.4,0.6,1.4,1.4v8.3C21.1,21,20.5,21.6,19.7,21.6z"/>
<g>
	<path style="fill:#FFFFFF;" d="M4.4,18.4c0,0.3-0.1,0.6-0.2,0.7c-0.1,0.1-0.3,0.2-0.5,0.2s-0.3-0.1-0.5-0.1v0.9
		c0.2,0.1,0.4,0.1,0.6,0.1c0.5,0,1-0.2,1.3-0.5c0.3-0.3,0.4-0.7,0.4-1.3v-4.7H4.4V18.4z"/>
	<path style="fill:#FFFFFF;" d="M9.6,14.2c-0.3-0.3-0.8-0.4-1.4-0.4H6.6v5h1.1V17h0.4c0.6,0,1.1-0.2,1.4-0.5s0.5-0.7,0.5-1.2
		S9.9,14.4,9.6,14.2z M8.7,15.9C8.6,16,8.3,16.1,8,16.1H7.7v-1.5h0.5c0.3,0,0.5,0.1,0.6,0.2C8.9,15,9,15.2,9,15.4
		C9,15.6,8.8,15.8,8.7,15.9z"/>
	<polygon style="fill:#FFFFFF;" points="11,18.8 13.9,18.8 13.9,18 12.1,18 12.1,16.7 13.8,16.7 13.8,15.8 12.1,15.8 12.1,14.7 
		13.9,14.7 13.9,13.8 11,13.8 	"/>
	<path style="fill:#FFFFFF;" d="M16.9,16.7h0.9v1c-0.3,0.1-0.5,0.1-0.7,0.1c-0.5,0-0.8-0.1-1-0.4c-0.2-0.2-0.3-0.7-0.3-1.2
		s0.1-0.9,0.4-1.2s0.6-0.5,1.1-0.5c0.4,0,0.7,0.1,1.1,0.3l0.4-0.8c-0.5-0.2-1-0.3-1.5-0.3c-0.8,0-1.4,0.2-1.9,0.7s-0.7,1.1-0.7,1.9
		s0.2,1.5,0.6,1.9c0.4,0.5,0.9,0.7,1.7,0.7c0.3,0,0.6-0.1,0.9-0.1c0.3,0,0.6-0.1,0.9-0.2V16h-1.9V16.7z"/>
</g>
</svg>
