<?xml version="1.0" encoding="utf-8"?>
<!-- Generator: Adobe Illustrator 25.4.1, SVG Export Plug-In . SVG Version: 6.00 Build 0)  -->
<svg version="1.1" xmlns="http://www.w3.org/2000/svg" xmlns:xlink="http://www.w3.org/1999/xlink" x="0px" y="0px"
	 viewBox="0 0 24 24" style="enable-background:new 0 0 24 24;" xml:space="preserve">
<style type="text/css">
	.st0{fill:#FDF0E9;}
	.st1{opacity:0.1;}
	.st2{fill:#0072C6;}
	.st3{fill:#FFFFFF;}
	.st4{fill:#606060;}
	.st5{fill:#ED702D;}
	.st6{fill:none;stroke:#FFFFFF;stroke-width:1.5;stroke-linecap:round;}
</style>
<g id="BG">
</g>
<g id="Icons">
	<g>
		<g id="Path_53812_00000011020270968956680360000006517651140848880313_">
			<path class="st4" d="M13.8633,15.5293c-0.2583,0-0.5181-0.0186-0.7778-0.0562c-1.4194-0.2046-2.6743-0.9497-3.5337-2.0986
				l1.2012-0.8984c0.6191,0.8281,1.5234,1.3652,2.5469,1.5127c1.0259,0.1489,2.0425-0.1123,2.8701-0.7314
				c0.1479-0.1108,0.2886-0.2324,0.4194-0.3633l2.6519-2.6519c1.3716-1.3711,1.6401-3.4595,0.6382-4.9653
				c-0.9239-1.3889-2.5973-2.0788-4.2873-1.6263c-0.6768,0.1812-1.2792,0.5756-1.7758,1.0698l-1.3053,1.2989
				c-0.1175,0.1169-0.3075,0.1164-0.4243-0.0011l-0.6345-0.638c-0.1168-0.1175-0.1163-0.3074,0.0011-0.4242l1.9771-1.9675
				c0.0192-0.0191,0.0412-0.0365,0.0642-0.0507c2.8599-1.7628,6.0523-0.8688,7.6337,1.508c1.396,2.0986,1.0483,4.9824-0.8267,6.8569
				l-2.6519,2.6519c-0.1816,0.1816-0.376,0.3501-0.5811,0.5039C16.1299,15.1602,15.0142,15.5293,13.8633,15.5293z"/>
		</g>
		<g id="Path_53813_00000121259081176682586880000008576720127739301270_">
			<path class="st4" d="M7.3516,22.0439c-0.623,0-1.2441-0.1167-1.8335-0.3564c-1.8736-0.7631-3.1426-2.3119-3.4486-4.2252
				c-0.2827-1.7677,0.4163-3.5536,1.6821-4.8194l2.5995-2.5995c0.1816-0.1816,0.376-0.3501,0.5811-0.5039
				c1.1494-0.8589,2.5645-1.2217,3.9834-1.0146c1.3152,0.1895,2.4889,0.8432,3.3373,1.8512
				c0.1104,0.1311,0.0814,0.3334-0.0559,0.4361l-0.7218,0.5398c-0.1275,0.0954-0.3015,0.0687-0.4057-0.0516
				c-0.6085-0.7018-1.4393-1.1568-2.3679-1.2906c-1.0239-0.1504-2.0425,0.1113-2.8706,0.731
				c-0.1479,0.1108-0.2886,0.2324-0.4194,0.3633l-2.6912,2.6912c-0.7337,0.7337-1.2111,1.7147-1.22,2.7523
				c-0.0145,1.6897,0.9828,3.0989,2.5831,3.7504c1.3076,0.5332,2.9214,0.1572,4.0161-0.9355l1.3753-1.3761
				c0.1171-0.1172,0.3071-0.1172,0.4243-0.0001l0.6363,0.6363c0.1171,0.1171,0.1172,0.307,0.0001,0.4242l-1.3671,1.3679
				C10.1035,21.4775,8.7236,22.0439,7.3516,22.0439z"/>
		</g>
	</g>
</g>
</svg>
