<?xml version="1.0" encoding="utf-8"?>
<!-- Generator: Adobe Illustrator 25.4.1, SVG Export Plug-In . SVG Version: 6.00 Build 0)  -->
<svg version="1.1" xmlns="http://www.w3.org/2000/svg" xmlns:xlink="http://www.w3.org/1999/xlink" x="0px" y="0px"
	 viewBox="0 0 46 46" style="enable-background:new 0 0 46 46;" xml:space="preserve">
<style type="text/css">
	.st0{fill:#FDF0E9;}
	.st1{opacity:0.1;}
	.st2{fill:#0072C6;}
	.st3{fill:#FFFFFF;}
	.st4{fill:#606060;}
	.st5{fill:#ED702D;}
	.st6{fill:none;stroke:#FFFFFF;stroke-width:1.5;stroke-linecap:round;}
</style>
<g id="BG">
	<g id="Rectangle_14993_00000155858318874160355650000016792978200176920237_">
		<path class="st0" d="M4,0h38c2.2091,0,4,1.7909,4,4v38c0,2.2091-1.7909,4-4,4H4c-2.2091,0-4-1.7909-4-4V4C0,1.7909,1.7909,0,4,0z"
			/>
	</g>
</g>
<g id="Icons">
	<g>
		<g id="Path_53812_00000034799193061331564670000002785582027638927545_">
			<path class="st5" d="M24.873,26.7524c-0.2705,0-0.542-0.019-0.8145-0.0586c-1.311-0.1892-2.4881-0.8188-3.3647-1.7906
				c-0.1914-0.2121-0.1419-0.549,0.0868-0.7202l0.806-0.603c0.2111-0.1579,0.4958-0.1132,0.6793,0.0761
				c0.554,0.5718,1.2771,0.9425,2.0788,1.0582c0.9551,0.1367,1.9102-0.105,2.6846-0.6841c0.1377-0.1035,0.2695-0.2173,0.3926-0.3398
				l2.6514-2.6519c1.2881-1.2871,1.543-3.2427,0.6064-4.6504c-0.7068-1.0624-1.8232-1.6645-3.1012-1.6532
				c-0.9721,0.0086-1.8918,0.4538-2.5809,1.1396l-1.1597,1.154c-0.1958,0.1948-0.5124,0.194-0.7072-0.0018l-0.7049-0.7089
				c-0.1947-0.1958-0.1939-0.5123,0.0019-0.7071l1.1199-1.114c0.8229-0.8186,1.8493-1.4361,2.9891-1.6555
				c2.3156-0.4458,4.5509,0.5484,5.8091,2.4395c1.4619,2.1978,1.1006,5.2139-0.8584,7.1724l-2.6514,2.6514
				c-0.1895,0.1899-0.3936,0.3662-0.6084,0.5269C27.2451,26.3662,26.0771,26.7524,24.873,26.7524z"/>
		</g>
		<g id="Path_53813_00000124880241055649069620000012326696178951631003_">
			<path class="st5" d="M18.3604,33.2671c-0.6553,0-1.3076-0.1226-1.9277-0.375c-1.9547-0.7957-3.2798-2.4136-3.6013-4.4141
				c-0.2973-1.8496,0.4324-3.719,1.7571-5.0435l2.5951-2.5946c0.1895-0.1899,0.3926-0.3662,0.6074-0.5269
				c2.3403-1.7497,5.6112-1.3972,7.5327,0.7273c0.1919,0.2122,0.1425,0.5502-0.0866,0.7215L24.431,22.365
				c-0.2107,0.1576-0.4946,0.1129-0.6779-0.0759c-1.2478-1.2848-3.2918-1.4743-4.7638-0.375
				c-0.1377,0.1035-0.2686,0.2173-0.3916,0.3398l-2.6877,2.6872c-0.6881,0.688-1.139,1.6067-1.1498,2.5797
				c-0.0177,1.5832,0.9209,2.9055,2.4264,3.5187c1.2178,0.4946,2.7207,0.1406,3.7461-0.8813l1.2334-1.2341
				c0.1952-0.1954,0.5119-0.1954,0.7072-0.0001l0.707,0.707c0.1952,0.1952,0.1953,0.5117,0.0001,0.707l-1.2258,1.2265
				C21.2412,32.6753,19.7969,33.2671,18.3604,33.2671z"/>
		</g>
	</g>
</g>
</svg>
