<?xml version="1.0" encoding="utf-8"?>
<!-- Generator: Adobe Illustrator 25.4.1, SVG Export Plug-In . SVG Version: 6.00 Build 0)  -->
<svg version="1.1" id="Layer_1" xmlns="http://www.w3.org/2000/svg" xmlns:xlink="http://www.w3.org/1999/xlink" x="0px" y="0px"
	 viewBox="0 0 20 20" style="enable-background:new 0 0 20 20;" xml:space="preserve">
<style type="text/css">
	.st0{fill:#D53D3D;}
</style>
<g id="Layer_1_00000101816062624539012110000005805130135515644042_">
	<g>
		<path class="st0" d="M9.356,17.721c-3.106-0.276-5.707-2.624-6.247-5.656C2.513,8.714,4.417,5.543,7.498,4.379
			c0.129-0.049,0.276,0.022,0.32,0.152l0.159,0.46C8.02,5.114,7.954,5.245,7.831,5.292C5.344,6.239,3.754,8.712,4.008,11.4
			c0.282,2.974,2.865,5.329,5.89,5.379c3.365,0.055,6.12-2.631,6.12-5.942c0-2.416-1.496-4.6-3.746-5.506
			c-0.122-0.049-0.186-0.181-0.141-0.304l0.167-0.456c0.047-0.129,0.195-0.197,0.323-0.146C15.251,5.475,17,8.02,17,10.837
			C17,14.859,13.505,18.09,9.356,17.721z"/>
	</g>
	<g>
		<path class="st0" d="M10.281,10.31H9.789c-0.135,0-0.245-0.108-0.245-0.242V2.492c0-0.134,0.11-0.242,0.245-0.242h0.491
			c0.135,0,0.245,0.108,0.245,0.242v7.576C10.526,10.202,10.416,10.31,10.281,10.31z"/>
	</g>
</g>
</svg>
