<?xml version="1.0" encoding="utf-8"?>
<!-- Generator: Adobe Illustrator 25.4.1, SVG Export Plug-In . SVG Version: 6.00 Build 0)  -->
<svg version="1.1" id="Layer_1" xmlns="http://www.w3.org/2000/svg" xmlns:xlink="http://www.w3.org/1999/xlink" x="0px" y="0px"
	 viewBox="0 0 16 16" style="enable-background:new 0 0 16 16;" xml:space="preserve">
<style type="text/css">
	.st0{fill:#606060;}
	.st1{fill:#6DAD15;}
</style>
<g id="Icons">
	<g>
		<path class="st0" d="M5.25,5.9h-1.3c-0.3,0-0.5,0.2-0.5,0.5v1.3c0,0.3,0.2,0.5,0.5,0.5h1.3c0.3,0,0.5-0.2,0.5-0.5V6.4
			C5.75,6.2,5.55,5.9,5.25,5.9z"/>
		<path class="st0" d="M12.05,6.6h-4.5c-0.1,0-0.2,0.1-0.2,0.2v0.5c0,0.2,0.1,0.3,0.2,0.3h4.5c0.1,0,0.2-0.1,0.2-0.2V6.8
			C12.25,6.7,12.15,6.6,12.05,6.6z"/>
		<path class="st0" d="M5.25,9.7h-1.3c-0.3,0-0.5,0.2-0.5,0.5v1.3c0,0.3,0.3,0.5,0.5,0.5h1.3c0.3,0,0.5-0.2,0.5-0.5v-1.3
			C5.75,9.9,5.55,9.7,5.25,9.7z"/>
		<path class="st0" d="M12.05,10.4h-4.5c-0.1,0-0.2,0.1-0.2,0.2v0.5c0,0.1,0.1,0.2,0.2,0.2h4.5c0.1,0,0.2-0.1,0.2-0.2v-0.5
			C12.25,10.5,12.15,10.4,12.05,10.4z"/>
		<path class="st0" d="M13.15,0.9h-1.9c-0.1-0.5-0.5-0.9-1-0.9h-4.7c-0.5,0-0.9,0.4-1,0.9h-1.8c-0.8,0-1.5,0.7-1.5,1.5v12.1
			c0,0.8,0.7,1.5,1.5,1.5h10.5c0.8,0,1.5-0.7,1.5-1.5V2.4C14.65,1.6,14.05,0.9,13.15,0.9z M5.55,1l4.8,0.1V2c0,0,0,0.1-0.1,0.1
			L5.55,2V1z M13.65,14.5c0,0.3-0.2,0.5-0.5,0.5H2.75c-0.3,0-0.5-0.2-0.5-0.5V2.4c0-0.3,0.2-0.5,0.5-0.5h1.8V2c0,0.6,0.4,1,1,1h4.7
			c0.6,0,1.1-0.5,1.1-1.1h1.8c0.3,0,0.5,0.2,0.5,0.5V14.5z"/>
	</g>
	<circle class="st1" cx="13.25" cy="2.806" r="2.75"/>
</g>
</svg>
