<?xml version="1.0" encoding="utf-8"?>
<!-- Generator: Adobe Illustrator 25.4.1, SVG Export Plug-In . SVG Version: 6.00 Build 0)  -->
<svg version="1.1" xmlns="http://www.w3.org/2000/svg" xmlns:xlink="http://www.w3.org/1999/xlink" x="0px" y="0px"
	 viewBox="0 0 24 24" style="enable-background:new 0 0 24 24;" xml:space="preserve">
<style type="text/css">
	.st0{fill:#FDF0E9;}
	.st1{opacity:0.1;}
	.st2{fill:#0072C6;}
	.st3{fill:#FFFFFF;}
	.st4{fill:#606060;}
	.st5{fill:#ED702D;}
	.st6{fill:none;stroke:#FFFFFF;stroke-width:1.5;stroke-linecap:round;}
</style>
<g id="BG">
</g>
<g id="Icons">
	<g>
		<path class="st4" d="M15.78,7.8857c0.1172,0.1171,0.3071,0.1169,0.4242-0.0002l0.6365-0.6371
			c0.1171-0.1172,0.117-0.3073-0.0003-0.4243L12,1.9917L7.1594,6.8318c-0.1172,0.1172-0.1172,0.3071,0,0.4243l0.6362,0.6362
			c0.1172,0.1172,0.3071,0.1172,0.4243,0l3.03-3.0304v7.4872l-4.4951,3.939C6.251,16.75,5.9736,17.3618,5.9736,18.0103v3.5609
			c0,0.1656,0.1343,0.3,0.3,0.3h0.9c0.1656,0,0.3-0.1343,0.3-0.3v-3.5609c0-0.2231,0.1045-0.4424,0.2822-0.606l4.9941-4.3755V4.8606
			L15.78,7.8857z"/>
		<path class="st4" d="M18.2275,16.2847l-2.5522-2.3123c-0.1227-0.1112-0.3124-0.1019-0.4236,0.0208L14.647,14.66
			c-0.1113,0.1228-0.1021,0.3126,0.0208,0.4239l2.549,2.3087c0.1904,0.1753,0.2949,0.3945,0.2949,0.6177v3.5609
			c0,0.1656,0.1343,0.3,0.3,0.3h0.9c0.1656,0,0.3-0.1343,0.3-0.3v-3.5609C19.0117,17.3618,18.7344,16.75,18.2275,16.2847z"/>
	</g>
</g>
</svg>
