<svg xmlns="http://www.w3.org/2000/svg" width="162.06" height="97.006" viewBox="0 0 162.06 97.006"><defs><style>.a{fill:#fb8530;}.a,.b,.c{fill-rule:evenodd;}.b{fill:#fff;}.c{fill:#34754a;}</style></defs><g transform="translate(-56.217 -31.293)"><g transform="translate(105.392 31.293)"><path class="a" d="M-275.026-142.934a32.553,32.553,0,0,1,32.489,32.487,32.554,32.554,0,0,1-32.489,32.493,32.554,32.554,0,0,1-32.489-32.493,32.553,32.553,0,0,1,32.489-32.487Z" transform="translate(307.515 142.934)"/><path class="b" d="M-251.076-109.6a3.5,3.5,0,0,1,3.734,3.23,3.5,3.5,0,0,1-3.231,3.739,3.5,3.5,0,0,1-3.734-3.236,3.5,3.5,0,0,1,3.23-3.734Z" transform="translate(290.041 131.988)"/><path class="b" d="M-242.978-116.59a2.85,2.85,0,0,1,3.042,2.63,2.849,2.849,0,0,1-2.635,3.047,2.849,2.849,0,0,1-3.037-2.635,2.846,2.846,0,0,1,2.63-3.042Z" transform="translate(287.184 134.283)"/><path class="b" d="M-235.777-122.513a2.2,2.2,0,0,1,2.35,2.035,2.2,2.2,0,0,1-2.035,2.35,2.2,2.2,0,0,1-2.35-2.035,2.2,2.2,0,0,1,2.035-2.35Z" transform="translate(284.623 136.228)"/><path class="b" d="M-230.555-125.838a1.3,1.3,0,0,1,1.383,1.2,1.3,1.3,0,0,1-1.2,1.384,1.3,1.3,0,0,1-1.379-1.2,1.3,1.3,0,0,1,1.2-1.383Z" transform="translate(282.631 137.32)"/><path class="b" d="M-226.6-128.284a.517.517,0,0,1,.549.478.521.521,0,0,1-.478.555.521.521,0,0,1-.55-.484.517.517,0,0,1,.479-.549Z" transform="translate(281.094 138.122)"/><path class="b" d="M-274.448-86.25a3.5,3.5,0,0,0,3.332,3.648,3.5,3.5,0,0,0,3.648-3.332,3.5,3.5,0,0,0-3.332-3.648,3.5,3.5,0,0,0-3.648,3.332Z" transform="translate(296.655 125.411)"/><path class="b" d="M-281.66-77.84a2.851,2.851,0,0,0,2.712,2.971,2.856,2.856,0,0,0,2.976-2.716,2.85,2.85,0,0,0-2.716-2.966,2.845,2.845,0,0,0-2.972,2.712Z" transform="translate(299.024 122.445)"/><path class="b" d="M-287.076-70.8a2.2,2.2,0,0,0,2.1,2.295,2.2,2.2,0,0,0,2.3-2.1,2.207,2.207,0,0,0-2.1-2.295,2.2,2.2,0,0,0-2.294,2.1Z" transform="translate(300.802 119.929)"/><path class="b" d="M-290.584-65.35A1.291,1.291,0,0,0-289.353-64,1.293,1.293,0,0,0-288-65.233a1.3,1.3,0,0,0-1.236-1.348,1.288,1.288,0,0,0-1.349,1.232Z" transform="translate(301.954 117.856)"/><path class="b" d="M-292.727-61.641a.521.521,0,0,0,.494.539.521.521,0,0,0,.539-.494.524.524,0,0,0-.494-.539.518.518,0,0,0-.539.494Z" transform="translate(302.658 116.395)"/><path class="b" d="M-260.895-118.6a2.964,2.964,0,0,1,3.165,2.737,2.962,2.962,0,0,1-2.737,3.169,2.967,2.967,0,0,1-3.164-2.742,2.963,2.963,0,0,1,2.737-3.164Z" transform="translate(293.104 134.943)"/><path class="b" d="M-252.183-125.581a2.1,2.1,0,0,1,2.239,1.933,2.1,2.1,0,0,1-1.939,2.244,2.1,2.1,0,0,1-2.234-1.938,2.091,2.091,0,0,1,1.933-2.238Z" transform="translate(289.978 137.236)"/><path class="b" d="M-232.576-105.764a2.1,2.1,0,0,1,2.239,1.933,2.1,2.1,0,0,1-1.939,2.243,2.1,2.1,0,0,1-2.233-1.938,2.09,2.09,0,0,1,1.933-2.238Z" transform="translate(283.538 130.727)"/><path class="b" d="M-245.625-131.1a1.467,1.467,0,0,1,1.567,1.353,1.469,1.469,0,0,1-1.359,1.572,1.47,1.47,0,0,1-1.561-1.359,1.464,1.464,0,0,1,1.353-1.567Z" transform="translate(287.632 139.049)"/><path class="b" d="M-257-96.517a4.407,4.407,0,0,1-4.09,4.685,4.413,4.413,0,0,1-4.691-4.1,4.409,4.409,0,0,1,4.1-4.68A4.4,4.4,0,0,1-257-96.517Z" transform="translate(293.812 129.035)"/><path class="b" d="M-258.5-131.074a1.287,1.287,0,0,1-1.2,1.369,1.287,1.287,0,0,1-1.373-1.2,1.286,1.286,0,0,1,1.2-1.369,1.285,1.285,0,0,1,1.369,1.2Z" transform="translate(292.26 139.432)"/><path class="b" d="M-222.742-94.9a1.285,1.285,0,0,1-1.2,1.368,1.287,1.287,0,0,1-1.373-1.2,1.286,1.286,0,0,1,1.2-1.369,1.283,1.283,0,0,1,1.368,1.2Z" transform="translate(280.515 127.551)"/><path class="b" d="M-224.234-109.764a1.286,1.286,0,0,1-1.2,1.369,1.288,1.288,0,0,1-1.374-1.2,1.287,1.287,0,0,1,1.2-1.369,1.283,1.283,0,0,1,1.369,1.2Z" transform="translate(281.006 132.433)"/><path class="b" d="M-266.328-123.561a2.054,2.054,0,0,1-1.9,2.177,2.052,2.052,0,0,1-2.178-1.9,2.043,2.043,0,0,1,1.9-2.172,2.044,2.044,0,0,1,2.177,1.9Z" transform="translate(295.327 137.196)"/><path class="b" d="M-285.843-103.555a2.054,2.054,0,0,1-1.9,2.178,2.052,2.052,0,0,1-2.177-1.9,2.042,2.042,0,0,1,1.9-2.172,2.044,2.044,0,0,1,2.178,1.9Z" transform="translate(301.737 130.624)"/><path class="b" d="M-272.832-129.359a1.383,1.383,0,0,1-1.282,1.471,1.387,1.387,0,0,1-1.471-1.287,1.381,1.381,0,0,1,1.282-1.465,1.379,1.379,0,0,1,1.471,1.282Z" transform="translate(297.028 138.897)"/><path class="b" d="M-292.62-109.829a1.382,1.382,0,0,1-1.282,1.47,1.387,1.387,0,0,1-1.471-1.287,1.38,1.38,0,0,1,1.282-1.465,1.379,1.379,0,0,1,1.471,1.282Z" transform="translate(303.528 132.482)"/><path class="b" d="M-294.211-94.966a1.382,1.382,0,0,1-1.282,1.47,1.386,1.386,0,0,1-1.471-1.287,1.381,1.381,0,0,1,1.282-1.465,1.379,1.379,0,0,1,1.471,1.282Z" transform="translate(304.05 127.601)"/><path class="b" d="M-278.532-134.139a.772.772,0,0,1-.712.819.778.778,0,0,1-.825-.717.772.772,0,0,1,.718-.814.766.766,0,0,1,.819.713Z" transform="translate(298.5 140.28)"/><path class="b" d="M-265.274-137.4a.772.772,0,0,1-.713.819.778.778,0,0,1-.824-.718.772.772,0,0,1,.717-.814.766.766,0,0,1,.819.713Z" transform="translate(294.146 141.352)"/><path class="b" d="M-216.554-88.247a.772.772,0,0,1-.712.819.778.778,0,0,1-.825-.718.772.772,0,0,1,.718-.814.766.766,0,0,1,.819.713Z" transform="translate(278.143 125.206)"/><path class="b" d="M-216.463-101.14a.771.771,0,0,1-.712.819.777.777,0,0,1-.825-.717.771.771,0,0,1,.717-.814.765.765,0,0,1,.819.713Z" transform="translate(278.114 129.441)"/><path class="b" d="M-219.448-114.413a.772.772,0,0,1-.712.819.778.778,0,0,1-.825-.717.771.771,0,0,1,.718-.814.764.764,0,0,1,.819.712Z" transform="translate(279.094 133.801)"/><path class="b" d="M-298.138-114.413a.772.772,0,0,1-.713.819.777.777,0,0,1-.824-.717.771.771,0,0,1,.717-.814.765.765,0,0,1,.819.712Z" transform="translate(304.94 133.801)"/><path class="b" d="M-301.4-101.33a.772.772,0,0,1-.712.819.777.777,0,0,1-.824-.717.771.771,0,0,1,.717-.814.765.765,0,0,1,.819.712Z" transform="translate(306.013 129.503)"/><path class="b" d="M-301.312-88.247a.772.772,0,0,1-.712.819.777.777,0,0,1-.824-.718.771.771,0,0,1,.717-.814.766.766,0,0,1,.819.713Z" transform="translate(305.983 125.206)"/><path class="b" d="M-252.213-137.313a.772.772,0,0,1-.713.819.777.777,0,0,1-.824-.717.771.771,0,0,1,.717-.814.766.766,0,0,1,.819.712Z" transform="translate(289.856 141.323)"/><path class="b" d="M-239.425-134.321a.771.771,0,0,1-.713.818.777.777,0,0,1-.824-.717.771.771,0,0,1,.717-.814.766.766,0,0,1,.819.713Z" transform="translate(285.655 140.34)"/><path class="b" d="M-247.874-86.211a3.5,3.5,0,0,1-3.251,3.719,3.494,3.494,0,0,1-3.719-3.251,3.5,3.5,0,0,1,3.251-3.718,3.5,3.5,0,0,1,3.719,3.25Z" transform="translate(290.218 125.373)"/><path class="b" d="M-257.691-75.942a3,3,0,0,1-2.793,3.2,3.009,3.009,0,0,1-3.2-2.793,3.012,3.012,0,0,1,2.8-3.2,3,3,0,0,1,3.194,2.793Z" transform="translate(293.121 121.85)"/><path class="b" d="M-258.51-59.032a1.406,1.406,0,0,1-1.308,1.5,1.413,1.413,0,0,1-1.5-1.307,1.412,1.412,0,0,1,1.312-1.5,1.406,1.406,0,0,1,1.5,1.308Z" transform="translate(292.343 115.806)"/><path class="b" d="M-250.115-67.564a2.058,2.058,0,0,1-1.913,2.187,2.063,2.063,0,0,1-2.193-1.913,2.065,2.065,0,0,1,1.918-2.187,2.058,2.058,0,0,1,2.188,1.913Z" transform="translate(290.012 118.808)"/><path class="b" d="M-244.135-60.5a1.336,1.336,0,0,1-1.242,1.419,1.332,1.332,0,0,1-1.419-1.241,1.339,1.339,0,0,1,1.241-1.42,1.337,1.337,0,0,1,1.42,1.242Z" transform="translate(287.572 116.267)"/><path class="b" d="M-239.628-55.188a.688.688,0,0,1-.636.728.683.683,0,0,1-.727-.636.686.686,0,0,1,.635-.727.683.683,0,0,1,.728.635Z" transform="translate(285.666 114.323)"/><path class="b" d="M-252.31-52.294a.687.687,0,0,1-.636.728.683.683,0,0,1-.727-.636.686.686,0,0,1,.636-.727.683.683,0,0,1,.727.635Z" transform="translate(289.831 113.372)"/><path class="b" d="M-265.636-52.188a.683.683,0,0,1-.636.728A.684.684,0,0,1-267-52.1a.686.686,0,0,1,.636-.727.68.68,0,0,1,.727.635Z" transform="translate(294.208 113.337)"/><path class="b" d="M-278.539-55.3a.683.683,0,0,1-.636.727.683.683,0,0,1-.727-.636.686.686,0,0,1,.636-.727.679.679,0,0,1,.727.636Z" transform="translate(298.446 114.36)"/><path class="b" d="M-273.159-60.5a1.336,1.336,0,0,1-1.241,1.419,1.332,1.332,0,0,1-1.419-1.241,1.339,1.339,0,0,1,1.241-1.42,1.336,1.336,0,0,1,1.419,1.242Z" transform="translate(297.105 116.267)"/><path class="b" d="M-266.625-67.376a1.918,1.918,0,0,1-1.776,2.035,1.917,1.917,0,0,1-2.04-1.78,1.911,1.911,0,0,1,1.781-2.03,1.909,1.909,0,0,1,2.035,1.776Z" transform="translate(295.339 118.701)"/><path class="b" d="M-239.963-77.968a2.856,2.856,0,0,1-2.645,3.032,2.856,2.856,0,0,1-3.038-2.651A2.852,2.852,0,0,1-243-80.613a2.847,2.847,0,0,1,3.032,2.645Z" transform="translate(287.196 122.467)"/><path class="b" d="M-233.856-71.1a2.159,2.159,0,0,1-2,2.294,2.161,2.161,0,0,1-2.3-2,2.167,2.167,0,0,1,2.009-2.295,2.154,2.154,0,0,1,2.295,2Z" transform="translate(284.736 120)"/><path class="b" d="M-229.254-65.6a1.3,1.3,0,0,1-1.2,1.378,1.3,1.3,0,0,1-1.379-1.205,1.291,1.291,0,0,1,1.2-1.373,1.293,1.293,0,0,1,1.379,1.2Z" transform="translate(282.658 117.929)"/><path class="b" d="M-226.065-61.732a.52.52,0,0,1-.478.549.522.522,0,0,1-.554-.484.52.52,0,0,1,.483-.545.514.514,0,0,1,.549.479Z" transform="translate(281.101 116.42)"/><path class="b" d="M-219.724-74.959a.52.52,0,0,1-.478.549.522.522,0,0,1-.555-.484.519.519,0,0,1,.483-.544.513.513,0,0,1,.549.478Z" transform="translate(279.019 120.765)"/><path class="b" d="M-224.171-80.333a1.287,1.287,0,0,1-1.2,1.369,1.286,1.286,0,0,1-1.369-1.2,1.287,1.287,0,0,1,1.2-1.369,1.287,1.287,0,0,1,1.368,1.2Z" transform="translate(280.984 122.766)"/><path class="b" d="M-230.63-87.231a1.894,1.894,0,0,1-1.76,2.015,1.9,1.9,0,0,1-2.02-1.76,1.9,1.9,0,0,1,1.766-2.015,1.894,1.894,0,0,1,2.015,1.76Z" transform="translate(283.505 125.218)"/><path class="b" d="M-238.294-95.4a2.473,2.473,0,0,1-2.3,2.63,2.479,2.479,0,0,1-2.635-2.3,2.481,2.481,0,0,1,2.3-2.63,2.475,2.475,0,0,1,2.63,2.3Z" transform="translate(286.402 128.08)"/><path class="b" d="M-270.778-109.376a3.5,3.5,0,0,0-3.663,3.311,3.5,3.5,0,0,0,3.317,3.668,3.5,3.5,0,0,0,3.658-3.317,3.5,3.5,0,0,0-3.312-3.663Z" transform="translate(296.653 131.913)"/><path class="b" d="M-278.515-116.52a2.859,2.859,0,0,0-2.986,2.7,2.859,2.859,0,0,0,2.7,2.986,2.858,2.858,0,0,0,2.986-2.7,2.855,2.855,0,0,0-2.7-2.986Z" transform="translate(298.972 134.259)"/><path class="b" d="M-284.9-122.3a2.206,2.206,0,0,0-2.3,2.086,2.2,2.2,0,0,0,2.086,2.309,2.208,2.208,0,0,0,2.3-2.091,2.2,2.2,0,0,0-2.086-2.3Z" transform="translate(300.845 136.157)"/><path class="b" d="M-289.541-126.042a1.3,1.3,0,0,0-1.354,1.226,1.3,1.3,0,0,0,1.226,1.359,1.3,1.3,0,0,0,1.353-1.231,1.3,1.3,0,0,0-1.226-1.354Z" transform="translate(302.056 137.386)"/><path class="b" d="M-292.483-128.2a.52.52,0,0,0-.539.489.517.517,0,0,0,.488.544.52.52,0,0,0,.539-.493.514.514,0,0,0-.488-.54Z" transform="translate(302.755 138.095)"/><path class="b" d="M-280.16-92.778a2.965,2.965,0,0,1-3.169-2.742,2.969,2.969,0,0,1,2.742-3.169,2.975,2.975,0,0,1,3.17,2.742,2.969,2.969,0,0,1-2.742,3.169Z" transform="translate(299.573 128.404)"/><path class="b" d="M-288.133-85.082a2.105,2.105,0,0,1-2.248-1.943,2.107,2.107,0,0,1,1.948-2.254,2.108,2.108,0,0,1,2.244,1.949,2.1,2.1,0,0,1-1.943,2.248Z" transform="translate(301.889 125.313)"/><path class="b" d="M-294.17-78.808a1.468,1.468,0,0,1-1.567-1.353,1.469,1.469,0,0,1,1.359-1.571,1.469,1.469,0,0,1,1.562,1.358,1.464,1.464,0,0,1-1.353,1.567Z" transform="translate(303.648 122.833)"/><path class="b" d="M-298.96-74.392a.663.663,0,0,1-.707-.61.665.665,0,0,1,.615-.707.662.662,0,0,1,.7.61.661.661,0,0,1-.61.707Z" transform="translate(304.938 120.854)"/></g><g transform="translate(56.217 102.331)"><path class="c" d="M-359.114-20.172l-8.038-15.555h-8.7v24.348h7.187v-15.98l8.652,15.98h7.99V-35.726h-7l-.095,15.555Z" transform="translate(375.851 36.666)"/><path class="c" d="M-160.013-20.172l-8.038-15.555h-8.7v24.348h7.187v-15.98l8.652,15.98h7.991V-35.726h-7l-.095,15.555Z" transform="translate(314.981 36.666)"/><path class="c" d="M-314.7-35.763h-20.283v24.4h20.472V-16.19h-12.955v-4.823h12.056v-4.964h-12.056V-31.13H-314.7v-4.633Z" transform="translate(363.356 36.677)"/><path class="c" d="M-297.845-11.348h7.9l3.168-16.736,3.735,16.736h7.565l5.579-24.4h-6.95l-2.884,17.871-3.877-17.871h-6.241L-293.4-17.873l-2.931-17.871h-7.328l5.816,24.4Z" transform="translate(353.781 36.671)"/><path class="c" d="M-238.78-20.8h4.044c-.292,5.059-2.972,5.059-4.287,5.342-3.8,0-5.749-1.749-5.749-8.321,0-6.287.877-8.794,4.872-8.794,3.361,0,4.189,3.074,4.531,4.018h7.7c-.2-3.64-2.533-8.746-11.741-8.51-9.5-.331-13.2,5.862-13.2,13.191.1,9.6,5.894,12.765,12.374,12.765,5.748,0,6.382-1.229,8.379-3.073l.536,2.411h3.751V-24.916h-11.2V-20.8Z" transform="translate(338.175 37.079)"/><path class="c" d="M-190.72-35.763H-211v24.4h20.472V-16.19h-12.955v-4.823h12.057v-4.964h-12.057V-31.13h12.766v-4.633Z" transform="translate(325.453 36.677)"/></g></g></svg>