<svg xmlns="http://www.w3.org/2000/svg" width="100.502" height="93.882" viewBox="0 0 100.502 93.882"><defs><style>.a{fill:#f4985b;}.b{opacity:0.1;}.c{fill:#263238;}.d{fill:#c7c7c7;}.e{fill:#ffc727;}.f{fill:#dbdbdb;}.g,.h,.i{fill:#fff;}.g{opacity:0.6;}.h{opacity:0.4;}.j{fill:#da8751;}</style></defs><g transform="translate(-355.41 -149.553)"><rect class="a" width="93.206" height="60.262" transform="translate(355.41 183.173)"/><path class="a" d="M542.189,246.13h29.372v6.242H540.5Z" transform="translate(-122.945 -69.198)"/><g class="b" transform="translate(355.41 176.931)"><rect width="93.206" height="60.262" transform="translate(0 6.242)"/><path d="M542.189,246.13h29.372v6.242H540.5Z" transform="translate(-478.354 -246.13)"/></g><path class="c" d="M416.65,164.756a5.974,5.974,0,0,1,1.477-.168,5.708,5.708,0,0,1,1.481.168,5.993,5.993,0,0,1-1.477.168A5.863,5.863,0,0,1,416.65,164.756Z" transform="translate(-40.678 -15.034)"/><path class="c" d="M414.06,174.08a5.841,5.841,0,0,1,1.367.591,5.949,5.949,0,0,1,1.2.886,6.642,6.642,0,0,1-2.565-1.477Z" transform="translate(-38.958 -21.34)"/><path class="c" d="M407.33,180.56a5.984,5.984,0,0,1,.886,1.2,5.826,5.826,0,0,1,.594,1.363A6.55,6.55,0,0,1,407.33,180.56Z" transform="translate(-34.487 -25.644)"/><path class="d" d="M452.68,266.857l23.678-.057,23.678.057-23.678.06Z" transform="translate(-64.611 -82.928)"/><path class="d" d="M452.68,272.61l23.678-.06,23.678.06-23.678.057Z" transform="translate(-64.611 -86.748)"/><path class="d" d="M452.68,278.36l23.678-.06,23.678.06-23.678.057Z" transform="translate(-64.611 -90.567)"/><path class="d" d="M452.68,284.11l23.678-.06,23.678.06-23.678.06Z" transform="translate(-64.611 -94.387)"/><path class="d" d="M452.68,289.86l23.678-.06,23.678.06-23.678.06Z" transform="translate(-64.611 -98.206)"/><path class="d" d="M452.68,295.61l23.678-.06,23.678.06-23.678.06Z" transform="translate(-64.611 -102.025)"/><path class="d" d="M452.68,301.367l23.678-.057,23.678.057-23.678.06Z" transform="translate(-64.611 -105.851)"/><path class="d" d="M452.68,307.117l23.678-.057,23.678.057-23.678.06Z" transform="translate(-64.611 -109.671)"/><rect class="e" width="3.593" height="8.105" transform="translate(393.075 191.594)"/><rect class="e" width="3.593" height="12.426" transform="translate(399.737 187.273)"/><rect class="e" width="3.593" height="17.268" transform="translate(406.398 182.431)"/><rect class="e" width="3.593" height="19.346" transform="translate(413.063 180.353)"/><rect class="e" width="3.593" height="23.05" transform="translate(419.724 176.649)"/><rect class="e" width="3.593" height="26.71" transform="translate(426.386 172.99)"/><path class="d" d="M456.062,222.68l.094,7.659.064,7.662c.044,5.107.057,10.214.067,15.321l-.225-.222h11.52l11.517.027,11.52.074,11.516.131-11.516.131-11.52.074-11.517.027H455.84v-.222q0-7.66.064-15.321l.067-7.662Z" transform="translate(-66.71 -53.622)"/><rect class="d" width="3.593" height="0.326" transform="translate(393.075 201.318)"/><rect class="d" width="3.593" height="0.326" transform="translate(399.737 201.318)"/><rect class="d" width="3.593" height="0.326" transform="translate(406.398 201.318)"/><rect class="d" width="3.593" height="0.326" transform="translate(413.063 201.318)"/><rect class="d" width="3.593" height="0.326" transform="translate(419.724 201.318)"/><rect class="d" width="3.593" height="0.326" transform="translate(426.386 201.318)"/><path class="c" d="M468.787,255.46a43.45,43.45,0,0,0,5.245-.4,51.551,51.551,0,0,0,5.167-.93,44.707,44.707,0,0,0,9.868-3.475,35.112,35.112,0,0,0,8.619-5.872l.487-.44.46-.467.917-.937c.564-.672,1.172-1.3,1.679-2.015a35.723,35.723,0,0,0,2.941-4.365h.03a31.33,31.33,0,0,1-6.242,8.485,30.891,30.891,0,0,1-4.1,3.358,35.02,35.02,0,0,1-4.57,2.686,44.656,44.656,0,0,1-20.5,4.365Z" transform="translate(-75.305 -62.842)"/><path class="c" d="M569.976,238.155l-.5.124-.611-2.451-2.4.789-.158-.487,2.921-.96Z" transform="translate(-140.089 -61.918)"/><rect class="f" width="49.383" height="1.998" transform="translate(436.438 213.747) rotate(180)"/><rect class="f" width="27.801" height="1.998" transform="translate(414.859 218.79) rotate(180)"/><rect class="f" width="27.801" height="1.998" transform="translate(425.647 164.378) rotate(180)"/><path class="e" d="M459.211,242.535l-60.621-.03.04-77.815,45.008.023,15.6,14.834Z" transform="translate(-28.682 -15.103)"/><path class="g" d="M459.211,242.535l-60.621-.03.04-77.815,45.008.023,15.6,14.834Z" transform="translate(-28.682 -15.103)"/><path class="e" d="M532.747,164.76l15.6,14.834-15.609-.007Z" transform="translate(-117.79 -15.149)"/><path class="h" d="M532.747,164.76l15.6,14.834-15.609-.007Z" transform="translate(-117.79 -15.149)"/><rect class="i" width="33.703" height="1.998" transform="translate(409.524 164.733) rotate(180)"/><rect class="i" width="33.703" height="1.998" transform="translate(409.559 169.704) rotate(-179.97)"/><rect class="i" width="33.703" height="1.998" transform="translate(409.551 174.747) rotate(-179.97)"/><rect class="i" width="49.383" height="1.998" transform="translate(425.227 179.797) rotate(-179.97)"/><rect class="i" width="49.383" height="1.998" transform="translate(425.227 184.843) rotate(-179.97)"/><rect class="i" width="49.383" height="1.998" transform="translate(425.226 189.886) rotate(-179.97)"/><rect class="i" width="49.383" height="1.998" transform="translate(425.222 194.929) rotate(-179.97)"/><rect class="i" width="49.383" height="1.998" transform="translate(425.218 199.972) rotate(-179.97)"/><rect class="i" width="49.383" height="1.998" transform="translate(425.217 205.019) rotate(-179.97)"/><rect class="i" width="49.383" height="1.998" transform="translate(425.216 210.062) rotate(-179.97)"/><rect class="i" width="49.383" height="1.998" transform="translate(425.212 215.102) rotate(-179.97)"/><rect class="i" width="49.383" height="1.998" transform="translate(425.208 220.145) rotate(-179.97)"/><path class="a" d="M356.06,334.872h93.206l6.413-55.262H362.473Z" transform="translate(-0.432 -91.437)"/><path class="j" d="M562.6,262.56h29.375l-.665,5.725H560.25Z" transform="translate(-136.063 -80.112)"/></g></svg>