<?xml version="1.0" encoding="utf-8"?>
<!-- Generator: Adobe Illustrator 26.0.3, SVG Export Plug-In . SVG Version: 6.00 Build 0)  -->
<svg version="1.1" id="Layer_1" xmlns="http://www.w3.org/2000/svg" xmlns:xlink="http://www.w3.org/1999/xlink" x="0px" y="0px"
	 viewBox="0 0 106 95.4" style="enable-background:new 0 0 106 95.4;" xml:space="preserve">
<path style="fill:#F2F1EF;" d="M100.6235,38.9703C101.697,61.149,79.0617,73.1324,59.3168,79.826
	c-19.0881,6.471-42.0075,8.7699-53.7216-8.6407c-11.6384-17.2974-3.4966-40.8927,9.5826-56.9631
	c9.9313-12.2024,26.15-9.0791,40.7308-4.8562C74.6039,14.7811,99.6201,18.2291,100.6235,38.9703"/>
<path style="fill:#C8C8C8;" d="M87.7807,5.4031c0-0.8195,0.663-1.4838,1.4808-1.4838c0.8179,0,1.4808,0.6643,1.4808,1.4838
	c0,0.8195-0.663,1.4838-1.4808,1.4838C88.4437,6.8869,87.7807,6.2226,87.7807,5.4031z M89.6348,14.1315
	c0,0.4094,0.3318,0.7412,0.7411,0.7412c0.4094,0,0.7412-0.3318,0.7412-0.7412s-0.3318-0.7412-0.7412-0.7412
	C89.9667,13.3903,89.6348,13.7221,89.6348,14.1315z M6.2728,9.1892V8.5736h0.6154v-0.52H6.2728V7.4375H5.7552v0.6161H5.1398v0.52
	h0.6154v0.6156H6.2728z M13.9223-0.2181c-0.4094,0-0.7412,0.3318-0.7412,0.7412s0.3318,0.7412,0.7412,0.7412
	s0.7412-0.3318,0.7412-0.7412S14.3317-0.2181,13.9223-0.2181z M6.65,18.6554c-0.4094,0-0.7412,0.3318-0.7412,0.7412
	s0.3318,0.7412,0.7412,0.7412c0.4093,0,0.7411-0.3318,0.7411-0.7412S7.0593,18.6554,6.65,18.6554z M90.752,68.0498v-1.2637h-0.9766
	v1.2637h-1.2598v0.9766h1.2598V70.29h0.9766v-1.2637h1.2598v-0.9766H90.752z M48.697,92.6512c-0.8179,0-1.4808,0.6643-1.4808,1.4838
	c0,0.8195,0.663,1.4838,1.4808,1.4838c0.8178,0,1.4808-0.6643,1.4808-1.4838C50.1778,93.3155,49.5148,92.6512,48.697,92.6512z
	 M88.5155,84.6241c-0.8178,0-1.4808,0.6643-1.4808,1.4838c0,0.8195,0.663,1.4838,1.4808,1.4838s1.4808-0.6643,1.4808-1.4838
	C89.9963,85.2884,89.3333,84.6241,88.5155,84.6241z M33.8434,90.8247c-0.4094,0-0.7412,0.3318-0.7412,0.7412
	s0.3318,0.7412,0.7412,0.7412s0.7412-0.3318,0.7412-0.7412S34.2527,90.8247,33.8434,90.8247z M6.65,77.3808
	c-0.4094,0-0.7412,0.3318-0.7412,0.7412s0.3318,0.7412,0.7412,0.7412c0.4093,0,0.7411-0.3318,0.7411-0.7412
	S7.0593,77.3808,6.65,77.3808z"/>
<path id="XMLID_00000088134161800812803000000005804722925673572748_" style="fill:#D3D3D3;" d="M64.7472,12.7271H26.2333
	c-1.2147,0-2.1994,0.9867-2.1994,2.2039v61.7081c0,1.2172,0.9847,2.2039,2.1994,2.2039h52.7861
	c1.2147,0,2.1994-0.9867,2.1994-2.2039V33.318c0-0.4901-0.163-0.9662-0.4633-1.353L66.4833,13.5779
	C66.0666,13.0411,65.4259,12.7271,64.7472,12.7271z"/>
<path style="fill:#FFFFFF;" d="M62.4356,10.3217H25.2805c-1.7186,0-3.1119,1.3961-3.1119,3.1182v59.8795
	c0,1.7221,1.3932,3.1182,3.1119,3.1182h50.9612c1.7186,0,3.1119-1.396,3.1119-3.1182V31.2263c0-0.6934-0.2307-1.367-0.6555-1.9144
	L64.892,11.5255C64.3024,10.7659,63.3959,10.3217,62.4356,10.3217z"/>
<path style="fill:#A6A4A4;" d="M79.3536,30.9126c0-0.4-0.114-0.788-0.317-1.1284L64.4822,11.0337
	c-0.2941-0.3163-0.6647-0.5453-1.0793-0.6467v21.2948h15.9508L79.3536,30.9126L79.3536,30.9126z M40.054,31.0957h-5.9055
	c-1.2513,0-2.2656-1.0144-2.2656-2.2656v-5.9266c0-1.2513,1.0144-2.2656,2.2656-2.2656h5.9055c1.2513,0,2.2656,1.0144,2.2656,2.2656
	v5.9266C42.3197,30.0813,41.3053,31.0957,40.054,31.0957z M65.7531,44.5793H33.3294c-0.4292,0-0.7771-0.3479-0.7771-0.7771v-1.6763
	c0-0.4292,0.3479-0.7771,0.7771-0.7771h32.4237c0.4292,0,0.7771,0.3479,0.7771,0.7771v1.6763
	C66.5303,44.2314,66.1823,44.5793,65.7531,44.5793z M65.7531,51.5544H33.3294c-0.4292,0-0.7771-0.3479-0.7771-0.7771V49.101
	c0-0.4292,0.3479-0.7771,0.7771-0.7771h32.4237c0.4292,0,0.7771,0.3479,0.7771,0.7771v1.6763
	C66.5303,51.2064,66.1823,51.5544,65.7531,51.5544z M65.7531,58.5294H33.3294c-0.4292,0-0.7771-0.3479-0.7771-0.7771V56.076
	c0-0.4292,0.3479-0.7771,0.7771-0.7771h32.4237c0.4292,0,0.7771,0.3479,0.7771,0.7771v1.6763
	C66.5303,58.1815,66.1823,58.5294,65.7531,58.5294z"/>
</svg>
