<?xml version="1.0" encoding="utf-8"?>
<!-- Generator: Adobe Illustrator 27.1.1, SVG Export Plug-In . SVG Version: 6.00 Build 0)  -->
<svg version="1.1" id="Layer_1" xmlns="http://www.w3.org/2000/svg" xmlns:xlink="http://www.w3.org/1999/xlink" x="0px" y="0px"
	 viewBox="0 0 160 160" enable-background="new 0 0 160 160" xml:space="preserve">
<g id="BG">
	<g>
		<rect y="4.2105" fill="none" width="160" height="151.5789"/>
	</g>
	<g id="Path_55482_00000069386759575431834740000002826128668003581345_">
		<path fill="#F2F1EF" d="M147.941,71.1832c1.5478,31.5528-31.0922,48.6013-59.5638,58.1238
			c-27.5251,9.2059-60.5752,12.4766-77.4661-12.2947C-5.872,92.4059,5.8686,58.8379,24.7284,35.9747
			c14.3208-17.3625,37.7086-12.9162,58.7343-6.9086c26.9583,7.7036,63.0316,12.6088,64.4792,42.1171"/>
	</g>
	<g id="Ellipse_3301_00000183215683942167567590000006730548733029465745_">
		<ellipse fill="#D3D3D3" cx="140.3891" cy="6.6552" rx="2.4716" ry="2.4429"/>
	</g>
	<g id="Ellipse_3302_00000178180650612051169290000015662696855484983458_">
		<ellipse fill="#D3D3D3" cx="142.2484" cy="21.0274" rx="1.2354" ry="1.2219"/>
	</g>
	<g id="Rectangle_15029_00000122714505175251785880000001747877770932629695_">
		<rect x="0.0017" y="11.0173" fill="#C2C1C0" width="2.9179" height="0.8615"/>
	</g>
	<g id="Ellipse_3303_00000132045955792818294780000000713579152610612108_">
		<ellipse fill="#D3D3D3" cx="17.6101" cy="16.7486" rx="1.2354" ry="1.2219"/>
	</g>
	<g id="Ellipse_3304_00000003103675587963853290000006927803822048700325_">
		<ellipse fill="#D3D3D3" cx="2.5213" cy="29.696" rx="1.2354" ry="1.2219"/>
	</g>
	<g id="Ellipse_3305_00000105404427329575472240000015487753797144166031_">
		<ellipse fill="#D3D3D3" cx="72.6939" cy="152.7512" rx="2.4716" ry="2.4429"/>
	</g>
	<g id="Ellipse_3306_00000163036450140541319270000003782950704726978719_">
		<ellipse fill="#D3D3D3" cx="47.9032" cy="148.5221" rx="1.2354" ry="1.2219"/>
	</g>
	<g id="Ellipse_3307_00000096039686841156737300000004324406085123495329_">
		<ellipse fill="#D3D3D3" cx="2.5213" cy="126.3865" rx="1.2354" ry="1.2219"/>
	</g>
	<g id="Rectangle_15031_00000028320632788401564600000009634452032249469616_">
		<rect x="146.2813" y="87.9169" fill="#B5B4B3" width="4.2408" height="0.8598"/>
	</g>
	<g id="Rectangle_15032_00000165940487901604069960000008730455609696694662_">
		<rect x="147.9722" y="86.2504" fill="#B5B4B3" width="0.8598" height="4.1912"/>
	</g>
</g>
<g id="Outline">
	<g>
		<rect fill="none" width="160" height="160"/>
	</g>
</g>
<g id="Phone">
	<g>
		<g id="Rectangle_15051_00000132082742033624198260000004781487950011502474_">
			<path fill="#FFFFFF" d="M38.0468,18.2208H79.547c6.8893,0,12.4742,5.5849,12.4742,12.4741v85.9207
				c0,6.8893-5.5849,12.4741-12.4742,12.4741H38.0468c-6.8893,0-12.4741-5.5849-12.4741-12.4741V30.6949
				C25.5726,23.8057,31.1575,18.2208,38.0468,18.2208z"/>
			<path fill="#D3D3D3" d="M79.5469,131.4902h-41.5c-8.2017,0-14.874-6.6729-14.874-14.875V30.6948
				c0-8.2017,6.6724-14.874,14.874-14.874h41.5c8.2021,0,14.875,6.6724,14.875,14.874v85.9204
				C94.4219,124.8174,87.749,131.4902,79.5469,131.4902z M38.0469,20.6206c-5.5547,0-10.0742,4.5195-10.0742,10.0742v85.9204
				c0,5.5547,4.5195,10.0742,10.0742,10.0742h41.5c5.5547,0,10.0742-4.5195,10.0742-10.0742V30.6948
				c0-5.5547-4.5195-10.0742-10.0742-10.0742H38.0469z"/>
		</g>
		<g id="Rectangle_15055_00000032614244756975034470000003512463378248703935_">
			<path fill="#D3D3D3" d="M48.3429,18.2208h20.9067V19.19c0.0034,2.2046-1.7809,3.9945-3.9855,3.998c-0.0042,0-0.0083,0-0.0125,0
				H52.3409c-2.2046,0.0034-3.9945-1.7809-3.998-3.9855c0-0.0042,0-0.0083,0-0.0125V18.2208z"/>
		</g>
	</g>
	<g id="Path_54244_00000003084530977550815120000003389542768090503335_">
		<path fill="#D3D3D3" d="M78.1886,55.6059H62.256c-0.9507,0-1.7213-0.7706-1.7213-1.7213v-4.2105
			c0-0.9507,0.7706-1.7213,1.7213-1.7213h15.9326c0.9507,0,1.7213,0.7706,1.7213,1.7213l0,0v4.2105
			C79.9099,54.8353,79.1393,55.6059,78.1886,55.6059z"/>
	</g>
	<g id="Path_54245_00000181062196983024015530000009806918944483187350_">
		<path fill="#D3D3D3" d="M74.0787,45.3979H62.256c-0.9506,0-1.7213-0.7706-1.7213-1.7213c0-0.0014,0-0.0028,0-0.0042V41.696
			c0-0.9507,0.7706-1.7213,1.7213-1.7213h11.8227c0.9507,0,1.7213,0.7706,1.7213,1.7213v1.9764
			c0.0024,0.9506-0.7664,1.7231-1.717,1.7255C74.0815,45.3979,74.0802,45.3979,74.0787,45.3979z"/>
	</g>
	<g id="Ellipse_3298_00000141428867644453764780000007039501817855195069_">
		<ellipse fill="#D3D3D3" cx="44.6227" cy="47.7112" rx="7.4215" ry="7.3373"/>
	</g>
	<g id="Path_54244_00000041277290280636771650000013552683007501659821_">
		<path fill="#F2F1EF" d="M78.1886,79.9323H62.256c-0.9507,0-1.7213-0.7706-1.7213-1.7213v-4.2105
			c0-0.9507,0.7706-1.7213,1.7213-1.7213h15.9326c0.9507,0,1.7213,0.7706,1.7213,1.7213l0,0v4.2105
			C79.9099,79.1617,79.1393,79.9323,78.1886,79.9323z"/>
	</g>
	<g id="Path_54245_00000033337572873728236880000004807403860133995706_">
		<path fill="#F2F1EF" d="M74.0787,69.7243H62.256c-0.9506,0-1.7213-0.7706-1.7213-1.7213c0-0.0014,0-0.0028,0-0.0042v-1.9764
			c0-0.9507,0.7706-1.7213,1.7213-1.7213h11.8227c0.9507,0,1.7213,0.7706,1.7213,1.7213v1.9764
			c0.0024,0.9506-0.7664,1.7231-1.717,1.7255C74.0815,69.7243,74.0802,69.7243,74.0787,69.7243z"/>
	</g>
	<g id="Ellipse_3298_00000132775609933647222550000012878705681687792281_">
		<ellipse fill="#F2F1EF" cx="44.6227" cy="72.0376" rx="7.4215" ry="7.3373"/>
	</g>
	<g id="Path_54244_00000151539623509208405140000016454017375550967989_">
		<path fill="#F2F1EF" d="M78.1886,108.0025H62.256c-0.9507,0-1.7213-0.7706-1.7213-1.7213v-4.2105
			c0-0.9506,0.7706-1.7213,1.7213-1.7213h15.9326c0.9507,0,1.7213,0.7706,1.7213,1.7213l0,0v4.2105
			C79.9099,107.2319,79.1393,108.0025,78.1886,108.0025z"/>
	</g>
	<g id="Path_54245_00000111163904739703620280000008445547631008570281_">
		<path fill="#F2F1EF" d="M74.0787,97.7945H62.256c-0.9506,0-1.7213-0.7706-1.7213-1.7213c0-0.0014,0-0.0028,0-0.0042v-1.9764
			c0-0.9507,0.7706-1.7213,1.7213-1.7213h11.8227c0.9507,0,1.7213,0.7706,1.7213,1.7213v1.9764
			c0.0024,0.9507-0.7664,1.7231-1.717,1.7255C74.0815,97.7945,74.0802,97.7945,74.0787,97.7945z"/>
	</g>
	<g id="Ellipse_3298_00000086652908259815800420000018218155599932144287_">
		<ellipse fill="#F2F1EF" cx="44.6227" cy="100.1078" rx="7.4215" ry="7.3373"/>
	</g>
</g>
<g id="Not_Final" display="none">
</g>
<g id="Action">
	<g>
		<circle fill="#FFFFFF" cx="125" cy="125" r="32.5"/>
		<path fill="#B5B4B3" d="M125,160c-19.2988,0-35-15.7012-35-35s15.7012-35,35-35s35,15.7012,35,35S144.2988,160,125,160z M125,95
			c-16.542,0-30,13.458-30,30s13.458,30,30,30s30-13.458,30-30S141.542,95,125,95z"/>
	</g>
	<g>
		<rect x="105.3418" y="122.7871" fill="#B5B4B3" width="39.5264" height="6"/>
	</g>
	<g>
		<rect x="122.1055" y="106.0244" fill="#B5B4B3" width="6" height="39.5264"/>
	</g>
</g>
<g id="Rough" display="none">
	<path id="Path_55482_00000047743210831654764040000005301998536757951368_" display="inline" fill="#F2F1EF" d="M148.4374,147.0997
		c1.4354,29.2578-28.8304,45.066-55.2315,53.8961c-25.5229,8.5364-56.1686,11.5691-71.8316-11.3986
		c-15.5618-22.8184-4.6754-53.9449,12.813-75.1448c13.2792-16.0972,34.9653-11.9771,54.4615-6.4062
		C113.6463,115.1897,147.0957,119.7382,148.4374,147.0997"/>
	<ellipse display="inline" fill="#D3D3D3" cx="141.4348" cy="87.2654" rx="2.2916" ry="2.2654"/>
	<ellipse display="inline" fill="#D3D3D3" cx="143.1593" cy="100.5912" rx="1.1457" ry="1.1327"/>
	
		<line display="inline" fill="none" stroke="#C2C1C0" stroke-width="1.4308" stroke-miterlimit="10" x1="13.9643" y1="91.7089" x2="11.2589" y2="91.7089"/>
	
		<line display="inline" fill="none" stroke="#C2C1C0" stroke-width="1.4308" stroke-miterlimit="10" x1="12.6116" y1="90.3717" x2="12.6116" y2="93.0462"/>
	<ellipse display="inline" fill="#D3D3D3" cx="27.5863" cy="96.6241" rx="1.1457" ry="1.1327"/>
	<ellipse display="inline" fill="#D3D3D3" cx="13.5959" cy="108.6296" rx="1.1457" ry="1.1327"/>
	<g display="inline">
		
			<path id="Rectangle_15051_00000124162671121029728680000016403796300991185069_" fill="#FFFFFF" stroke="#D3D3D3" stroke-width="4.2" stroke-miterlimit="10" d="
			M58.998,96.1017h44.0933c7.3198,0,13.2536,5.9338,13.2536,13.2536v91.2894c0,7.3197-5.9338,13.2536-13.2536,13.2536H58.998
			c-7.3198,0-13.2536-5.9338-13.2536-13.2536v-91.2894C45.7445,102.0356,51.6783,96.1017,58.998,96.1017z"/>
		<path id="Rectangle_15055_00000150787297981252329750000015900070475186412728_" fill="#D3D3D3" d="M69.9376,96.1017h22.213
			v1.0298c0.0037,2.3423-1.8922,4.2441-4.2345,4.2478c-0.0044,0-0.0088,0-0.0133,0H74.1853
			c-2.3423,0.0037-4.2441-1.8922-4.2478-4.2345c0-0.0044,0-0.0089,0-0.0133L69.9376,96.1017L69.9376,96.1017z"/>
	</g>
	<g display="inline">
		
			<path fill="none" stroke="#B4B4B2" stroke-width="4.2" stroke-linecap="round" stroke-linejoin="round" stroke-miterlimit="10" d="
			M59.7057,150.8401c5.453-5.4736,12.9986-8.8539,21.339-8.8539c8.3302,0,15.8758,3.3803,21.339,8.8435"/>
		
			<path fill="none" stroke="#B4B4B2" stroke-width="4.2" stroke-linecap="round" stroke-linejoin="round" stroke-miterlimit="10" d="
			M66.8186,157.9529c3.6323-3.6519,8.6627-5.9059,14.2261-5.9059c5.5536,0,10.584,2.2538,14.2261,5.8955"/>
		
			<path fill="#B4B4B2" stroke="#B4B4B2" stroke-width="4.2" stroke-linecap="round" stroke-linejoin="round" stroke-miterlimit="10" d="
			M85.743,163.8991l-4.6983,4.6983l-4.6983-4.6983c1.1972-1.2075,2.8675-1.9518,4.6983-1.9518
			C82.8756,161.9473,84.5459,162.6915,85.743,163.8991z"/>
		<g>
			
				<line fill="none" stroke="#FFFFFF" stroke-width="9.8" stroke-linecap="round" stroke-linejoin="round" stroke-miterlimit="10" x1="67.2584" y1="138.57" x2="94.8311" y2="171.43"/>
			
				<line fill="none" stroke="#B4B4B2" stroke-width="4.2" stroke-linecap="round" stroke-linejoin="round" stroke-miterlimit="10" x1="67.2584" y1="138.57" x2="94.8311" y2="171.43"/>
		</g>
	</g>
</g>
</svg>
