<?xml version="1.0" encoding="utf-8"?>
<!-- Generator: Adobe Illustrator 27.1.1, SVG Export Plug-In . SVG Version: 6.00 Build 0)  -->
<svg version="1.1" id="Layer_1" xmlns="http://www.w3.org/2000/svg" xmlns:xlink="http://www.w3.org/1999/xlink" x="0px" y="0px"
	 viewBox="0 0 160 160" enable-background="new 0 0 160 160" xml:space="preserve">
<g id="BG">
	<g id="Path_54264_00000165203213438208189810000015427816885605412496_">
		<path fill="#F2F1EF" d="M159.9416,66.2556c1.7062,34.4344-34.2722,53.0385-65.6567,63.4319
			c-30.3368,10.0481-66.7718,13.615-85.3914-13.4156C-9.6053,89.4164,3.3356,52.783,24.1249,27.8331
			c15.7863-18.9458,41.5656-14.0983,64.7419-7.5393c29.7163,8.4075,69.479,13.7608,71.0748,45.9626"/>
	</g>
	<g id="Rectangle_15038_00000003100732536505833290000004204744142121019301_">
		<rect x="150.9066" y="132.7123" fill="#B4B4B2" width="4.0389" height="0.8156"/>
	</g>
	<g id="Rectangle_15039_00000116953580370182829580000005671195518898537122_">
		<rect x="152.5187" y="131.1425" fill="#B4B4B2" width="0.8156" height="3.9526"/>
	</g>
	<g id="Ellipse_3326_00000059992700386833374320000006674526601502041021_">
		<ellipse fill="#C8C8C8" cx="143.6728" cy="11.119" rx="2.3535" ry="2.3034"/>
	</g>
	<g id="Ellipse_3327_00000174585353186640657960000006733880873371192745_">
		<ellipse fill="#C8C8C8" cx="145.4446" cy="24.671" rx="1.1772" ry="1.1521"/>
	</g>
	<g id="Rectangle_15040_00000132084860484082100040000016243568905603152821_">
		<rect x="9.9601" y="15.2305" fill="#B4B4B2" width="2.7789" height="0.8156"/>
	</g>
	<g id="Rectangle_15041_00000160890748488104767840000009037359004120311426_">
		<rect x="10.9431" y="14.2777" fill="#B4B4B2" width="0.8156" height="2.7202"/>
	</g>
	<g id="Ellipse_3328_00000151509759271852993260000003376210342441589688_">
		<ellipse fill="#C8C8C8" cx="19.1591" cy="21.7885" rx="1.1772" ry="1.1521"/>
	</g>
	<g id="Ellipse_3329_00000081608691628635025040000012129166234671239575_">
		<ellipse fill="#C8C8C8" cx="12.3611" cy="32.8455" rx="1.1772" ry="1.1521"/>
	</g>
	<g id="Ellipse_3330_00000013163250213250974320000016400697316977912201_">
		<ellipse fill="#C8C8C8" cx="79.1958" cy="148.881" rx="2.3535" ry="2.3034"/>
	</g>
	<g id="Ellipse_3331_00000080888398261006561900000015949924167251609270_">
		<ellipse fill="#C8C8C8" cx="55.5862" cy="144.893" rx="1.1772" ry="1.1521"/>
	</g>
	<g id="Ellipse_3332_00000072262389881776856120000000264688003367603081_">
		<ellipse fill="#C8C8C8" cx="12.3611" cy="124.02" rx="1.1772" ry="1.1521"/>
	</g>
</g>
<g id="Outline">
	<g>
		<rect fill="none" width="160" height="160"/>
	</g>
</g>
<g id="Phone">
	<g>
		<g id="Rectangle_15051_00000044165266830644965910000014675275165067726224_">
			<path fill="#FFFFFF" d="M38.0468,18.2208H79.547c6.8893,0,12.4742,5.5849,12.4742,12.4741v85.9207
				c0,6.8893-5.5849,12.4741-12.4742,12.4741H38.0468c-6.8893,0-12.4741-5.5849-12.4741-12.4741V30.6949
				C25.5726,23.8057,31.1575,18.2208,38.0468,18.2208z"/>
			<path fill="#D3D3D3" d="M79.5469,131.4902h-41.5c-8.2017,0-14.874-6.6729-14.874-14.875V30.6948
				c0-8.2017,6.6724-14.874,14.874-14.874h41.5c8.2021,0,14.875,6.6724,14.875,14.874v85.9204
				C94.4219,124.8174,87.749,131.4902,79.5469,131.4902z M38.0469,20.6206c-5.5547,0-10.0742,4.5195-10.0742,10.0742v85.9204
				c0,5.5547,4.5195,10.0742,10.0742,10.0742h41.5c5.5547,0,10.0742-4.5195,10.0742-10.0742V30.6948
				c0-5.5547-4.5195-10.0742-10.0742-10.0742H38.0469z"/>
		</g>
		<g id="Rectangle_15055_00000083799204254008529190000010312075752095302046_">
			<path fill="#D3D3D3" d="M48.3429,18.2208h20.9067V19.19c0.0034,2.2046-1.7809,3.9945-3.9855,3.998c-0.0042,0-0.0083,0-0.0125,0
				H52.3409c-2.2046,0.0034-3.9945-1.7809-3.998-3.9855c0-0.0042,0-0.0083,0-0.0125V18.2208z"/>
		</g>
	</g>
</g>
<g id="Not_Final" display="none">
</g>
<path fill="#D3D3D3" d="M78.0036,55.11H57.071c-0.9506,0-1.7213-0.7706-1.7213-1.7213v-4.2105c0-0.9506,0.7706-1.7213,1.7213-1.7213
	h20.9326c0.9507,0,1.7213,0.7706,1.7213,1.7213l0,0v4.2105C79.7249,54.3394,78.9543,55.11,78.0036,55.11z"/>
<path fill="#D3D3D3" d="M78.0034,78.312H57.0708c-1.4067,0-2.5513-1.1445-2.5513-2.5513v-4.2109
	c0-1.4067,1.1445-2.5513,2.5513-2.5513h20.9326c1.4072,0,2.5513,1.1445,2.5513,2.5513v4.2109
	C80.5547,77.1675,79.4106,78.312,78.0034,78.312z M57.0708,70.6587c-0.4912,0-0.8911,0.3999-0.8911,0.8911v4.2109
	c0,0.4912,0.3999,0.8911,0.8911,0.8911h20.9326c0.4917,0,0.8916-0.3999,0.8916-0.8911v-4.2109c0-0.4912-0.3999-0.8911-0.8916-0.8911
	H57.0708z"/>
<path fill="#D3D3D3" d="M78.0034,100.6836H57.0708c-1.4067,0-2.5513-1.1445-2.5513-2.5518v-4.21
	c0-1.4072,1.1445-2.5518,2.5513-2.5518h20.9326c1.4072,0,2.5513,1.1445,2.5513,2.5518v4.21
	C80.5547,99.5391,79.4106,100.6836,78.0034,100.6836z M57.0708,93.0303c-0.4912,0-0.8911,0.4004-0.8911,0.8916v4.21
	c0,0.4912,0.3999,0.8916,0.8911,0.8916h20.9326c0.4917,0,0.8916-0.4004,0.8916-0.8916v-4.21c0-0.4912-0.3999-0.8916-0.8916-0.8916
	H57.0708z"/>
<g id="Ellipse_3308_00000107575201185542424850000003573285239500018586_">
	<ellipse fill="#FFFFFF" cx="112.425" cy="112.9856" rx="24.2602" ry="23.9832"/>
</g>
<g id="Path_54250_00000126281667452591719810000001777790368735154316_">
	<path fill="#818386" d="M129.1812,130.3397l1.1141-1.1015l5.8493,5.7827l-1.1141,1.1015L129.1812,130.3397z"/>
</g>
<g id="Path_54251_00000055702513502157895910000007739133480758457519_">
	<path fill="#B5B4B3" d="M158.6801,152.2547l-21.0442-20.8084l-1.6337,1.6168l-3.0316-2.9979
		c4.0653-4.7615,6.2987-10.817,6.299-17.0779c0.1004-14.7735-11.7945-26.8311-26.5679-26.9315s-26.8311,11.7944-26.9315,26.5679
		s11.7944,26.8311,26.5679,26.9315c6.5025,0.0442,12.7984-2.2817,17.7105-6.5426l2.9979,2.9642l-1.9284,1.9116l21.0442,20.8084
		c1.8255,1.7603,4.7245,1.7341,6.5179-0.059C160.44,156.874,160.44,154.0186,158.6801,152.2547z M90.7475,112.9873
		c-0.1567-11.9735,9.4226-21.8069,21.396-21.9636s21.8069,9.4226,21.9636,21.396c0.1567,11.9735-9.4226,21.8069-21.3961,21.9636
		c-0.0959,0.0013-0.1918,0.0018-0.2878,0.0018C100.5366,134.4426,90.8434,124.8737,90.7475,112.9873z"/>
</g>
<g id="Path_54252_00000115514725084150583100000002157021269564119434_">
	<path fill="#B5B4B3" d="M115.2696,113.1473l9.12,9.019l-2.4253,2.4421l-9.1453-9.0442l-9.1453,9.0442l-2.4253-2.4421l9.12-9.019
		l-9.12-9.0189l2.4253-2.4421l9.1453,9.0442l9.1453-9.0442l2.4253,2.4421L115.2696,113.1473z"/>
</g>
<path fill="#D3D3D3" d="M40.8689,57.4212h6.1377c1.6569,0,3-1.3431,3-3v-6.1377c0-1.6569-1.3431-3-3-3h-6.1377
	c-1.6569,0-3,1.3431-3,3v6.1377C37.8689,56.0781,39.212,57.4212,40.8689,57.4212z"/>
<path fill="#D3D3D3" d="M46.4404,79.6372h-5.0054c-1.8306,0-3.3203-1.4893-3.3203-3.3203v-5.1851
	c0-1.8306,1.4897-3.3203,3.3203-3.3203h5.0054c1.8306,0,3.3203,1.4897,3.3203,3.3203v5.1851
	C49.7607,78.1479,48.271,79.6372,46.4404,79.6372z M41.4351,69.4717c-0.9155,0-1.6602,0.7446-1.6602,1.6602v5.1851
	c0,0.9155,0.7446,1.6602,1.6602,1.6602h5.0054c0.9155,0,1.6602-0.7446,1.6602-1.6602v-5.1851c0-0.9155-0.7446-1.6602-1.6602-1.6602
	H41.4351z"/>
<path fill="#D3D3D3" d="M46.5308,102.0859h-5.186c-1.8672,0-3.3867-1.5195-3.3867-3.3867v-5.2061
	c0-1.8672,1.5195-3.3867,3.3867-3.3867h5.186c1.8672,0,3.3867,1.5195,3.3867,3.3867v5.2061
	C49.9175,100.5664,48.3979,102.0859,46.5308,102.0859z M41.3447,91.7998c-0.9336,0-1.6934,0.7598-1.6934,1.6934v5.2061
	c0,0.9336,0.7598,1.6934,1.6934,1.6934h5.186c0.9336,0,1.6934-0.7598,1.6934-1.6934v-5.2061c0-0.9336-0.7598-1.6934-1.6934-1.6934
	H41.3447z"/>
<g id="Rough" display="none">
</g>
</svg>
