<?xml version="1.0" encoding="utf-8"?>
<!-- Generator: Adobe Illustrator 26.0.3, SVG Export Plug-In . SVG Version: 6.00 Build 0)  -->
<svg version="1.1" id="Layer_1" xmlns="http://www.w3.org/2000/svg" xmlns:xlink="http://www.w3.org/1999/xlink" x="0px" y="0px"
	 viewBox="0 0 24 24" style="enable-background:new 0 0 24 24;" xml:space="preserve">
<path d="M20.114,14.605h-1.281V8.499c0-2.981-2.012-5.638-4.892-6.46c-2.18-0.624-4.56-0.178-6.371,1.187
	C5.992,4.416,5.088,6.13,5.088,7.928v6.676H3.887c-0.791,0-1.435,0.62-1.435,1.382v1.485c0,0.762,0.644,1.382,1.435,1.382H8.55
	c0.04,1.872,1.568,3.384,3.45,3.384s3.41-1.512,3.45-3.384h4.665c0.79,0,1.434-0.62,1.434-1.382v-1.485
	C21.548,15.225,20.904,14.605,20.114,14.605z M12,20.738c-1.054,0-1.91-0.839-1.95-1.884h3.899
	C13.91,19.899,13.054,20.738,12,20.738z M20.048,17.355H3.952v-1.25h1.201c0.791,0,1.435-0.62,1.435-1.383V7.928
	c0-1.324,0.688-2.601,1.886-3.505c1.437-1.084,3.328-1.435,5.056-0.942c2.239,0.64,3.804,2.703,3.804,5.018v6.223
	c0,0.763,0.644,1.383,1.435,1.383h1.28L20.048,17.355L20.048,17.355z"/>
<path style="fill:none;" d="M24,24H0V0h24V24z"/>
</svg>
