<?xml version="1.0" encoding="utf-8"?>
<!-- Generator: Adobe Illustrator 27.3.1, SVG Export Plug-In . SVG Version: 6.00 Build 0)  -->
<svg version="1.1" id="gif" xmlns="http://www.w3.org/2000/svg" xmlns:xlink="http://www.w3.org/1999/xlink" x="0px" y="0px"
	 viewBox="0 0 24 24" style="enable-background:new 0 0 24 24;" xml:space="preserve">
<rect style="fill:none;" width="24" height="24"/>
<path style="fill:#F0F0F0;" d="M15,8.5c-0.6,0-1.2-0.5-1.2-1.2v-5H4c-0.7,0-1.2,0.6-1.2,1.2v16.1c0,0.7,0.6,1.2,1.2,1.2h13.9
	c0.7,0,1.2-0.6,1.2-1.2V8.5H15z"/>
<path style="fill:#BBBDBF;" d="M14.2,8.2V2.9l4.5,5.3C18.7,8.2,14.2,8.2,14.2,8.2z"/>
<path style="fill:#BBBDBF;" d="M14.5,3.8L18,7.9h-3.5V3.8 M13.8,2v6.5h5.6L13.8,2z"/>
<path style="fill:#BBBDBF;" d="M17.8,21.4H4c-1,0-1.7-0.8-1.7-1.7V3.6c0-1,0.8-1.7,1.7-1.7h9.9v1H4c-0.4,0-0.7,0.3-0.7,0.7v16.1
	c0,0.4,0.3,0.7,0.7,0.7h13.9c0.4,0,0.7-0.3,0.7-0.7V8.5h1v11.1C19.6,20.6,18.8,21.4,17.8,21.4z"/>
<path style="fill:#545454;" d="M19.7,21.6H3.4C2.6,21.6,2,21,2,20.2v-8.3c0-0.8,0.6-1.4,1.4-1.4l0,0h16.3c0.8,0,1.4,0.6,1.4,1.4v8.3
	C21.1,21,20.5,21.6,19.7,21.6z"/>
<g>
	<path style="fill:#FFFFFF;" d="M9.177,16.048c0,0.828-0.205,1.463-0.615,1.908c-0.41,0.443-0.998,0.666-1.764,0.666
		s-1.354-0.223-1.764-0.666c-0.41-0.445-0.615-1.083-0.615-1.914c0-0.832,0.206-1.467,0.617-1.906
		c0.411-0.438,1.001-0.657,1.77-0.657c0.768,0,1.354,0.221,1.762,0.663C8.974,14.583,9.177,15.218,9.177,16.048z M5.531,16.048
		c0,0.559,0.105,0.979,0.318,1.262c0.211,0.282,0.528,0.424,0.949,0.424c0.846,0,1.269-0.562,1.269-1.686
		c0-1.125-0.421-1.688-1.261-1.688c-0.422,0-0.74,0.142-0.954,0.425C5.638,15.069,5.531,15.49,5.531,16.048z"/>
	<path style="fill:#FFFFFF;" d="M14.36,16.007c0,0.823-0.234,1.453-0.703,1.891c-0.468,0.438-1.145,0.656-2.028,0.656h-1.415v-4.997
		h1.568c0.816,0,1.449,0.216,1.9,0.646S14.36,15.235,14.36,16.007z M13.258,16.034c0-1.072-0.474-1.609-1.422-1.609h-0.563v3.254
		h0.454C12.749,17.678,13.258,17.131,13.258,16.034z"/>
	<path style="fill:#FFFFFF;" d="M17.323,18.553h-1.06v-4.115h-1.356v-0.882h3.773v0.882h-1.357V18.553z"/>
</g>
</svg>
