<?xml version="1.0" encoding="utf-8"?>
<!-- Generator: Adobe Illustrator 27.3.1, SVG Export Plug-In . SVG Version: 6.00 Build 0)  -->
<svg version="1.1" id="pdf" xmlns="http://www.w3.org/2000/svg" xmlns:xlink="http://www.w3.org/1999/xlink" x="0px" y="0px"
	 viewBox="0 0 24 24" style="enable-background:new 0 0 24 24;" xml:space="preserve">
<g id="Rectangle_18362">
	<rect style="fill:none;" width="24" height="24"/>
</g>
<g id="Path_54273">
	<path style="fill:#F0F0F0;" d="M15,8.5c-0.6,0-1.2-0.5-1.2-1.2v-5H4c-0.7,0-1.2,0.6-1.2,1.2v16.1c0,0.7,0.6,1.2,1.2,1.2h13.9
		c0.7,0,1.2-0.6,1.2-1.2V8.5H15z"/>
</g>
<g id="Path_54274">
	<path style="fill:#BBBDBF;" d="M14.2,8.2V2.9l4.5,5.3C18.7,8.2,14.2,8.2,14.2,8.2z"/>
</g>
<g id="Path_54275">
	<path style="fill:#BBBDBF;" d="M14.5,3.8L18,7.9h-3.5V3.8 M13.8,2v6.5h5.6L13.8,2z"/>
</g>
<g id="Path_54276">
	<path style="fill:#BBBDBF;" d="M17.8,21.4H4c-1,0-1.7-0.8-1.7-1.7V3.6c0-1,0.8-1.7,1.7-1.7h9.9v1H4c-0.4,0-0.7,0.3-0.7,0.7v16.1
		c0,0.4,0.3,0.7,0.7,0.7h13.9c0.4,0,0.7-0.3,0.7-0.7V8.5h1v11.1C19.6,20.6,18.8,21.4,17.8,21.4z"/>
</g>
<g id="Path_54277">
	<path style="fill:#E50000;" d="M19.7,21.6H3.4C2.6,21.6,2,21,2,20.2v-8.3c0-0.8,0.6-1.4,1.4-1.4l0,0h16.3c0.8,0,1.4,0.6,1.4,1.4
		v8.3C21.1,21,20.5,21.6,19.7,21.6z"/>
</g>
<g style="enable-background:new    ;">
	<path style="fill:#FFFFFF;" d="M9,14.8c0,0.6-0.2,1.1-0.6,1.4c-0.4,0.3-0.9,0.5-1.6,0.5H6.3v2H5.1V13h1.8c0.7,0,1.2,0.1,1.6,0.4
		S9,14.2,9,14.8z M6.3,15.7h0.4c0.4,0,0.7-0.1,0.8-0.2s0.3-0.4,0.3-0.6c0-0.3-0.1-0.5-0.2-0.6S7.1,14,6.8,14H6.3V15.7z"/>
	<path style="fill:#FFFFFF;" d="M14.8,15.9c0,0.9-0.3,1.7-0.8,2.2s-1.3,0.8-2.3,0.8h-1.6v-5.7h1.8c0.9,0,1.7,0.2,2.2,0.7
		S14.8,15,14.8,15.9z M13.6,15.9c0-1.2-0.5-1.8-1.6-1.8h-0.6v3.7h0.5C13,17.8,13.6,17.1,13.6,15.9z"/>
	<path style="fill:#FFFFFF;" d="M17.2,18.8H16v-5.7h3.3v1h-2.1v1.5h1.9v1h-1.9C17.2,16.6,17.2,18.8,17.2,18.8z"/>
</g>
</svg>
