<?xml version="1.0" encoding="utf-8"?>
<!-- Generator: Adobe Illustrator 27.3.1, SVG Export Plug-In . SVG Version: 6.00 Build 0)  -->
<svg version="1.1" id="png" xmlns="http://www.w3.org/2000/svg" xmlns:xlink="http://www.w3.org/1999/xlink" x="0px" y="0px"
	 viewBox="0 0 24 24" style="enable-background:new 0 0 24 24;" xml:space="preserve">
<g id="Layer_2_00000041997405787208299010000000974437217311144085_">
	<g id="Rectangle_18362">
		<rect style="fill:none;" width="24" height="24"/>
	</g>
</g>
<g id="Layer_4" transform="translate(0.054 -0.393)">
	<g id="Path_54273">
		<path style="fill:#F0F0F0;" d="M14.9,8.9c-0.6,0-1.2-0.5-1.2-1.2v-5H3.9C3.2,2.7,2.7,3.3,2.7,4v16c0,0.7,0.6,1.2,1.2,1.2h13.9
			c0.7,0,1.2-0.6,1.2-1.2V8.9H14.9z"/>
	</g>
	<g id="Group_65280">
		<g id="Path_54274">
			<path style="fill:#BBBDBF;" d="M14.1,8.6V3.3l4.5,5.3H14.1z"/>
		</g>
		<g id="Path_54275">
			<path style="fill:#BBBDBF;" d="M14.4,4.2l3.5,4.1h-3.5V4.2 M13.8,2.4v6.5h5.6L13.8,2.4z"/>
		</g>
	</g>
	<g id="Path_54276">
		<path style="fill:#BBBDBF;" d="M17.8,21.8H3.9c-1,0-1.7-0.8-1.7-1.7V4c0-1,0.8-1.7,1.7-1.7h9.9v1H3.9C3.5,3.2,3.2,3.6,3.2,4v16
			c0,0.4,0.3,0.7,0.7,0.7h13.9c0.4,0,0.7-0.3,0.7-0.7V8.9h1V20C19.5,21,18.7,21.8,17.8,21.8z"/>
	</g>
	<g id="Path_54277">
		<path style="fill:#7D6599;" d="M19.6,22H3.4C2.6,22,2,21.4,2,20.6v-8.3c0-0.8,0.6-1.4,1.4-1.4l0,0h16.3c0.8,0,1.4,0.6,1.4,1.4v8.3
			C21.1,21.4,20.4,22,19.6,22z"/>
	</g>
	<g style="enable-background:new    ;">
		<path style="fill:#FFFFFF;" d="M7.7,15.5c0,0.6-0.2,1-0.5,1.3c-0.4,0.3-0.9,0.5-1.5,0.5H5.1v1.9H4v-5.4h1.7c0.6,0,1.1,0.1,1.5,0.4
			C7.5,14.5,7.7,14.9,7.7,15.5z M5.1,16.3h0.4c0.3,0,0.6-0.1,0.8-0.2c0.2-0.1,0.3-0.3,0.3-0.6S6.5,15,6.4,14.9S6,14.7,5.7,14.7H5.1
			V16.3z"/>
		<path style="fill:#FFFFFF;" d="M13.5,19.2H12l-2.3-4.1l0,0c0,0.7,0.1,1.2,0.1,1.5v2.5h-1v-5.4h1.4l2.3,4l0,0
			c0-0.7-0.1-1.2-0.1-1.5v-2.5h1v5.5H13.5z"/>
		<path style="fill:#FFFFFF;" d="M16.8,16.2H19V19c-0.3,0.1-0.7,0.2-1,0.2s-0.6,0.1-0.9,0.1c-0.8,0-1.4-0.2-1.9-0.7
			c-0.4-0.5-0.6-1.2-0.6-2c0-0.9,0.2-1.5,0.7-2s1.2-0.7,2.1-0.7c0.5,0,1.1,0.1,1.6,0.3L18.6,15c-0.4-0.2-0.8-0.3-1.2-0.3
			c-0.5,0-0.9,0.2-1.2,0.5c-0.3,0.3-0.4,0.8-0.4,1.3c0,0.6,0.1,1,0.4,1.3c0.2,0.3,0.6,0.5,1,0.5c0.2,0,0.5,0,0.7-0.1v-1.1h-1v-0.9
			H16.8z"/>
	</g>
</g>
</svg>
