<?xml version="1.0" encoding="utf-8"?>
<!-- Generator: Adobe Illustrator 25.4.1, SVG Export Plug-In . SVG Version: 6.00 Build 0)  -->
<svg version="1.1" xmlns="http://www.w3.org/2000/svg" xmlns:xlink="http://www.w3.org/1999/xlink" x="0px" y="0px"
	 viewBox="0 0 24 24" style="enable-background:new 0 0 24 24;" xml:space="preserve">
<style type="text/css">
	.st0{fill:#FDF0E9;}
	.st1{opacity:0.1;}
	.st2{fill:#0072C6;}
	.st3{fill:#FFFFFF;}
	.st4{fill:#606060;}
	.st5{fill:#ED702D;}
	.st6{fill:none;stroke:#FFFFFF;stroke-width:1.5;stroke-linecap:round;}
</style>
<g id="BG">
</g>
<g id="Icons">
	<g id="XMLID_00000055679126885075932120000011096668717209080470_">
		<path class="st4" d="M19.6834,7.659l-0.0032-4.1502h-4.1546c-0.1657,0-0.3-0.1343-0.3-0.3v-0.9c0-0.1657,0.1343-0.3,0.3-0.3
			h5.6536l0.0042,5.6492c0.0001,0.1657-0.1341,0.3001-0.2998,0.3002l-0.9,0.0006C19.8179,7.9589,19.6835,7.8247,19.6834,7.659z"/>
	</g>
	<g>
		<path class="st4" d="M3.5476,12.5794l-0.6363-0.6363c-0.1172-0.1172-0.1172-0.3071,0-0.4243l5.3567-5.3567
			c0.6804-0.6804,1.794-0.6805,2.4745-0.0001l2.4372,2.4367c0.0976,0.0976,0.2559,0.0976,0.3535,0l6.3701-6.3701l1.0605,1.0605
			l-6.3695,6.3695c-0.6808,0.6808-1.7949,0.6808-2.4757,0.0001L9.6821,7.2226c-0.0976-0.0976-0.2559-0.0976-0.3535,0l-5.3567,5.3567
			C3.8547,12.6965,3.6648,12.6965,3.5476,12.5794z"/>
	</g>
	<g>
		<path class="st4" d="M7.3164,22.0142h-4.5v-4.75c0-0.9648,0.7852-1.75,1.75-1.75h1c0.9648,0,1.75,0.7852,1.75,1.75V22.0142z
			 M4.3164,20.5142h1.5v-3.25c0-0.1377-0.1123-0.25-0.25-0.25h-1c-0.1377,0-0.25,0.1123-0.25,0.25V20.5142z"/>
	</g>
	<g>
		<path class="st4" d="M14.25,22.0142h-4.5v-6.7783c0-0.9648,0.7852-1.75,1.75-1.75h1c0.9648,0,1.75,0.7852,1.75,1.75V22.0142z
			 M11.25,20.5142h1.5v-5.2783c0-0.1377-0.1123-0.25-0.25-0.25h-1c-0.1377,0-0.25,0.1123-0.25,0.25V20.5142z"/>
	</g>
	<g>
		<path class="st4" d="M21.1836,22.0142h-4.5v-9.8013c0-0.9648,0.7852-1.75,1.75-1.75h1c0.9648,0,1.75,0.7852,1.75,1.75V22.0142z
			 M18.1836,20.5142h1.5v-8.3013c0-0.1377-0.1123-0.25-0.25-0.25h-1c-0.1377,0-0.25,0.1123-0.25,0.25V20.5142z"/>
	</g>
</g>
</svg>
