<?xml version="1.0" encoding="utf-8"?>
<!-- Generator: Adobe Illustrator 25.4.1, SVG Export Plug-In . SVG Version: 6.00 Build 0)  -->
<svg version="1.1" xmlns="http://www.w3.org/2000/svg" xmlns:xlink="http://www.w3.org/1999/xlink" x="0px" y="0px"
	 viewBox="0 0 46 46" style="enable-background:new 0 0 46 46;" xml:space="preserve">
<style type="text/css">
	.st0{fill:#FDF0E9;}
	.st1{opacity:0.1;}
	.st2{fill:#0072C6;}
	.st3{fill:#FFFFFF;}
	.st4{fill:#606060;}
	.st5{fill:#ED702D;}
	.st6{fill:none;stroke:#FFFFFF;stroke-width:1.5;stroke-linecap:round;}
</style>
<g id="BG">
	<g id="Rectangle_14993_00000119837878816568387500000016278935401567356073_">
		<path class="st0" d="M4,0h38c2.2091,0,4,1.7909,4,4v38c0,2.2091-1.7909,4-4,4H4c-2.2091,0-4-1.7909-4-4V4C0,1.7909,1.7909,0,4,0z"
			/>
	</g>
</g>
<g id="Icons">
	<path class="st5" d="M32.5967,12.7471h-5.7031c-0.2761,0-0.5,0.2238-0.5,0.5v1c0,0.2761,0.2239,0.5,0.5,0.5h2.2947l-4.6638,4.6631
		l-2.4365-2.4365c-0.7809-0.781-2.0472-0.781-2.8282-0.0001l-5.2158,5.2153c-0.1953,0.1953-0.1953,0.5118,0,0.7072l0.707,0.7069
		c0.1953,0.1953,0.5118,0.1953,0.7071,0.0001l5.2158-5.2153l2.4365,2.4365c0.778,0.778,2.0511,0.778,2.8291,0l4.6605-4.6605
		l0.0021,2.2844c0.0003,0.2762,0.2244,0.4998,0.5005,0.4996l1-0.001c0.2761-0.0003,0.4998-0.2244,0.4995-0.5005L32.5967,12.7471z"/>
	<g>
		<path class="st5" d="M18.7354,33.2529h-5v-5c0-1.103,0.8975-2,2-2h1c1.1025,0,2,0.897,2,2V33.2529z M15.7354,31.2529h1v-3h-1
			V31.2529z"/>
	</g>
	<g>
		<path class="st5" d="M25.6689,33.2529h-5v-7.0288c0-1.103,0.8975-2,2-2h1c1.1025,0,2,0.897,2,2V33.2529z M22.6689,31.2529h1
			v-5.0288h-1V31.2529z"/>
	</g>
	<g>
		<path class="st5" d="M32.6025,33.2529h-5V23.2017c0-1.103,0.8975-2,2-2h1c1.1025,0,2,0.897,2,2V33.2529z M29.6025,31.2529h1
			v-8.0513h-1V31.2529z"/>
	</g>
</g>
</svg>
