<?xml version="1.0" encoding="utf-8"?>
<!-- Generator: Adobe Illustrator 25.4.1, SVG Export Plug-In . SVG Version: 6.00 Build 0)  -->
<svg version="1.1" xmlns="http://www.w3.org/2000/svg" xmlns:xlink="http://www.w3.org/1999/xlink" x="0px" y="0px"
	 viewBox="0 0 24 24" style="enable-background:new 0 0 24 24;" xml:space="preserve">
<style type="text/css">
	.st0{fill:#FDF0E9;}
	.st1{opacity:0.1;}
	.st2{fill:#0072C6;}
	.st3{fill:#FFFFFF;}
	.st4{fill:#606060;}
	.st5{fill:#ED702D;}
	.st6{fill:none;stroke:#FFFFFF;stroke-width:1.5;stroke-linecap:round;}
</style>
<g id="BG">
</g>
<g id="Icons">
	<g>
		<path class="st2" d="M19.6833,7.659c0.0002,0.1656,0.1346,0.2999,0.3002,0.2997l0.9-0.0005
			c0.1656-0.0001,0.2999-0.1345,0.2998-0.3002l-0.0042-5.6492h-5.6536c-0.1656,0-0.3,0.1343-0.3,0.3v0.9
			c0,0.1657,0.1343,0.3,0.3,0.3h3.0975l-5.0898,5.0898c-0.0976,0.0976-0.2559,0.0976-0.3535,0L10.7426,6.162
			c-0.6805-0.6804-1.794-0.6804-2.4745,0.0001l-5.3567,5.3567c-0.1172,0.1172-0.1172,0.3071,0,0.4243l0.6363,0.6363
			c0.1171,0.1172,0.3071,0.1172,0.4243,0l5.3567-5.3567C9.4263,7.125,9.5845,7.125,9.6821,7.2226l2.4365,2.4361
			c0.6808,0.6807,1.7949,0.6807,2.4757-0.0001L19.681,4.572L19.6833,7.659z"/>
		<path class="st2" d="M5.5664,15.5142h-1c-0.9648,0-1.75,0.7852-1.75,1.75v4.75h4.5v-4.75
			C7.3164,16.2993,6.5312,15.5142,5.5664,15.5142z M5.8164,20.5142h-1.5v-3.25c0-0.1377,0.1123-0.25,0.25-0.25h1
			c0.1377,0,0.25,0.1123,0.25,0.25V20.5142z"/>
		<path class="st2" d="M12.5,13.4858h-1c-0.9648,0-1.75,0.7852-1.75,1.75v6.7783h4.5v-6.7783
			C14.25,14.271,13.4648,13.4858,12.5,13.4858z M12.75,20.5142h-1.5v-5.2783c0-0.1377,0.1123-0.25,0.25-0.25h1
			c0.1377,0,0.25,0.1123,0.25,0.25V20.5142z"/>
		<path class="st2" d="M19.4336,10.4629h-1c-0.9648,0-1.75,0.7852-1.75,1.75v9.8013h4.5v-9.8013
			C21.1836,11.248,20.3984,10.4629,19.4336,10.4629z M19.6836,20.5142h-1.5v-8.3013c0-0.1377,0.1123-0.25,0.25-0.25h1
			c0.1377,0,0.25,0.1123,0.25,0.25V20.5142z"/>
	</g>
</g>
</svg>
