<?xml version="1.0" encoding="utf-8"?>
<!-- Generator: Adobe Illustrator 25.4.1, SVG Export Plug-In . SVG Version: 6.00 Build 0)  -->
<svg version="1.1" xmlns="http://www.w3.org/2000/svg" xmlns:xlink="http://www.w3.org/1999/xlink" x="0px" y="0px"
	 viewBox="0 0 16 16" style="enable-background:new 0 0 16 16;" xml:space="preserve">
<style type="text/css">
	.st0{fill:#FDF0E9;}
	.st1{opacity:0.1;}
	.st2{fill:#0072C6;}
	.st3{fill:#FFFFFF;}
	.st4{fill:#606060;}
	.st5{fill:#ED702D;}
	.st6{fill:none;stroke:#FFFFFF;stroke-width:1.5;stroke-linecap:round;}
</style>
<g id="BG">
</g>
<g id="Icons">
	<g id="XMLID_369_">
		<path class="st4" d="M9.8027,15h-3.603l-0.0005-1.001c-0.001-0.2764-0.002-0.5527,0.001-0.8291
			c-0.1968-0.0771-0.3901-0.1592-0.582-0.2432l-1.2822,1.2852l-2.5547-2.5566l1.2974-1.2744
			C2.9961,10.1885,2.915,9.9951,2.8374,9.8018L1,9.8027V6.1992l1.8364,0.001c0.0781-0.1943,0.1587-0.3877,0.2412-0.5801
			L1.8169,4.3594l0.333-0.375l2.1704-2.1709l1.3013,1.2646C5.814,2.9951,6.0068,2.915,6.2007,2.8379L6.1997,1h3.603L9.8013,2.8359
			c0.1948,0.0771,0.3882,0.1582,0.5801,0.2412l1.2075-1.209l0.4395,0.2715l2.1582,2.1572l-0.603,0.666
			c-0.2173,0.2178-0.4365,0.4375-0.6572,0.6562c0.084,0.1934,0.1631,0.3867,0.2402,0.582L15,6.1992v3.6035l-1.835-0.002
			c-0.0776,0.1953-0.1577,0.3887-0.2407,0.582l0.8604,0.8574l0.4644,0.3457l-0.3779,0.4258l-2.1875,2.1875L10.9951,13.54
			c-0.2051-0.2041-0.4102-0.4082-0.6143-0.6143c-0.1924,0.083-0.3853,0.1631-0.5791,0.2402c0.002,0.3184,0.0015,0.6367,0.0015,0.958
			L9.8027,15z M7.1992,14h1.604c0.0005-0.3545,0.0005-0.707-0.0034-1.0586c-0.002-0.1719,0.0532-0.4834,0.4409-0.6289
			c0.3164-0.123,0.6348-0.2549,0.9497-0.3945c0.3662-0.166,0.6157,0.0146,0.7334,0.1338c0.2456,0.251,0.4951,0.499,0.7451,0.748
			l1.1304-1.1299l-0.751-0.748c-0.2051-0.2051-0.252-0.4619-0.1348-0.7236c0.1416-0.3203,0.2769-0.6465,0.4043-0.9746
			c0.1455-0.373,0.4448-0.4551,0.6128-0.4229L14,8.8027V7.1992l-1.0698,0.002c-0.1909-0.0137-0.4722-0.0518-0.6133-0.4268
			c-0.1221-0.3164-0.25-0.6328-0.3916-0.9453c-0.1284-0.2773-0.0796-0.5498,0.1387-0.7646c0.249-0.2441,0.4956-0.4912,0.7397-0.7363
			l-1.1309-1.1299L10.9141,3.959c-0.1963,0.1973-0.4551,0.2441-0.71,0.1318C9.8813,3.9482,9.5566,3.8115,9.2285,3.6855
			C8.9517,3.5801,8.7988,3.3594,8.8008,3.0645L8.8027,2h-1.603l0.001,1.082c0.002,0.2764-0.146,0.4941-0.4053,0.5957
			C6.4585,3.8086,6.125,3.9473,5.7949,4.0938C5.5454,4.2061,5.2856,4.1572,5.0869,3.958L4.3394,3.209L3.2095,4.3389l0.749,0.748
			c0.1978,0.1953,0.2466,0.4551,0.1333,0.71C3.9482,6.1221,3.8105,6.4521,3.6812,6.7842C3.5376,7.1523,3.25,7.1875,3.0771,7.2012
			L2,7.1992v1.6035l1.0776-0.002c0.1675,0,0.4629,0.0537,0.604,0.417c0.1289,0.3311,0.2671,0.6602,0.4111,0.9863
			c0.1128,0.2588,0.063,0.5176-0.1357,0.7129l-0.7515,0.749l1.1304,1.1309l0.7476-0.75c0.1182-0.1182,0.3672-0.29,0.7246-0.1299
			c0.3013,0.1338,0.6064,0.2686,0.9189,0.3828c0.3999,0.1465,0.48,0.4531,0.4761,0.6846c-0.0059,0.3379-0.0049,0.6748-0.0039,1.0117
			V14z M10.2095,12.752c0.0005,0,0.001,0.001,0.0015,0.001C10.2104,12.7529,10.21,12.752,10.2095,12.752z M5.7944,12.749
			L5.7939,12.75C5.7939,12.75,5.7944,12.75,5.7944,12.749z M12.8281,10.6025c0,0.001-0.0005,0.001-0.0005,0.002
			C12.8276,10.6035,12.8281,10.6035,12.8281,10.6025z M3.2549,10.2051c-0.001,0.001-0.002,0.002-0.0034,0.0029L3.2549,10.2051z
			 M12.9209,9.8008c0.001,0,0.0024,0,0.0049,0H12.9209z M12.9233,6.2012c-0.001,0-0.002,0-0.0029,0h0.0049
			C12.9248,6.2012,12.9238,6.2012,12.9233,6.2012z M3.0815,6.2012h0.0059C3.0854,6.2012,3.0835,6.2012,3.0815,6.2012z
			 M3.2524,5.7949c0.0005,0.001,0.0015,0.001,0.002,0.002L3.2524,5.7949z M5.3921,3.1777c-0.001,0.001-0.002,0.001-0.0024,0.001
			C5.3901,3.1787,5.3911,3.1787,5.3921,3.1777z M6.2007,3.085c0,0.001,0,0.002,0,0.0029V3.085z M9.8008,3.0693v0.002
			C9.8008,3.0703,9.8008,3.0703,9.8008,3.0693z M9.585,2.751c0.0005,0,0.001,0.001,0.0015,0.001
			C9.5859,2.752,9.5854,2.751,9.585,2.751z M11.5889,2.5752l0.0024,0.002L11.5889,2.5752z M7.9995,11.1045
			c-0.002,0-0.0044,0-0.0063,0c-0.8252-0.002-1.6025-0.3271-2.1885-0.917C5.2173,9.5967,4.8955,8.8154,4.8984,7.9863
			c0.0059-1.7041,1.3989-3.0889,3.106-3.0889c0.0015,0,0.0024,0,0.0039,0h0.0005C9.7153,4.9014,11.104,6.2939,11.104,8.002
			c-0.0005,0.8262-0.3247,1.6055-0.9141,2.1934C9.6021,10.7812,8.8242,11.1045,7.9995,11.1045z M8.0044,5.8975
			c-1.1577,0-2.1021,0.9385-2.106,2.0928c-0.002,0.5615,0.2163,1.0908,0.6152,1.4922c0.3975,0.4004,0.9238,0.6211,1.4814,0.6221
			c0.0015,0,0.0029,0,0.0044,0c0.5581,0,1.085-0.2188,1.4839-0.6172C9.8833,9.0879,10.104,8.5605,10.104,8.002
			c0-1.1582-0.9409-2.1025-2.0972-2.1045C8.0059,5.8975,8.0049,5.8975,8.0044,5.8975z"/>
	</g>
</g>
</svg>
