<?xml version="1.0" encoding="utf-8"?>
<!-- Generator: Adobe Illustrator 25.4.1, SVG Export Plug-In . SVG Version: 6.00 Build 0)  -->
<svg version="1.1" id="Layer_1" xmlns="http://www.w3.org/2000/svg" xmlns:xlink="http://www.w3.org/1999/xlink" x="0px" y="0px"
	 viewBox="0 0 25 25" style="enable-background:new 0 0 25 25;" xml:space="preserve">
<g id="Layer_1_00000040542647046687860670000001206057811028545920_">
	<g>
		<g id="XMLID_449_">
			<path d="M21.3,13.5001H8.0578c-0.2761,0-0.5-0.2239-0.5-0.5v-1c0-0.2761,0.2239-0.5,0.5-0.5H21.3c0.2761,0,0.5,0.2239,0.5,0.5v1
				C21.8,13.2762,21.5762,13.5001,21.3,13.5001z"/>
		</g>
		<g id="XMLID_448_">
			<path d="M21.3,18.9415H8.0578c-0.2761,0-0.5-0.2239-0.5-0.5v-1c0-0.2761,0.2239-0.5,0.5-0.5H21.3c0.2761,0,0.5,0.2239,0.5,0.5v1
				C21.8,18.7176,21.5762,18.9415,21.3,18.9415z"/>
		</g>
		<g id="XMLID_447_">
			<path d="M21.3,8.0587H8.0578c-0.2761,0-0.5-0.2239-0.5-0.5v-1c0-0.2761,0.2239-0.5,0.5-0.5H21.3c0.2761,0,0.5,0.2239,0.5,0.5v1
				C21.8,7.8348,21.5762,8.0587,21.3,8.0587z"/>
		</g>
		<circle id="XMLID_446_" cx="4.575" cy="7.0587" r="1.375"/>
		<circle id="XMLID_00000107547324127867159700000013736915081642929564_" cx="4.575" cy="12.5" r="1.375"/>
		<circle id="XMLID_00000034090475625091445360000013801304972550072968_" cx="4.575" cy="17.9413" r="1.375"/>
	</g>
</g>
</svg>
