<?xml version="1.0" encoding="utf-8"?>
<!-- Generator: Adobe Illustrator 25.4.1, SVG Export Plug-In . SVG Version: 6.00 Build 0)  -->
<svg version="1.1" xmlns="http://www.w3.org/2000/svg" xmlns:xlink="http://www.w3.org/1999/xlink" x="0px" y="0px"
	 viewBox="0 0 24 24" style="enable-background:new 0 0 24 24;" xml:space="preserve">
<style type="text/css">
	.st0{fill:#FDF0E9;}
	.st1{opacity:0.1;}
	.st2{fill:#0072C6;}
	.st3{fill:#FFFFFF;}
	.st4{fill:#606060;}
	.st5{fill:#ED702D;}
	.st6{fill:none;stroke:#FFFFFF;stroke-width:1.5;stroke-linecap:round;}
</style>
<g id="BG">
</g>
<g id="Icons">
	<path class="st2" d="M4.3723,14.1025c-0.1656,0-0.3,0.1343-0.3,0.3v0.9c0,0.1656,0.1343,0.3,0.3,0.3h2.7381l-4.3708,4.3708
		c-0.1172,0.1172-0.1172,0.3071,0,0.4243l0.6362,0.6363c0.1172,0.1172,0.3071,0.1172,0.4243,0l4.3767-4.3767v2.7518
		c0,0.1656,0.1343,0.3,0.3,0.3h0.9c0.1656,0,0.3-0.1343,0.3-0.3v-5.3065H4.3723z"/>
	<g id="Ellipse_3231_00000134943355199957880830000004868257426595777724_">
		<path class="st2" d="M14.502,10.4316c-2.2559,0-4.0908-1.835-4.0908-4.0908S12.2461,2.25,14.502,2.25s4.0908,1.835,4.0908,4.0908
			S16.7578,10.4316,14.502,10.4316z M14.502,3.75c-1.4287,0-2.5908,1.1621-2.5908,2.5908s1.1621,2.5908,2.5908,2.5908
			s2.5908-1.1621,2.5908-2.5908S15.9307,3.75,14.502,3.75z"/>
	</g>
	<g id="Path_54500_00000075865489183777577470000005298754943309516425_">
		<path class="st2" d="M21.3924,21h-0.9c-0.1657,0-0.3-0.1343-0.3-0.3v-3.1746c0-2.3796-1.929-4.3086-4.3086-4.3086h-3.4023
			c-0.6326,0.0178-1.2496,0.1427-1.8152,0.4016c-0.1434,0.0656-0.31,0.0184-0.3857-0.12l-0.4353-0.795
			c-0.0822-0.1501-0.0249-0.3453,0.1291-0.4199c0.7752-0.3754,1.6121-0.5832,2.5081-0.5667h3.4082
			c3.2042,0,5.8018,2.5975,5.8018,5.8018V20.7C21.6924,20.8657,21.5581,21,21.3924,21z"/>
	</g>
</g>
</svg>
