<?xml version="1.0" encoding="utf-8"?>
<!-- Generator: Adobe Illustrator 26.0.3, SVG Export Plug-In . SVG Version: 6.00 Build 0)  -->
<svg version="1.1" id="Layer_1" xmlns="http://www.w3.org/2000/svg" xmlns:xlink="http://www.w3.org/1999/xlink" x="0px" y="0px"
	 viewBox="0 0 16 16" style="enable-background:new 0 0 16 16;" xml:space="preserve">
<path style="fill:#0072C6;" d="M2.095,10.093v0.494c0,0.137,0.111,0.248,0.248,0.248h2.079l-3.239,3.238
	c-0.097,0.097-0.097,0.254,0,0.35l0.349,0.349c0.097,0.097,0.253,0.097,0.35,0l3.243-3.242v2.088c0,0.137,0.111,0.248,0.248,0.248
	h0.494c0.137,0,0.248-0.111,0.248-0.248v-3.526c0-0.137-0.111-0.248-0.248-0.248H2.342C2.206,9.846,2.095,9.957,2.095,10.093z"/>
<path style="fill:#606160;" d="M9.681,7.028c1.657,0,3.004-1.348,3.004-3.004S11.338,1.02,9.681,1.02S6.677,2.367,6.677,4.024
	S8.024,7.028,9.681,7.028z M9.681,2.021c1.104,0,2.003,0.899,2.003,2.003s-0.899,2.003-2.003,2.003S7.678,5.128,7.678,4.024
	S8.577,2.021,9.681,2.021z M14.257,15.009h0.501c0.138,0,0.25-0.112,0.25-0.25v-2.353c-0.001-1.613-0.873-3.073-2.39-3.864
	c-0.581-0.303-1.24-0.428-1.896-0.428h-0.007H8.163c-0.63,0-1.255,0.14-1.823,0.408C6.211,8.582,6.165,8.744,6.233,8.868
	l0.242,0.441C6.539,9.426,6.68,9.467,6.801,9.411c0.426-0.195,0.892-0.296,1.362-0.296h2.554h0.005c0.527,0,1.054,0.11,1.517,0.362
	c1.125,0.614,1.767,1.717,1.768,2.919v2.363C14.007,14.897,14.119,15.009,14.257,15.009z"/>
<path style="fill:none;" d="M16,16H0V0h16V16z"/>
</svg>
