<?xml version="1.0" encoding="utf-8"?>
<!-- Generator: Adobe Illustrator 25.4.0, SVG Export Plug-In . SVG Version: 6.00 Build 0)  -->
<svg version="1.1" xmlns="http://www.w3.org/2000/svg" xmlns:xlink="http://www.w3.org/1999/xlink" x="0px" y="0px"
	 viewBox="0 0 24 24" enable-background="new 0 0 24 24" xml:space="preserve">
<g id="Layer_3">
</g>
<g id="Layer_4" display="none">
</g>
<g id="Layer_1">
	<path d="M16.767,4.927c-1.778-1.092-3.912-1.552-5.979-1.263C8.467,3.989,6.621,5.071,5.231,6.539V3c0-0.276-0.224-0.5-0.5-0.5
		h-0.5c-0.276,0-0.5,0.224-0.5,0.5v6.03c0,0.276,0.224,0.5,0.5,0.5l6.026,0.005c0.276,0,0.5-0.223,0.5-0.499l0.001-0.5
		c0-0.276-0.223-0.5-0.5-0.501L5.92,8.032c1.163-1.436,2.804-2.514,4.899-2.847c1.883-0.3,3.843,0.139,5.431,1.193
		c4.819,3.196,4.731,10.226-0.263,13.282c-1.751,1.071-3.908,1.4-5.892,0.874c-3.265-0.865-5.432-3.512-5.848-6.525
		c-0.037-0.265-0.261-0.461-0.528-0.44l-0.5,0.038c-0.283,0.021-0.502,0.276-0.465,0.557c0.268,2.021,1.197,3.908,2.647,5.358
		c1.816,1.815,4.202,2.724,6.587,2.724c2.386,0,4.771-0.908,6.587-2.724C22.732,15.363,22.13,8.22,16.767,4.927z"/>
</g>
</svg>
