<?xml version="1.0" encoding="utf-8"?>
<!-- Generator: Adobe Illustrator 25.4.1, SVG Export Plug-In . SVG Version: 6.00 Build 0)  -->
<svg version="1.1" id="Layer_1" xmlns="http://www.w3.org/2000/svg" xmlns:xlink="http://www.w3.org/1999/xlink" x="0px" y="0px"
	 viewBox="0 0 24 24" style="enable-background:new 0 0 24 24;" xml:space="preserve">
<style type="text/css">
	.st0{fill:#0072C6;stroke:#0072C6;stroke-width:0.5;stroke-miterlimit:10;}
</style>
<g id="Layer_1_00000057143936698419349410000009928069060493834140_">
	<path class="st0" d="M16.7667,4.9272c-1.7783-1.0919-3.912-1.5516-5.9787-1.2629c-2.3207,0.3242-4.1672,1.4072-5.5574,2.875V3.0001
		c0-0.2762-0.2239-0.5-0.5-0.5h-0.5c-0.2761,0-0.5,0.2238-0.5,0.5v6.0297c0,0.276,0.2236,0.4998,0.4996,0.5l6.0261,0.005
		c0.2761,0.0002,0.5001-0.2233,0.5004-0.4993l0.0006-0.4999c0.0004-0.2763-0.2234-0.5005-0.4996-0.5007l-4.338-0.0031
		c1.163-1.4359,2.8042-2.5137,4.8986-2.847c1.8826-0.2996,3.8426,0.1393,5.4313,1.1929c4.8185,3.1956,4.7309,10.2262-0.2627,13.2823
		c-1.7506,1.0713-3.9081,1.3996-5.8921,0.8742C6.83,19.6695,4.6623,17.022,4.2463,14.0087
		c-0.0366-0.2651-0.2612-0.4605-0.5281-0.4403l-0.4999,0.0378c-0.2831,0.0214-0.5023,0.2759-0.4649,0.5574
		c0.2681,2.0215,1.1972,3.9079,2.6472,5.3579c1.8164,1.8154,4.2021,2.7236,6.5869,2.7236c2.3857,0,4.7715-0.9082,6.5869-2.7236
		C22.7325,15.3635,22.13,8.2202,16.7667,4.9272z"/>
</g>
</svg>
