<?xml version="1.0" encoding="utf-8"?>
<!-- Generator: Adobe Illustrator 26.0.3, SVG Export Plug-In . SVG Version: 6.00 Build 0)  -->
<svg version="1.1" id="Layer_1" xmlns="http://www.w3.org/2000/svg" xmlns:xlink="http://www.w3.org/1999/xlink" x="0px" y="0px"
	 viewBox="0 0 16 16" style="enable-background:new 0 0 16 16;" xml:space="preserve">
<path style="fill:#606160;" d="M6.271,7.028c-1.657,0-3.004-1.348-3.004-3.004S4.614,1.02,6.271,1.02s3.004,1.348,3.004,3.004
	S7.927,7.028,6.271,7.028z M6.271,2.021c-1.104,0-2.003,0.899-2.003,2.003s0.899,2.003,2.003,2.003s2.003-0.899,2.003-2.003
	S7.375,2.021,6.271,2.021z M1.694,15.009H1.193c-0.138,0-0.25-0.112-0.25-0.25v-2.353c0.001-1.613,0.872-3.073,2.39-3.864
	c0.581-0.303,1.24-0.428,1.896-0.428h0.007h2.553c0.63,0,1.255,0.14,1.823,0.408c0.128,0.06,0.175,0.222,0.107,0.346L9.477,9.309
	C9.413,9.426,9.272,9.467,9.15,9.411C8.724,9.217,8.259,9.115,7.789,9.115H5.234H5.229c-0.527,0-1.055,0.11-1.517,0.362
	c-1.125,0.614-1.767,1.717-1.768,2.919v2.363C1.944,14.897,1.833,15.009,1.694,15.009z"/>
<path style="fill:#6DAD15;" d="M12.424,8.223L12.07,8.577c-0.098,0.098-0.098,0.256,0,0.354l1.129,1.129h-1.354
	c-1.728,0-3.129,1.401-3.129,3.129v1.581c0,0.138,0.112,0.25,0.25,0.25h0.501c0.138,0,0.25-0.112,0.25-0.25v-1.581
	c0-1.175,0.953-2.128,2.128-2.128h1.309l-1.084,1.084c-0.098,0.098-0.098,0.256,0,0.354l0.354,0.354
	c0.098,0.098,0.256,0.098,0.354,0l2.138-2.138c0.098-0.098,0.098-0.256,0-0.354l-2.138-2.138C12.68,8.125,12.522,8.125,12.424,8.223
	z"/>
<path style="fill:none;" d="M16,16H0V0h16V16z"/>
</svg>
