<svg xmlns="http://www.w3.org/2000/svg" width="24" height="24" viewBox="0 0 24 24">
  <g id="Group_62982" data-name="Group 62982" transform="translate(-321 -90)">
    <rect id="Rectangle_16746" data-name="Rectangle 16746" width="24" height="24" transform="translate(321 90)" fill="none"/>
    <path id="Path_54776" data-name="Path 54776" d="M17.364,8l-3.636,4h2.727A5.751,5.751,0,0,1,11,18a4.956,4.956,0,0,1-2.545-.7L7.127,18.76A6.741,6.741,0,0,0,11,20c4.018,0,7.273-3.58,7.273-8H21ZM5.545,12A5.751,5.751,0,0,1,11,6a4.956,4.956,0,0,1,2.545.7l1.327-1.46A6.741,6.741,0,0,0,11,4C6.982,4,3.727,7.58,3.727,12H1l3.636,4,3.636-4Z" transform="translate(322 89.999)" fill="#606060"/>
  </g>
</svg>
