<?xml version="1.0" encoding="utf-8"?>
<!-- Generator: Adobe Illustrator 26.0.3, SVG Export Plug-In . SVG Version: 6.00 Build 0)  -->
<svg version="1.1" id="Layer_1" xmlns="http://www.w3.org/2000/svg" xmlns:xlink="http://www.w3.org/1999/xlink" x="0px" y="0px"
	 viewBox="0 0 16 16" style="enable-background:new 0 0 16 16;" xml:space="preserve">
<path style="fill:#626161;" d="M14.067,6.2H7.759V4.458C7.759,2.551,6.246,1,4.385,1C2.494,1,1.013,2.466,1.013,4.337L1.002,6.449
	C1.001,6.588,1.113,6.7,1.252,6.7h0.5c0.138,0,0.249-0.111,0.25-0.249l0.01-2.115C2.012,3.026,3.054,2,4.385,2
	c1.309,0,2.373,1.102,2.373,2.458V6.2H5.38c-0.516,0-0.934,0.418-0.934,0.934v6.933C4.446,14.582,4.864,15,5.38,15h8.688
	c0.516,0,0.934-0.418,0.934-0.934V7.134C15.001,6.618,14.583,6.2,14.067,6.2z M14.001,14.001l-8.555,0.065L5.38,7.2l8.621-0.066
	V14.001z M9.723,11.967c0.755,0,1.368-0.613,1.368-1.367c0-0.753-0.613-1.366-1.368-1.366S8.354,9.847,8.354,10.6
	C8.354,11.354,8.969,11.967,9.723,11.967z M9.723,10.233c0.203,0,0.368,0.164,0.368,0.366s-0.165,0.367-0.368,0.367
	S9.354,10.802,9.354,10.6S9.52,10.233,9.723,10.233z"/>
<path style="fill:none;" d="M16,16H0V0h16V16z"/>
</svg>
