<?xml version="1.0" encoding="utf-8"?>
<!-- Generator: Adobe Illustrator 25.4.1, SVG Export Plug-In . SVG Version: 6.00 Build 0)  -->
<svg version="1.1" id="Layer_1" xmlns="http://www.w3.org/2000/svg" xmlns:xlink="http://www.w3.org/1999/xlink" x="0px" y="0px"
	 viewBox="0 0 16 16" style="enable-background:new 0 0 16 16;" xml:space="preserve">
<style type="text/css">
	.st0{fill:#616160;}
</style>
<g id="Icons">
	<g>
		<path class="st0" d="M2.977,5.136c-1.103,0-2-0.897-2-2s0.897-2,2-2s2,0.897,2,2S4.08,5.136,2.977,5.136z M2.977,2.136
			c-0.551,0-1,0.448-1,1s0.449,1,1,1s1-0.448,1-1S3.529,2.136,2.977,2.136z"/>
	</g>
	<g>
		<path class="st0" d="M2.977,10.099c-1.103,0-2-0.897-2-2s0.897-2,2-2s2,0.897,2,2S4.08,10.099,2.977,10.099z M2.977,7.099
			c-0.551,0-1,0.448-1,1s0.449,1,1,1s1-0.448,1-1S3.529,7.099,2.977,7.099z"/>
	</g>
	<g>
		<path class="st0" d="M2.977,15.063c-1.103,0-2-0.897-2-2s0.897-2,2-2s2,0.897,2,2S4.08,15.063,2.977,15.063z M2.977,12.063
			c-0.551,0-1,0.448-1,1s0.449,1,1,1s1-0.448,1-1S3.529,12.063,2.977,12.063z"/>
	</g>
	<g>
		<rect x="6.197" y="2.636" class="st0" width="8.803" height="1"/>
	</g>
	<g>
		<rect x="6.197" y="7.599" class="st0" width="8.803" height="1"/>
	</g>
	<g>
		<rect x="6.197" y="12.563" class="st0" width="8.803" height="1"/>
	</g>
</g>
</svg>
