<?xml version="1.0" encoding="utf-8"?>
<!-- Generator: Adobe Illustrator 26.0.3, SVG Export Plug-In . SVG Version: 6.00 Build 0)  -->
<svg version="1.1" id="Layer_1" xmlns="http://www.w3.org/2000/svg" xmlns:xlink="http://www.w3.org/1999/xlink" x="0px" y="0px"
	 viewBox="0 0 16 16" style="enable-background:new 0 0 16 16;" xml:space="preserve">
<path style="fill:#616160;" d="M11.445,9.361H7.633c-0.139,0-0.251-0.112-0.251-0.251V5.298c0-0.139,0.112-0.251,0.251-0.251h0.506
	c0.139,0,0.251,0.112,0.251,0.251v3.054h3.055c0.139,0,0.251,0.112,0.251,0.251V9.11C11.696,9.248,11.583,9.361,11.445,9.361z
	 M7.999,15C4.57,15,1.78,12.21,1.78,8.781s2.79-6.219,6.219-6.219c3.43,0,6.22,2.79,6.22,6.219S11.429,15,7.999,15z M7.999,3.571
	c-2.872,0-5.21,2.338-5.21,5.21s2.337,5.21,5.21,5.21c2.873,0,5.211-2.338,5.211-5.21S10.872,3.571,7.999,3.571z M1.503,5.198
	L1.145,4.84c-0.098-0.098-0.098-0.257,0-0.355l3.412-3.412c0.098-0.098,0.257-0.098,0.355,0L5.27,1.432
	c0.098,0.098,0.098,0.257,0,0.355L1.858,5.198C1.76,5.297,1.601,5.297,1.503,5.198z M14.142,5.228L10.73,1.816
	c-0.098-0.098-0.098-0.257,0-0.355l0.358-0.358c0.098-0.098,0.257-0.098,0.355,0l3.412,3.412c0.098,0.098,0.098,0.257,0,0.355
	l-0.358,0.358C14.399,5.326,14.24,5.326,14.142,5.228z"/>
</svg>
