<?xml version="1.0" encoding="utf-8"?>
<!-- Generator: Adobe Illustrator 25.4.1, SVG Export Plug-In . SVG Version: 6.00 Build 0)  -->
<svg version="1.1" xmlns="http://www.w3.org/2000/svg" xmlns:xlink="http://www.w3.org/1999/xlink" x="0px" y="0px"
	 viewBox="0 0 24 24" style="enable-background:new 0 0 24 24;" xml:space="preserve">
<style type="text/css">
	.st0{fill:#FDF0E9;}
	.st1{opacity:0.1;}
	.st2{fill:#0072C6;}
	.st3{fill:#FFFFFF;}
	.st4{fill:#606060;}
	.st5{fill:#ED702D;}
	.st6{fill:none;stroke:#FFFFFF;stroke-width:1.5;stroke-linecap:round;}
</style>
<g id="BG">
</g>
<g id="Icons">
	<g>
		<g id="XMLID_00000072980521729701090640000008777999325849458306_">
			<path class="st2" d="M11.9261,12.8948L8.104,12.8921v-3.825c0-0.1657,0.1343-0.3,0.3-0.3h0.9c0.1657,0,0.3,0.1343,0.3,0.3v2.326
				l2.3231,0.0017c0.1657,0.0001,0.2999,0.1345,0.2998,0.3002l-0.0006,0.9C12.2262,12.7607,12.0917,12.8949,11.9261,12.8948z"/>
		</g>
		<g id="XMLID_00000151515479649017125310000015850109291527709865_">
			<path class="st2" d="M12.6875,17.3779c-0.9813,0-1.9623-0.3392-2.7507-1.0172c-0.1308-0.1125-0.1313-0.32-0.0093-0.442
				l0.6405-0.6405c0.1104-0.1104,0.2806-0.1076,0.4017-0.009c1.2469,1.0153,3.1903,0.7619,4.0881-0.764
				c0.4795-0.815,0.4804-1.8736,0.0023-2.6896c-0.947-1.6163-3.0671-1.8087-4.2968-0.5819c-0.1797,0.1802-0.333,0.3838-0.4556,0.604
				l-1.3115-0.7285c0.6299-1.1335,1.786-1.9716,3.2013-2.1761c0.7191-0.1039,1.4668,0.0144,2.1282,0.3153
				c2.9108,1.3242,3.3599,4.8817,1.3472,6.8949C14.8501,16.9663,13.7686,17.3779,12.6875,17.3779z"/>
		</g>
		<g>
			<path class="st2" d="M18.0259,20.8555H5.9741c-2.1953,0-3.981-1.7856-3.981-3.981V9.6758c0-2.1953,1.7856-3.981,3.981-3.981
				h1.1885c0.1016,0,0.1846-0.083,0.1846-0.1846c0-1.3047,1.061-2.3657,2.3657-2.3657h4.5747c1.3042,0,2.3652,1.061,2.3652,2.3657
				c0,0.1016,0.083,0.1846,0.1846,0.1846h1.1885c2.1953,0,3.981,1.7856,3.981,3.981v7.1987
				C22.0068,19.0698,20.2212,20.8555,18.0259,20.8555z M5.9741,7.1948c-1.3682,0-2.481,1.1128-2.481,2.481v7.1987
				c0,1.3682,1.1128,2.481,2.481,2.481h12.0518c1.3682,0,2.481-1.1128,2.481-2.481V9.6758c0-1.3682-1.1128-2.481-2.481-2.481
				h-1.1885c-0.9287,0-1.6846-0.7559-1.6846-1.6846c0-0.4775-0.3882-0.8657-0.8652-0.8657H9.7129
				c-0.4775,0-0.8657,0.3882-0.8657,0.8657c0,0.9287-0.7559,1.6846-1.6846,1.6846H5.9741z"/>
		</g>
	</g>
</g>
</svg>
