<?xml version="1.0" encoding="utf-8"?>
<!-- Generator: Adobe Illustrator 25.4.1, SVG Export Plug-In . SVG Version: 6.00 Build 0)  -->
<svg version="1.1" xmlns="http://www.w3.org/2000/svg" xmlns:xlink="http://www.w3.org/1999/xlink" x="0px" y="0px"
	 viewBox="0 0 24 24" style="enable-background:new 0 0 24 24;" xml:space="preserve">
<style type="text/css">
	.st0{fill:#FDF0E9;}
	.st1{opacity:0.1;}
	.st2{fill:#0072C6;}
	.st3{fill:#FFFFFF;}
	.st4{fill:#606060;}
	.st5{fill:#ED702D;}
	.st6{fill:none;stroke:#FFFFFF;stroke-width:1.5;stroke-linecap:round;}
</style>
<g id="BG">
</g>
<g id="Icons">
	<g id="XMLID_00000139255356954044819710000014498095068745828766_">
		<path class="st2" d="M13.2664,8.8177l-0.0006-0.8336c-0.0001-0.1657,0.1341-0.3001,0.2998-0.3002l5.3748-0.0042V2.3
			c0-0.1657,0.1343-0.3,0.3-0.3h0.8336c0.1657,0,0.3,0.1343,0.3,0.3v6.8123l-6.8074,0.0051
			C13.4009,9.1176,13.2665,8.9833,13.2664,8.8177z"/>
	</g>
	<g id="XMLID_00000165218025099594630020000013785594141433261199_">
		<path class="st2" d="M12.0127,22.0654c-0.2397,0-0.4785-0.0093-0.7173-0.0269l0.1074-1.4292
			c0.6538,0.0493,1.3188,0.0186,1.9673-0.0928l0.2412,1.4131C13.084,22.0195,12.5464,22.0654,12.0127,22.0654z M9.7656,21.7949
			c-0.7544-0.1836-1.4844-0.4609-2.1704-0.8242l0.6709-1.2666c0.5811,0.3076,1.1997,0.5425,1.8384,0.6982L9.7656,21.7949z
			 M15.1118,21.5439l-0.4697-1.3545c0.6211-0.2153,1.2148-0.5078,1.7642-0.8691l0.7881,1.1973
			C16.5454,20.9443,15.8447,21.2896,15.1118,21.5439z M18.4131,19.564l-0.9707-1.0547c0.0781-0.0718,0.1553-0.146,0.231-0.2222
			c0.3906-0.3906,0.7412-0.8208,1.042-1.2793l1.1982,0.7861c-0.3545,0.54-0.7671,1.0474-1.2266,1.5068
			C18.5967,19.3906,18.5059,19.4785,18.4131,19.564z M20.6533,16.4307l-1.3115-0.5771c0.2642-0.6016,0.4541-1.2358,0.564-1.8853
			l1.4131,0.2393C21.1895,14.9731,20.9658,15.7212,20.6533,16.4307z"/>
	</g>
	<g id="XMLID_00000172405271962586252020000015569112275082550148_">
		<path class="st2" d="M7.5952,20.9707c-0.8281-0.439-1.5874-1.001-2.2568-1.6699c-3.6802-3.6802-3.6802-9.6685,0-13.3486
			c3.6807-3.6797,9.668-3.6797,13.3486,0c0.624,0.624,1.1558,1.3281,1.5806,2.0928l-1.2529,0.6963
			c-0.3604-0.6484-0.8115-1.2456-1.3413-1.7754c-1.5117-1.5122-3.5225-2.3447-5.6606-2.3447S7.8638,5.4536,6.3521,6.9658
			c-3.1216,3.1211-3.1216,8.2002,0,11.3213c0.5679,0.5684,1.2124,1.0449,1.9141,1.417L7.5952,20.9707z"/>
	</g>
</g>
</svg>
