<?xml version="1.0" encoding="utf-8"?>
<!-- Generator: Adobe Illustrator 27.3.1, SVG Export Plug-In . SVG Version: 6.00 Build 0)  -->
<svg version="1.1" id="pdf" xmlns="http://www.w3.org/2000/svg" xmlns:xlink="http://www.w3.org/1999/xlink" x="0px" y="0px"
	 viewBox="0 0 24 24" style="enable-background:new 0 0 24 24;" xml:space="preserve">
<g id="Path_54273">
	<path style="fill:#F0F0F0;" d="M15,8.5c-0.6,0-1.2-0.5-1.2-1.2v-5H4c-0.7,0-1.2,0.6-1.2,1.2v16.1c0,0.7,0.6,1.2,1.2,1.2h13.9
		c0.7,0,1.2-0.6,1.2-1.2V8.5H15z"/>
</g>
<g id="Path_54274">
	<path style="fill:#BBBDBF;" d="M14.2,8.2V2.9l4.5,5.3C18.7,8.2,14.2,8.2,14.2,8.2z"/>
</g>
<g id="Path_54275">
	<path style="fill:#BBBDBF;" d="M14.5,3.8L18,7.9h-3.5V3.8 M13.8,2v6.5h5.6L13.8,2z"/>
</g>
<g id="Path_54276">
	<path style="fill:#BBBDBF;" d="M17.8,21.4H4c-1,0-1.7-0.8-1.7-1.7V3.6c0-1,0.8-1.7,1.7-1.7h9.9v1H4c-0.4,0-0.7,0.3-0.7,0.7v16.1
		c0,0.4,0.3,0.7,0.7,0.7h13.9c0.4,0,0.7-0.3,0.7-0.7V8.5h1v11.1C19.6,20.6,18.8,21.4,17.8,21.4z"/>
</g>
<g id="Path_54277">
	<path style="fill:#7C5D5D;" d="M19.7,21.6H3.4C2.6,21.6,2,21,2,20.2v-8.3c0-0.8,0.6-1.4,1.4-1.4l0,0h16.3c0.8,0,1.4,0.6,1.4,1.4
		v8.3C21.1,21,20.5,21.6,19.7,21.6z"/>
</g>
<g>
	<path style="fill:#FFFFFF;" d="M6.312,16.597v2.191H5.101v-5.711h1.664c0.776,0,1.35,0.142,1.723,0.424
		c0.373,0.283,0.559,0.712,0.559,1.287c0,0.336-0.092,0.635-0.277,0.896S8.322,16.151,7.983,16.3
		c0.859,1.284,1.419,2.113,1.68,2.488H8.319l-1.363-2.191H6.312z M6.312,15.612h0.391c0.383,0,0.666-0.063,0.848-0.191
		s0.273-0.328,0.273-0.602c0-0.271-0.093-0.464-0.279-0.578s-0.475-0.172-0.865-0.172H6.312V15.612z"/>
	<path style="fill:#FFFFFF;" d="M12.585,18.788h-1.211v-4.703H9.823v-1.008h4.312v1.008h-1.55V18.788z"/>
	<path style="fill:#FFFFFF;" d="M16.205,18.788h-1.191v-5.711h3.273v0.992h-2.082v1.473h1.938v0.988h-1.938V18.788z"/>
</g>
</svg>
