<?xml version="1.0" encoding="utf-8"?>
<!-- Generator: Adobe Illustrator 25.4.1, SVG Export Plug-In . SVG Version: 6.00 Build 0)  -->
<svg version="1.1" id="Layer_1" xmlns="http://www.w3.org/2000/svg" xmlns:xlink="http://www.w3.org/1999/xlink" x="0px" y="0px"
	 viewBox="0 0 24 24" style="enable-background:new 0 0 24 24;" xml:space="preserve">
<style type="text/css">
	.st0{fill:#606060;}
</style>
<path class="st0" d="M21.206,8.444L15.62,2.81C15.109,2.295,14.401,2,13.677,2h-8.94C3.228,2,2,3.228,2,4.737v14.525
	C2,20.772,3.228,22,4.737,22h15.896c0.366,0,0.709-0.143,0.966-0.4c0.361-0.361,0.4-0.796,0.4-0.966V10.371
	C22,9.644,21.718,8.959,21.206,8.444z M13.846,3.534v2.733c0,1.046-0.881,1.896-1.963,1.896H8.518c-1.082,0-1.963-0.851-1.963-1.896
	V3.5h7.123C13.735,3.5,13.788,3.526,13.846,3.534z M16.8,20.5H7.2v-4.663c0-0.682,0.555-1.237,1.237-1.237h7.125
	c0.683,0,1.237,0.555,1.237,1.237V20.5z M20.5,20.5h-2.2v-4.663c0-1.509-1.227-2.737-2.737-2.737H8.438
	c-1.509,0-2.737,1.228-2.737,2.737V20.5H4.737c-0.682,0-1.237-0.555-1.237-1.237V4.737C3.5,4.055,4.055,3.5,4.737,3.5h0.317v2.767
	c0,1.873,1.554,3.396,3.463,3.396h3.365c1.909,0,3.463-1.523,3.463-3.396V4.663L20.142,9.5c0.231,0.233,0.358,0.542,0.358,0.871
	V20.5z"/>
</svg>
