<?xml version="1.0" encoding="utf-8"?>
<!-- Generator: Adobe Illustrator 25.4.0, SVG Export Plug-In . SVG Version: 6.00 Build 0)  -->
<svg version="1.1" xmlns="http://www.w3.org/2000/svg" xmlns:xlink="http://www.w3.org/1999/xlink" x="0px" y="0px"
	 viewBox="0 0 24 24" enable-background="new 0 0 24 24" xml:space="preserve">
<g id="Layer_3">
</g>
<g id="Layer_4" display="none">
</g>
<g id="Layer_1">
	<path d="M21.478,20.426l-5.466-5.466c1.145-1.377,1.835-3.145,1.835-5.072c0-4.383-3.566-7.948-7.949-7.948
		S1.949,5.505,1.949,9.888s3.565,7.949,7.948,7.949c1.917,0,3.678-0.682,5.053-1.817l5.467,5.467c0.195,0.195,0.512,0.195,0.707,0
		l0.353-0.353C21.673,20.938,21.673,20.622,21.478,20.426z M3.449,9.888c0-3.556,2.893-6.448,6.448-6.448s6.449,2.893,6.449,6.448
		s-2.894,6.449-6.449,6.449S3.449,13.444,3.449,9.888z"/>
</g>
</svg>
