<?xml version="1.0" encoding="utf-8"?>
<!-- Generator: Adobe Illustrator 26.3.1, SVG Export Plug-In . SVG Version: 6.00 Build 0)  -->
<svg version="1.1" id="Layer_1" xmlns="http://www.w3.org/2000/svg" xmlns:xlink="http://www.w3.org/1999/xlink" x="0px" y="0px"
	 viewBox="0 0 16 16" style="enable-background:new 0 0 16 16;" xml:space="preserve">
<style type="text/css">
	.st0{fill:none;}
	.st1{fill-rule:evenodd;clip-rule:evenodd;fill:#0D6F08;}
</style>
<rect class="st0" width="16" height="16"/>
<path class="st1" d="M8,0C3.6,0,0,3.6,0,8s3.6,8,8,8s8-3.6,8-8S12.4,0,8,0z M13,5.8l-6.6,6.6c-0.1,0.1-0.2,0.1-0.4,0L2.6,9.1
	C2.5,9,2.5,8.9,2.6,8.7l0.9-0.9c0.1-0.1,0.2-0.1,0.4,0l2.5,2.5l5.7-5.7c0.1-0.1,0.2-0.1,0.4,0l0.9,0.9C13.2,5.5,13.2,5.7,13,5.8z"/>
</svg>
