<?xml version="1.0" encoding="utf-8"?>
<!-- Generator: Adobe Illustrator 25.4.1, SVG Export Plug-In . SVG Version: 6.00 Build 0)  -->
<svg version="1.1" xmlns="http://www.w3.org/2000/svg" xmlns:xlink="http://www.w3.org/1999/xlink" x="0px" y="0px"
	 viewBox="0 0 16 16" style="enable-background:new 0 0 16 16;" xml:space="preserve">
<style type="text/css">
	.st0{fill:#FDF0E9;}
	.st1{opacity:0.1;}
	.st2{fill:#0072C6;}
	.st3{fill:#FFFFFF;}
	.st4{fill:#606060;}
	.st5{fill:#ED702D;}
	.st6{fill:none;stroke:#FFFFFF;stroke-width:1.5;stroke-linecap:round;}
</style>
<g id="BG">
</g>
<g id="Icons">
	<path class="st4" d="M3.248,1C2.0083,1,1,2.0088,1,3.248v9.5039C1,13.9912,2.0083,15,3.248,15H15v-4.4961V1H3.248z M3.248,14
		c-0.7307,0-1.3172-0.6313-1.2415-1.3778c0.0659-0.6496,0.662-1.1183,1.3149-1.1183l10.6785,0v0.748H4.0703
		c-0.1381,0-0.25,0.1119-0.25,0.25v0.5c0,0.1381,0.1119,0.25,0.25,0.25H14V14H3.248z M3.248,10.5039
		c-0.4616,0-0.8907,0.1406-1.248,0.3801V3.248C2,2.5596,2.5601,2,3.248,2h0.8477v5.5537L6.0249,5.624l1.9497,1.9492V2H14v8.5039
		H3.248z"/>
</g>
</svg>
