<?xml version="1.0" encoding="utf-8"?>
<!-- Generator: Adobe Illustrator 25.4.1, SVG Export Plug-In . SVG Version: 6.00 Build 0)  -->
<svg version="1.1" id="Layer_1" xmlns="http://www.w3.org/2000/svg" xmlns:xlink="http://www.w3.org/1999/xlink" x="0px" y="0px"
	 viewBox="0 0 20 20" style="enable-background:new 0 0 20 20;" xml:space="preserve">
<style type="text/css">
	.st0{clip-path:url(#SVGID_00000042706229535995385140000002709417865361006782_);fill:#606060;}
</style>
<g>
	<g>
		<g>
			<defs>
				<rect id="SVGID_1_" x="2" y="2" width="16" height="16"/>
			</defs>
			<clipPath id="SVGID_00000145022266432474303750000016953973756171693716_">
				<use xlink:href="#SVGID_1_"  style="overflow:visible;"/>
			</clipPath>
			<path style="clip-path:url(#SVGID_00000145022266432474303750000016953973756171693716_);fill:#606060;" d="M11.503,18H8.5
				C8.224,18,8,17.776,8,17.5l0.001-1.589c-0.369-0.153-0.396-0.164-0.766-0.317l-1.109,1.11C5.931,16.9,5.614,16.9,5.419,16.705
				l-2.13-2.131c-0.197-0.197-0.195-0.516,0.003-0.711l1.117-1.095c-0.152-0.371-0.162-0.396-0.314-0.767l-1.594,0.001
				C2.224,12.003,2,11.779,2,11.502V8.499c0-0.276,0.224-0.5,0.501-0.5l1.594,0.002c0.156-0.36,0.17-0.394,0.326-0.754L3.342,6.1
				C3.157,5.904,3.161,5.597,3.35,5.406c0.686-0.695,1.372-1.39,2.058-2.085c0.193-0.195,0.508-0.198,0.705-0.006l1.125,1.097
				C7.605,4.258,7.635,4.245,8.001,4.09L8,2.5C8,2.224,8.224,2,8.5,2h3.003c0.276,0,0.5,0.224,0.5,0.5l-0.002,1.594l0.763,0.319
				l1.106-1.091c0.194-0.192,0.506-0.192,0.701-0.002l2.133,2.09c0.199,0.195,0.201,0.514,0.004,0.711l-1.116,1.114
				C15.744,7.604,15.756,7.631,15.908,8L17.5,7.999c0.276,0,0.5,0.224,0.5,0.5v3.004c0,0.276-0.224,0.5-0.5,0.5h-1.593
				c-0.152,0.369-0.163,0.395-0.315,0.765l1.111,1.104c0.197,0.194,0.197,0.511,0.002,0.707l-2.116,2.126
				c-0.195,0.196-0.512,0.196-0.708,0.001l-1.116-1.115c-0.368,0.153-0.395,0.164-0.763,0.317l0.001,1.592
				C12.003,17.776,11.779,18,11.503,18 M8.999,17h2.004c0.001-0.436,0.001-0.868-0.003-1.3c-0.002-0.216,0.075-0.504,0.454-0.65
				c0.371-0.145,0.739-0.297,1.104-0.459c0.357-0.158,0.612-0.015,0.759,0.136c0.304,0.309,0.61,0.615,0.916,0.92l1.414-1.413
				l-0.921-0.918c-0.212-0.212-0.261-0.475-0.141-0.746c0.165-0.373,0.321-0.751,0.469-1.131c0.144-0.366,0.43-0.412,0.634-0.438
				c0.403,0.004,0.806,0.005,1.208,0.002H17l-0.029-2.004c-0.43,0-0.856-0.002-1.281,0.003c-0.215,0-0.496-0.076-0.635-0.439
				c-0.143-0.371-0.291-0.739-0.455-1.099c-0.135-0.296-0.085-0.571,0.143-0.796c0.306-0.301,0.609-0.604,0.908-0.904l-1.413-1.413
				l-0.93,0.932c-0.204,0.205-0.461,0.253-0.731,0.137c-0.376-0.166-0.752-0.324-1.132-0.47c-0.372-0.144-0.446-0.432-0.444-0.646
				L11.003,3H9l0.001,1.324c0,0.291-0.147,0.509-0.416,0.615c-0.393,0.154-0.778,0.314-1.16,0.483
				C7.27,5.491,6.968,5.561,6.69,5.278L5.776,4.362L4.363,5.775l0.919,0.918C5.486,6.891,5.539,7.16,5.42,7.427
				C5.255,7.803,5.096,8.184,4.945,8.569C4.796,8.95,4.502,9.018,4.321,9.001L3,8.999v2.004l1.321-0.002
				c0.172,0,0.477,0.056,0.623,0.431c0.151,0.384,0.31,0.765,0.477,1.143c0.117,0.268,0.068,0.527-0.137,0.733L4.359,14.23
				l1.414,1.414l0.005-0.005c0.301-0.302,0.608-0.608,0.911-0.915c0.121-0.123,0.379-0.299,0.749-0.134
				c0.351,0.156,0.706,0.31,1.068,0.443c0.337,0.124,0.504,0.367,0.497,0.721c-0.006,0.378-0.005,0.759-0.004,1.139V17z
				 M4.326,8.001h0.005H4.326z M4.577,7.402C4.579,7.404,4.58,7.406,4.582,7.407L4.577,7.402z M4.505,7.022
				c0,0.001,0,0.002-0.001,0.002C4.505,7.024,4.505,7.023,4.505,7.022 M14.141,3.741l0.002,0.002L14.141,3.741z M10,13.505H9.992
				c-0.931-0.002-1.809-0.37-2.47-1.035c-0.664-0.667-1.027-1.55-1.024-2.486c0.007-1.924,1.579-3.487,3.505-3.487h0.007
				c1.928,0.005,3.495,1.577,3.495,3.505c-0.001,0.933-0.367,1.813-1.033,2.476C11.808,13.141,10.931,13.505,10,13.505
				 M10.003,7.497c-1.377,0-2.5,1.116-2.505,2.491c-0.002,0.668,0.258,1.299,0.733,1.777c0.472,0.475,1.099,0.738,1.763,0.74H10
				c0.664,0,1.291-0.261,1.766-0.735c0.476-0.474,0.739-1.102,0.739-1.768c0-1.378-1.12-2.502-2.497-2.505
				C10.008,7.497,10.003,7.497,10.003,7.497z"/>
		</g>
	</g>
</g>
</svg>
