<svg id="Layer_1" data-name="Layer 1" xmlns="http://www.w3.org/2000/svg" viewBox="0 0 16 16"><g id="Share_2" data-name="Share 2"><g id="Group_59977" data-name="Group 59977"><path id="Path_53834" data-name="Path 53834" d="M13.83,10h-.5a.26.26,0,0,0-.25.25h0V15H1v-9H3.77A.26.26,0,0,0,4,5.69v-.5a.26.26,0,0,0-.26-.25H1a1,1,0,0,0-1,1V15a1,1,0,0,0,1,1H13.08a1,1,0,0,0,1-1V10.22a.26.26,0,0,0-.25-.26Z" fill="#606060"/><path id="Path_53835" data-name="Path 53835" d="M15.93,3.6,12.4.07a.25.25,0,0,0-.35,0h0l-.35.36a.24.24,0,0,0,0,.35h0l2.43,2.44H9.87a5,5,0,0,0-5,4.71.26.26,0,0,0,.25.26h.51A.24.24,0,0,0,5.86,8a4,4,0,0,1,4-3.73h4.37L11.69,6.76a.25.25,0,0,0,0,.35h0l.36.35a.24.24,0,0,0,.35,0h0L15.93,4A.26.26,0,0,0,15.93,3.6Z" fill="#606060"/></g></g></svg>