<?xml version="1.0" encoding="utf-8"?>
<!-- Generator: Adobe Illustrator 25.4.0, SVG Export Plug-In . SVG Version: 6.00 Build 0)  -->
<svg version="1.1" xmlns="http://www.w3.org/2000/svg" xmlns:xlink="http://www.w3.org/1999/xlink" x="0px" y="0px"
	 viewBox="0 0 24 24" enable-background="new 0 0 24 24" xml:space="preserve">
<g id="Layer_3">
</g>
<g id="Layer_4" display="none">
</g>
<g id="Layer_1">
	<g>
		<path d="M7.751,3.223c-0.195-0.195-0.511-0.195-0.707,0L3.241,7.02c-0.195,0.195-0.196,0.512,0,0.707l0.354,0.354
			c0.195,0.195,0.512,0.195,0.707,0l2.344-2.34V20.5c0,0.276,0.224,0.5,0.5,0.5h0.5c0.276,0,0.5-0.224,0.5-0.5V5.737l2.351,2.351
			c0.195,0.195,0.512,0.195,0.707,0l0.353-0.353c0.195-0.195,0.195-0.512,0-0.707L7.751,3.223z"/>
		<path d="M20.759,16.413l-0.354-0.354c-0.195-0.195-0.512-0.195-0.707,0l-2.344,2.34V3.5c0-0.276-0.224-0.5-0.5-0.5h-0.5
			c-0.276,0-0.5,0.224-0.5,0.5v14.903l-2.35-2.35c-0.195-0.195-0.512-0.195-0.707,0l-0.353,0.353c-0.195,0.195-0.195,0.512,0,0.707
			l3.804,3.803c0.195,0.195,0.511,0.195,0.707,0l3.803-3.797C20.954,16.926,20.954,16.609,20.759,16.413z"/>
	</g>
</g>
</svg>
