<?xml version="1.0" encoding="utf-8"?>
<!-- Generator: Adobe Illustrator 25.4.1, SVG Export Plug-In . SVG Version: 6.00 Build 0)  -->
<svg version="1.1" xmlns="http://www.w3.org/2000/svg" xmlns:xlink="http://www.w3.org/1999/xlink" x="0px" y="0px"
	 viewBox="0 0 24 24" style="enable-background:new 0 0 24 24;" xml:space="preserve">
<style type="text/css">
	.st0{fill:#FDF0E9;}
	.st1{opacity:0.1;}
	.st2{fill:#0072C6;}
	.st3{fill:#FFFFFF;}
	.st4{fill:#606060;}
	.st5{fill:#ED702D;}
	.st6{fill:none;stroke:#FFFFFF;stroke-width:1.5;stroke-linecap:round;}
</style>
<g id="BG">
</g>
<g id="Icons">
	<g>
		<path class="st2" d="M9.291,21.9907H3.3584c-0.7534,0-1.3662-0.6128-1.3662-1.3662v-5.9326c0-0.7534,0.6128-1.3662,1.3662-1.3662
			H9.291c0.7534,0,1.3662,0.6128,1.3662,1.3662v5.9326C10.6572,21.3779,10.0444,21.9907,9.291,21.9907z M3.4922,20.4907h5.665
			v-5.665h-5.665V20.4907z"/>
	</g>
	<g>
		<path class="st2" d="M9.291,10.6694H3.3584c-0.7534,0-1.3662-0.6128-1.3662-1.3662V3.3706c0-0.7534,0.6128-1.3662,1.3662-1.3662
			H9.291c0.7534,0,1.3662,0.6128,1.3662,1.3662v5.9326C10.6572,10.0566,10.0444,10.6694,9.291,10.6694z M3.4922,9.1694h5.665v-5.665
			h-5.665V9.1694z"/>
	</g>
	<g>
		<path class="st2" d="M20.6304,10.6694h-5.9326c-0.7534,0-1.3662-0.6128-1.3662-1.3662V3.3706
			c0-0.7534,0.6128-1.3662,1.3662-1.3662h5.9326c0.7534,0,1.3662,0.6128,1.3662,1.3662v5.9326
			C21.9966,10.0566,21.3838,10.6694,20.6304,10.6694z M14.8315,9.1694h5.665v-5.665h-5.665V9.1694z"/>
	</g>
	<g>
		<path class="st2" d="M21.75,15.1128h-7.7397c-0.1381,0-0.25-0.1119-0.25-0.25v-1c0-0.1381,0.1119-0.25,0.25-0.25H21.75
			c0.1381,0,0.25,0.1119,0.25,0.25v1C22,15.0009,21.8881,15.1128,21.75,15.1128z"/>
	</g>
	<g>
		<path class="st2" d="M21.75,18.4082h-7.7397c-0.1381,0-0.25-0.1119-0.25-0.25v-1c0-0.1381,0.1119-0.25,0.25-0.25H21.75
			c0.1381,0,0.25,0.1119,0.25,0.25v1C22,18.2963,21.8881,18.4082,21.75,18.4082z"/>
	</g>
	<g>
		<path class="st2" d="M21.75,21.7041h-7.7397c-0.1381,0-0.25-0.1119-0.25-0.25v-1c0-0.1381,0.1119-0.25,0.25-0.25H21.75
			c0.1381,0,0.25,0.1119,0.25,0.25v1C22,21.5922,21.8881,21.7041,21.75,21.7041z"/>
	</g>
</g>
</svg>
