<?xml version="1.0" encoding="utf-8"?>
<!-- Generator: Adobe Illustrator 25.4.1, SVG Export Plug-In . SVG Version: 6.00 Build 0)  -->
<svg version="1.1" id="Layer_1" xmlns="http://www.w3.org/2000/svg" xmlns:xlink="http://www.w3.org/1999/xlink" x="0px" y="0px"
	 viewBox="0 0 24 24" style="enable-background:new 0 0 24 24;" xml:space="preserve">
<style type="text/css">
	.st0{fill:#0072C6;}
</style>
<g id="Icons">
	<g>
		<path class="st0" d="M20.6267,2h-5.93c-0.75,0-1.37,0.62-1.37,1.37V9.3c0,0.76,0.62,1.37,1.37,1.37h5.93
			c0.76,0,1.37-0.61,1.37-1.37V3.37C21.9967,2.62,21.3867,2,20.6267,2z"/>
		<path class="st0" d="M9.2866,13.33h-5.93c-0.75,0-1.36,0.61-1.36,1.36v5.93c0,0.76,0.61,1.37,1.36,1.37h5.93
			c0.76,0,1.37-0.61,1.37-1.37v-5.93C10.6566,13.94,10.0467,13.33,9.2866,13.33z"/>
		<path class="st0" d="M9.2866,2h-5.93c-0.75,0-1.36,0.62-1.36,1.37V9.3c0,0.76,0.61,1.37,1.36,1.37h5.93
			c0.76,0,1.37-0.61,1.37-1.37V3.37C10.6566,2.62,10.0467,2,9.2866,2z"/>
	</g>
	<g>
		<path class="st0" d="M21.75,13.6128h-7.7397c-0.1381,0-0.25,0.1119-0.25,0.25v1c0,0.1381,0.1119,0.25,0.25,0.25H21.75
			c0.1381,0,0.25-0.1119,0.25-0.25v-1C22,13.7247,21.8881,13.6128,21.75,13.6128z"/>
		<path class="st0" d="M21.75,16.9082h-7.7397c-0.1381,0-0.25,0.1119-0.25,0.25v1c0,0.1381,0.1119,0.25,0.25,0.25H21.75
			c0.1381,0,0.25-0.1119,0.25-0.25v-1C22,17.0201,21.8881,16.9082,21.75,16.9082z"/>
		<path class="st0" d="M21.75,20.2041h-7.7397c-0.1381,0-0.25,0.1119-0.25,0.25v1c0,0.1381,0.1119,0.25,0.25,0.25H21.75
			c0.1381,0,0.25-0.1119,0.25-0.25v-1C22,20.316,21.8881,20.2041,21.75,20.2041z"/>
	</g>
</g>
</svg>
