<?xml version="1.0" encoding="utf-8"?>
<!-- Generator: Adobe Illustrator 26.0.2, SVG Export Plug-In . SVG Version: 6.00 Build 0)  -->
<svg version="1.1" id="Layer_1" xmlns="http://www.w3.org/2000/svg" xmlns:xlink="http://www.w3.org/1999/xlink" x="0px" y="0px"
	 viewBox="0 0 20 20" style="enable-background:new 0 0 20 20;" xml:space="preserve">
<path style="fill:#0072C6;" d="M15.23,2.9h-1.87C13.29,2.39,12.87,2,12.34,2H7.61C7.09,2,6.67,2.39,6.59,2.9H4.77
	c-0.83,0-1.5,0.67-1.5,1.5v12.1c0,0.83,0.67,1.5,1.5,1.5h10.46c0.83,0,1.5-0.67,1.5-1.5V4.4C16.73,3.57,16.06,2.9,15.23,2.9z
	 M7.61,3l4.79,0.05v0.94c0,0.03-0.03,0.05-0.06,0.05L7.56,3.99L7.61,3z M7.833,13.483c0,0.276-0.224,0.5-0.5,0.5H6.041
	c-0.276,0-0.5-0.224-0.5-0.5v-1.292c0-0.276,0.224-0.5,0.5-0.5h1.292c0.276,0,0.5,0.224,0.5,0.5V13.483z M7.833,9.741
	c0,0.276-0.224,0.5-0.5,0.5H6.041c-0.276,0-0.5-0.224-0.5-0.5V8.449c0-0.276,0.224-0.5,0.5-0.5h1.292c0.276,0,0.5,0.224,0.5,0.5
	V9.741z M14.355,13.087c0,0.138-0.112,0.25-0.25,0.25H9.634c-0.138,0-0.25-0.112-0.25-0.25v-0.5c0-0.138,0.112-0.25,0.25-0.25h4.471
	c0.138,0,0.25,0.112,0.25,0.25V13.087z M14.355,9.345c0,0.138-0.112,0.25-0.25,0.25H9.634c-0.138,0-0.25-0.112-0.25-0.25v-0.5
	c0-0.138,0.112-0.25,0.25-0.25h4.471c0.138,0,0.25,0.112,0.25,0.25V9.345z"/>
</svg>
