<svg xmlns="http://www.w3.org/2000/svg" width="17.097" height="19" viewBox="0 0 17.097 19"><defs><style>.a{fill:#3a3a3a;}</style></defs><path class="a" d="M18.568,5.347a.441.441,0,0,1-.219-.057,11.121,11.121,0,0,0-10.583,0,.476.476,0,1,1-.456-.836,12.088,12.088,0,0,1,11.476-.01.481.481,0,0,1-.218.9ZM4.973,10.334a.5.5,0,0,1-.275-.085.474.474,0,0,1-.114-.665A9.822,9.822,0,0,1,8.146,6.477a10.966,10.966,0,0,1,9.795-.009A9.859,9.859,0,0,1,21.5,9.555a.477.477,0,0,1-.779.551A8.918,8.918,0,0,0,17.5,7.313a10.01,10.01,0,0,0-8.93.01,9.012,9.012,0,0,0-3.23,2.812.414.414,0,0,1-.371.2ZM10.911,21.8a.446.446,0,0,1-.332-.142A9.6,9.6,0,0,1,8.669,19.15a8.433,8.433,0,0,1-1-4.123,5.261,5.261,0,0,1,5.377-5.121,5.261,5.261,0,0,1,5.377,5.121.475.475,0,0,1-.95,0,4.31,4.31,0,0,0-4.427-4.171,4.31,4.31,0,0,0-4.427,4.171A7.442,7.442,0,0,0,9.5,18.685a8.992,8.992,0,0,0,1.757,2.3.488.488,0,0,1,0,.674A.521.521,0,0,1,10.911,21.8Zm6.812-1.757a5.116,5.116,0,0,1-2.945-.846,5.058,5.058,0,0,1-2.261-4.17.475.475,0,1,1,.95,0,4.086,4.086,0,0,0,1.843,3.382,4.165,4.165,0,0,0,2.413.674,6.278,6.278,0,0,0,.988-.095.477.477,0,0,1,.162.941A6.487,6.487,0,0,1,17.722,20.043ZM15.813,22a.556.556,0,0,1-.123-.019,7.412,7.412,0,0,1-3.534-2,6.932,6.932,0,0,1-2.061-4.959,2.929,2.929,0,0,1,5.852,0,1.981,1.981,0,0,0,3.952,0A6.7,6.7,0,0,0,13.01,8.539a6.935,6.935,0,0,0-6.28,3.828,6.111,6.111,0,0,0-.561,2.66,9.441,9.441,0,0,0,.636,3.429.464.464,0,0,1-.275.608.471.471,0,0,1-.608-.275,10.584,10.584,0,0,1-.693-3.762,7.137,7.137,0,0,1,.646-3.078,7.884,7.884,0,0,1,7.134-4.37,7.652,7.652,0,0,1,7.838,7.438,2.929,2.929,0,0,1-5.852,0,1.981,1.981,0,0,0-3.952,0A5.983,5.983,0,0,0,12.82,19.3a6.46,6.46,0,0,0,3.106,1.757.472.472,0,0,1,.333.58.464.464,0,0,1-.447.361Z" transform="translate(-4.495 -3)"/></svg>