<svg xmlns="http://www.w3.org/2000/svg" width="101" height="101" viewBox="0 0 101 101"><defs><style>.a,.b{fill:#0072c6;}.a{opacity:0.2;}</style></defs><g transform="translate(-130 -208)"><circle class="a" cx="50.5" cy="50.5" r="50.5" transform="translate(130 208)"/><path class="b" d="M45.277,9.8a1.279,1.279,0,0,1-.633-.165A31.5,31.5,0,0,0,29.309,5.753,31.5,31.5,0,0,0,13.974,9.635a1.38,1.38,0,1,1-1.321-2.423A35.029,35.029,0,0,1,45.91,7.185,1.393,1.393,0,0,1,45.277,9.8ZM5.88,24.254a1.434,1.434,0,0,1-.8-.248,1.373,1.373,0,0,1-.33-1.927,28.464,28.464,0,0,1,10.324-9,31.779,31.779,0,0,1,28.384-.028A28.572,28.572,0,0,1,53.784,22a1.383,1.383,0,1,1-2.258,1.6A25.845,25.845,0,0,0,42.193,15.5a29.01,29.01,0,0,0-25.879.028,26.117,26.117,0,0,0-9.36,8.149,1.2,1.2,0,0,1-1.074.578ZM23.087,57.483a1.291,1.291,0,0,1-.964-.413A27.831,27.831,0,0,1,16.59,49.8,24.439,24.439,0,0,1,13.7,37.854c0-8.177,6.993-14.839,15.582-14.839s15.582,6.662,15.582,14.839a1.377,1.377,0,1,1-2.753,0c0-6.662-5.754-12.086-12.829-12.086S16.452,31.191,16.452,37.854a21.568,21.568,0,0,0,2.56,10.6,26.059,26.059,0,0,0,5.093,6.662,1.414,1.414,0,0,1,0,1.955A1.51,1.51,0,0,1,23.087,57.483ZM42.827,52.39a14.826,14.826,0,0,1-8.534-2.45A14.658,14.658,0,0,1,27.74,37.854a1.377,1.377,0,0,1,2.753,0,11.841,11.841,0,0,0,5.341,9.8,12.071,12.071,0,0,0,6.993,1.955,18.194,18.194,0,0,0,2.863-.275,1.383,1.383,0,0,1,.468,2.726A18.8,18.8,0,0,1,42.827,52.39Zm-5.534,5.671a1.611,1.611,0,0,1-.358-.055,21.48,21.48,0,0,1-10.241-5.781,20.088,20.088,0,0,1-5.974-14.371A8.3,8.3,0,0,1,29.2,29.76a8.3,8.3,0,0,1,8.479,8.094,5.74,5.74,0,0,0,11.453,0c0-10.379-8.947-18.8-19.96-18.8a20.1,20.1,0,0,0-18.2,11.095,17.711,17.711,0,0,0-1.624,7.709,27.359,27.359,0,0,0,1.845,9.939,1.344,1.344,0,0,1-.8,1.762,1.365,1.365,0,0,1-1.762-.8,30.671,30.671,0,0,1-2.01-10.9A20.683,20.683,0,0,1,8.5,28.934,22.848,22.848,0,0,1,29.171,16.27c12.526,0,22.713,9.663,22.713,21.556a8.489,8.489,0,0,1-16.959,0A5.544,5.544,0,0,0,29.2,32.485a5.544,5.544,0,0,0-5.726,5.341,17.337,17.337,0,0,0,5.148,12.416,18.721,18.721,0,0,0,9,5.093,1.366,1.366,0,0,1,.964,1.679,1.343,1.343,0,0,1-1.294,1.046Z" transform="translate(151.505 228)"/></g></svg>