<?xml version="1.0" encoding="utf-8"?>
<!-- Generator: Adobe Illustrator 25.4.1, SVG Export Plug-In . SVG Version: 6.00 Build 0)  -->
<svg version="1.1" xmlns="http://www.w3.org/2000/svg" xmlns:xlink="http://www.w3.org/1999/xlink" x="0px" y="0px"
	 viewBox="0 0 24 24" style="enable-background:new 0 0 24 24;" xml:space="preserve">
<style type="text/css">
	.st0{fill:#FDF0E9;}
	.st1{opacity:0.1;}
	.st2{fill:#0072C6;}
	.st3{fill:#FFFFFF;}
	.st4{fill:#606060;}
	.st5{fill:#ED702D;}
	.st6{fill:none;stroke:#FFFFFF;stroke-width:1.5;stroke-linecap:round;}
</style>
<g id="BG">
</g>
<g id="Icons">
	<g>
		<path class="st4" d="M21.762,6.252H7.2126c-0.1657,0-0.3-0.1343-0.3-0.3v-0.9c0-0.1657,0.1343-0.3,0.3-0.3H21.762
			c0.1657,0,0.3,0.1343,0.3,0.3v0.9C22.062,6.1176,21.9277,6.252,21.762,6.252z"/>
	</g>
	<g>
		<path class="st4" d="M21.762,12.75H7.2126c-0.1657,0-0.3-0.1343-0.3-0.3v-0.9c0-0.1657,0.1343-0.3,0.3-0.3H21.762
			c0.1657,0,0.3,0.1343,0.3,0.3v0.9C22.062,12.6157,21.9277,12.75,21.762,12.75z"/>
	</g>
	<g>
		<path class="st4" d="M21.762,19.248H7.2126c-0.1657,0-0.3-0.1343-0.3-0.3v-0.9c0-0.1657,0.1343-0.3,0.3-0.3H21.762
			c0.1657,0,0.3,0.1343,0.3,0.3v0.9C22.062,19.1137,21.9277,19.248,21.762,19.248z"/>
	</g>
	<g>
		<ellipse class="st4" cx="3.3111" cy="5.5022" rx="1.2491" ry="1.2522"/>
	</g>
	<g>
		<ellipse class="st4" cx="3.3111" cy="12" rx="1.2491" ry="1.2522"/>
	</g>
	<g>
		<ellipse class="st4" cx="3.3111" cy="18.4978" rx="1.2491" ry="1.2522"/>
	</g>
</g>
</svg>
