<?xml version="1.0" encoding="utf-8"?>
<!-- Generator: Adobe Illustrator 25.4.1, SVG Export Plug-In . SVG Version: 6.00 Build 0)  -->
<svg version="1.1" xmlns="http://www.w3.org/2000/svg" xmlns:xlink="http://www.w3.org/1999/xlink" x="0px" y="0px"
	 viewBox="0 0 46 46" style="enable-background:new 0 0 46 46;" xml:space="preserve">
<style type="text/css">
	.st0{fill:#FDF0E9;}
	.st1{opacity:0.1;}
	.st2{fill:#0072C6;}
	.st3{fill:#FFFFFF;}
	.st4{fill:#606060;}
	.st5{fill:#ED702D;}
	.st6{fill:none;stroke:#FFFFFF;stroke-width:1.5;stroke-linecap:round;}
</style>
<g id="BG">
	<g id="Rectangle_14993_00000168832018612543351380000010579480934975539624_">
		<path class="st0" d="M4,0h38c2.2091,0,4,1.7909,4,4v38c0,2.2091-1.7909,4-4,4H4c-2.2091,0-4-1.7909-4-4V4C0,1.7909,1.7909,0,4,0z"
			/>
	</g>
</g>
<g id="Icons">
	<g>
		<path class="st5" d="M32.5,17.502H18.3506c-0.2761,0-0.5-0.2239-0.5-0.5v-1c0-0.2761,0.2239-0.5,0.5-0.5H32.5
			c0.2761,0,0.5,0.2239,0.5,0.5v1C33,17.2781,32.7761,17.502,32.5,17.502z"/>
	</g>
	<g>
		<path class="st5" d="M32.5,24H18.3506c-0.2761,0-0.5-0.2239-0.5-0.5v-1c0-0.2761,0.2239-0.5,0.5-0.5H32.5
			c0.2761,0,0.5,0.2239,0.5,0.5v1C33,23.7761,32.7761,24,32.5,24z"/>
	</g>
	<g>
		<path class="st5" d="M32.5,30.498H18.3506c-0.2761,0-0.5-0.2239-0.5-0.5v-1c0-0.2761,0.2239-0.5,0.5-0.5H32.5
			c0.2761,0,0.5,0.2239,0.5,0.5v1C33,30.2742,32.7761,30.498,32.5,30.498z"/>
	</g>
	<g>
		<ellipse class="st5" cx="14.2491" cy="16.5022" rx="1.2491" ry="1.2522"/>
	</g>
	<g>
		<ellipse class="st5" cx="14.2491" cy="23" rx="1.2491" ry="1.2522"/>
	</g>
	<g>
		<ellipse class="st5" cx="14.2491" cy="29.4978" rx="1.2491" ry="1.2522"/>
	</g>
</g>
</svg>
