<?xml version="1.0" encoding="utf-8"?>
<!-- Generator: Adobe Illustrator 27.3.1, SVG Export Plug-In . SVG Version: 6.00 Build 0)  -->
<svg version="1.1" id="txt" xmlns="http://www.w3.org/2000/svg" xmlns:xlink="http://www.w3.org/1999/xlink" x="0px" y="0px"
	 viewBox="0 0 24 24" style="enable-background:new 0 0 24 24;" xml:space="preserve">
<path style="fill:#F0F0F0;" d="M15.243,8.066c-0.206,0.246-0.546,0.327-0.823,0.204c-0.314-0.139-0.483-0.511-0.375-0.862v-5h-9.8
	c-0.7,0-1.2,0.6-1.2,1.3v16c0,0.7,0.6,1.2,1.2,1.2h13.9c0.7,0,1.2-0.6,1.2-1.2v-11.1C17.978,8.427,16.61,8.246,15.243,8.066z"/>
<g id="Path_54274">
	<path style="fill:#BBBDBF;" d="M14.154,8.207v-5.3l4.5,5.3H14.154z"/>
</g>
<g id="Path_54275">
	<path style="fill:#BBBDBF;" d="M14.454,3.807l3.5,4.1h-3.5V3.807 M13.854,2.007v6.5h5.6L13.854,2.007z"/>
</g>
<path style="fill:#BBBDBF;" d="M17.854,21.407h-13.9c-1,0-1.7-0.8-1.7-1.7v-16.1c0-1,0.8-1.7,1.7-1.7h9.9v1h-9.9
	c-0.4-0.1-0.7,0.3-0.7,0.7v16c0,0.4,0.3,0.7,0.7,0.7h13.9c0.4,0,0.7-0.3,0.7-0.7v-11.1h1v11.1
	C19.554,20.607,18.754,21.407,17.854,21.407z"/>
<path style="fill:#545454;" d="M19.654,21.607h-16.2c-0.8,0-1.4-0.6-1.4-1.4v-8.3c0-0.8,0.6-1.4,1.4-1.4l0,0h16.3
	c0.8,0,1.4,0.6,1.4,1.4v8.3C21.154,21.007,20.454,21.607,19.654,21.607z"/>
<path style="fill:#FFFFFF;" d="M7.654,18.807h-1v-4.2h-1.4v-0.9h3.8v0.9h-1.4V18.807z"/>
<path style="fill:#FFFFFF;" d="M13.854,18.807h-1.2l-1.2-1.9l-1.2,1.9h-1.1l1.7-2.6l-1.6-2.4h1.2l1.1,1.8l1.1-1.8h1.1l-1.6,2.5
	L13.854,18.807z"/>
<path style="fill:#FFFFFF;" d="M16.354,18.807h-1.1v-4.2h-1.4v-0.9h3.8v0.9h-1.4v4.2H16.354z"/>
</svg>
