<?xml version="1.0" encoding="utf-8"?>
<!-- Generator: Adobe Illustrator 25.4.1, SVG Export Plug-In . SVG Version: 6.00 Build 0)  -->
<svg version="1.1" id="Layer_1" xmlns="http://www.w3.org/2000/svg" xmlns:xlink="http://www.w3.org/1999/xlink" x="0px" y="0px"
	 viewBox="0 0 24 24" style="enable-background:new 0 0 24 24;" xml:space="preserve">
<style type="text/css">
	.st0{opacity:0.35;}
	.st1{fill:#0072C6;}
</style>
<g id="Layer_1_00000104679738442443258040000005940420303842383263_">
	<g class="st0">
		<circle class="st1" cx="12" cy="8.816" r="5.057"/>
		<path class="st1" d="M12,0C5.373,0,0,5.372,0,12s5.373,12,12,12s12-5.373,12-12S18.627,0,12,0z M19.604,19.93
			c0.036-0.138,0.071-0.275,0.107-0.413c0-2.071-1.679-3.75-3.75-3.75H7.938c-2.071,0-3.75,1.679-3.75,3.75
			c0.028,0.1,0.056,0.2,0.083,0.299C2.254,17.821,1,15.055,1,12C1,5.935,5.935,1,12,1s11,4.935,11,11
			C23,15.116,21.692,17.927,19.604,19.93z"/>
	</g>
</g>
</svg>
