<?xml version="1.0" encoding="utf-8"?>
<!-- Generator: Adobe Illustrator 25.4.1, SVG Export Plug-In . SVG Version: 6.00 Build 0)  -->
<svg version="1.1" id="Layer_1" xmlns="http://www.w3.org/2000/svg" xmlns:xlink="http://www.w3.org/1999/xlink" x="0px" y="0px"
	 viewBox="0 0 60 60" style="enable-background:new 0 0 60 60;" xml:space="preserve">
<style type="text/css">
	.st0{opacity:0.35;}
	.st1{fill:#0072C6;}
</style>
<g id="Layer_1_00000134208176744420077400000005288948390873353136_">
	<g class="st0">
		<path class="st1" d="M30,8.929c-7.23,0-13.112,5.882-13.112,13.111c0,7.231,5.882,13.112,13.112,13.112
			c7.229,0,13.111-5.882,13.111-13.112C43.112,14.81,37.23,8.929,30,8.929z"/>
		<path class="st1" d="M30,0C13.431,0,0,13.432,0,30c0,9.482,4.404,17.931,11.272,23.428l0.027,0.099l0.154,0.097
			c0.09,0.056,0.185,0.108,0.276,0.164C16.789,57.68,23.122,60,30,60c16.569,0,30-13.431,30-30S46.569,0,30,0z M49.707,48.022
			c-0.395-5.068-4.637-9.074-9.805-9.074H19.845c-5.078,0-9.269,3.865-9.788,8.808C5.847,43.032,3.281,36.811,3.281,30
			C3.281,15.267,15.267,3.281,30,3.281S56.719,15.267,56.719,30C56.719,36.939,54.059,43.267,49.707,48.022z"/>
	</g>
</g>
</svg>
