<?xml version="1.0" encoding="utf-8"?>
<!-- Generator: Adobe Illustrator 25.4.0, SVG Export Plug-In . SVG Version: 6.00 Build 0)  -->
<svg version="1.1" xmlns="http://www.w3.org/2000/svg" xmlns:xlink="http://www.w3.org/1999/xlink" x="0px" y="0px"
	 viewBox="0 0 24 24" enable-background="new 0 0 24 24" xml:space="preserve">
<g id="Layer_3">
</g>
<g id="Layer_4" display="none">
</g>
<g id="Layer_1">
	<g>
		<path fill="#6DAD15" d="M11.646,18.438l-5.823-5.823c-0.195-0.195-0.195-0.512,0-0.707l0.353-0.353
			c0.195-0.195,0.512-0.195,0.707,0L12,16.67l5.116-5.116c0.195-0.195,0.512-0.195,0.707,0l0.353,0.353
			c0.195,0.195,0.195,0.512,0,0.707l-5.823,5.823C12.158,18.633,11.841,18.633,11.646,18.438z"/>
	</g>
	<g>
		<path fill="#6DAD15" d="M11.646,12.977L5.823,7.153c-0.195-0.195-0.195-0.512,0-0.707l0.353-0.353
			c0.195-0.195,0.512-0.195,0.707,0L12,11.209l5.116-5.116c0.195-0.195,0.512-0.195,0.707,0l0.353,0.353
			c0.195,0.195,0.195,0.512,0,0.707l-5.823,5.823C12.158,13.172,11.841,13.172,11.646,12.977z"/>
	</g>
</g>
</svg>
