<?xml version="1.0" encoding="utf-8"?>
<!-- Generator: Adobe Illustrator 26.3.1, SVG Export Plug-In . SVG Version: 6.00 Build 0)  -->
<svg version="1.1" xmlns="http://www.w3.org/2000/svg" xmlns:xlink="http://www.w3.org/1999/xlink" x="0px" y="0px"
	 viewBox="0 0 14 14" style="enable-background:new 0 0 14 14;" xml:space="preserve">
<style type="text/css">
	.st0{fill:none;}
	.st1{fill:#0072C6;}
	.st2{fill:#606060;}
	.st3{fill:#C4C4C4;}
	.st4{fill-rule:evenodd;clip-rule:evenodd;fill:#606060;}
	.st5{fill:none;stroke:#606060;stroke-linecap:round;stroke-miterlimit:10;}
	.st6{fill:#FFFFFF;}
	.st7{fill-rule:evenodd;clip-rule:evenodd;fill:#D53D3D;}
	.st8{fill:#D53D3D;}
	.st9{fill-rule:evenodd;clip-rule:evenodd;fill:#0D6F08;}
	.st10{fill-rule:evenodd;clip-rule:evenodd;fill:#F0A229;}
	.st11{fill-rule:evenodd;clip-rule:evenodd;fill:#06BBC2;}
	.st12{fill-rule:evenodd;clip-rule:evenodd;fill:#6DAD15;}
	.st13{fill:#06BBC2;}
	.st14{opacity:0.2;fill:#06BBC2;enable-background:new    ;}
	.st15{fill:#F0A229;}
	.st16{opacity:0.2;fill:#F0A229;enable-background:new    ;}
	.st17{fill:#6DAD15;}
	.st18{opacity:0.2;fill:#6DAD15;enable-background:new    ;}
	.st19{fill:none;stroke:#F7931E;stroke-width:1.5;stroke-miterlimit:10;}
	.st20{fill:none;stroke:#000000;stroke-width:1.5;stroke-miterlimit:10;}
</style>
<g id="Outline">
	<rect class="st0" width="14" height="14"/>
</g>
<g id="Rough">
</g>
<g id="Icons">
	<path class="st2" d="M7.6,1.6483l-0.2017,2.038c-0.0349,0.4713-0.7636,0.4664-0.7966,0c0,0-0.2017-2.038-0.2017-2.038
		C6.3301,0.7843,7.6698,0.7835,7.6,1.6483L7.6,1.6483z"/>
	<path class="st2" d="M6.4,12.3517l0.2017-2.038c0.0349-0.4713,0.7636-0.4664,0.7966,0c0,0,0.2017,2.038,0.2017,2.038
		C7.6699,13.2157,6.3302,13.2165,6.4,12.3517L6.4,12.3517z"/>
	<path class="st2" d="M1.6483,6.4l2.038,0.2017c0.4713,0.0349,0.4664,0.7636,0,0.7966c0,0-2.038,0.2017-2.038,0.2017
		C0.7843,7.6699,0.7835,6.3302,1.6483,6.4L1.6483,6.4z"/>
	<path class="st2" d="M12.3517,7.6l-2.038-0.2017c-0.4713-0.0349-0.4664-0.7636,0-0.7966c0,0,2.038-0.2017,2.038-0.2017
		C13.2157,6.3301,13.2165,7.6698,12.3517,7.6L12.3517,7.6z"/>
	<path class="st2" d="M11.2085,3.64L9.6248,4.9385C9.4538,5.0787,9.2016,5.0537,9.0615,4.8828c-0.1231-0.1501-0.1187-0.363,0-0.5075
		L10.36,2.7915C10.9214,2.1312,11.8694,3.0778,11.2085,3.64L11.2085,3.64z"/>
	<path class="st2" d="M2.7915,10.36l1.5837-1.2985c0.1709-0.1402,0.4231-0.1152,0.5633,0.0557c0.1231,0.1501,0.1187,0.363,0,0.5075
		L3.64,11.2085C3.0786,11.8688,2.1306,10.9222,2.7915,10.36L2.7915,10.36z"/>
	<path class="st2" d="M10.36,11.2085L9.0615,9.6247C8.9213,9.4538,8.9463,9.2016,9.1172,9.0615c0.1501-0.1231,0.363-0.1187,0.5075,0
		l1.5837,1.2985C11.8688,10.9214,10.9222,11.8694,10.36,11.2085L10.36,11.2085z"/>
	<path class="st2" d="M3.64,2.7915l1.2985,1.5837c0.1402,0.1709,0.1152,0.4231-0.0557,0.5633c-0.1501,0.1231-0.363,0.1187-0.5075,0
		L2.7915,3.64C2.1312,3.0786,3.0778,2.1306,3.64,2.7915L3.64,2.7915z"/>
</g>
</svg>
