<?xml version="1.0" encoding="utf-8"?>
<!-- Generator: Adobe Illustrator 25.4.0, SVG Export Plug-In . SVG Version: 6.00 Build 0)  -->
<svg version="1.1" xmlns="http://www.w3.org/2000/svg" xmlns:xlink="http://www.w3.org/1999/xlink" x="0px" y="0px"
	 viewBox="0 0 24 24" enable-background="new 0 0 24 24" xml:space="preserve">
<g id="Layer_3">
</g>
<g id="Layer_4" display="none">
</g>
<g id="Layer_1">
	<g>
		<path d="M18,9.45h-1.272V7.095c0-2.672-2.117-4.845-4.719-4.845c-2.646,0-4.719,2.055-4.719,4.678c0,0.452-0.005,1.138-0.01,1.789
			C7.278,8.974,7.277,9.221,7.275,9.45H6c-0.744,0-1.35,0.605-1.35,1.35v9.6c0,0.745,0.605,1.35,1.35,1.35h12
			c0.745,0,1.351-0.605,1.351-1.35v-9.6C19.35,10.055,18.745,9.45,18,9.45z M8.78,8.727c0.005-0.654,0.01-1.345,0.01-1.799
			c0-1.782,1.414-3.178,3.219-3.178c1.774,0,3.219,1.5,3.219,3.345V9.45H8.775C8.777,9.224,8.778,8.98,8.78,8.727z M17.85,20.25
			H6.15v-9.3h11.7V20.25z"/>
		<path d="M12,17.55c1.075,0,1.95-0.875,1.95-1.95s-0.875-1.95-1.95-1.95s-1.95,0.875-1.95,1.95S10.925,17.55,12,17.55z M12,15.15
			c0.248,0,0.45,0.202,0.45,0.45s-0.202,0.45-0.45,0.45s-0.45-0.202-0.45-0.45S11.752,15.15,12,15.15z"/>
	</g>
</g>
</svg>
