<?xml version="1.0" encoding="utf-8"?>
<!-- Generator: Adobe Illustrator 27.4.0, SVG Export Plug-In . SVG Version: 6.00 Build 0)  -->
<svg version="1.1" id="Layer_1" xmlns="http://www.w3.org/2000/svg" xmlns:xlink="http://www.w3.org/1999/xlink" x="0px" y="0px"
	 viewBox="0 0 20 20" style="enable-background:new 0 0 20 20;" xml:space="preserve">
<path style="fill:#606060;" d="M5.12,7.326H4.254c-0.185,0-0.335,0.15-0.335,0.335v0.867c0,0.185,0.15,0.335,0.335,0.335H5.12
	c0.185,0,0.335-0.15,0.335-0.335V7.662C5.456,7.476,5.306,7.326,5.12,7.326z"/>
<path style="fill:#606060;" d="M5.12,11.071H4.254c-0.185,0-0.335,0.15-0.335,0.335v0.867c0,0.185,0.15,0.335,0.335,0.335H5.12
	c0.185,0,0.335-0.15,0.335-0.335v-0.867C5.456,11.221,5.306,11.071,5.12,11.071z"/>
<path style="fill:#606060;" d="M7.634,8.595h4.471c0.138,0,0.25-0.112,0.25-0.25v-0.5c0-0.138-0.112-0.25-0.25-0.25H7.634
	c-0.138,0-0.25,0.112-0.25,0.25v0.5C7.384,8.483,7.496,8.595,7.634,8.595z"/>
<path style="fill:#606060;" d="M12.27,11.41c-0.35,0.26-0.66,0.58-0.91,0.93H7.63c-0.13,0-0.25-0.11-0.25-0.25v-0.5
	c0-0.14,0.12-0.25,0.25-0.25h4.47C12.17,11.34,12.22,11.36,12.27,11.41z"/>
<path style="fill:#606060;" d="M14.7,15.37v0.43c0.02-0.09,0.03-0.2,0.03-0.3v-0.13H14.7z M13.23,1.9h-1.87
	C11.29,1.39,10.87,1,10.34,1H5.61C5.09,1,4.67,1.39,4.59,1.9H2.77c-0.83,0-1.5,0.67-1.5,1.5v12.1c0,0.83,0.67,1.5,1.5,1.5h7.98
	c-0.13-0.31-0.22-0.65-0.28-1h-7.7c-0.28,0-0.5-0.22-0.5-0.5V3.4c0-0.28,0.22-0.5,0.5-0.5h1.79v0.09c0,0.58,0.47,1.05,1.05,1.05
	h4.73c0.58,0,1.06-0.47,1.06-1.05V2.9h1.83c0.28,0,0.5,0.22,0.5,0.5v7.24c0.32-0.11,0.65-0.18,1-0.22V3.4
	C14.73,2.57,14.06,1.9,13.23,1.9z M10.4,2.99c0,0.03-0.03,0.05-0.06,0.05L5.56,2.99L5.61,2l4.79,0.05V2.99z"/>
<path style="fill:#FFFFFF;" d="M12.9,12.29v2.15h1v-2.15H12.9z"/>
<rect x="14.7" y="15.37" style="fill:#FFFFFF;" width="1" height="2.15"/>
<path style="fill:#606060;" d="M17.49,12.56c-0.27-0.24-0.58-0.44-0.92-0.58c-0.42-0.18-0.89-0.28-1.37-0.28
	c-0.16,0-0.32,0.01-0.47,0.04c-0.35,0.04-0.69,0.14-1,0.29c-0.75,0.34-1.36,0.95-1.71,1.7c-0.13,0.29-0.23,0.6-0.27,0.92
	c-0.04,0.18-0.05,0.36-0.05,0.55c0,0.28,0.03,0.54,0.09,0.8c0.08,0.36,0.22,0.69,0.41,1c0.14,0.24,0.31,0.46,0.51,0.66
	c0.43,0.43,0.96,0.75,1.56,0.91c0.29,0.09,0.61,0.13,0.93,0.13s0.63-0.04,0.93-0.13c0.39-0.1,0.75-0.28,1.07-0.51
	c0.91-0.63,1.5-1.68,1.5-2.86C18.7,14.15,18.23,13.2,17.49,12.56z M15.7,17.52h-1v-2.15h1V17.52z M15.22,14.37
	c-0.01,0-0.01,0-0.02,0c-0.18,0-0.35-0.06-0.47-0.16c-0.15-0.12-0.24-0.29-0.27-0.48c-0.01-0.03-0.01-0.07-0.01-0.11
	c0-0.23,0.11-0.44,0.28-0.58c0.12-0.11,0.29-0.17,0.47-0.17c0.41,0,0.75,0.34,0.75,0.75C15.95,14.03,15.62,14.36,15.22,14.37z"/>
<path style="fill:#FFFFFF;" d="M15.95,13.62c0,0.41-0.33,0.74-0.73,0.75c-0.01,0-0.01,0-0.02,0c-0.18,0-0.35-0.06-0.47-0.16
	c-0.15-0.12-0.24-0.29-0.27-0.48c-0.01-0.03-0.01-0.07-0.01-0.11c0-0.23,0.11-0.44,0.28-0.58c0.12-0.11,0.29-0.17,0.47-0.17
	C15.61,12.87,15.95,13.21,15.95,13.62z"/>
</svg>
