<?xml version="1.0" encoding="utf-8"?>
<!-- Generator: Adobe Illustrator 25.4.0, SVG Export Plug-In . SVG Version: 6.00 Build 0)  -->
<svg version="1.1" xmlns="http://www.w3.org/2000/svg" xmlns:xlink="http://www.w3.org/1999/xlink" x="0px" y="0px"
	 viewBox="0 0 24 24" enable-background="new 0 0 24 24" xml:space="preserve">
<g id="Layer_3">
</g>
<g id="Layer_4" display="none">
</g>
<g id="Layer_1">
	<path fill="#F0A229" d="M19.821,17.903l-3.444-5.965l-3.444-5.965c-0.235-0.407-0.823-0.407-1.059,0l-3.444,5.965l-3.444,5.965
		c-0.235,0.408,0.059,0.917,0.529,0.917h6.888h6.888C19.763,18.82,20.057,18.311,19.821,17.903z M13.361,17.346
		c0,0.162-0.057,0.301-0.171,0.414c-0.115,0.115-0.252,0.171-0.414,0.171H12.19c-0.162,0-0.301-0.056-0.414-0.171
		c-0.113-0.113-0.171-0.252-0.171-0.414v-0.501c0.005-0.162,0.066-0.303,0.181-0.421c0.116-0.118,0.255-0.178,0.418-0.178h0.558
		c0.162,0,0.303,0.059,0.421,0.174c0.118,0.116,0.178,0.253,0.178,0.411V17.346z M13.089,13.821
		c-0.013,0.167-0.076,0.307-0.187,0.418c-0.112,0.112-0.245,0.167-0.398,0.167c-0.172,0-0.313-0.057-0.421-0.174
		c-0.11-0.116-0.168-0.253-0.178-0.411l-0.285-4.55c-0.01-0.159,0.045-0.295,0.164-0.412c0.118-0.116,0.259-0.174,0.421-0.174h0.585
		c0.162,0,0.303,0.062,0.421,0.185c0.119,0.123,0.173,0.261,0.164,0.414L13.089,13.821z"/>
</g>
</svg>
