<svg id="Layer_1" data-name="Layer 1" xmlns="http://www.w3.org/2000/svg" xmlns:xlink="http://www.w3.org/1999/xlink" viewBox="0 0 262.5 320"><defs><clipPath id="clip-path"><rect x="218.28" y="186.35" width="13.9" height="13.9" rx="2" fill="none"/></clipPath><clipPath id="clip-path-2"><rect x="232.18" y="243.33" width="13.9" height="13.9" rx="2" fill="none"/></clipPath><clipPath id="clip-path-3"><rect x="218.28" y="72.39" width="13.9" height="13.9" rx="2" fill="none"/></clipPath><clipPath id="clip-path-4"><rect x="232.18" y="72.39" width="13.9" height="13.9" rx="2" fill="none"/></clipPath></defs><g id="Group_59835" data-name="Group 59835"><rect id="Rectangle_14878" data-name="Rectangle 14878" x="6.5" y="5" width="250" height="310" rx="4" fill="#fff" stroke="#eaeaea" stroke-miterlimit="10"/><path id="Icon_awesome-sort-amount-down" data-name="Icon awesome-sort-amount-down" d="M215.83,27.58h-1.56a.39.39,0,0,0-.4.39v.78a.4.4,0,0,0,.4.39h1.56a.4.4,0,0,0,.39-.39V28A.39.39,0,0,0,215.83,27.58ZM212.7,26h-1.17V18.59a.39.39,0,0,0-.39-.39h-.78a.38.38,0,0,0-.39.39h0V26h-1.18a.4.4,0,0,0-.39.39.36.36,0,0,0,.12.28L210.47,29a.39.39,0,0,0,.55,0h0l2-2.35a.39.39,0,0,0,0-.55A.36.36,0,0,0,212.7,26ZM219,21.32h-4.69a.4.4,0,0,0-.4.39v.79a.4.4,0,0,0,.4.39H219a.4.4,0,0,0,.39-.39v-.79a.4.4,0,0,0-.39-.39Zm-1.57,3.13h-3.12a.39.39,0,0,0-.4.39v.78a.4.4,0,0,0,.4.39h3.12a.39.39,0,0,0,.39-.39v-.78a.38.38,0,0,0-.38-.39Zm3.13-6.25h-6.25a.39.39,0,0,0-.4.39v.78a.4.4,0,0,0,.4.39h6.25a.39.39,0,0,0,.39-.39v-.78a.38.38,0,0,0-.39-.39Z"/><path id="Icon_feather-filter" data-name="Icon feather-filter" d="M241.6,19.15H230.5l4.44,5.25V28l2.22,1.11V24.4Z" fill="none" stroke="#000" stroke-linecap="round" stroke-linejoin="round" stroke-width="1.5"/><g id="N_Work_Items" data-name="N Work Items" style="isolation:isolate"><text transform="translate(17.46 26.5)" font-size="8" fill="#222" font-family="OpenSans, Open Sans" letter-spacing="0.01em" style="isolation:isolate">N Work Items</text></g><g id="Work_Item_2" data-name="Work Item 2" style="isolation:isolate"><text transform="translate(38.31 110.88)" font-size="9" font-family="OpenSans-Semibold, Open Sans" font-weight="600" letter-spacing="0.01em" style="isolation:isolate">Work Item 2</text></g><g id="Group_59824" data-name="Group 59824"><path id="Path_53741" data-name="Path 53741" d="M20.94,109.05l4.17-4,4.17,4" fill="none" stroke="#c54944" stroke-linecap="round" stroke-linejoin="round"/><path id="Path_53742" data-name="Path 53742" d="M20.94,113.39l4.17-4,4.17,4" fill="none" stroke="#c54944" stroke-linecap="round" stroke-linejoin="round"/></g><path id="Path_53743" data-name="Path 53743" d="M256.5,150.57H6" fill="none" stroke="#f0f0f0"/><g id="Work_Item_3" data-name="Work Item 3" style="isolation:isolate"><text transform="translate(38.31 167.86)" font-size="9" font-family="OpenSans-Semibold, Open Sans" font-weight="600" letter-spacing="0.01em" style="isolation:isolate">Work Item 3</text></g><g clip-path="url(#clip-path)"><g id="Mask_Group_130" data-name="Mask Group 130"><g id="_" data-name=" " style="isolation:isolate"><text transform="translate(223.15 197.15)" font-size="12" fill="#d53d3d" font-family="OpenSans-Bold, Open Sans" font-weight="700" letter-spacing="0.01em" style="isolation:isolate">!</text></g></g></g><path id="Path_53744" data-name="Path 53744" d="M256.5,207.55H6" fill="none" stroke="#f0f0f0"/><path id="Path_53744-2" data-name="Path 53744" d="M256.5,267.55H6" fill="none" stroke="#f0f0f0"/><g id="Work_Item_4" data-name="Work Item 4" style="isolation:isolate"><text transform="translate(38.31 224.84)" font-size="9" font-family="OpenSans-Semibold, Open Sans" font-weight="600" letter-spacing="0.01em" style="isolation:isolate">Work Item 4</text></g><g id="Home" style="isolation:isolate"><text transform="translate(28.46 307.56)" font-size="7" fill="#0072c6" font-family="OpenSans, Open Sans" letter-spacing="0.01em" style="isolation:isolate">Home</text></g><g id="Recents" style="isolation:isolate"><text transform="translate(85.44 307.56)" font-size="7" fill="#606060" font-family="OpenSans, Open Sans" letter-spacing="0.01em" style="isolation:isolate">Recents</text></g><g id="Dashboard" style="isolation:isolate"><text transform="translate(140.14 307.56)" font-size="7" fill="#606060" font-family="OpenSans, Open Sans" letter-spacing="0.01em" style="isolation:isolate">Dashboard</text></g><g id="Calendar" style="isolation:isolate"><text transform="translate(203.53 307.56)" font-size="7" fill="#606060" font-family="OpenSans, Open Sans" letter-spacing="0.01em" style="isolation:isolate">Calendar</text></g><g clip-path="url(#clip-path-2)"><g id="Mask_Group_131" data-name="Mask Group 131"><g id="Icon_feather-lock" data-name="Icon feather-lock" opacity="0.4"><path id="Path_53745" data-name="Path 53745" d="M235.44,249.62h7.16a1,1,0,0,1,1,1h0v3.58a1,1,0,0,1-1,1h-7.16a1,1,0,0,1-1-1h0v-3.58a1,1,0,0,1,1-1Z" fill="none" stroke="#000" stroke-linecap="round" stroke-linejoin="round"/><path id="Path_53746" data-name="Path 53746" d="M236.46,249.62v-2.05a2.56,2.56,0,0,1,5.12,0v2.05" fill="none" stroke="#000" stroke-linecap="round" stroke-linejoin="round"/></g></g></g><g id="Group_59825" data-name="Group 59825"><path id="Path_53748" data-name="Path 53748" d="M20.94,225.09l4.17-4,4.17,4" fill="none" stroke="#ea9624" stroke-linecap="round" stroke-linejoin="round"/></g><g id="Group_59826" data-name="Group 59826"><path id="Path_53749" data-name="Path 53749" d="M20.94,166.38l4.17,4,4.17-4" fill="none" stroke="#326d1f" stroke-linecap="round" stroke-linejoin="round"/><path id="Path_53750" data-name="Path 53750" d="M20.94,162l4.17,4,4.17-4" fill="none" stroke="#326d1f" stroke-linecap="round" stroke-linejoin="round"/></g><path id="Path_53495" data-name="Path 53495" d="M256.5,36.61H6" fill="none" stroke="#f0f0f0"/><g id="Work_Item_1" data-name="Work Item 1" style="isolation:isolate"><text transform="translate(38.31 53.9)" font-size="9" font-family="OpenSans-Semibold, Open Sans" font-weight="600" letter-spacing="0.01em" style="isolation:isolate">Work Item 1</text></g><g clip-path="url(#clip-path-3)"><g id="Mask_Group_21" data-name="Mask Group 21"><g id="_2" data-name=" 2" style="isolation:isolate"><text transform="translate(223.15 83.19)" font-size="12" fill="#d53d3d" font-family="OpenSans-Bold, Open Sans" font-weight="700" letter-spacing="0.01em" style="isolation:isolate">!</text></g></g></g><g clip-path="url(#clip-path-4)"><g id="Mask_Group_20" data-name="Mask Group 20"><g id="Icon_feather-lock-2" data-name="Icon feather-lock-2" opacity="0.4"><path id="Path_53405" data-name="Path 53405" d="M235.44,78.68h7.16a1,1,0,0,1,1,1h0v3.59a1,1,0,0,1-1,1h-7.16a1,1,0,0,1-1-1h0V79.7a1,1,0,0,1,1-1Z" fill="none" stroke="#000" stroke-linecap="round" stroke-linejoin="round"/><path id="Path_53406" data-name="Path 53406" d="M236.46,78.68V76.63a2.56,2.56,0,1,1,5.12,0v2.05" fill="none" stroke="#000" stroke-linecap="round" stroke-linejoin="round"/></g></g></g><g id="Group_52423" data-name="Group 52423"><path id="Path_53449" data-name="Path 53449" d="M20.94,52.07l4.17-4,4.17,4" fill="none" stroke="#c54944" stroke-linecap="round" stroke-linejoin="round"/><path id="Path_53450" data-name="Path 53450" d="M20.94,56.41l4.17-4,4.17,4" fill="none" stroke="#c54944" stroke-linecap="round" stroke-linejoin="round"/></g><path id="Path_53495-2" data-name="Path 53495-2" d="M256.5,93.59H6" fill="none" stroke="#f0f0f0"/><g id="Group_52420" data-name="Group 52420"><circle id="Ellipse_2398" data-name="Ellipse 2398" cx="240.52" cy="48.07" r="1.04" fill="#767676"/><circle id="Ellipse_2399" data-name="Ellipse 2399" cx="240.52" cy="51.55" r="1.04" fill="#767676"/><circle id="Ellipse_2400" data-name="Ellipse 2400" cx="240.52" cy="55.02" r="1.04" fill="#767676"/></g><g id="Group_59828" data-name="Group 59828"><circle id="Ellipse_2398-2" data-name="Ellipse 2398-2" cx="240.52" cy="162.03" r="1.04" fill="#767676"/><circle id="Ellipse_2399-2" data-name="Ellipse 2399-2" cx="240.52" cy="165.51" r="1.04" fill="#767676"/><circle id="Ellipse_2400-2" data-name="Ellipse 2400-2" cx="240.52" cy="168.98" r="1.04" fill="#767676"/></g><g id="Group_59829" data-name="Group 59829"><circle id="Ellipse_2398-3" data-name="Ellipse 2398-3" cx="240.52" cy="104.36" r="1.04" fill="#767676"/><circle id="Ellipse_2399-3" data-name="Ellipse 2399-3" cx="240.52" cy="107.83" r="1.04" fill="#767676"/><circle id="Ellipse_2400-3" data-name="Ellipse 2400-3" cx="240.52" cy="111.31" r="1.04" fill="#767676"/></g><g id="Group_59830" data-name="Group 59830"><circle id="Ellipse_2398-4" data-name="Ellipse 2398-4" cx="240.52" cy="218.32" r="1.04" fill="#767676"/><circle id="Ellipse_2399-4" data-name="Ellipse 2399-4" cx="240.52" cy="221.79" r="1.04" fill="#767676"/><circle id="Ellipse_2400-4" data-name="Ellipse 2400-4" cx="240.52" cy="225.27" r="1.04" fill="#767676"/></g><rect id="Rectangle_14882" data-name="Rectangle 14882" x="29.5" y="277" width="18" height="18" fill="#f7f7f7"/><rect id="Rectangle_14883" data-name="Rectangle 14883" x="89.5" y="277" width="18" height="18" fill="#f7f7f7"/><rect id="Rectangle_14884" data-name="Rectangle 14884" x="149.5" y="277" width="18" height="18" fill="#f7f7f7"/><rect id="Rectangle_14885" data-name="Rectangle 14885" x="209.5" y="277" width="18" height="18" fill="#f7f7f7"/><g id="Group_59831" data-name="Group 59831"><rect id="Rectangle_14886" data-name="Rectangle 14886" x="38.5" y="62" width="40" height="9" fill="#f0f0f0"/><rect id="Rectangle_14889" data-name="Rectangle 14889" x="98.5" y="62" width="34" height="9" fill="#d3d3d3"/><rect id="Rectangle_14887" data-name="Rectangle 14887" x="38.5" y="77" width="40" height="9" fill="#f0f0f0"/><rect id="Rectangle_14888" data-name="Rectangle 14888" x="98.5" y="77" width="65" height="9" fill="#d3d3d3"/></g><g id="Group_59832" data-name="Group 59832"><rect id="Rectangle_14886-2" data-name="Rectangle 14886-2" x="38.5" y="119" width="40" height="9" fill="#f0f0f0"/><rect id="Rectangle_14889-2" data-name="Rectangle 14889-2" x="98.5" y="119" width="34" height="9" fill="#d3d3d3"/><rect id="Rectangle_14887-2" data-name="Rectangle 14887-2" x="38.5" y="134" width="40" height="9" fill="#f0f0f0"/><rect id="Rectangle_14888-2" data-name="Rectangle 14888-2" x="98.5" y="134" width="65" height="9" fill="#d3d3d3"/></g><g id="Group_59833" data-name="Group 59833"><rect id="Rectangle_14886-3" data-name="Rectangle 14886-3" x="38.5" y="175" width="40" height="9" fill="#f0f0f0"/><rect id="Rectangle_14889-3" data-name="Rectangle 14889-3" x="98.5" y="175" width="34" height="9" fill="#d3d3d3"/><rect id="Rectangle_14887-3" data-name="Rectangle 14887-3" x="38.5" y="190" width="40" height="9" fill="#f0f0f0"/><rect id="Rectangle_14888-3" data-name="Rectangle 14888-3" x="98.5" y="190" width="65" height="9" fill="#d3d3d3"/></g><g id="Group_59834" data-name="Group 59834"><rect id="Rectangle_14886-4" data-name="Rectangle 14886-4" x="38.5" y="232" width="40" height="9" fill="#f0f0f0"/><rect id="Rectangle_14889-4" data-name="Rectangle 14889-4" x="98.5" y="232" width="34" height="9" fill="#d3d3d3"/><rect id="Rectangle_14887-4" data-name="Rectangle 14887-4" x="38.5" y="247" width="40" height="9" fill="#f0f0f0"/><rect id="Rectangle_14888-4" data-name="Rectangle 14888-4" x="98.5" y="247" width="65" height="9" fill="#d3d3d3"/></g></g></svg>