<?xml version="1.0" encoding="utf-8"?>
<!-- Generator: Adobe Illustrator 27.3.1, SVG Export Plug-In . SVG Version: 6.00 Build 0)  -->
<svg version="1.1" id="xls" xmlns="http://www.w3.org/2000/svg" xmlns:xlink="http://www.w3.org/1999/xlink" x="0px" y="0px"
	 viewBox="0 0 24 24" style="enable-background:new 0 0 24 24;" xml:space="preserve">
<g id="Layer_2_00000041997405787208299010000000974437217311144085_">
	<g id="Rectangle_18362">
		<rect style="fill:none;" width="24" height="24"/>
	</g>
</g>
<g id="Layer_4" transform="translate(0.054 -0.393)">
	<g id="Path_54273">
		<path style="fill:#F0F0F0;" d="M14.9,8.9c-0.6,0-1.2-0.5-1.2-1.2v-5H3.9C3.2,2.7,2.7,3.3,2.7,4v16c0,0.7,0.6,1.2,1.2,1.2h13.9
			c0.7,0,1.2-0.6,1.2-1.2V8.9H14.9z"/>
	</g>
	<g id="Group_65280">
		<g id="Path_54274">
			<path style="fill:#BBBDBF;" d="M14.1,8.6V3.3l4.5,5.3H14.1z"/>
		</g>
		<g id="Path_54275">
			<path style="fill:#BBBDBF;" d="M14.4,4.2l3.5,4.1h-3.5V4.2 M13.8,2.4v6.5h5.6L13.8,2.4z"/>
		</g>
	</g>
	<g id="Path_54276">
		<path style="fill:#BBBDBF;" d="M17.8,21.8H3.9c-1,0-1.7-0.8-1.7-1.7V4c0-1,0.8-1.7,1.7-1.7h9.9v1H3.9C3.5,3.2,3.2,3.6,3.2,4v16
			c0,0.4,0.3,0.7,0.7,0.7h13.9c0.4,0,0.7-0.3,0.7-0.7V8.9h1V20C19.5,21,18.7,21.8,17.8,21.8z"/>
	</g>
	<g id="Path_54277">
		<path style="fill:#12B700;" d="M19.6,22H3.4C2.6,22,2,21.4,2,20.6v-8.3c0-0.8,0.6-1.4,1.4-1.4l0,0h16.3c0.8,0,1.4,0.6,1.4,1.4v8.3
			C21.1,21.4,20.4,22,19.6,22z"/>
	</g>
	<g style="enable-background:new    ;">
		<path style="fill:#FFFFFF;" d="M9.7,19.2H8.3L6.9,17l-1.3,2.2H4.3l1.9-2.9l-1.8-2.8h1.3l1.3,2l1.2-2.1h1.3l-1.8,2.8L9.7,19.2z"/>
		<path style="fill:#FFFFFF;" d="M10.4,19.2v-5.7h1.2v4.7h2.3v1H10.4z"/>
		<path style="fill:#FFFFFF;" d="M18.3,17.6c0,0.5-0.2,0.9-0.6,1.2s-0.9,0.4-1.5,0.4s-1.1-0.1-1.6-0.3v-1.1c0.4,0.2,0.7,0.3,1,0.4
			s0.5,0.1,0.7,0.1c0.3,0,0.5-0.1,0.6-0.2s0.2-0.3,0.2-0.5c0-0.1,0-0.2-0.1-0.3s-0.2-0.2-0.3-0.3s-0.4-0.2-0.7-0.4
			c-0.3-0.2-0.6-0.3-0.8-0.5c-0.2-0.2-0.3-0.3-0.4-0.5s-0.2-0.4-0.2-0.7c0-0.5,0.2-0.9,0.5-1.2s0.8-0.4,1.4-0.4c0.3,0,0.6,0,0.8,0.1
			s0.6,0.2,0.8,0.3l-0.4,0.9c-0.3-0.1-0.6-0.2-0.8-0.3s-0.4-0.1-0.6-0.1s-0.4,0.1-0.5,0.2c-0.1,0.1-0.2,0.2-0.2,0.4
			c0,0.1,0,0.2,0.1,0.3s0.1,0.2,0.2,0.2c0.1,0.1,0.4,0.2,0.8,0.4c0.5,0.3,0.9,0.5,1.1,0.8S18.3,17.2,18.3,17.6z"/>
	</g>
</g>
</svg>
