<?xml version="1.0" encoding="utf-8"?>
<!-- Generator: Adobe Illustrator 27.3.1, SVG Export Plug-In . SVG Version: 6.00 Build 0)  -->
<svg version="1.1" id="xls" xmlns="http://www.w3.org/2000/svg" xmlns:xlink="http://www.w3.org/1999/xlink" x="0px" y="0px"
	 viewBox="0 0 24 24" style="enable-background:new 0 0 24 24;" xml:space="preserve">
<rect style="fill:none;" width="24" height="24"/>
<path style="fill:#F0F0F0;" d="M14.954,8.507c-0.6,0-1.2-0.5-1.2-1.2v-5h-9.8c-0.7,0-1.2,0.6-1.2,1.3v16c0,0.7,0.6,1.2,1.2,1.2h13.9
	c0.7,0,1.2-0.6,1.2-1.2v-11.1H14.954z"/>
<g id="Path_54274">
	<path style="fill:#BBBDBF;" d="M14.154,8.207v-5.3l4.5,5.3H14.154z"/>
</g>
<g id="Path_54275">
	<path style="fill:#BBBDBF;" d="M14.454,3.807l3.5,4.1h-3.5V3.807 M13.854,2.007v6.5h5.6L13.854,2.007z"/>
</g>
<path style="fill:#BBBDBF;" d="M17.854,21.407h-13.9c-1,0-1.7-0.8-1.7-1.7v-16.1c0-1,0.8-1.7,1.7-1.7h9.9v1h-9.9
	c-0.4-0.1-0.7,0.3-0.7,0.7v16c0,0.4,0.3,0.7,0.7,0.7h13.9c0.4,0,0.7-0.3,0.7-0.7v-11.1h1v11.1
	C19.554,20.607,18.754,21.407,17.854,21.407z"/>
<path style="fill:#12B700;" d="M19.654,21.607h-16.2c-0.8,0-1.4-0.6-1.4-1.4v-8.3c0-0.8,0.6-1.4,1.4-1.4l0,0h16.3
	c0.8,0,1.4,0.6,1.4,1.4v8.3C21.154,21.007,20.454,21.607,19.654,21.607z"/>
<path style="fill:#FFFFFF;" d="M8.076,18.815H6.904l-1.172-1.842l-1.088,1.842H3.555l1.591-2.428l-1.507-2.344h1.088l1.088,1.674
	L6.82,13.96h1.088l-1.507,2.344L8.076,18.815z"/>
<path style="fill:#FFFFFF;" d="M16.531,18.857h-1.172l-1.172-1.842l-1.088,1.842H12.01l1.591-2.428l-1.507-2.344h1.088l1.088,1.674
	l1.005-1.758h1.088l-1.507,2.344L16.531,18.857z"/>
<path style="fill:#FFFFFF;" d="M8.662,18.815v-4.772h1.005v3.934h1.925v0.837L8.662,18.815L8.662,18.815z"/>
<path style="fill:#FFFFFF;" d="M20.001,17.476c0,0.419-0.167,0.753-0.502,1.005c-0.335,0.251-0.753,0.335-1.256,0.335
	c-0.502,0-0.921-0.084-1.339-0.251v-0.921c0.335,0.167,0.586,0.251,0.837,0.335s0.419,0.084,0.586,0.084
	c0.251,0,0.419-0.084,0.502-0.167s0.167-0.251,0.167-0.419c0-0.084,0-0.167-0.084-0.251s-0.167-0.167-0.251-0.251
	s-0.335-0.167-0.586-0.335c-0.251-0.167-0.502-0.251-0.67-0.419c-0.167-0.167-0.251-0.251-0.335-0.419
	c-0.084-0.167-0.167-0.335-0.167-0.586c0-0.419,0.167-0.753,0.419-1.005c0.251-0.251,0.67-0.335,1.172-0.335
	c0.251,0,0.502,0,0.67,0.084c0.167,0.084,0.502,0.167,0.67,0.251l-0.335,0.753c-0.251-0.084-0.502-0.167-0.67-0.251
	c-0.167-0.084-0.335-0.084-0.502-0.084c-0.167,0-0.335,0.084-0.419,0.167c-0.084,0.084-0.167,0.167-0.167,0.335
	c0,0.084,0,0.167,0.084,0.251c0.084,0.084,0.084,0.167,0.167,0.167c0.084,0.084,0.335,0.167,0.67,0.335
	c0.419,0.251,0.753,0.419,0.921,0.67C19.75,16.806,20.001,17.141,20.001,17.476z"/>
</svg>
